<?xml version="1.0" standalone="no"?>
<!DOCTYPE svg PUBLIC "-//W3C//DTD SVG 1.1//EN" "http://www.w3.org/Graphics/SVG/1.1/DTD/svg11.dtd" >
<svg xmlns="http://www.w3.org/2000/svg" xmlns:xlink="http://www.w3.org/1999/xlink" version="1.1">
<metadata>
Created by FontForge 20190801 at Tue Jul 25 18:56:21 2017
 By www-data
Copyright (c) 2016 by Connary Fagen. All rights reserved.
</metadata>
<defs>
<font id="AddingtonCFBold" horiz-adv-x="1411" >
  <font-face 
    font-family="AddingtonCFBold"
    font-weight="700"
    font-stretch="normal"
    units-per-em="2048"
    panose-1="0 0 8 0 0 0 0 0 0 0"
    ascent="1638"
    descent="-410"
    x-height="901"
    cap-height="1290"
    bbox="-383 -760 2433 1862"
    underline-thickness="0"
    underline-position="0"
    unicode-range="U+0020-FB02"
  />
<missing-glyph horiz-adv-x="999" 
d="M819 1638v-1996h-633v1996h633zM666 1505h-330v-65h129v-76h-131v-66h332v66h-134v76h134v65zM532 1247h-198v-207h332v68h-134v139zM465 1180v-72h-66v72h66zM666 985h-332v-65h131v-74h-131v-66h198v140h134v65zM666 866h-66v-133h-266v-67h332v200zM666 623h-201v-113
h67v47h68v-94h-201v160h-65v-226h332v226zM666 276h-332v-225h332v225zM600 211v-94h-201v94h201zM666 4h-332v-65h139l-139 -95v-65h332v65h-205l139 95h66v65z" />
    <glyph glyph-name="uniFB01" unicode="fi" horiz-adv-x="1423" 
d="M809 1348q-35 0 -74 -10.5t-84 -37t-80.5 -67.5t-60.5 -111.5t-25 -158.5v-48l191 23q-10 -55 -10 -121h-181v-637q0 -61 49.5 -83.5t165.5 -35.5v-61h-673v61q82 12 117.5 35t35.5 84v637h-153v60l153 30h2q8 133 71.5 237.5t161 164t204 90.5t212.5 31q242 0 365 -91
q76 -49 76 -137v-2q-2 -70 -53.5 -120t-123 -50t-123.5 51.5t-52 120.5v4v2q0 10 2 15q2 37 1 64.5t-29 44t-85 16.5zM1251 180q0 -63 28 -82.5t107 -36.5v-61h-567v61q80 16 107.5 36t27.5 83v449q0 61 -25.5 90t-109.5 39v57q266 47 389 119l43 -39v-715z" />
    <glyph glyph-name="uniFB02" unicode="fl" horiz-adv-x="1392" 
d="M1206 180q0 -63 30 -82.5t120 -36.5v-61h-596v61q90 16 119.5 36t29.5 83v930q0 84 -61.5 146.5t-179.5 62.5q-74 0 -128.5 -53.5t-54.5 -175.5v-177l222 25q-10 -55 -11 -121h-211v-637q0 -61 49.5 -83.5t165.5 -35.5v-61h-673v61q82 12 117.5 35t35.5 84v637h-153v60
l153 30q6 246 172 379t422 133q115 0 247 -21.5t185 -56.5v-1161z" />
    <glyph glyph-name="f_f.liga" unicode="ff" horiz-adv-x="1589" 
d="M1747 1278q2 -59 -66.5 -103.5t-152.5 -48.5q-16 57 -31.5 94t-48.5 72t-72 35q-133 0 -133 -227v-178l256 10h6h11q-10 -55 -11 -121h-262v-631q0 -61 49 -83.5t166 -35.5v-61h-674v61q82 12 118 35t36 84v631h-453v-631q0 -61 49.5 -83.5t165.5 -35.5v-61h-673v61
q82 12 117.5 35t35.5 84v631h-153v59l153 31h2q12 227 152.5 353t324.5 126q203 0 259 -151q2 -59 -60.5 -103.5t-144.5 -48.5q-12 74 -48 137.5t-77 63.5q-23 0 -43.5 -14.5t-40 -68.5t-19.5 -144v-158l453 18q2 244 165 381.5t363 137.5q226 0 281 -152z" />
    <glyph glyph-name="f_f_i.liga" unicode="ffi" horiz-adv-x="2191" 
d="M1577 1348q-35 0 -74 -10.5t-84 -37t-80.5 -67.5t-60.5 -111.5t-25 -158.5v-39l195 8q-10 -55 -10 -121h-185v-631q0 -61 49.5 -83.5t165.5 -35.5v-61h-673v61q82 12 117.5 35t35.5 84v631h-463v-631q0 -61 49.5 -83.5t165.5 -35.5v-61h-673v61q82 12 117.5 35t35.5 84
v631h-153v59l153 31h2q8 154 80 265.5t173.5 162.5t217.5 51q203 0 258 -151q2 -59 -60.5 -103.5t-143.5 -48.5q-12 74 -48 137.5t-77 63.5q-23 0 -41.5 -14.5t-37 -68.5t-18.5 -144v-156l465 16q6 106 51.5 194.5t112 148t150.5 99.5t169 58.5t166 18.5q242 0 365 -91
q76 -49 76 -137v-2q-2 -70 -53.5 -120t-123 -50t-123.5 51.5t-52 120.5v4v2q0 10 2 15q2 37 1 64.5t-29 44t-85 16.5zM2019 180q0 -63 28 -82.5t107 -36.5v-61h-567v61q80 16 107.5 36t27.5 83v449q0 61 -25.5 90t-109.5 39v57q266 47 389 119l43 -39v-715z" />
    <glyph glyph-name=".notdef" horiz-adv-x="999" 
d="M819 1638v-1996h-633v1996h633zM666 1505h-330v-65h129v-76h-131v-66h332v66h-134v76h134v65zM532 1247h-198v-207h332v68h-134v139zM465 1180v-72h-66v72h66zM666 985h-332v-65h131v-74h-131v-66h198v140h134v65zM666 866h-66v-133h-266v-67h332v200zM666 623h-201v-113
h67v47h68v-94h-201v160h-65v-226h332v226zM666 276h-332v-225h332v225zM600 211v-94h-201v94h201zM666 4h-332v-65h139l-139 -95v-65h332v65h-205l139 95h66v65z" />
    <glyph glyph-name="glyph1" horiz-adv-x="0" 
 />
    <glyph glyph-name="glyph2" horiz-adv-x="681" 
 />
    <glyph glyph-name="space" unicode=" " horiz-adv-x="401" 
 />
    <glyph glyph-name="exclam" unicode="!" horiz-adv-x="491" 
d="M207 414l-113 776q-10 78 32 112.5t122 34.5t122 -34.5t31 -112.5l-112 -776h-82zM268 -20q-72 0 -121 50t-49 122q0 68 50.5 116.5t119.5 48.5q68 0 117 -49t49 -116q0 -72 -49 -122t-117 -50z" />
    <glyph glyph-name="quotedbl" unicode="&#x22;" horiz-adv-x="657" 
d="M152 795l-89 360q-16 61 16 98t99 37q59 0 88 -36.5t15 -98.5l-84 -360h-45zM465 795l-88 360q-16 61 15.5 98t99.5 37q59 0 87.5 -36.5t14.5 -98.5l-84 -360h-45z" />
    <glyph glyph-name="numbersign" unicode="#" horiz-adv-x="1157" 
d="M1071 838h-203l-82 -359h205l-28 -117h-205l-96 -423h-136l99 423h-230l-96 -423h-135l98 423h-205l29 117h203l82 359h-205l29 116h202l99 422h133l-97 -422h228l98 422h133l-96 -422h205zM651 479l82 359h-227l-82 -359h227z" />
    <glyph glyph-name="dollar" unicode="$" horiz-adv-x="1132" 
d="M1065 397q0 -150 -126 -247t-331 -111v-166h-84v164q-270 4 -430 117l-16 245h67q43 -133 141.5 -209.5t235.5 -76.5h2v419l-20 9q-86 33 -146.5 63.5t-126 77.5t-99.5 111.5t-34 142.5q0 143 113 228t313 96v167h84v-165q37 -2 72 -6.5t61.5 -9.5t55 -14t47 -16.5
t42 -18.5t34 -16t30 -15.5t21.5 -12.5l6 -250h-64q-43 133 -113.5 206t-191.5 77v-361q2 0 2 -1t2 -1q78 -31 118 -48t116 -60t114.5 -82t71.5 -101.5t33 -134.5zM387 1022q0 -47 29.5 -85t107.5 -75v316q-70 -14 -103.5 -58.5t-33.5 -97.5zM608 123q72 18 112 66.5
t40 113.5q0 113 -152 191v-371z" />
    <glyph glyph-name="percent" unicode="%" horiz-adv-x="1452" 
d="M1098 1290h141l-915 -1290h-125l798 1114q-150 -94 -350 -12q2 -12 2 -35q0 -158 -98 -281.5t-246 -123.5q-104 0 -165.5 66.5t-61.5 174.5q0 154 106.5 274.5t255.5 120.5q94 0 150 -55q88 -55 145.5 -78.5t121 -27.5t121 34.5t120.5 118.5zM354 737q84 0 147.5 108.5
t63.5 217.5q0 72 -33.5 116t-82.5 44q-84 0 -139.5 -112t-55.5 -220q0 -68 26.5 -111t73.5 -43zM1165 633q100 0 154.5 -61.5t54.5 -170.5q0 -158 -98 -281.5t-246 -123.5q-104 0 -165.5 66.5t-61.5 175.5q0 154 106 274.5t256 120.5zM1079 72q84 0 147.5 108.5t63.5 216.5
q0 72 -33.5 116t-82.5 44q-84 0 -139.5 -111.5t-55.5 -220.5q0 -68 26.5 -110.5t73.5 -42.5z" />
    <glyph glyph-name="ampersand" unicode="&#x26;" horiz-adv-x="1548" 
d="M1165 152q33 -37 139.5 -13.5t206.5 90.5v-73q-84 -78 -197.5 -128.5t-197.5 -47.5q-109 0 -211 98q-170 -98 -348 -98q-74 0 -143.5 11t-137 37.5t-117.5 67.5t-81 105.5t-31 146.5q0 145 85 229.5t239 145.5q-84 125 -84 215q0 139 132 227t298 88q119 0 211 -50
t92 -159q0 -166 -318 -348l19 -22l285 -334q53 96 53 168q0 55 -53.5 78.5t-118.5 23.5v72h594v-72q-92 -6 -139.5 -33.5t-84.5 -113.5q-53 -123 -157 -234zM649 1171q-45 0 -77.5 -38.5t-32.5 -106.5q0 -119 112 -266q113 106 113 248q0 70 -31 116.5t-84 46.5zM346 387
q0 -143 83 -232t193.5 -89t217.5 84l-373 446l-29 35q-92 -88 -92 -244z" />
    <glyph glyph-name="quotesingle" unicode="'" horiz-adv-x="344" 
d="M152 795l-89 360q-16 61 16 98t99 37q59 0 88 -36.5t15 -98.5l-84 -360h-45z" />
    <glyph glyph-name="parenleft" unicode="(" horiz-adv-x="681" 
d="M590 -326q-252 141 -382 383t-130 549t130 549t382 383l76 -12q-303 -387 -299 -919.5t288 -909.5z" />
    <glyph glyph-name="parenright" unicode=")" horiz-adv-x="681" 
d="M92 -326l-65 23q285 377 288.5 909.5t-299.5 919.5l76 12q252 -141 382 -383t130 -549t-130 -549t-382 -383z" />
    <glyph glyph-name="asterisk" unicode="*" horiz-adv-x="729" 
d="M344 1059l-51 129q-23 59 3 91t69 32t68.5 -32t0.5 -91l-51 -129q-6 -14 -19.5 -14t-19.5 14zM289 1001l-135 23q-61 10 -78 52t8 71q23 37 60.5 42t80.5 -44l86 -109q8 -12 1 -24.5t-23 -10.5zM440 1001q-18 -2 -25 9.5t3 25.5l84 109q45 49 83 44t58 -42
q25 -31 9.5 -71t-77.5 -52zM86 827q-25 31 -9.5 71t77.5 52l135 23q18 2 25.5 -9.5t-3.5 -25.5l-84 -109q-45 -49 -81.5 -44t-59.5 42zM643 827q-14 -23 -34.5 -35t-50.5 -4.5t-56 41.5l-84 109q-10 14 -3 25.5t25 9.5l135 -23q61 -12 77 -52t-9 -71zM365 664
q-43 0 -69 31.5t-3 90.5l53 129q6 14 18.5 14.5t18.5 -14.5l53 -129q23 -59 -2.5 -90.5t-68.5 -31.5z" />
    <glyph glyph-name="plus" unicode="+" horiz-adv-x="995" 
d="M877 616v-202h-277v-281h-203v281h-278v202h278v277h203v-277h277z" />
    <glyph glyph-name="comma" unicode="," horiz-adv-x="524" 
d="M76 -324l-19 64q168 51 203 168q12 68 -35 98q-98 55 -98 150q0 66 48 113.5t122 47.5q72 0 121 -55t49 -151q0 -145 -107.5 -274.5t-283.5 -160.5z" />
    <glyph glyph-name="hyphen" unicode="-" horiz-adv-x="892" 
d="M98 455v153h697v-153h-697z" />
    <glyph glyph-name="period" unicode="." horiz-adv-x="491" 
d="M248 -20q-72 0 -121 50t-49 122q0 68 50 116.5t120 48.5q68 0 117 -49t49 -116q0 -72 -49 -122t-117 -50z" />
    <glyph glyph-name="slash" unicode="/" horiz-adv-x="827" 
d="M37 -121l641 1671l174 -75l-641 -1672z" />
    <glyph glyph-name="zero" unicode="0" horiz-adv-x="1112" 
d="M545 -18q-213 0 -350.5 124.5t-137.5 337.5q0 219 146.5 347.5t363.5 128.5q213 0 350.5 -125t137.5 -338q0 -219 -146.5 -347t-363.5 -128zM575 61q82 0 127.5 88.5t45.5 249.5q0 109 -16.5 202t-67 166t-127.5 73q-82 0 -127 -88t-45 -250q0 -109 16 -202t66 -166
t128 -73z" />
    <glyph glyph-name="one" unicode="1" horiz-adv-x="821" 
d="M559 180q0 -63 37 -83.5t158 -35.5v-61h-686v61q121 14 157.5 35t36.5 84v541q0 63 -37 83.5t-157 35.5v61h686v-61q-121 -14 -158 -35t-37 -84v-541z" />
    <glyph glyph-name="two" unicode="2" horiz-adv-x="901" 
d="M78 0l-21 45q109 88 175.5 148.5t141.5 140.5t110.5 155.5t35.5 147.5q0 141 -147 141q-137 0 -223 -135l-56 33q51 117 153.5 180.5t229.5 63.5q141 0 235.5 -74t94.5 -187q0 -63 -33 -126.5t-85 -114.5t-110.5 -93t-118 -77t-95.5 -55q-18 -8 -25 -13h211q49 0 76.5 3
t60.5 15.5t55.5 39t40.5 69.5h60l-88 -330h-60l-4 23h-614z" />
    <glyph glyph-name="three" unicode="3" horiz-adv-x="1007" 
d="M391 -389q-125 0 -229.5 43t-104.5 121q0 39 23.5 62.5t60.5 23.5q29 0 53.5 -17.5t45 -41t43 -48t56.5 -42t73 -17.5q90 0 158.5 75.5t68.5 209.5q0 139 -72.5 207.5t-197.5 68.5q-76 0 -162 -33l-21 68l142 63q147 68 203.5 117t56.5 131q0 78 -47 121t-123 43
q-160 0 -268 -141l-52 47q72 121 179.5 184.5t230.5 63.5q141 0 241.5 -72t102.5 -189q2 -104 -77 -172.5t-226 -128.5q70 -4 136.5 -23.5t127.5 -56t99 -99t38 -142.5q0 -178 -177 -302t-382 -124z" />
    <glyph glyph-name="four" unicode="4" horiz-adv-x="1148" 
d="M1071 -10h-174v-168q0 -63 30.5 -84t123.5 -35v-61h-615v61q92 14 123 34.5t31 84.5v168h-516l-37 53l737 889h123v-830h195zM190 102h400v484z" />
    <glyph glyph-name="five" unicode="5" horiz-adv-x="1046" 
d="M276 442q160 25 276 4.5t192.5 -58.5t121.5 -101.5t63.5 -122t18.5 -119.5q0 -178 -153.5 -306t-384.5 -128q-76 0 -152 14.5t-138.5 54t-62.5 95.5q0 39 27 62.5t66 23.5q31 0 55 -17.5t42.5 -41t39 -48t53.5 -42t78 -17.5q100 0 166.5 79t66.5 201q0 51 -13 99.5
t-47 98.5t-89.5 79t-140.5 40t-199 -18l-35 39l205 588h342q82 0 119.5 2t78.5 16.5t64 45.5h53l-98 -283h-533z" />
    <glyph glyph-name="six" unicode="6" horiz-adv-x="1165" 
d="M586 -25q-248 0 -379 154t-129 397q0 168 71.5 314.5t185.5 244t251 154.5t274 66l39 -76q-221 -20 -369.5 -207.5t-148.5 -529.5q0 -438 227 -439q205 0 205 342q0 186 -78 281.5t-229 60.5v68q66 37 146.5 44t160.5 -18.5t146.5 -75.5t107.5 -133t41 -184
q0 -197 -144.5 -330t-377.5 -133z" />
    <glyph glyph-name="seven" unicode="7" horiz-adv-x="1056" 
d="M1008 901l22 -31q-420 -606 -571 -1259h-207q152 487 559 1071h-420q-119 0 -174 -25.5t-100 -128.5h-60l125 408h60l4 -35h762z" />
    <glyph glyph-name="eight" unicode="8" horiz-adv-x="1155" 
d="M815 711q262 -125 262 -351q0 -174 -150.5 -280.5t-365.5 -106.5q-199 0 -341 97.5t-142 261.5q0 201 213 323q-125 119 -125 279q0 154 125 255t299 101q162 0 270.5 -94t108.5 -219q0 -149 -154 -266zM588 1208q-82 0 -130 -55t-48 -127q0 -164 202 -235l97 -35
q90 90 90 217q0 92 -55.5 163.5t-155.5 71.5zM569 53q102 0 162 59.5t60 161.5q0 78 -40 128.5t-151 93.5l-141 53q-49 20 -84 41q-117 -96 -117 -238q0 -131 91 -215t220 -84z" />
    <glyph glyph-name="nine" unicode="9" horiz-adv-x="1165" 
d="M580 920q248 0 379 -154t128 -397q0 -168 -71.5 -314.5t-185 -244t-251 -154.5t-274.5 -66l-39 76q221 20 369.5 207.5t148.5 529.5q0 438 -227 439q-205 0 -205 -342q0 -186 78 -281.5t229 -60.5v-68q-66 -37 -146.5 -44t-160.5 18.5t-146.5 75.5t-107.5 133t-41 184
q0 197 145 330t378 133z" />
    <glyph glyph-name="colon" unicode=":" horiz-adv-x="493" 
d="M248 614q-72 0 -121 50.5t-49 121.5q0 68 50 117t120 49q68 0 117 -49t49 -117q0 -72 -49 -122t-117 -50zM250 -20q-72 0 -121 50t-49 122q0 68 50 116.5t120 48.5q68 0 117 -49t49 -116q0 -72 -49 -122t-117 -50z" />
    <glyph glyph-name="semicolon" unicode=";" horiz-adv-x="522" 
d="M299 612q-72 0 -121 50.5t-49 121.5q0 68 50 117t120 49q68 0 117 -49t49 -117q0 -72 -49 -122t-117 -50zM76 -324l-19 64q168 51 203 168q12 68 -35 98q-98 55 -98 150q0 66 48 113.5t122 47.5q72 0 121 -55t49 -151q0 -145 -107.5 -274.5t-283.5 -160.5z" />
    <glyph glyph-name="less" unicode="&#x3c;" horiz-adv-x="1015" 
d="M897 61q-326 176 -778 351v202q453 174 778 351v-242q-127 -63 -179 -87t-139 -54.5t-219 -67.5q186 -53 273.5 -89t263.5 -122v-242z" />
    <glyph glyph-name="equal" unicode="=" horiz-adv-x="995" 
d="M119 598v203h758v-203h-758zM119 229v203h758v-203h-758z" />
    <glyph glyph-name="greater" unicode="&#x3e;" horiz-adv-x="1015" 
d="M119 61v242q127 63 179 87t139 54.5t218 69.5q-186 53 -273 88t-263 121v242q326 -176 778 -351v-202q-452 -175 -778 -351z" />
    <glyph glyph-name="question" unicode="?" horiz-adv-x="1019" 
d="M453 414q-31 80 -24 128t38 106.5t66.5 105.5t64.5 123.5t29 160.5q0 125 -60.5 172t-175.5 47q-53 0 -72 -51q-45 -119 -85.5 -167t-92.5 -48q-47 0 -75.5 31t-28.5 70q0 72 92 133t213 92t229 31q172 0 282 -88.5t110 -241.5q0 -94 -48.5 -171t-115 -125t-133 -92
t-110.5 -98.5t-38 -117.5h-65zM481 -18q-72 0 -121 50t-49 122q0 68 50.5 116.5t119.5 48.5q68 0 117 -49t49 -116q0 -72 -49 -122t-117 -50z" />
    <glyph glyph-name="at" unicode="@" horiz-adv-x="1587" 
d="M1245 899l-100 -483q-16 -86 -3 -114t58 -28q100 0 169 104.5t69 264.5q0 264 -162 428t-420 164q-274 0 -437 -188.5t-163 -473.5q0 -264 166 -451.5t438 -187.5q172 0 375 125l53 -30q-201 -168 -471 -168q-311 0 -525 206.5t-214 505.5q0 303 220 515t548 212
q309 0 486 -191t177 -466q0 -186 -99 -309t-234 -123q-25 0 -50.5 4t-61.5 16.5t-61.5 43t-31.5 73.5q-100 -131 -258 -131q-113 0 -188.5 68.5t-75.5 210.5q0 186 125.5 308t275.5 122q147 0 201 -133l20 106h174zM762 289q82 0 146.5 71.5t90.5 180.5l11 51q6 41 6 78
q0 186 -144 186q-111 0 -172 -115.5t-61 -255.5q0 -196 123 -196z" />
    <glyph glyph-name="A" unicode="A" 
d="M1243 174q16 -35 26.5 -53.5t38 -30.5t38 -14t69.5 -15v-61h-643v61q10 2 36 7.5t35 8.5t26.5 9t23.5 12t12 17.5t4 26t-10 32.5l-82 191h-471l-80 -189q-8 -18 -10 -33.5t4 -26t11 -17.5t22.5 -13t27 -9t35 -8.5t35.5 -7.5v-61h-395v61q84 16 110.5 34t57.5 85l491 1125
h97zM383 451h395l-200 460z" />
    <glyph glyph-name="B" unicode="B" horiz-adv-x="1431" 
d="M979 678q385 -84 385 -330q0 -176 -188.5 -262t-495.5 -86h-643v61q104 20 131 41q39 33 39 121v844q0 47 -7 75.5t-36 46t-42 21.5t-69 15q-10 2 -16 4v61h643q264 0 430 -73.5t166 -229.5q0 -219 -297 -309zM918 965q0 51 -7.5 85.5t-29 72.5t-71.5 57.5t-130 19.5h-21
q-76 -2 -103.5 -25.5t-27.5 -74.5v-385h142q82 0 134 18.5t75.5 56t31 77t7.5 98.5zM729 90q150 0 203 64.5t53 183.5q0 57 -12 102t-46 92.5t-109 73t-187 25.5h-103v-385q0 -80 44 -118t157 -38z" />
    <glyph glyph-name="C" unicode="C" horiz-adv-x="1361" 
d="M778 -25q-315 0 -507.5 188.5t-192.5 471.5q0 299 208 493.5t529 194.5q246 0 404 -94q8 -186 14 -277h-94q-63 281 -338 281q-199 0 -291 -141.5t-92 -368.5q0 -272 140 -449.5t372 -177.5q203 0 301 107l53 -56q-66 -74 -200 -123t-306 -49z" />
    <glyph glyph-name="D" unicode="D" horiz-adv-x="1509" 
d="M670 1290q141 0 271 -36.5t242.5 -109.5t180.5 -200t68 -291q0 -168 -67 -298t-178.5 -204.5t-242.5 -112.5t-274 -38h-633v61q104 20 131 41q39 33 39 121v844q0 47 -7 75.5t-36 46t-42 21.5t-69 15q-10 2 -16 4v61h633zM727 86q170 0 266.5 146.5t96.5 400.5
q0 260 -111 415.5t-330 155.5h-121v-921q0 -109 42 -153t157 -44z" />
    <glyph glyph-name="E" unicode="E" horiz-adv-x="1251" 
d="M1133 324h71l-84 -324h-1083v61q104 20 131 41q39 33 39 121v844q0 47 -7 75.5t-36 46t-42 21.5t-69 15q-10 2 -16 4v61h1079l19 -307h-72q-14 117 -55 167t-146 50h-141q-121 0 -157 -26.5t-36 -129.5v-350h117q176 0 225.5 35t59.5 137h59v-430h-59q-10 102 -59.5 137
t-225.5 35h-117v-362q0 -102 36 -129t157 -27h98q121 0 189 50.5t125 183.5z" />
    <glyph glyph-name="F" unicode="F" horiz-adv-x="1191" 
d="M1126 1290l19 -307h-72q-14 117 -55 167t-146 50h-151q-121 0 -157 -26.5t-36 -129.5v-350h138q176 0 225 35t59 137h60v-430h-60q-10 102 -59 137t-225 35h-138v-385q0 -47 7.5 -75.5t36 -46t42 -21.5t68.5 -14q10 -2 16 -5v-61h-661v61q104 20 131 41q39 33 39 121v844
q0 47 -7 75.5t-36 46t-42 21.5t-69 15q-10 2 -16 4v61h1089z" />
    <glyph glyph-name="G" unicode="G" horiz-adv-x="1456" 
d="M797 -25q-330 0 -524.5 187.5t-194.5 472.5q0 299 209 493.5t530 194.5q256 0 414 -94q8 -186 14 -277h-94q-63 281 -363 281q-195 0 -282.5 -131t-87.5 -389q0 -293 95 -470t257 -177q123 0 176 52t53 173v49q0 129 -42 171t-169 52v70h601v-70q-117 -18 -117 -141v-29
q0 -229 35 -305q-78 -47 -213 -80t-297 -33z" />
    <glyph glyph-name="H" unicode="H" horiz-adv-x="1548" 
d="M1511 1229q-104 -20 -131 -41q-39 -33 -39 -121v-844q0 -47 7.5 -75.5t36 -46t42 -21.5t68.5 -14q10 -2 16 -5v-61h-661v61q104 20 131 41q39 33 39 121v375h-492v-375q0 -47 7.5 -75.5t36 -46t42 -21.5t68.5 -14q10 -2 16 -5v-61h-661v61q104 20 131 41q39 33 39 121
v844q0 47 -7 75.5t-36 46t-42 21.5t-69 15q-10 2 -16 4v61h661v-61q-104 -20 -131 -41q-39 -33 -39 -121v-383h492v383q0 47 -7 75.5t-36 46t-42 21.5t-69 15q-10 2 -16 4v61h661v-61z" />
    <glyph glyph-name="I" unicode="I" horiz-adv-x="735" 
d="M37 0v61q104 20 131 41q39 33 39 121v844q0 47 -7 75.5t-36 46t-42 21.5t-69 15q-10 2 -16 4v61h661v-61q-104 -20 -131 -41q-39 -33 -39 -121v-844q0 -47 7.5 -75.5t36 -46t42 -21.5t68.5 -14q10 -2 16 -5v-61h-661z" />
    <glyph glyph-name="J" unicode="J" horiz-adv-x="737" 
d="M-6 -379q-10 14 -10 37t10 39q137 49 176 114.5t39 221.5v1034q0 61 -21.5 95t-44 42t-84.5 21q-10 2 -16 4v61h657v-61q-104 -20 -131 -41q-39 -33 -39 -121v-1055q0 -78 -32.5 -140t-80.5 -101t-126 -70t-141.5 -47.5t-155.5 -32.5z" />
    <glyph glyph-name="K" unicode="K" horiz-adv-x="1497" 
d="M1315 111q25 -35 56.5 -42.5t119.5 -7.5v-61h-498q0 41 -69 143l-316 478l-80 -80v-318q0 -47 7.5 -75.5t36 -46t42 -21.5t68.5 -14q10 -2 16 -5v-61h-661v61q104 20 131 41q39 33 39 121v844q0 47 -7 75.5t-36 46t-42 21.5t-69 15q-10 2 -16 4v61h661v-61
q-104 -20 -131 -41q-39 -33 -39 -121v-395l478 469q90 88 -84 88v61h460v-61q-96 0 -146 -19.5t-99 -68.5l-316 -312z" />
    <glyph glyph-name="L" unicode="L" horiz-adv-x="1271" 
d="M37 0v61q104 20 131 41q39 33 39 121v844q0 47 -7 75.5t-36 46t-42 21.5t-69 15q-10 2 -16 4v61h639v-61q-51 -10 -69.5 -15.5t-42 -21.5t-30 -45t-6.5 -80v-817q0 -102 36 -129t157 -27h104q125 0 193.5 49.5t120.5 192.5h75l-84 -336h-1093z" />
    <glyph glyph-name="M" unicode="M" horiz-adv-x="1869" 
d="M1659 223q2 -61 25.5 -95t46 -42t86.5 -20q10 -2 16 -5v-61h-662v61q104 20 132 41q39 33 34 121l-32 901l-443 -1124h-61l-449 1040l-35 -817q-2 -49 6.5 -78.5t41 -46t51 -21.5t82.5 -16v-61h-461v61q106 20 133 43q41 33 45 119l37 844q2 47 -6 75.5t-34 45t-45.5 23
t-66.5 14.5q-14 2 -20 4v61h502q4 -27 63 -157l297 -693l268 693q51 135 56 157h524v-61q-106 -20 -133 -41q-39 -35 -35 -121z" />
    <glyph glyph-name="N" unicode="N" horiz-adv-x="1431" 
d="M932 1290h463v-61q-23 -8 -59 -18.5t-50 -17.5t-33.5 -21.5t-25.5 -39t-6 -65.5v-1067h-134l-780 1096v-873q0 -47 8.5 -75.5t39 -46t45 -21.5t73.5 -14q12 -2 19 -5v-61h-455v61q106 20 133 41q41 33 41 121v844q0 47 -8 75.5t-36 46t-44.5 21.5t-67.5 15q-12 2 -18 4
v61h495l592 -846v623q0 39 -7 64.5t-27.5 40t-38 21.5t-56.5 17.5t-63 18.5v61z" />
    <glyph glyph-name="O" unicode="O" horiz-adv-x="1490" 
d="M741 -25q-287 0 -475 185.5t-188 478.5q0 301 189.5 492.5t482.5 191.5q289 0 476 -186.5t187 -487.5q0 -293 -190.5 -483.5t-481.5 -190.5zM776 66q299 0 299 522q0 299 -92 472t-268 173q-299 0 -299 -533q0 -291 93 -462.5t267 -171.5z" />
    <glyph glyph-name="P" unicode="P" horiz-adv-x="1343" 
d="M37 0v61q104 20 131 41q39 33 39 121v844q0 47 -7 75.5t-36 46t-42 21.5t-69 15q-10 2 -16 4v61h620q629 0 629 -379q0 -205 -180 -311t-485 -106q-25 0 -25 44t25 44q190 0 258.5 86t68.5 231q0 137 -55 219t-215 82q-88 0 -119 -22.5t-31 -71.5v-883q0 -47 7.5 -75.5
t36 -46t42 -21.5t68.5 -14q10 -2 16 -5v-61h-661z" />
    <glyph glyph-name="Q" unicode="Q" horiz-adv-x="1554" 
d="M1692 -156q16 -4 28.5 -21.5t12.5 -35.5q-162 -145 -385 -145q-164 0 -299 82l-353 215q-47 29 -139 59q-215 55 -347 228t-132 413q0 301 189.5 492.5t482.5 191.5q289 0 476 -186.5t187 -487.5q0 -231 -125 -404t-332 -239q109 -4 193 -53l111 -62q8 -4 33.5 -18
t35.5 -19.5t32.5 -17.5t35 -17t32 -12.5t35 -10.5t32.5 -6t34 -3q82 0 162 57zM715 1233q-299 0 -299 -533q0 -291 93 -462.5t267 -171.5q299 0 299 522q0 299 -92 472t-268 173z" />
    <glyph glyph-name="R" unicode="R" horiz-adv-x="1486" 
d="M1190 231q43 -80 119.5 -136t160.5 -32v-63q-76 -33 -200 -33q-283 0 -391 191l-115 200q-63 109 -113.5 149t-122.5 44v-328q0 -47 7.5 -75.5t36 -46t42 -21.5t68.5 -14q10 -2 16 -5v-61h-661v61q104 20 131 41q39 33 39 121v844q0 47 -7 75.5t-36 46t-42 21.5t-69 15
q-10 2 -16 4v61h620q602 0 603 -360q0 -301 -400 -363q152 -27 234 -168zM668 1200q-82 0 -111 -22.5t-29 -71.5v-467h80q182 0 247 74.5t65 197.5q0 289 -252 289z" />
    <glyph glyph-name="S" unicode="S" horiz-adv-x="1132" 
d="M543 -25q-276 0 -449 129l-16 271h67q43 -147 141.5 -231.5t235.5 -84.5q111 0 174.5 58.5t63.5 150.5q0 80 -60.5 141.5t-195.5 118.5q-86 37 -146.5 71t-126 86t-99.5 123t-34 157q0 168 127 263t348 95q35 0 69 -3t64.5 -9t55 -11.5t50.5 -15.5t42 -16t37.5 -18.5
t31 -17.5t28 -16.5t20.5 -13.5l6 -274h-64q-43 150 -116.5 230.5t-200.5 80.5q-106 0 -157.5 -53t-51.5 -127q0 -66 46 -114t179 -105q78 -35 119 -53.5t115 -64.5t113.5 -90t72.5 -112.5t33 -146.5q0 -178 -144.5 -288t-377.5 -110z" />
    <glyph glyph-name="T" unicode="T" horiz-adv-x="1243" 
d="M1190 1311l16 -373h-59q-23 139 -85.5 202.5t-217.5 63.5h-60v-981q0 -49 9.5 -78.5t41 -46t49 -21.5t79.5 -16v-61h-678v61q111 20 137 41q41 33 41 121v981h-57q-160 0 -223.5 -63.5t-86.5 -202.5h-59l16 373l121 -21h895z" />
    <glyph glyph-name="U" unicode="U" horiz-adv-x="1466" 
d="M737 -25q-541 0 -540 543v549q0 47 -7.5 75.5t-36 46t-42 21.5t-68.5 15q-10 2 -16 4v61h663v-61q-104 -20 -131 -41q-39 -33 -39 -121v-584q0 -412 307 -411q43 0 82 7t86 31.5t81 64.5t57.5 113.5t23.5 170.5v608q0 47 -8 75.5t-36 46t-44 21.5t-68 15q-12 2 -18 4v61
h457v-61q-115 -20 -142 -41q-43 -33 -43 -121v-567q0 -525 -518 -525z" />
    <glyph glyph-name="V" unicode="V" 
d="M1020 1290h395v-61q-84 -16 -110.5 -33.5t-57.5 -85.5l-491 -1124h-97l-491 1130q-16 35 -26.5 53.5t-38 30.5t-38 14.5t-69.5 14.5v61h643v-61q-10 -2 -35.5 -7t-35 -8.5t-27 -9.5t-23.5 -12t-12 -17.5t-4 -25.5t10 -33l322 -737l311 735q8 18 10 33.5t-4 26t-11 17.5
t-22.5 13t-27 9.5t-35 8.5t-35.5 7v61z" />
    <glyph glyph-name="W" unicode="W" horiz-adv-x="2111" 
d="M1655 1290h461v-45q-66 -12 -87.5 -19t-44 -28.5t-38.5 -69.5l-414 -1142h-119l-354 942l-342 -944h-119l-432 1142q-25 66 -52.5 83.5t-117.5 33.5v45h649v-45q2 0 5 1t5 1q-29 -8 -58.5 -20.5t-57 -40t-17.5 -58.5l254 -729l197 555q43 111 7 192t-155 101v45h480
q0 -88 69 -278l217 -613l226 639q18 49 19 84t-7 55.5t-37 34t-56.5 19.5t-80.5 14v45z" />
    <glyph glyph-name="X" unicode="X" horiz-adv-x="1546" 
d="M1270 190q29 -41 49 -62.5t59 -35.5t57.5 -17t94.5 -14v-61h-713v61q8 2 29.5 6.5t29 5.5t22.5 5t18.5 6t12.5 7t8 11.5t1 14.5t-3 18t-12.5 23.5t-19.5 29.5l-235 344l-269 -337q-14 -16 -22 -30.5t-15.5 -26t-6.5 -19.5t1 -14.5t8.5 -11.5t12.5 -8t19.5 -7t23.5 -5
t28.5 -5.5t30.5 -6.5v-61h-463v61q133 18 170 39q41 23 99 93l331 413l-331 481q-55 80 -99.5 102.5t-156.5 39.5v61h696v-61q-45 -8 -58.5 -11.5t-36 -13.5t-21.5 -22.5t9.5 -36t32.5 -58.5l197 -284l233 289q27 33 35 55t8 34.5t-25.5 22.5t-38.5 13.5t-61 11.5v61h451
v-61q-109 -16 -151 -37t-107 -100l-295 -361z" />
    <glyph glyph-name="Y" unicode="Y" horiz-adv-x="1390" 
d="M965 1290h419v-61q-80 -16 -104.5 -33.5t-75.5 -93.5l-334 -529v-366q0 -51 9.5 -80t42 -45t53 -21.5t86.5 -15.5v-45h-703v45q121 20 150 43q41 31 41 119v328l-365 567q-49 76 -73.5 93t-104.5 34v61h660v-61q-14 -4 -51 -10.5t-49.5 -10.5t-28 -16t-10.5 -34.5
t28 -55.5l272 -434l269 434q20 35 23 56.5t-18.5 33.5t-39 17t-64.5 14q-23 4 -32 6v61z" />
    <glyph glyph-name="Z" unicode="Z" horiz-adv-x="1261" 
d="M59 0l-22 31l780 1190l-362 -9q-147 -2 -206 -63.5t-69 -206.5h-67v361l137 -13h967l-799 -1220l450 8q141 2 198.5 65.5t88.5 208.5h70q-39 -209 -39 -352h-1127z" />
    <glyph glyph-name="bracketleft" unicode="[" horiz-adv-x="681" 
d="M645 -340l-526 37v1821l526 36v-57l-229 -63v-1653l229 -64v-57z" />
    <glyph glyph-name="backslash" unicode="\" horiz-adv-x="827" 
d="M791 -121l-175 -76l-641 1672l175 75z" />
    <glyph glyph-name="bracketright" unicode="]" horiz-adv-x="681" 
d="M37 -340v57l229 64v1653l-229 63v57l526 -36v-1821z" />
    <glyph glyph-name="asciicircum" unicode="^" horiz-adv-x="909" 
d="M111 743l-33 43l377 537l376 -541l-32 -39l-344 371z" />
    <glyph glyph-name="underscore" unicode="_" horiz-adv-x="1323" 
d="M78 -156l-2 115h1169l2 -115h-1169z" />
    <glyph glyph-name="grave" unicode="`" horiz-adv-x="344" 
d="M270 1024q-106 113 -262 211q20 59 79.5 104t117.5 45q106 -150 141 -315z" />
    <glyph glyph-name="a" unicode="a" horiz-adv-x="1116" 
d="M946 201q0 -49 45 -58.5t109 27.5v-59q-141 -98 -266 -125q-66 0 -123.5 49t-61.5 112q-154 -162 -340 -161q-109 0 -185.5 53t-76.5 164q0 51 20.5 92t52.5 68.5t87 52t107.5 42t134.5 40.5q14 4 22 6q10 4 38 11t42 13.5t35.5 15.5t37 22.5t25.5 29.5v39
q0 115 -44 154.5t-144 39.5q-43 0 -64 -53q-43 -121 -84 -168t-98 -47q-45 0 -72.5 31t-27.5 70q0 72 92 134t208.5 93t215.5 31q154 0 234.5 -84t80.5 -232v-403zM469 121q94 0 180 115v237l-151 -41q-76 -23 -114 -68t-38 -100q0 -59 33 -101t90 -42z" />
    <glyph glyph-name="b" unicode="b" horiz-adv-x="1183" 
d="M584 -18q-229 0 -339 84t-110 235v803q0 35 -2 50t-15.5 34.5t-45 29t-86.5 15.5v57q229 27 405 117l41 -39v-651q47 86 127 144.5t178 58.5q152 0 270.5 -120t118.5 -321q0 -231 -154.5 -364t-387.5 -133zM598 68q100 0 157.5 103t57.5 265q0 143 -48 238.5t-142 95.5
q-115 0 -191 -141v-353q0 -80 42 -144t124 -64z" />
    <glyph glyph-name="c" unicode="c" horiz-adv-x="999" 
d="M563 -18q-225 0 -365.5 125.5t-140.5 338.5q0 221 146.5 347.5t376.5 126.5q176 0 273 -72t97 -166q0 -49 -29.5 -80t-84.5 -31q-59 0 -93 38t-57 128q-16 61 -39.5 82t-62.5 21q-104 0 -164 -80t-60 -225q0 -168 87.5 -276.5t236.5 -108.5q66 0 128 19t91 54l43 -35
q-37 -98 -137.5 -152t-245.5 -54z" />
    <glyph glyph-name="d" unicode="d" horiz-adv-x="1236" 
d="M1065 197q0 -61 25.5 -91t109.5 -45v-61h-409l16 186h-31q-51 -88 -135 -146t-190 -58q-152 0 -273 113.5t-121 322.5q0 233 152.5 367.5t357.5 134.5q115 0 201 -46v230q0 59 -33 89t-121 40v57q229 25 410 117l41 -39v-1171zM594 139q66 0 110 45t64 109v463
q-43 80 -156 80q-106 0 -175.5 -90.5t-69.5 -256.5q0 -156 64.5 -253t162.5 -97z" />
    <glyph glyph-name="e" unicode="e" horiz-adv-x="1028" 
d="M680 145q68 0 130 24t93 62l43 -34q-37 -100 -140.5 -157.5t-248.5 -57.5q-221 0 -360.5 127t-139.5 340q0 215 144.5 343t347.5 128q115 0 206 -43t138 -110t63.5 -147.5t-20.5 -154.5h-569q18 -150 101 -235t212 -85zM532 836q-76 0 -124 -73t-48 -214h302
q23 115 -11.5 201t-118.5 86z" />
    <glyph glyph-name="f" unicode="f" horiz-adv-x="831" 
d="M989 1278q2 -59 -66.5 -103.5t-152.5 -48.5q-16 57 -31.5 94t-48.5 72t-72 35q-133 0 -133 -227v-195l263 27q-10 -57 -11 -121h-252v-631q0 -61 49.5 -83.5t165.5 -35.5v-61h-673v61q82 12 117.5 35t35.5 84v631h-153v59l153 31v6q0 244 164 383.5t365 139.5
q225 0 280 -152z" />
    <glyph glyph-name="g" unicode="g" horiz-adv-x="1105" 
d="M1049 885v-168l-199 35q33 -57 33 -129q0 -125 -99.5 -210t-285.5 -85h-2h-37q-102 0 -103 -60q0 -43 90 -51l197 -16q221 -20 297 -63.5t76 -145.5q0 -176 -161 -280.5t-423 -102.5q-205 2 -305 67.5t-100 149.5q0 41 53 93t131 87q-111 49 -111 144q0 43 74 108.5
t158 91.5q-106 33 -162.5 106.5t-56.5 166.5q0 125 100 211t285 86q76 0 141 -17q64 -18 410 -18zM497.5 395q73.5 0 104.5 68.5t31 159t-31 160t-104.5 69.5t-104.5 -69.5t-31 -160t31 -159t104.5 -68.5zM633 -51l-250 18q-72 4 -108.5 -27.5t-36.5 -84.5q0 -147 272 -148
q137 0 219 43t82 115q0 41 -39 58.5t-139 25.5z" />
    <glyph glyph-name="h" unicode="h" horiz-adv-x="1241" 
d="M1079 180q0 -63 28 -82.5t107 -36.5v-61h-544v61q45 12 63.5 19.5t33.5 32t15 67.5v393q0 182 -120 183q-92 0 -179 -103v-473q0 -43 15.5 -67.5t34 -31.5t63.5 -20v-61h-559v61q90 16 119.5 36t29.5 83v924q0 35 -2 50t-15 34.5t-45 29t-87 15.5v57q225 25 405 117
l41 -39v-627q80 88 153 133.5t177 45.5q147 0 206.5 -92.5t59.5 -223.5v-424z" />
    <glyph glyph-name="i" unicode="i" horiz-adv-x="641" 
d="M313.5 1030q-71.5 0 -124 51.5t-52.5 121t52.5 118.5t124 49t123.5 -49t52 -118.5t-52 -121t-123.5 -51.5zM37 0v61q80 16 107.5 36t27.5 83v449q0 61 -25.5 90t-109.5 39v57q266 47 389 119l43 -39v-715q0 -63 27.5 -82.5t107.5 -36.5v-61h-567z" />
    <glyph glyph-name="j" unicode="j" horiz-adv-x="571" 
d="M297 1030q-72 0 -124 51.5t-52 121t52 118.5t124 49t124 -49t52 -118.5t-52 -121t-124 -51.5zM-18 -379q-16 35 0 70q96 31 136 105.5t40 209.5v623q0 61 -26 90t-109 39v57q274 43 389 119l43 -39v-930q0 -86 -50.5 -152.5t-131 -104.5t-150 -57.5t-141.5 -29.5z" />
    <glyph glyph-name="k" unicode="k" horiz-adv-x="1292" 
d="M1098 135q27 -37 60.5 -50t117.5 -22v-63h-457q0 76 -37 125l-202 291l-97 -92v-144q0 -63 30 -82.5t120 -36.5v-61h-596v61q90 16 119.5 36t29.5 83v924q0 35 -2 50t-15 34.5t-45 29t-87 15.5v57q225 25 405 117l41 -39v-919l303 284q94 88 -73 105v63h446v-63
q-66 -4 -117 -24.5t-77.5 -40t-73.5 -60.5l-119 -115z" />
    <glyph glyph-name="l" unicode="l" horiz-adv-x="669" 
d="M37 0v61q90 16 119.5 36t29.5 83v924q0 35 -2 50t-15 34.5t-45 29t-87 15.5v57q225 25 405 117l41 -39v-1188q0 -63 30 -82.5t120 -36.5v-61h-596z" />
    <glyph glyph-name="m" unicode="m" horiz-adv-x="1824" 
d="M27 0v61q41 8 60 14.5t39.5 18.5t28 32.5t7.5 53.5v469q0 61 -25.5 87t-109.5 22v57q244 37 389 119l41 -39l-72 -172h57q51 66 87 100.5t101.5 65.5t147.5 31q217 0 269 -197h8q66 94 140.5 145.5t193.5 51.5q279 0 278 -316v-424q0 -43 18.5 -67.5t40 -31.5t72.5 -20
v-61h-551v61q37 10 52.5 14.5t36 17.5t27.5 33.5t7 53.5v398q0 96 -30.5 137t-94.5 41q-94 0 -184 -101v-475q0 -33 7 -53.5t28.5 -33.5t37 -18t52.5 -14v-61h-551v61q51 12 71.5 19.5t39 32t18.5 67.5v398q0 96 -29.5 137t-93.5 41q-96 0 -182 -105v-471q0 -43 15 -67.5
t33.5 -31.5t63.5 -20v-61h-544z" />
    <glyph glyph-name="n" unicode="n" horiz-adv-x="1216" 
d="M27 0v61q80 16 107.5 36t27.5 83v449q0 61 -25.5 90t-109.5 39v57q244 37 389 119l41 -39l-72 -172h57q57 63 96.5 99t106 67t143.5 31q147 0 207 -92.5t60 -223.5v-424q0 -63 27.5 -82.5t107.5 -36.5v-61h-545v61q45 12 63.5 19.5t34 32t15.5 67.5v395q0 180 -117 181
q-104 0 -182 -105v-471q0 -43 15 -67.5t33.5 -31.5t63.5 -20v-61h-544z" />
    <glyph glyph-name="o" unicode="o" horiz-adv-x="1112" 
d="M545 -18q-213 0 -350.5 124.5t-137.5 337.5q0 219 146.5 347.5t363.5 128.5q213 0 350.5 -125t137.5 -338q0 -219 -146.5 -347t-363.5 -128zM575 61q82 0 127.5 88.5t45.5 249.5q0 109 -16.5 202t-67 166t-127.5 73q-82 0 -127 -88t-45 -250q0 -109 16 -202t66 -166
t128 -73z" />
    <glyph glyph-name="p" unicode="p" horiz-adv-x="1214" 
d="M788 920q152 0 265.5 -119t113.5 -322q0 -231 -150.5 -364t-348.5 -133q-100 0 -199 34v-194q0 -35 7 -55.5t37 -34t46 -16.5t74 -13v-61h-606v61q51 10 65 13t40 16.5t33 34t7 55.5v807q0 61 -27.5 90t-117.5 39v57q229 29 419 119l41 -39l-79 -231h22q49 102 145 179
t213 77zM651 68q100 0 151.5 94t51.5 250q0 158 -54.5 258t-146.5 100q-78 0 -131 -77t-53 -138v-233q0 -106 45 -180t137 -74z" />
    <glyph glyph-name="q" unicode="q" horiz-adv-x="1234" 
d="M1073 -178q0 -43 18.5 -67.5t41 -32t75.5 -19.5v-61h-608v61q106 14 141 34.5t35 84.5v352q-129 -193 -325 -192q-150 0 -272 114.5t-122 321.5q0 238 167 370t429 132q133 0 275 -43l145 24v-1079zM594 143q70 0 117 48.5t65 113.5v385q0 63 -45 106.5t-117 43.5
q-106 0 -176.5 -91.5t-70.5 -254.5q0 -158 64.5 -254.5t162.5 -96.5z" />
    <glyph glyph-name="r" unicode="r" horiz-adv-x="886" 
d="M27 0v61q45 8 64.5 14.5t42 18.5t30.5 32.5t8 53.5v451q0 61 -27.5 90t-117.5 37v57q246 39 419 119l41 -39l-36 -250h61q57 147 118.5 218t149.5 71q41 0 80 -16v-269q-61 31 -135 31q-129 0 -192.5 -85t-63.5 -202v-213q0 -33 8 -53.5t30.5 -32.5t44 -18t69.5 -15v-61
h-594z" />
    <glyph glyph-name="s" unicode="s" horiz-adv-x="845" 
d="M377 -18q-174 0 -316 81l-4 197h95q37 -98 92 -149.5t157 -51.5q147 0 148 111q0 53 -41 87t-141 67q-59 20 -105.5 41.5t-97.5 58.5t-79 92t-28 125q0 133 102.5 206t270.5 73q141 0 285 -78l2 -195h-94q-59 195 -211 195q-59 0 -93 -25.5t-34 -71.5q0 -90 166 -147
q72 -25 119.5 -46.5t104 -60t85 -94t28.5 -127.5q0 -145 -114.5 -216.5t-296.5 -71.5z" />
    <glyph glyph-name="t" unicode="t" horiz-adv-x="790" 
d="M500 242q0 -166 264 -74v-62q-170 -88 -356 -126q-94 0 -149.5 50t-55.5 120v661h-176v70q215 72 395 215h78v-201l270 25q-10 -57 -10 -109h-260v-569z" />
    <glyph glyph-name="u" unicode="u" horiz-adv-x="1200" 
d="M426 -18q-152 0 -213 91t-61 224v453q0 37 -17.5 56t-39 25.5t-68.5 14.5v55q276 -14 422 12v-604q0 -82 35.5 -124t97.5 -42q78 0 159 97v510q0 37 -17 56t-38.5 25.5t-69.5 14.5v55q276 -14 422 12v-716q0 -61 26 -91t110 -45v-61h-392l13 164h-35q-78 -88 -151.5 -135
t-182.5 -47z" />
    <glyph glyph-name="v" unicode="v" horiz-adv-x="1048" 
d="M711 901h342v-61q-72 -8 -100.5 -23.5t-53.5 -75.5l-324 -753h-94l-340 753q-27 59 -51 74.5t-94 24.5v61h549v-61q-92 -14 -109 -37q-14 -23 2 -62l193 -428l164 381q20 45 21 74t-19.5 43t-36 18.5t-49.5 10.5v61z" />
    <glyph glyph-name="w" unicode="w" horiz-adv-x="1660" 
d="M451 -12l-314 764q-23 53 -47 67.5t-94 20.5v61h551v-61q-94 -12 -111 -37q-12 -18 0 -51l168 -449l150 373q35 78 10 119q-23 37 -102 45v61h401q0 -82 37 -184l160 -416l133 338q27 66 32 105.5t-17 59t-50.5 26t-87.5 10.5v61h395v-61q-70 -6 -94.5 -20.5t-46.5 -67.5
l-316 -764h-104l-275 667l-274 -667h-104z" />
    <glyph glyph-name="x" unicode="x" horiz-adv-x="1146" 
d="M946 152q39 -49 74 -65.5t110 -25.5v-61h-573v61q33 4 49.5 8.5t32.5 14.5t14 26.5t-20 41.5l-158 210l-180 -210q-23 -27 -26 -43.5t18.5 -25.5t34 -12t51.5 -10v-61h-357v61q76 8 107 22.5t78 68.5l231 268l-246 325q-39 51 -72.5 68.5t-101.5 26.5v61h555v-61
q-31 -4 -48 -9.5t-31.5 -15.5t-11.5 -27.5t22 -42.5l129 -172l149 172q23 27 25 44.5t-16.5 27.5t-35 13.5t-51.5 9.5v61h346v-61q-63 -8 -94.5 -24.5t-79.5 -70.5l-200 -229z" />
    <glyph glyph-name="y" unicode="y" horiz-adv-x="1083" 
d="M737 901h350v-61q-70 -8 -95 -22.5t-50 -72.5l-344 -796q-139 -326 -334 -326q-74 0 -145 47v170q145 -33 238.5 -16.5t140.5 113.5l-353 804q-27 59 -53 74.5t-96 24.5v61h559v-61q-90 -14 -105.5 -36t3.5 -63l196 -456l199 460q8 18 9 32t-6 24t-13.5 15t-24.5 10
t-27.5 6.5t-33.5 5.5q-10 2 -15 2v61z" />
    <glyph glyph-name="z" unicode="z" horiz-adv-x="1005" 
d="M59 0l-22 31l547 790l-226 -6q-172 -2 -192 -211h-72v309l121 -12h741l-569 -821l246 6q123 2 177 56.5t85 160.5h74q-39 -166 -39 -303h-871z" />
    <glyph glyph-name="braceleft" unicode="{" horiz-adv-x="677" 
d="M625 -330q-131 27 -214 69t-121 101.5t-49.5 113.5t-11.5 134v318q0 47 -48 97t-124 77v51q76 27 124 77t48 97v317q0 80 11.5 134.5t49.5 114t121 101t214 68.5l16 -53q-78 -33 -96.5 -110t-18.5 -255v-266q0 -86 -63.5 -153.5t-149.5 -86.5v-22q86 -18 149.5 -86
t63.5 -154v-266q0 -94 2 -137t12.5 -97.5t35 -83t65.5 -46.5z" />
    <glyph glyph-name="bar" unicode="|" horiz-adv-x="401" 
d="M139 -358v1681h123v-1681h-123z" />
    <glyph glyph-name="braceright" unicode="}" horiz-adv-x="677" 
d="M53 -330l-16 54q78 33 96.5 109.5t18.5 254.5v266q0 86 63.5 153.5t149.5 86.5v22q-86 18 -149.5 86t-63.5 154v266q0 94 -2.5 137.5t-12.5 97.5t-34.5 82.5t-65.5 47.5l16 53q131 -27 214 -68.5t121 -101t49.5 -114t11.5 -134.5v-317q0 -47 48 -97.5t124 -76.5v-51
q-76 -27 -124 -77t-48 -97v-318q0 -80 -11.5 -134t-49.5 -113.5t-121 -101.5t-214 -69z" />
    <glyph glyph-name="asciitilde" unicode="~" horiz-adv-x="987" 
d="M653 342q-90 0 -199.5 77t-193.5 77q-51 0 -90 -36t-39 -67h-49q-18 121 57.5 193.5t190.5 72.5q92 0 202.5 -76.5t190.5 -76.5q53 0 93 36t40 66h49q18 -121 -58.5 -193.5t-193.5 -72.5z" />
    <glyph glyph-name="exclamdown" unicode="&#xa1;" horiz-adv-x="491" 
d="M268 932q68 0 117 -50.5t49 -121.5q0 -68 -49 -117t-117 -49q-70 0 -120 49t-50 117q0 72 49 122t121 50zM207 498h82l112 -777q10 -78 -31.5 -112.5t-121.5 -34.5t-122 35t-32 112z" />
    <glyph glyph-name="cent" unicode="&#xa2;" horiz-adv-x="1003" 
d="M684 150q66 0 128 19t91 54l43 -35q-37 -98 -137 -152t-246 -54q-63 0 -143 14l-33 -121h-106l41 154q-123 53 -194 161.5t-71 255.5q0 217 142.5 343t365.5 131l39 143h107l-41 -150q133 -18 206.5 -83.5t73.5 -147.5q0 -49 -29.5 -80t-84.5 -31q-59 0 -93 38t-57 128
q-14 61 -41 84l-164 -598q84 -73 203 -73zM360 535q0 -117 43 -207l140 508q-86 -16 -134.5 -94t-48.5 -207z" />
    <glyph glyph-name="sterling" unicode="&#xa3;" horiz-adv-x="1273" 
d="M1133 395q84 -47 84 -168q0 -129 -127 -205.5t-279 -76.5q-102 0 -189 46t-156 92t-124 46q-92 0 -199 -139l-86 92q123 117 166 201t49 252h-196l35 145h161v102q0 248 160 385.5t383 137.5q236 0 291 -150q2 -59 -66.5 -103t-152.5 -48q-4 12 -12.5 44.5t-13.5 47
t-17.5 39t-25.5 37t-34.5 21.5t-50.5 9q-63 0 -112.5 -49t-49.5 -178v-295h310l-35 -145h-281q-27 -131 -172 -269q59 25 113 25q59 0 119.5 -37t100.5 -82t90 -82t93 -37q74 0 74 84q0 63 -41 121z" />
    <glyph glyph-name="currency" unicode="&#xa4;" horiz-adv-x="1173" 
d="M1014 467q0 -131 -74 -238l162 -159l-123 -123l-162 162q-104 -70 -233 -70q-123 0 -230 67l-159 -159l-123 123l159 157q-74 106 -73 240q0 125 69 233l-155 156l123 125l157 -158q100 70 232 70q129 0 235 -72l160 160l123 -125l-158 -158q70 -106 70 -231zM340 467
q0 -102 71.5 -180t174 -78t176.5 78t74 180t-74 178t-176.5 76t-174 -76t-71.5 -178z" />
    <glyph glyph-name="yen" unicode="&#xa5;" horiz-adv-x="1390" 
d="M965 1290h419v-61q-80 -16 -104.5 -33.5t-75.5 -93.5l-286 -453h237v-110h-285v-95h285v-110h-285v-127q0 -51 9.5 -80t42 -45t53 -21.5t86.5 -15.5v-45h-703v45q121 20 150 43q41 31 41 119v127h-316v110h316v91l-2 4h-314v110h242l-291 453q-49 76 -73.5 93t-104.5 34
v61h660v-61q-14 -4 -51 -10.5t-49.5 -10.5t-28 -16t-10.5 -34.5t28 -55.5l272 -434l269 434q20 35 23 56.5t-18.5 33.5t-39 17t-64.5 14q-23 4 -32 6v61z" />
    <glyph glyph-name="brokenbar" unicode="&#xa6;" horiz-adv-x="401" 
d="M139 645v678h123v-678h-123zM139 -358v677h123v-677h-123z" />
    <glyph glyph-name="section" unicode="&#xa7;" horiz-adv-x="1058" 
d="M807 207q145 -111 145 -268q0 -143 -110.5 -225.5t-300.5 -82.5q-156 0 -330 105l-6 213h59q31 -106 96.5 -175t163.5 -69q82 0 124 44t42 110q0 57 -42 95t-163 85q-76 31 -134 61.5t-127.5 81.5t-107.5 123t-38 158q0 195 184 285q-139 109 -139 268q0 143 109.5 225
t295.5 82q156 0 312 -106l6 -213h-60q-29 104 -93 172.5t-148 68.5q-76 0 -118 -43t-42 -106q0 -59 39 -97t160 -88q59 -25 105 -45t106.5 -59t100.5 -81t67.5 -103.5t27.5 -130.5q0 -195 -184 -285zM356 535q0 -74 50.5 -119t177.5 -94q37 -14 84 -35q45 47 45 129
q0 78 -50.5 122t-177.5 91l-86 37q-43 -51 -43 -131z" />
    <glyph glyph-name="dieresis" unicode="&#xa8;" horiz-adv-x="745" 
d="M141 1126q-59 0 -102 43t-43 103q0 57 43 99t102 42q57 0 99.5 -42t42.5 -99q0 -59 -42.5 -102.5t-99.5 -43.5zM608 1126q-59 0 -102 43t-43 103q0 57 43 99t102 42q57 0 99.5 -42t42.5 -99q0 -59 -42.5 -102.5t-99.5 -43.5z" />
    <glyph glyph-name="copyright" unicode="&#xa9;" horiz-adv-x="1349" 
d="M676 51q-248 0 -423 175t-175 423q0 246 175 421t423 175q246 0 421 -175t175 -421q0 -248 -175 -423t-421 -175zM676 125q215 0 365.5 153.5t150.5 370.5q0 213 -151.5 367.5t-364.5 154.5q-215 0 -364.5 -154.5t-149.5 -367.5q0 -215 149.5 -369.5t364.5 -154.5z
M700 305q-164 0 -263 96.5t-99 239.5q0 152 107.5 252t269.5 100q133 0 211 -49l8 -141h-47q-33 135 -187 135q-94 0 -140 -71.5t-46 -180.5q0 -135 71.5 -223t194.5 -88q104 0 152 49l24 -29q-76 -90 -256 -90z" />
    <glyph glyph-name="ordfeminine" unicode="&#xaa;" horiz-adv-x="733" 
d="M608 840q0 -33 29 -40t70 17v-39q-92 -63 -172 -80q-43 0 -81 33t-40 72q-100 -104 -217 -105q-72 0 -121 35t-49 105q0 82 64.5 119.5t209.5 76.5q92 25 113 53v31q0 74 -29 100.5t-92 26.5q-31 0 -41 -37q-25 -76 -51.5 -106.5t-67.5 -30.5q-27 0 -45 19.5t-18 44.5
q0 70 115.5 117.5t217.5 47.5q98 0 151.5 -54t53.5 -150v-256zM299 784q57 0 115 72v158l-97 -29q-98 -29 -98 -106q0 -41 20.5 -68t59.5 -27zM109 389v164h512v-164h-512z" />
    <glyph glyph-name="guillemotleft" unicode="&#xab;" horiz-adv-x="831" 
d="M78 449l303 294l41 -30l-162 -264l162 -265l-37 -30zM410 449l303 294l41 -30l-162 -264l162 -265l-37 -30z" />
    <glyph glyph-name="logicalnot" unicode="&#xac;" horiz-adv-x="1157" 
d="M1038 801v-508h-202v305h-717v203h919z" />
    <glyph glyph-name="uni00AD" unicode="&#xad;" horiz-adv-x="892" 
d="M98 455v153h697v-153h-697z" />
    <glyph glyph-name="registered" unicode="&#xae;" horiz-adv-x="1349" 
d="M676 51q-248 0 -423 175t-175 423q0 246 175 421t423 175q246 0 421 -175t175 -421q0 -248 -175 -423t-421 -175zM676 125q215 0 365.5 153.5t150.5 370.5q0 213 -151.5 367.5t-364.5 154.5q-215 0 -364.5 -154.5t-149.5 -367.5q0 -215 149.5 -369.5t364.5 -154.5z
M969 330q-137 0 -185 80l-55 96q-41 74 -78 92v41q96 0 130 36t34 101q0 131 -129 131q-41 0 -55.5 -9t-14.5 -34v-420q0 -33 12.5 -49t23 -20t46.5 -13v-28h-319v28q59 14 72 33q10 16 10 49v402q0 31 -11.5 48t-24.5 22.5t-46 11.5v28h301q295 0 295 -176
q0 -72 -53.5 -114.5t-130.5 -59.5q55 -10 124 -129l19 -31q45 -74 82 -81v-29q-20 -6 -47 -6z" />
    <glyph glyph-name="macron" unicode="&#xaf;" horiz-adv-x="575" 
d="M-14 1198l30 107h574l-31 -107h-573z" />
    <glyph glyph-name="degree" unicode="&#xb0;" horiz-adv-x="735" 
d="M360 768q-123 0 -202.5 72.5t-79.5 195.5q0 127 85 201t212 74q123 0 202.5 -73t79.5 -196q0 -127 -84 -200.5t-213 -73.5zM377 817q121 0 121 191q0 102 -33 178t-107 76q-121 0 -120 -191q0 -61 11 -114.5t44 -96.5t84 -43z" />
    <glyph glyph-name="plusminus" unicode="&#xb1;" horiz-adv-x="995" 
d="M600 823h277v-202h-277v-281h-203v281h-278v202h278v277h203v-277zM119 -39v203h758v-203h-758z" />
    <glyph glyph-name="uni00B2" unicode="&#xb2;" horiz-adv-x="520" 
d="M63 805l-6 22q10 8 41 35t43.5 37t39 34.5t39.5 39t33.5 37t31 39t21.5 36t16.5 38t5.5 36.5q0 41 -24.5 69.5t-72.5 28.5q-84 0 -135 -86l-22 15q25 63 79 99t119 36q72 0 119 -41t47 -102q0 -47 -34.5 -98.5t-71.5 -82t-93.5 -72.5t-66.5 -51h135q55 0 83 13.5t46 60.5
h27l-39 -143h-361z" />
    <glyph glyph-name="uni00B3" unicode="&#xb3;" horiz-adv-x="493" 
d="M199 786q-55 0 -98.5 15.5t-43.5 46.5t35 31q18 0 52 -32t69 -32q47 0 86 34t39 91q0 55 -37 83t-92 28q-35 0 -74 -15l-10 25l63 24q66 25 93.5 46.5t27.5 58.5q0 66 -84 65.5t-131 -55.5l-20 17q66 96 188 96q59 0 97 -29t38 -76q0 -68 -114 -118q63 -4 108 -35t45 -92
q0 -76 -69.5 -126.5t-167.5 -50.5z" />
    <glyph glyph-name="acute" unicode="&#xb4;" horiz-adv-x="350" 
d="M74 1024l-76 45q35 166 141 315q57 0 116.5 -45t80.5 -104q-156 -98 -262 -211z" />
    <glyph glyph-name="paragraph" unicode="&#xb6;" horiz-adv-x="1474" 
d="M616 1290h822v-61q-104 -20 -131 -41q-39 -33 -39 -121v-1071q0 -180 -112 -267t-298 -87h-153v1464q0 49 -24 71.5t-85 22.5q-242 0 -242 -321q0 -317 248 -318q25 0 25 -44t-25 -44q-254 0 -409.5 106.5t-155.5 311.5q0 203 155.5 301t423.5 98zM985 -10v1116
q0 63 -19.5 87t-64.5 24q-43 0 -63.5 -25t-20.5 -86v-1382q96 10 132 68.5t36 197.5z" />
    <glyph glyph-name="periodcentered" unicode="&#xb7;" horiz-adv-x="491" 
d="M268 442q-72 0 -121 50.5t-49 121.5q0 68 50.5 117t119.5 49q68 0 117 -49t49 -117q0 -72 -49 -122t-117 -50z" />
    <glyph glyph-name="cedilla" unicode="&#xb8;" horiz-adv-x="509" 
d="M150 -434l10 59q180 0 180 90q0 84 -236 84l103 201h108l-39 -80q88 0 163 -46t75 -130q1 -178 -364 -178z" />
    <glyph glyph-name="uni00B9" unicode="&#xb9;" horiz-adv-x="391" 
d="M68 815v21q45 4 61 12t16 33v338q0 23 -8 29.5t-24 2.5l-41 -10v23l157 67l17 -12v-438q0 -25 16.5 -33t61.5 -12v-21h-256z" />
    <glyph glyph-name="ordmasculine" unicode="&#xba;" horiz-adv-x="718" 
d="M352 696q-137 0 -224 80t-87 217q0 141 93 224t233 83q137 0 224 -80.5t87 -218.5q0 -141 -92.5 -223t-233.5 -82zM371 748q109 0 108 215q0 119 -30.5 203.5t-102.5 84.5q-106 0 -106 -219q0 -284 131 -284zM109 389v164h505v-164h-505z" />
    <glyph glyph-name="guillemotright" unicode="&#xbb;" horiz-adv-x="831" 
d="M463 449l-307 -295l-37 30l162 265l-162 264l41 30zM795 449l-308 -295l-36 30l161 265l-161 264l41 30z" />
    <glyph glyph-name="onequarter" unicode="&#xbc;" horiz-adv-x="1069" 
d="M324 836v-21h-256v21q45 4 61 12t16 33v338q0 23 -8 29.5t-24 2.5l-41 -10v23l157 67l17 -12v-438q0 -25 16.5 -33t61.5 -12zM893 1303h57l-884 -1313h-58zM936 66q0 -25 15.5 -33t60.5 -13v-20h-254v20q45 4 60.5 12.5t15.5 33.5v69h-222l-8 41l238 328h94v-328h76
l-8 -41h-68v-69zM645 176h189v260z" />
    <glyph glyph-name="onehalf" unicode="&#xbd;" horiz-adv-x="1087" 
d="M68 815v21q45 4 61 12t16 33v338q0 23 -8 29.5t-24 2.5l-41 -10v23l157 67l17 -12v-438q0 -25 16.5 -33t61.5 -12v-21h-256zM8 -10l885 1313h57l-884 -1313h-58zM631 0l-6 23q10 8 40.5 34.5t43 36.5t39 35t40 39t34 36.5t30.5 39t21.5 36t16.5 38t5 36.5q0 41 -24.5 70
t-71.5 29q-84 0 -135 -86l-23 14q25 63 79 99t120 36q72 0 119 -41t47 -102q0 -47 -35 -98.5t-72 -82t-93 -72.5t-67 -50h135q55 0 83 13t47 60h26l-39 -143h-360z" />
    <glyph glyph-name="threequarters" unicode="&#xbe;" horiz-adv-x="1392" 
d="M436 963q0 -76 -69.5 -126.5t-167.5 -50.5q-55 0 -98.5 15.5t-43.5 46.5t35 31q18 0 52 -32t69 -32q47 0 86 34t39 91q0 55 -37 83t-92 28q-35 0 -74 -15l-10 25l63 24q66 25 93.5 46.5t27.5 58.5q0 66 -84 65.5t-131 -55.5l-20 17q66 96 188 96q59 0 97 -29t38 -76
q0 -68 -114 -118q63 -4 108 -35t45 -92zM1065 1303h57l-884 -1313h-58zM1260 66q0 -25 15 -33t60 -13v-20h-254v20q45 4 60.5 12.5t15.5 33.5v69h-221l-8 41l237 328h95v-328h75l-8 -41h-67v-69zM969 176h188v260z" />
    <glyph glyph-name="questiondown" unicode="&#xbf;" horiz-adv-x="1040" 
d="M559 932q72 0 121 -50.5t49 -121.5q0 -68 -50 -117t-120 -49q-68 0 -117 49t-49 117q0 72 49 122t117 50zM588 500q31 -80 23.5 -128t-38 -106.5t-66.5 -105.5t-64.5 -124t-28.5 -161q0 -125 60.5 -172t174.5 -47q53 0 72 51q45 119 86 167t92 48q47 0 76 -30.5t29 -69.5
q0 -72 -92.5 -133.5t-213 -92t-229.5 -30.5q-172 0 -281.5 88t-109.5 242q0 94 48 170.5t114.5 125t133 92.5t110.5 98t38 118h66z" />
    <glyph glyph-name="Agrave" unicode="&#xc0;" 
d="M793 1413q-106 113 -263 211q20 59 80 104.5t117 45.5q106 -150 141 -316zM1243 174q16 -35 26.5 -53.5t38 -30.5t38 -14t69.5 -15v-61h-643v61q10 2 36 7.5t35 8.5t26.5 9t23.5 12t12 17.5t4 26t-10 32.5l-82 191h-471l-80 -189q-8 -18 -10 -33.5t4 -26t11 -17.5
t22.5 -13t27 -9t35 -8.5t35.5 -7.5v-61h-395v61q84 16 110.5 34t57.5 85l491 1125h97zM383 451h395l-200 460z" />
    <glyph glyph-name="Aacute" unicode="&#xc1;" 
d="M1040 1624q-156 -98 -262 -211l-76 45q35 166 142 316q57 0 116.5 -45.5t79.5 -104.5zM1243 174q16 -35 26.5 -53.5t38 -30.5t38 -14t69.5 -15v-61h-643v61q10 2 36 7.5t35 8.5t26.5 9t23.5 12t12 17.5t4 26t-10 32.5l-82 191h-471l-80 -189q-8 -18 -10 -33.5t4 -26
t11 -17.5t22.5 -13t27 -9t35 -8.5t35.5 -7.5v-61h-395v61q84 16 110.5 34t57.5 85l491 1125h97zM383 451h395l-200 460z" />
    <glyph glyph-name="Acircumflex" unicode="&#xc2;" 
d="M752 1618l-265 -162l-30 41l295 303l295 -307l-31 -37zM1243 174q16 -35 26.5 -53.5t38 -30.5t38 -14t69.5 -15v-61h-643v61q10 2 36 7.5t35 8.5t26.5 9t23.5 12t12 17.5t4 26t-10 32.5l-82 191h-471l-80 -189q-8 -18 -10 -33.5t4 -26t11 -17.5t22.5 -13t27 -9t35 -8.5
t35.5 -7.5v-61h-395v61q84 16 110.5 34t57.5 85l491 1125h97zM383 451h395l-200 460z" />
    <glyph glyph-name="Atilde" unicode="&#xc3;" 
d="M420 1475h-64q-16 121 60 195.5t182 74.5q84 0 185.5 -77t174.5 -77q47 0 82 37t35 70h64q18 -121 -60 -196t-186 -75q-82 0 -181.5 77t-174.5 77q-47 0 -82 -36.5t-35 -69.5zM1243 174q16 -35 26.5 -53.5t38 -30.5t38 -14t69.5 -15v-61h-643v61q10 2 36 7.5t35 8.5
t26.5 9t23.5 12t12 17.5t4 26t-10 32.5l-82 191h-471l-80 -189q-8 -18 -10 -33.5t4 -26t11 -17.5t22.5 -13t27 -9t35 -8.5t35.5 -7.5v-61h-395v61q84 16 110.5 34t57.5 85l491 1125h97zM383 451h395l-200 460z" />
    <glyph glyph-name="Adieresis" unicode="&#xc4;" 
d="M532 1516q-59 0 -102 43t-43 102q0 57 43 99t102 42q57 0 99.5 -42t42.5 -99q0 -59 -42.5 -102t-99.5 -43zM999 1516q-59 0 -102 43t-43 102q0 57 43 99t102 42q57 0 99.5 -42t42.5 -99q0 -59 -42.5 -102t-99.5 -43zM1243 174q16 -35 26.5 -53.5t38 -30.5t38 -14
t69.5 -15v-61h-643v61q10 2 36 7.5t35 8.5t26.5 9t23.5 12t12 17.5t4 26t-10 32.5l-82 191h-471l-80 -189q-8 -18 -10 -33.5t4 -26t11 -17.5t22.5 -13t27 -9t35 -8.5t35.5 -7.5v-61h-395v61q84 16 110.5 34t57.5 85l491 1125h97zM383 451h395l-200 460z" />
    <glyph glyph-name="Aring" unicode="&#xc5;" 
d="M764 1460q-88 0 -147.5 58.5t-59.5 142.5t59.5 142.5t147.5 58.5t147.5 -58.5t59.5 -142.5t-59.5 -142.5t-147.5 -58.5zM764 1737q-37 0 -58.5 -20.5t-21.5 -55.5t21.5 -55.5t58.5 -20.5t58.5 20.5t21.5 55.5t-21.5 55.5t-58.5 20.5zM1243 174q16 -35 26.5 -53.5
t38 -30.5t38 -14t69.5 -15v-61h-643v61q10 2 36 7.5t35 8.5t26.5 9t23.5 12t12 17.5t4 26t-10 32.5l-82 191h-471l-80 -189q-8 -18 -10 -33.5t4 -26t11 -17.5t22.5 -13t27 -9t35 -8.5t35.5 -7.5v-61h-395v61q84 16 110.5 34t57.5 85l491 1125h97zM383 451h395l-200 460z" />
    <glyph glyph-name="AE" unicode="&#xc6;" horiz-adv-x="1865" 
d="M1747 324h72l-84 -324h-1084v61q104 20 131 41q39 33 39 121v203h-403l-133 -231q-10 -20 -14.5 -37t-5.5 -28t7.5 -20.5t14.5 -14.5t23.5 -11t26.5 -8t32.5 -7.5t31.5 -7.5v-61h-405v61q82 16 108.5 35t71.5 97l502 866h-2q68 117 -45 149q-23 6 -111 21v61h1211
l18 -307h-72q-14 117 -55 167t-145 50h-142q-121 0 -156.5 -26.5t-35.5 -129.5v-350h117q176 0 225 35t59 137h60v-430h-60q-10 102 -59 137t-225 35h-117v-362q0 -102 35.5 -129t156.5 -27h99q121 0 188.5 50.5t124.5 183.5zM467 512h354v555q0 25 -4 57z" />
    <glyph glyph-name="Ccedilla" unicode="&#xc7;" horiz-adv-x="1361" 
d="M778 -25h-12l-27 -55q88 0 163 -46t75 -130q0 -178 -365 -178l11 59q180 0 180 90q0 84 -236 84l95 185q-268 35 -426 216t-158 435q0 299 208 493.5t529 194.5q246 0 404 -94q8 -186 14 -277h-94q-63 281 -338 281q-199 0 -291 -141.5t-92 -368.5q0 -272 140 -449.5
t372 -177.5q203 0 301 107l53 -56q-66 -74 -200 -123t-306 -49z" />
    <glyph glyph-name="Egrave" unicode="&#xc8;" horiz-adv-x="1251" 
d="M653 1413q-106 113 -262 211q20 59 79.5 104.5t117.5 45.5q106 -150 141 -316zM1133 324h71l-84 -324h-1083v61q104 20 131 41q39 33 39 121v844q0 47 -7 75.5t-36 46t-42 21.5t-69 15q-10 2 -16 4v61h1079l19 -307h-72q-14 117 -55 167t-146 50h-141q-121 0 -157 -26.5
t-36 -129.5v-350h117q176 0 225.5 35t59.5 137h59v-430h-59q-10 102 -59.5 137t-225.5 35h-117v-362q0 -102 36 -129t157 -27h98q121 0 189 50.5t125 183.5z" />
    <glyph glyph-name="Eacute" unicode="&#xc9;" horiz-adv-x="1251" 
d="M901 1624q-156 -98 -262 -211l-76 45q35 166 142 316q57 0 116.5 -45.5t79.5 -104.5zM1133 324h71l-84 -324h-1083v61q104 20 131 41q39 33 39 121v844q0 47 -7 75.5t-36 46t-42 21.5t-69 15q-10 2 -16 4v61h1079l19 -307h-72q-14 117 -55 167t-146 50h-141
q-121 0 -157 -26.5t-36 -129.5v-350h117q176 0 225.5 35t59.5 137h59v-430h-59q-10 102 -59.5 137t-225.5 35h-117v-362q0 -102 36 -129t157 -27h98q121 0 189 50.5t125 183.5z" />
    <glyph glyph-name="Ecircumflex" unicode="&#xca;" horiz-adv-x="1251" 
d="M612 1618l-264 -162l-31 41l295 303l295 -307l-30 -37zM1133 324h71l-84 -324h-1083v61q104 20 131 41q39 33 39 121v844q0 47 -7 75.5t-36 46t-42 21.5t-69 15q-10 2 -16 4v61h1079l19 -307h-72q-14 117 -55 167t-146 50h-141q-121 0 -157 -26.5t-36 -129.5v-350h117
q176 0 225.5 35t59.5 137h59v-430h-59q-10 102 -59.5 137t-225.5 35h-117v-362q0 -102 36 -129t157 -27h98q121 0 189 50.5t125 183.5z" />
    <glyph glyph-name="Edieresis" unicode="&#xcb;" horiz-adv-x="1251" 
d="M393 1516q-59 0 -102 43t-43 102q0 57 43 99t102 42q57 0 99.5 -42t42.5 -99q0 -59 -42.5 -102t-99.5 -43zM860 1516q-59 0 -102 43t-43 102q0 57 43 99t102 42q57 0 99 -42t42 -99q0 -59 -42 -102t-99 -43zM1133 324h71l-84 -324h-1083v61q104 20 131 41q39 33 39 121
v844q0 47 -7 75.5t-36 46t-42 21.5t-69 15q-10 2 -16 4v61h1079l19 -307h-72q-14 117 -55 167t-146 50h-141q-121 0 -157 -26.5t-36 -129.5v-350h117q176 0 225.5 35t59.5 137h59v-430h-59q-10 102 -59.5 137t-225.5 35h-117v-362q0 -102 36 -129t157 -27h98q121 0 189 50.5
t125 183.5z" />
    <glyph glyph-name="Igrave" unicode="&#xcc;" horiz-adv-x="735" 
d="M395 1413q-106 113 -262 211q20 59 79.5 104.5t117.5 45.5q106 -150 141 -316zM37 0v61q104 20 131 41q39 33 39 121v844q0 47 -7 75.5t-36 46t-42 21.5t-69 15q-10 2 -16 4v61h661v-61q-104 -20 -131 -41q-39 -33 -39 -121v-844q0 -47 7.5 -75.5t36 -46t42 -21.5
t68.5 -14q10 -2 16 -5v-61h-661z" />
    <glyph glyph-name="Iacute" unicode="&#xcd;" horiz-adv-x="735" 
d="M381 1413l-76 45q35 166 141 316q57 0 117 -45.5t80 -104.5q-156 -98 -262 -211zM37 0v61q104 20 131 41q39 33 39 121v844q0 47 -7 75.5t-36 46t-42 21.5t-69 15q-10 2 -16 4v61h661v-61q-104 -20 -131 -41q-39 -33 -39 -121v-844q0 -47 7.5 -75.5t36 -46t42 -21.5
t68.5 -14q10 -2 16 -5v-61h-661z" />
    <glyph glyph-name="Icircumflex" unicode="&#xce;" horiz-adv-x="735" 
d="M354 1800l295 -307l-31 -37l-264 162l-264 -162l-31 41zM37 0v61q104 20 131 41q39 33 39 121v844q0 47 -7 75.5t-36 46t-42 21.5t-69 15q-10 2 -16 4v61h661v-61q-104 -20 -131 -41q-39 -33 -39 -121v-844q0 -47 7.5 -75.5t36 -46t42 -21.5t68.5 -14q10 -2 16 -5v-61
h-661z" />
    <glyph glyph-name="Idieresis" unicode="&#xcf;" horiz-adv-x="735" 
d="M135 1516q-59 0 -102 43t-43 102q0 57 43 99t102 42q57 0 99 -42t42 -99q0 -59 -42 -102t-99 -43zM602 1516q-59 0 -102 43t-43 102q0 57 43 99t102 42q57 0 99 -42t42 -99q0 -59 -42 -102t-99 -43zM37 0v61q104 20 131 41q39 33 39 121v844q0 47 -7 75.5t-36 46
t-42 21.5t-69 15q-10 2 -16 4v61h661v-61q-104 -20 -131 -41q-39 -33 -39 -121v-844q0 -47 7.5 -75.5t36 -46t42 -21.5t68.5 -14q10 -2 16 -5v-61h-661z" />
    <glyph glyph-name="Eth" unicode="&#xd0;" horiz-adv-x="1499" 
d="M659 1290q141 0 271.5 -36.5t243 -109.5t180 -200t67.5 -291q0 -168 -66.5 -298t-178 -204.5t-242.5 -112.5t-275 -38h-632v61q104 20 131 41q39 33 39 121v373q-53 0 -160 -4l20 90q23 -2 70 -2t70 -2v389q0 47 -7.5 75.5t-36 46t-42 21.5t-68.5 15q-10 2 -16 4v61h632z
M717 86q170 0 266 146.5t96 400.5q0 260 -110.5 415.5t-329.5 155.5h-121v-528q150 0 297 6l-20 -90l-277 6v-315q0 -109 42 -153t157 -44z" />
    <glyph glyph-name="Ntilde" unicode="&#xd1;" horiz-adv-x="1431" 
d="M371 1475h-64q-16 121 59.5 195.5t182.5 74.5q84 0 185.5 -77t174.5 -77q47 0 82 37t35 70h64q18 -121 -60 -196t-186 -75q-82 0 -181.5 77t-175.5 77q-47 0 -81.5 -36.5t-34.5 -69.5zM932 1290h463v-61q-23 -8 -59 -18.5t-50 -17.5t-33.5 -21.5t-25.5 -39t-6 -65.5
v-1067h-134l-780 1096v-873q0 -47 8.5 -75.5t39 -46t45 -21.5t73.5 -14q12 -2 19 -5v-61h-455v61q106 20 133 41q41 33 41 121v844q0 47 -8 75.5t-36 46t-44.5 21.5t-67.5 15q-12 2 -18 4v61h495l592 -846v623q0 39 -7 64.5t-27.5 40t-38 21.5t-56.5 17.5t-63 18.5v61z" />
    <glyph glyph-name="Ograve" unicode="&#xd2;" horiz-adv-x="1490" 
d="M774 1413q-106 113 -262 211q20 59 79.5 104.5t117.5 45.5q106 -150 141 -316zM741 -25q-287 0 -475 185.5t-188 478.5q0 301 189.5 492.5t482.5 191.5q289 0 476 -186.5t187 -487.5q0 -293 -190.5 -483.5t-481.5 -190.5zM776 66q299 0 299 522q0 299 -92 472t-268 173
q-299 0 -299 -533q0 -291 93 -462.5t267 -171.5z" />
    <glyph glyph-name="Oacute" unicode="&#xd3;" horiz-adv-x="1490" 
d="M760 1413l-76 45q35 166 141 316q57 0 116.5 -45.5t80.5 -104.5q-156 -98 -262 -211zM741 -25q-287 0 -475 185.5t-188 478.5q0 301 189.5 492.5t482.5 191.5q289 0 476 -186.5t187 -487.5q0 -293 -190.5 -483.5t-481.5 -190.5zM776 66q299 0 299 522q0 299 -92 472
t-268 173q-299 0 -299 -533q0 -291 93 -462.5t267 -171.5z" />
    <glyph glyph-name="Ocircumflex" unicode="&#xd4;" horiz-adv-x="1490" 
d="M733 1800l295 -307l-31 -37l-264 162l-264 -162l-31 41zM741 -25q-287 0 -475 185.5t-188 478.5q0 301 189.5 492.5t482.5 191.5q289 0 476 -186.5t187 -487.5q0 -293 -190.5 -483.5t-481.5 -190.5zM776 66q299 0 299 522q0 299 -92 472t-268 173q-299 0 -299 -533
q0 -291 93 -462.5t267 -171.5z" />
    <glyph glyph-name="Otilde" unicode="&#xd5;" horiz-adv-x="1490" 
d="M874 1427q-82 0 -181 77t-175 77q-47 0 -82 -37t-35 -69h-63q-16 121 59.5 195.5t182.5 74.5q84 0 185 -77t175 -77q47 0 82 37t35 70h63q18 -121 -59.5 -196t-186.5 -75zM741 -25q-287 0 -475 185.5t-188 478.5q0 301 189.5 492.5t482.5 191.5q289 0 476 -186.5
t187 -487.5q0 -293 -190.5 -483.5t-481.5 -190.5zM776 66q299 0 299 522q0 299 -92 472t-268 173q-299 0 -299 -533q0 -291 93 -462.5t267 -171.5z" />
    <glyph glyph-name="Odieresis" unicode="&#xd6;" horiz-adv-x="1490" 
d="M514 1516q-59 0 -102 43t-43 102q0 57 43 99t102 42q57 0 99 -42t42 -99q0 -59 -42 -102t-99 -43zM981 1516q-59 0 -102 43t-43 102q0 57 43 99t102 42q57 0 99 -42t42 -99q0 -59 -42 -102t-99 -43zM741 -25q-287 0 -475 185.5t-188 478.5q0 301 189.5 492.5t482.5 191.5
q289 0 476 -186.5t187 -487.5q0 -293 -190.5 -483.5t-481.5 -190.5zM776 66q299 0 299 522q0 299 -92 472t-268 173q-299 0 -299 -533q0 -291 93 -462.5t267 -171.5z" />
    <glyph glyph-name="multiply" unicode="&#xd7;" horiz-adv-x="929" 
d="M811 719l-203 -203l203 -205l-143 -143l-203 203l-203 -203l-143 143l203 205l-203 203l143 143l203 -203l203 203z" />
    <glyph glyph-name="Oslash" unicode="&#xd8;" horiz-adv-x="1490" 
d="M1124 1217q135 -86 212 -233.5t77 -334.5q0 -293 -190.5 -483.5t-481.5 -190.5q-184 0 -340 84l-100 -159l-43 26l100 160q-131 88 -205.5 231.5t-74.5 321.5q0 301 189.5 492.5t482.5 191.5q182 0 331 -80l113 180l43 -26zM416 700q0 -252 67 -411l492 784
q-92 160 -260 160q-299 -1 -299 -533zM776 66q299 0 299 522q0 268 -74 432l-491 -784q96 -170 266 -170z" />
    <glyph glyph-name="Ugrave" unicode="&#xd9;" horiz-adv-x="1466" 
d="M760 1413q-106 113 -262 211q20 59 79.5 104.5t116.5 45.5q106 -150 142 -316zM737 -25q-541 0 -540 543v549q0 47 -7.5 75.5t-36 46t-42 21.5t-68.5 15q-10 2 -16 4v61h663v-61q-104 -20 -131 -41q-39 -33 -39 -121v-584q0 -412 307 -411q43 0 82 7t86 31.5t81 64.5
t57.5 113.5t23.5 170.5v608q0 47 -8 75.5t-36 46t-44 21.5t-68 15q-12 2 -18 4v61h457v-61q-115 -20 -142 -41q-43 -33 -43 -121v-567q0 -525 -518 -525z" />
    <glyph glyph-name="Uacute" unicode="&#xda;" horiz-adv-x="1466" 
d="M745 1413l-75 45q35 166 141 316q57 0 116.5 -45.5t80.5 -104.5q-157 -98 -263 -211zM737 -25q-541 0 -540 543v549q0 47 -7.5 75.5t-36 46t-42 21.5t-68.5 15q-10 2 -16 4v61h663v-61q-104 -20 -131 -41q-39 -33 -39 -121v-584q0 -412 307 -411q43 0 82 7t86 31.5
t81 64.5t57.5 113.5t23.5 170.5v608q0 47 -8 75.5t-36 46t-44 21.5t-68 15q-12 2 -18 4v61h457v-61q-115 -20 -142 -41q-43 -33 -43 -121v-567q0 -525 -518 -525z" />
    <glyph glyph-name="Ucircumflex" unicode="&#xdb;" horiz-adv-x="1466" 
d="M719 1800l295 -307l-31 -37l-264 162l-264 -162l-31 41zM737 -25q-541 0 -540 543v549q0 47 -7.5 75.5t-36 46t-42 21.5t-68.5 15q-10 2 -16 4v61h663v-61q-104 -20 -131 -41q-39 -33 -39 -121v-584q0 -412 307 -411q43 0 82 7t86 31.5t81 64.5t57.5 113.5t23.5 170.5
v608q0 47 -8 75.5t-36 46t-44 21.5t-68 15q-12 2 -18 4v61h457v-61q-115 -20 -142 -41q-43 -33 -43 -121v-567q0 -525 -518 -525z" />
    <glyph glyph-name="Udieresis" unicode="&#xdc;" horiz-adv-x="1466" 
d="M500 1516q-59 0 -102.5 43t-43.5 102q0 57 43 99t103 42q57 0 99 -42t42 -99q0 -59 -42 -102t-99 -43zM967 1516q-59 0 -102.5 43t-43.5 102q0 57 43 99t103 42q57 0 99 -42t42 -99q0 -59 -42 -102t-99 -43zM737 -25q-541 0 -540 543v549q0 47 -7.5 75.5t-36 46t-42 21.5
t-68.5 15q-10 2 -16 4v61h663v-61q-104 -20 -131 -41q-39 -33 -39 -121v-584q0 -412 307 -411q43 0 82 7t86 31.5t81 64.5t57.5 113.5t23.5 170.5v608q0 47 -8 75.5t-36 46t-44 21.5t-68 15q-12 2 -18 4v61h457v-61q-115 -20 -142 -41q-43 -33 -43 -121v-567
q0 -525 -518 -525z" />
    <glyph glyph-name="Yacute" unicode="&#xdd;" horiz-adv-x="1390" 
d="M971 1624q-156 -98 -262 -211l-76 45q35 166 141 316q57 0 117 -45.5t80 -104.5zM965 1290h419v-61q-80 -16 -104.5 -33.5t-75.5 -93.5l-334 -529v-366q0 -51 9.5 -80t42 -45t53 -21.5t86.5 -15.5v-45h-703v45q121 20 150 43q41 31 41 119v328l-365 567q-49 76 -73.5 93
t-104.5 34v61h660v-61q-14 -4 -51 -10.5t-49.5 -10.5t-28 -16t-10.5 -34.5t28 -55.5l272 -434l269 434q20 35 23 56.5t-18.5 33.5t-39 17t-64.5 14q-23 4 -32 6v61z" />
    <glyph glyph-name="Thorn" unicode="&#xde;" horiz-adv-x="1261" 
d="M1204 643q0 -373 -676 -381v-39q0 -47 7.5 -75.5t36 -46t42 -21.5t68.5 -14q10 -2 16 -5v-61h-661v61q104 20 131 41q39 33 39 121v844q0 47 -7 75.5t-36 46t-42 21.5t-69 15q-10 2 -16 4v61h661v-61q-104 -20 -131 -41q-39 -33 -39 -121v-43q676 -8 676 -381zM862 643.5
q0 147.5 -71.5 217t-262.5 77.5v-590q190 8 262 78t72 217.5z" />
    <glyph glyph-name="germandbls" unicode="&#xdf;" horiz-adv-x="1267" 
d="M1083 561q127 -127 127 -244q0 -98 -98 -181t-215 -123t-201 -40q-72 0 -125 34t-53 91q0 51 36 77t79 26q41 0 117.5 -66.5t95.5 -66.5q41 0 65.5 46t24.5 99q0 61 -90 152l-244 239q184 199 184 397q0 102 -38.5 162t-112.5 60q-53 0 -88 -22.5t-50.5 -71t-19.5 -96.5
t-4 -128v-905h-446v61q90 16 119.5 36t29.5 83v719q0 209 127 307.5t332 98.5q193 0 305.5 -79t110.5 -212q-2 -143 -152 -271z" />
    <glyph glyph-name="agrave" unicode="&#xe0;" horiz-adv-x="1116" 
d="M573 1024q-106 113 -262 211q20 59 80 104t117 45q106 -150 141 -315zM946 201q0 -49 45 -58.5t109 27.5v-59q-141 -98 -266 -125q-66 0 -123.5 49t-61.5 112q-154 -162 -340 -161q-109 0 -185.5 53t-76.5 164q0 51 20.5 92t52.5 68.5t87 52t107.5 42t134.5 40.5
q14 4 22 6q10 4 38 11t42 13.5t35.5 15.5t37 22.5t25.5 29.5v39q0 115 -44 154.5t-144 39.5q-43 0 -64 -53q-43 -121 -84 -168t-98 -47q-45 0 -72.5 31t-27.5 70q0 72 92 134t208.5 93t215.5 31q154 0 234.5 -84t80.5 -232v-403zM469 121q94 0 180 115v237l-151 -41
q-76 -23 -114 -68t-38 -100q0 -59 33 -101t90 -42z" />
    <glyph glyph-name="aacute" unicode="&#xe1;" horiz-adv-x="1116" 
d="M821 1235q-156 -98 -262 -211l-76 45q35 166 142 315q57 0 116.5 -45t79.5 -104zM946 201q0 -49 45 -58.5t109 27.5v-59q-141 -98 -266 -125q-66 0 -123.5 49t-61.5 112q-154 -162 -340 -161q-109 0 -185.5 53t-76.5 164q0 51 20.5 92t52.5 68.5t87 52t107.5 42
t134.5 40.5q14 4 22 6q10 4 38 11t42 13.5t35.5 15.5t37 22.5t25.5 29.5v39q0 115 -44 154.5t-144 39.5q-43 0 -64 -53q-43 -121 -84 -168t-98 -47q-45 0 -72.5 31t-27.5 70q0 72 92 134t208.5 93t215.5 31q154 0 234.5 -84t80.5 -232v-403zM469 121q94 0 180 115v237
l-151 -41q-76 -23 -114 -68t-38 -100q0 -59 33 -101t90 -42z" />
    <glyph glyph-name="acircumflex" unicode="&#xe2;" horiz-adv-x="1116" 
d="M532 1229l-264 -162l-30 41l294 303l295 -307l-30 -37zM946 201q0 -49 45 -58.5t109 27.5v-59q-141 -98 -266 -125q-66 0 -123.5 49t-61.5 112q-154 -162 -340 -161q-109 0 -185.5 53t-76.5 164q0 51 20.5 92t52.5 68.5t87 52t107.5 42t134.5 40.5q14 4 22 6q10 4 38 11
t42 13.5t35.5 15.5t37 22.5t25.5 29.5v39q0 115 -44 154.5t-144 39.5q-43 0 -64 -53q-43 -121 -84 -168t-98 -47q-45 0 -72.5 31t-27.5 70q0 72 92 134t208.5 93t215.5 31q154 0 234.5 -84t80.5 -232v-403zM469 121q94 0 180 115v237l-151 -41q-76 -23 -114 -68t-38 -100
q0 -59 33 -101t90 -42z" />
    <glyph glyph-name="atilde" unicode="&#xe3;" horiz-adv-x="1116" 
d="M201 1085h-64q-16 121 59.5 196t182.5 75q84 0 185.5 -77t174.5 -77q47 0 82 37t35 70h64q18 -121 -60 -196t-186 -75q-82 0 -181.5 77t-175.5 77q-47 0 -81.5 -37t-34.5 -70zM946 201q0 -49 45 -58.5t109 27.5v-59q-141 -98 -266 -125q-66 0 -123.5 49t-61.5 112
q-154 -162 -340 -161q-109 0 -185.5 53t-76.5 164q0 51 20.5 92t52.5 68.5t87 52t107.5 42t134.5 40.5q14 4 22 6q10 4 38 11t42 13.5t35.5 15.5t37 22.5t25.5 29.5v39q0 115 -44 154.5t-144 39.5q-43 0 -64 -53q-43 -121 -84 -168t-98 -47q-45 0 -72.5 31t-27.5 70
q0 72 92 134t208.5 93t215.5 31q154 0 234.5 -84t80.5 -232v-403zM469 121q94 0 180 115v237l-151 -41q-76 -23 -114 -68t-38 -100q0 -59 33 -101t90 -42z" />
    <glyph glyph-name="adieresis" unicode="&#xe4;" horiz-adv-x="1116" 
d="M313 1126q-59 0 -102 43t-43 103q0 57 43 99t102 42q57 0 99.5 -42t42.5 -99q0 -59 -42.5 -102.5t-99.5 -43.5zM780 1126q-59 0 -102 43t-43 103q0 57 43 99t102 42q57 0 99.5 -42t42.5 -99q0 -59 -42.5 -102.5t-99.5 -43.5zM946 201q0 -49 45 -58.5t109 27.5v-59
q-141 -98 -266 -125q-66 0 -123.5 49t-61.5 112q-154 -162 -340 -161q-109 0 -185.5 53t-76.5 164q0 51 20.5 92t52.5 68.5t87 52t107.5 42t134.5 40.5q14 4 22 6q10 4 38 11t42 13.5t35.5 15.5t37 22.5t25.5 29.5v39q0 115 -44 154.5t-144 39.5q-43 0 -64 -53
q-43 -121 -84 -168t-98 -47q-45 0 -72.5 31t-27.5 70q0 72 92 134t208.5 93t215.5 31q154 0 234.5 -84t80.5 -232v-403zM469 121q94 0 180 115v237l-151 -41q-76 -23 -114 -68t-38 -100q0 -59 33 -101t90 -42z" />
    <glyph glyph-name="aring" unicode="&#xe5;" horiz-adv-x="1116" 
d="M545 1071q-88 0 -147.5 58.5t-59.5 142.5t59.5 142.5t147.5 58.5t147.5 -58.5t59.5 -142.5t-59.5 -142.5t-147.5 -58.5zM545 1348q-37 0 -58.5 -20.5t-21.5 -55.5t21.5 -55.5t58.5 -20.5t58.5 20.5t21.5 55.5t-21.5 55.5t-58.5 20.5zM946 201q0 -49 45 -58.5t109 27.5
v-59q-141 -98 -266 -125q-66 0 -123.5 49t-61.5 112q-154 -162 -340 -161q-109 0 -185.5 53t-76.5 164q0 51 20.5 92t52.5 68.5t87 52t107.5 42t134.5 40.5q14 4 22 6q10 4 38 11t42 13.5t35.5 15.5t37 22.5t25.5 29.5v39q0 115 -44 154.5t-144 39.5q-43 0 -64 -53
q-43 -121 -84 -168t-98 -47q-45 0 -72.5 31t-27.5 70q0 72 92 134t208.5 93t215.5 31q154 0 234.5 -84t80.5 -232v-403zM469 121q94 0 180 115v237l-151 -41q-76 -23 -114 -68t-38 -100q0 -59 33 -101t90 -42z" />
    <glyph glyph-name="ae" unicode="&#xe6;" horiz-adv-x="1624" 
d="M1276 145q68 0 130 24t93 62l43 -34q-37 -100 -140.5 -157.5t-248.5 -57.5q-150 0 -266.5 61t-177.5 174q-186 -231 -400 -231q-109 0 -185.5 53t-76.5 164q0 51 20.5 92t52.5 68.5t87 52t107.5 42t134.5 40.5q14 4 22 6q10 4 38 11t42 13.5t35.5 15.5t37 22.5t25.5 29.5
v39q0 115 -44 154.5t-144 39.5q-43 0 -64 -53q-45 -123 -85 -169t-97 -46q-45 0 -72.5 31t-27.5 70q0 72 92 134t208.5 93t215.5 31q145 0 229 -80q123 80 285 80q115 0 206 -43t138 -110t63.5 -147.5t-20.5 -154.5h-569q18 -150 101 -235t212 -85zM1128 836q-76 0 -124 -73
t-48 -214h301q23 115 -11 201t-118 86zM469 121q113 0 211 162q-27 80 -27 166v26l-155 -43q-76 -23 -114 -68t-38 -100q0 -59 33 -101t90 -42z" />
    <glyph glyph-name="ccedilla" unicode="&#xe7;" horiz-adv-x="999" 
d="M684 150q66 0 128 19t91 54l43 -35q-37 -98 -137 -152t-246 -54h-14l-31 -62q88 0 163 -46t75 -130q0 -178 -365 -178l10 59q180 0 181 90q0 84 -236 84l98 193q-176 31 -281.5 151.5t-105.5 302.5q0 221 146.5 347.5t376.5 126.5q176 0 273 -72t97 -166q0 -49 -29.5 -80
t-84.5 -31q-59 0 -93 38t-57 128q-16 61 -39.5 82t-62.5 21q-104 0 -164 -80t-60 -225q0 -168 87 -276.5t237 -108.5z" />
    <glyph glyph-name="egrave" unicode="&#xe8;" horiz-adv-x="1028" 
d="M539 1024q-106 113 -263 211q20 59 80 104t117 45q106 -150 141 -315zM680 145q68 0 130 24t93 62l43 -34q-37 -100 -140.5 -157.5t-248.5 -57.5q-221 0 -360.5 127t-139.5 340q0 215 144.5 343t347.5 128q115 0 206 -43t138 -110t63.5 -147.5t-20.5 -154.5h-569
q18 -150 101 -235t212 -85zM532 836q-76 0 -124 -73t-48 -214h302q23 115 -11.5 201t-118.5 86z" />
    <glyph glyph-name="eacute" unicode="&#xe9;" horiz-adv-x="1028" 
d="M786 1235q-156 -98 -262 -211l-75 45q35 166 141 315q57 0 116.5 -45t79.5 -104zM680 145q68 0 130 24t93 62l43 -34q-37 -100 -140.5 -157.5t-248.5 -57.5q-221 0 -360.5 127t-139.5 340q0 215 144.5 343t347.5 128q115 0 206 -43t138 -110t63.5 -147.5t-20.5 -154.5
h-569q18 -150 101 -235t212 -85zM532 836q-76 0 -124 -73t-48 -214h302q23 115 -11.5 201t-118.5 86z" />
    <glyph glyph-name="ecircumflex" unicode="&#xea;" horiz-adv-x="1028" 
d="M498 1229l-265 -162l-30 41l295 303l295 -307l-31 -37zM680 145q68 0 130 24t93 62l43 -34q-37 -100 -140.5 -157.5t-248.5 -57.5q-221 0 -360.5 127t-139.5 340q0 215 144.5 343t347.5 128q115 0 206 -43t138 -110t63.5 -147.5t-20.5 -154.5h-569q18 -150 101 -235
t212 -85zM532 836q-76 0 -124 -73t-48 -214h302q23 115 -11.5 201t-118.5 86z" />
    <glyph glyph-name="edieresis" unicode="&#xeb;" horiz-adv-x="1028" 
d="M279 1126q-59 0 -102.5 43t-43.5 103q0 57 43 99t103 42q57 0 99 -42t42 -99q0 -59 -42 -102.5t-99 -43.5zM745 1126q-59 0 -102 43t-43 103q0 57 43 99t102 42q57 0 99.5 -42t42.5 -99q0 -59 -42.5 -102.5t-99.5 -43.5zM680 145q68 0 130 24t93 62l43 -34
q-37 -100 -140.5 -157.5t-248.5 -57.5q-221 0 -360.5 127t-139.5 340q0 215 144.5 343t347.5 128q115 0 206 -43t138 -110t63.5 -147.5t-20.5 -154.5h-569q18 -150 101 -235t212 -85zM532 836q-76 0 -124 -73t-48 -214h302q23 115 -11.5 201t-118.5 86z" />
    <glyph glyph-name="igrave" unicode="&#xec;" horiz-adv-x="641" 
d="M338 1024q-106 113 -262 211q20 59 79.5 104t116.5 45q106 -150 142 -315zM37 0v61q80 16 107.5 36t27.5 83v449q0 61 -25.5 90t-109.5 39v57q274 43 389 119l43 -39v-715q0 -63 27.5 -82.5t107.5 -36.5v-61h-567z" />
    <glyph glyph-name="iacute" unicode="&#xed;" horiz-adv-x="641" 
d="M324 1024l-76 45q35 166 141 315q57 0 116.5 -45t80.5 -104q-156 -98 -262 -211zM37 0v61q80 16 107.5 36t27.5 83v449q0 61 -25.5 90t-109.5 39v57q274 43 389 119l43 -39v-715q0 -63 27.5 -82.5t107.5 -36.5v-61h-567z" />
    <glyph glyph-name="icircumflex" unicode="&#xee;" horiz-adv-x="641" 
d="M297 1411l295 -307l-31 -37l-264 162l-264 -162l-31 41zM37 0v61q80 16 107.5 36t27.5 83v449q0 61 -25.5 90t-109.5 39v57q274 43 389 119l43 -39v-715q0 -63 27.5 -82.5t107.5 -36.5v-61h-567z" />
    <glyph glyph-name="idieresis" unicode="&#xef;" horiz-adv-x="641" 
d="M78 1126q-59 0 -102.5 43t-43.5 103q0 57 43 99t103 42q57 0 99 -42t42 -99q0 -59 -42 -102.5t-99 -43.5zM545 1126q-59 0 -102.5 43t-43.5 103q0 57 43 99t103 42q57 0 99 -42t42 -99q0 -59 -42 -102.5t-99 -43.5zM37 0v61q80 16 107.5 36t27.5 83v449q0 61 -25.5 90
t-109.5 39v57q274 43 389 119l43 -39v-715q0 -63 27.5 -82.5t107.5 -36.5v-61h-567z" />
    <glyph glyph-name="eth" unicode="&#xf0;" horiz-adv-x="1124" 
d="M741 1110q307 -233 306 -584q0 -281 -122 -412.5t-382 -131.5q-213 0 -349.5 124.5t-136.5 337.5q0 219 145.5 347.5t362.5 128.5q59 0 90 -2q-49 84 -96 131q-172 -59 -336 -125v116q86 25 258 78q-123 94 -284 111l39 76q211 -12 413 -131q154 53 377 139v-117
q-133 -37 -285 -86zM571 59q25 0 50.5 12.5t55.5 43t48 96t18 156.5q0 88 -9 164.5t-30.5 150.5t-64.5 117t-104 43q-82 0 -126 -89t-44 -251q0 -80 10 -151.5t31.5 -140.5t63.5 -110t101 -41z" />
    <glyph glyph-name="ntilde" unicode="&#xf1;" horiz-adv-x="1216" 
d="M731 1038q-82 0 -181 77t-175 77q-47 0 -82 -37t-35 -70h-63q-16 121 59.5 196t181.5 75q84 0 185.5 -77t175.5 -77q47 0 81.5 37t34.5 70h64q18 -121 -59.5 -196t-186.5 -75zM27 0v61q80 16 107.5 36t27.5 83v449q0 61 -25.5 90t-109.5 39v57q244 37 389 119l41 -39
l-72 -172h57q57 63 96.5 99t106 67t143.5 31q147 0 207 -92.5t60 -223.5v-424q0 -63 27.5 -82.5t107.5 -36.5v-61h-545v61q45 12 63.5 19.5t34 32t15.5 67.5v395q0 180 -117 181q-104 0 -182 -105v-471q0 -43 15 -67.5t33.5 -31.5t63.5 -20v-61h-544z" />
    <glyph glyph-name="ograve" unicode="&#xf2;" horiz-adv-x="1112" 
d="M586 1024q-106 113 -262 211q20 59 79.5 104t116.5 45q106 -150 142 -315zM545 -18q-213 0 -350.5 124.5t-137.5 337.5q0 219 146.5 347.5t363.5 128.5q213 0 350.5 -125t137.5 -338q0 -219 -146.5 -347t-363.5 -128zM575 61q82 0 127.5 88.5t45.5 249.5q0 109 -16.5 202
t-67 166t-127.5 73q-82 0 -127 -88t-45 -250q0 -109 16 -202t66 -166t128 -73z" />
    <glyph glyph-name="oacute" unicode="&#xf3;" horiz-adv-x="1112" 
d="M571 1024l-75 45q35 166 141 315q57 0 116.5 -45t80.5 -104q-157 -98 -263 -211zM545 -18q-213 0 -350.5 124.5t-137.5 337.5q0 219 146.5 347.5t363.5 128.5q213 0 350.5 -125t137.5 -338q0 -219 -146.5 -347t-363.5 -128zM575 61q82 0 127.5 88.5t45.5 249.5
q0 109 -16.5 202t-67 166t-127.5 73q-82 0 -127 -88t-45 -250q0 -109 16 -202t66 -166t128 -73z" />
    <glyph glyph-name="ocircumflex" unicode="&#xf4;" horiz-adv-x="1112" 
d="M545 1411l295 -307l-31 -37l-264 162l-264 -162l-31 41zM545 -18q-213 0 -350.5 124.5t-137.5 337.5q0 219 146.5 347.5t363.5 128.5q213 0 350.5 -125t137.5 -338q0 -219 -146.5 -347t-363.5 -128zM575 61q82 0 127.5 88.5t45.5 249.5q0 109 -16.5 202t-67 166
t-127.5 73q-82 0 -127 -88t-45 -250q0 -109 16 -202t66 -166t128 -73z" />
    <glyph glyph-name="otilde" unicode="&#xf5;" horiz-adv-x="1112" 
d="M686 1038q-82 0 -181 77t-175 77q-47 0 -82 -37t-35 -70h-63q-16 121 59.5 196t181.5 75q84 0 185.5 -77t175.5 -77q47 0 81.5 37t34.5 70h64q18 -121 -59.5 -196t-186.5 -75zM545 -18q-213 0 -350.5 124.5t-137.5 337.5q0 219 146.5 347.5t363.5 128.5q213 0 350.5 -125
t137.5 -338q0 -219 -146.5 -347t-363.5 -128zM575 61q82 0 127.5 88.5t45.5 249.5q0 109 -16.5 202t-67 166t-127.5 73q-82 0 -127 -88t-45 -250q0 -109 16 -202t66 -166t128 -73z" />
    <glyph glyph-name="odieresis" unicode="&#xf6;" horiz-adv-x="1112" 
d="M326 1126q-59 0 -102.5 43t-43.5 103q0 57 43 99t103 42q57 0 99 -42t42 -99q0 -59 -42 -102.5t-99 -43.5zM793 1126q-59 0 -102.5 43t-43.5 103q0 57 43 99t103 42q57 0 99 -42t42 -99q0 -59 -42 -102.5t-99 -43.5zM545 -18q-213 0 -350.5 124.5t-137.5 337.5
q0 219 146.5 347.5t363.5 128.5q213 0 350.5 -125t137.5 -338q0 -219 -146.5 -347t-363.5 -128zM575 61q82 0 127.5 88.5t45.5 249.5q0 109 -16.5 202t-67 166t-127.5 73q-82 0 -127 -88t-45 -250q0 -109 16 -202t66 -166t128 -73z" />
    <glyph glyph-name="divide" unicode="&#xf7;" horiz-adv-x="995" 
d="M502 686q-61 0 -103.5 42t-42.5 101.5t42 100.5t104 41q59 0 100 -41t41 -100.5t-41 -101.5t-100 -42zM119 414v202h758v-202h-758zM502 59q-61 0 -103.5 42t-42.5 101.5t42 100.5t104 41q59 0 100 -41t41 -100.5t-41 -101.5t-100 -42z" />
    <glyph glyph-name="oslash" unicode="&#xf8;" horiz-adv-x="1112" 
d="M836 854q219 -123 219 -397q0 -219 -146.5 -347t-363.5 -128q-121 0 -228 45l-77 -125l-43 24l75 123q-215 125 -215 395q0 219 146.5 347.5t363.5 128.5q125 0 226 -43l77 124l43 -24zM365 502q0 -150 30 -258l297 475q-51 121 -155 121q-82 0 -127 -88t-45 -250z
M575 61q82 0 127.5 88.5t45.5 249.5q0 154 -33 260l-297 -473q55 -125 157 -125z" />
    <glyph glyph-name="ugrave" unicode="&#xf9;" horiz-adv-x="1200" 
d="M623 1024q-106 113 -263 211q20 59 80 104t117 45q106 -150 141 -315zM426 -18q-152 0 -213 91t-61 224v453q0 37 -17.5 56t-39 25.5t-68.5 14.5v55q276 -14 422 12v-604q0 -82 35.5 -124t97.5 -42q78 0 159 97v510q0 37 -17 56t-38.5 25.5t-69.5 14.5v55q276 -14 422 12
v-716q0 -61 26 -91t110 -45v-61h-392l13 164h-35q-78 -88 -151.5 -135t-182.5 -47z" />
    <glyph glyph-name="uacute" unicode="&#xfa;" horiz-adv-x="1200" 
d="M608 1024l-76 45q35 166 142 315q57 0 116.5 -45t79.5 -104q-156 -98 -262 -211zM426 -18q-152 0 -213 91t-61 224v453q0 37 -17.5 56t-39 25.5t-68.5 14.5v55q276 -14 422 12v-604q0 -82 35.5 -124t97.5 -42q78 0 159 97v510q0 37 -17 56t-38.5 25.5t-69.5 14.5v55
q276 -14 422 12v-716q0 -61 26 -91t110 -45v-61h-392l13 164h-35q-78 -88 -151.5 -135t-182.5 -47z" />
    <glyph glyph-name="ucircumflex" unicode="&#xfb;" horiz-adv-x="1200" 
d="M582 1411l295 -307l-31 -37l-264 162l-265 -162l-30 41zM426 -18q-152 0 -213 91t-61 224v453q0 37 -17.5 56t-39 25.5t-68.5 14.5v55q276 -14 422 12v-604q0 -82 35.5 -124t97.5 -42q78 0 159 97v510q0 37 -17 56t-38.5 25.5t-69.5 14.5v55q276 -14 422 12v-716
q0 -61 26 -91t110 -45v-61h-392l13 164h-35q-78 -88 -151.5 -135t-182.5 -47z" />
    <glyph glyph-name="udieresis" unicode="&#xfc;" horiz-adv-x="1200" 
d="M362 1126q-59 0 -102 43t-43 103q0 57 43 99t102 42q57 0 99.5 -42t42.5 -99q0 -59 -42.5 -102.5t-99.5 -43.5zM829 1126q-59 0 -102 43t-43 103q0 57 43 99t102 42q57 0 99.5 -42t42.5 -99q0 -59 -42.5 -102.5t-99.5 -43.5zM426 -18q-152 0 -213 91t-61 224v453
q0 37 -17.5 56t-39 25.5t-68.5 14.5v55q276 -14 422 12v-604q0 -82 35.5 -124t97.5 -42q78 0 159 97v510q0 37 -17 56t-38.5 25.5t-69.5 14.5v55q276 -14 422 12v-716q0 -61 26 -91t110 -45v-61h-392l13 164h-35q-78 -88 -151.5 -135t-182.5 -47z" />
    <glyph glyph-name="yacute" unicode="&#xfd;" horiz-adv-x="1083" 
d="M823 1235q-156 -98 -262 -211l-76 45q35 166 142 315q57 0 116.5 -45t79.5 -104zM737 901h350v-61q-70 -8 -95 -22.5t-50 -72.5l-344 -796q-139 -326 -334 -326q-74 0 -145 47v170q145 -33 238.5 -16.5t140.5 113.5l-353 804q-27 59 -53 74.5t-96 24.5v61h559v-61
q-90 -14 -105.5 -36t3.5 -63l196 -456l199 460q8 18 9 32t-6 24t-13.5 15t-24.5 10t-27.5 6.5t-33.5 5.5q-10 2 -15 2v61z" />
    <glyph glyph-name="thorn" unicode="&#xfe;" horiz-adv-x="1183" 
d="M586 -18q-90 0 -154 14v-174q0 -35 7 -55.5t37 -34t46.5 -16.5t73.5 -13v-61h-596v61q92 20 111 39q25 25 24 80v1255q0 35 -2 50.5t-15.5 35t-45 28.5t-86.5 15v58q229 27 405 116l41 -39v-622q47 86 127 143.5t182 57.5q152 0 268.5 -122t116.5 -327q0 -229 -152 -359
t-388 -130zM432 629v-328q0 -88 43 -163t141 -75q195 0 195 353q0 158 -47 256t-141 98q-115 0 -191 -141z" />
    <glyph glyph-name="ydieresis" unicode="&#xff;" horiz-adv-x="1083" 
d="M315 1126q-59 0 -102 43t-43 103q0 57 43 99t102 42q57 0 99.5 -42t42.5 -99q0 -59 -42.5 -102.5t-99.5 -43.5zM782 1126q-59 0 -102 43t-43 103q0 57 43 99t102 42q57 0 99.5 -42t42.5 -99q0 -59 -42.5 -102.5t-99.5 -43.5zM737 901h350v-61q-70 -8 -95 -22.5t-50 -72.5
l-344 -796q-139 -326 -334 -326q-74 0 -145 47v170q145 -33 238.5 -16.5t140.5 113.5l-353 804q-27 59 -53 74.5t-96 24.5v61h559v-61q-90 -14 -105.5 -36t3.5 -63l196 -456l199 460q8 18 9 32t-6 24t-13.5 15t-24.5 10t-27.5 6.5t-33.5 5.5q-10 2 -15 2v61z" />
    <glyph glyph-name="Amacron" unicode="&#x100;" 
d="M1067 1694l-31 -107h-573l31 107h573zM1243 174q16 -35 26.5 -53.5t38 -30.5t38 -14t69.5 -15v-61h-643v61q10 2 36 7.5t35 8.5t26.5 9t23.5 12t12 17.5t4 26t-10 32.5l-82 191h-471l-80 -189q-8 -18 -10 -33.5t4 -26t11 -17.5t22.5 -13t27 -9t35 -8.5t35.5 -7.5v-61
h-395v61q84 16 110.5 34t57.5 85l491 1125h97zM383 451h395l-200 460z" />
    <glyph glyph-name="amacron" unicode="&#x101;" horiz-adv-x="1116" 
d="M848 1305l-31 -107h-573l30 107h574zM946 201q0 -49 45 -58.5t109 27.5v-59q-141 -98 -266 -125q-66 0 -123.5 49t-61.5 112q-154 -162 -340 -161q-109 0 -185.5 53t-76.5 164q0 51 20.5 92t52.5 68.5t87 52t107.5 42t134.5 40.5q14 4 22 6q10 4 38 11t42 13.5t35.5 15.5
t37 22.5t25.5 29.5v39q0 115 -44 154.5t-144 39.5q-43 0 -64 -53q-43 -121 -84 -168t-98 -47q-45 0 -72.5 31t-27.5 70q0 72 92 134t208.5 93t215.5 31q154 0 234.5 -84t80.5 -232v-403zM469 121q94 0 180 115v237l-151 -41q-76 -23 -114 -68t-38 -100q0 -59 33 -101t90 -42
z" />
    <glyph glyph-name="Abreve" unicode="&#x102;" 
d="M764 1475q-143 0 -235.5 79.5t-92.5 225.5h68q35 -139 260 -139.5t260 139.5h68q0 -145 -92.5 -225t-235.5 -80zM1243 174q16 -35 26.5 -53.5t38 -30.5t38 -14t69.5 -15v-61h-643v61q10 2 36 7.5t35 8.5t26.5 9t23.5 12t12 17.5t4 26t-10 32.5l-82 191h-471l-80 -189
q-8 -18 -10 -33.5t4 -26t11 -17.5t22.5 -13t27 -9t35 -8.5t35.5 -7.5v-61h-395v61q84 16 110.5 34t57.5 85l491 1125h97zM383 451h395l-200 460z" />
    <glyph glyph-name="abreve" unicode="&#x103;" horiz-adv-x="1116" 
d="M544.5 1085q-143.5 0 -235.5 80t-92 226h68q35 -139 260 -139.5t260 139.5h67q0 -145 -92 -225.5t-235.5 -80.5zM946 201q0 -49 45 -58.5t109 27.5v-59q-141 -98 -266 -125q-66 0 -123.5 49t-61.5 112q-154 -162 -340 -161q-109 0 -185.5 53t-76.5 164q0 51 20.5 92
t52.5 68.5t87 52t107.5 42t134.5 40.5q14 4 22 6q10 4 38 11t42 13.5t35.5 15.5t37 22.5t25.5 29.5v39q0 115 -44 154.5t-144 39.5q-43 0 -64 -53q-43 -121 -84 -168t-98 -47q-45 0 -72.5 31t-27.5 70q0 72 92 134t208.5 93t215.5 31q154 0 234.5 -84t80.5 -232v-403z
M469 121q94 0 180 115v237l-151 -41q-76 -23 -114 -68t-38 -100q0 -59 33 -101t90 -42z" />
    <glyph glyph-name="Aogonek" unicode="&#x104;" 
d="M1245 0q-152 -88 -151 -184q0 -53 30.5 -88t81.5 -35q31 0 64 12v-45q-76 -68 -187 -68q-88 0 -146 42t-58 137q0 72 39 118l165 111h-311v61q10 2 36 7.5t35 8.5t26.5 9t23.5 12t12 17.5t4 26t-10 32.5l-82 191h-471l-80 -189q-8 -18 -10 -33.5t4 -26t11 -17.5t22.5 -13
t27 -9t35 -8.5t35.5 -7.5v-61h-395v61q84 16 110.5 34t57.5 85l491 1125h97l491 -1131q16 -35 26.5 -53.5t38 -30.5t38 -14t69.5 -15v-61h-170zM383 451h395l-200 460z" />
    <glyph glyph-name="aogonek" unicode="&#x105;" horiz-adv-x="1116" 
d="M983 33q-152 -88 -152 -185q0 -53 31 -87.5t82 -34.5q31 0 64 12v-45q-76 -68 -187 -68q-88 0 -146.5 42t-58.5 136q0 72 39 119l115 76q-49 20 -84 61t-37 88q-154 -162 -340 -161q-109 0 -185.5 53t-76.5 164q0 51 20.5 92t52.5 68.5t87 52t107.5 42t134.5 40.5
q14 4 22 6q10 4 38 11t42 13.5t35.5 15.5t37 22.5t25.5 29.5v39q0 115 -44 154.5t-144 39.5q-43 0 -64 -53q-43 -121 -84 -168t-98 -47q-45 0 -72.5 31t-27.5 70q0 72 92 134t208.5 93t215.5 31q154 0 234.5 -84t80.5 -232v-403q0 -49 45 -58.5t109 27.5v-59
q-72 -49 -117 -74v-4zM469 121q94 0 180 115v237l-151 -41q-76 -23 -114 -68t-38 -100q0 -59 33 -101t90 -42z" />
    <glyph glyph-name="Cacute" unicode="&#x106;" horiz-adv-x="1361" 
d="M772 1413l-76 45q35 166 142 316q57 0 116.5 -45.5t79.5 -104.5q-156 -98 -262 -211zM778 -25q-315 0 -507.5 188.5t-192.5 471.5q0 299 208 493.5t529 194.5q246 0 404 -94q8 -186 14 -277h-94q-63 281 -338 281q-199 0 -291 -141.5t-92 -368.5q0 -272 140 -449.5
t372 -177.5q203 0 301 107l53 -56q-66 -74 -200 -123t-306 -49z" />
    <glyph glyph-name="cacute" unicode="&#x107;" horiz-adv-x="999" 
d="M543 1024l-76 45q35 166 141 315q57 0 116.5 -45t80.5 -104q-156 -98 -262 -211zM563 -18q-225 0 -365.5 125.5t-140.5 338.5q0 221 146.5 347.5t376.5 126.5q176 0 273 -72t97 -166q0 -49 -29.5 -80t-84.5 -31q-59 0 -93 38t-57 128q-16 61 -39.5 82t-62.5 21
q-104 0 -164 -80t-60 -225q0 -168 87.5 -276.5t236.5 -108.5q66 0 128 19t91 54l43 -35q-37 -98 -137.5 -152t-245.5 -54z" />
    <glyph glyph-name="Cdotaccent" unicode="&#x10a;" horiz-adv-x="1361" 
d="M757.5 1399q-71.5 0 -123.5 51t-52 120.5t52 119t123.5 49.5t124 -49.5t52.5 -119t-52.5 -120.5t-124 -51zM778 -25q-315 0 -507.5 188.5t-192.5 471.5q0 299 208 493.5t529 194.5q246 0 404 -94q8 -186 14 -277h-94q-63 281 -338 281q-199 0 -291 -141.5t-92 -368.5
q0 -272 140 -449.5t372 -177.5q203 0 301 107l53 -56q-66 -74 -200 -123t-306 -49z" />
    <glyph glyph-name="cdotaccent" unicode="&#x10b;" horiz-adv-x="999" 
d="M528.5 1010q-71.5 0 -124 51t-52.5 120.5t52.5 119t124 49.5t124 -49.5t52.5 -119t-52.5 -120.5t-124 -51zM563 -18q-225 0 -365.5 125.5t-140.5 338.5q0 221 146.5 347.5t376.5 126.5q176 0 273 -72t97 -166q0 -49 -29.5 -80t-84.5 -31q-59 0 -93 38t-57 128
q-16 61 -39.5 82t-62.5 21q-104 0 -164 -80t-60 -225q0 -168 87.5 -276.5t236.5 -108.5q66 0 128 19t91 54l43 -35q-37 -98 -137.5 -152t-245.5 -54z" />
    <glyph glyph-name="Ccaron" unicode="&#x10c;" horiz-adv-x="1361" 
d="M754 1452l-295 303l30 41l265 -162l264 162l31 -37zM778 -25q-315 0 -507.5 188.5t-192.5 471.5q0 299 208 493.5t529 194.5q246 0 404 -94q8 -186 14 -277h-94q-63 281 -338 281q-199 0 -291 -141.5t-92 -368.5q0 -272 140 -449.5t372 -177.5q203 0 301 107l53 -56
q-66 -74 -200 -123t-306 -49z" />
    <glyph glyph-name="ccaron" unicode="&#x10d;" horiz-adv-x="999" 
d="M524 1063l-295 303l31 41l264 -162l264 162l31 -37zM563 -18q-225 0 -365.5 125.5t-140.5 338.5q0 221 146.5 347.5t376.5 126.5q176 0 273 -72t97 -166q0 -49 -29.5 -80t-84.5 -31q-59 0 -93 38t-57 128q-16 61 -39.5 82t-62.5 21q-104 0 -164 -80t-60 -225
q0 -168 87.5 -276.5t236.5 -108.5q66 0 128 19t91 54l43 -35q-37 -98 -137.5 -152t-245.5 -54z" />
    <glyph glyph-name="Dcaron" unicode="&#x10e;" horiz-adv-x="1509" 
d="M1047 1759l-295 -307l-295 303l30 41l265 -162l264 162zM670 1290q141 0 271 -36.5t242.5 -109.5t180.5 -200t68 -291q0 -168 -67 -298t-178.5 -204.5t-242.5 -112.5t-274 -38h-633v61q104 20 131 41q39 33 39 121v844q0 47 -7 75.5t-36 46t-42 21.5t-69 15q-10 2 -16 4
v61h633zM727 86q170 0 266.5 146.5t96.5 400.5q0 260 -111 415.5t-330 155.5h-121v-921q0 -109 42 -153t157 -44z" />
    <glyph glyph-name="dcaron" unicode="&#x10f;" horiz-adv-x="1343" 
d="M1065 197q0 -61 25.5 -91t109.5 -45v-61h-409l16 186h-31q-51 -88 -135 -146t-190 -58q-152 0 -273 113.5t-121 322.5q0 233 152.5 367.5t357.5 134.5q115 0 201 -46v230q0 59 -33 89t-121 40v57q229 25 410 117l41 -39v-1171zM1161 1343q51 33 125 35t123 -30
q0 -182 -72 -340l-86 8q-18 159 -90 327zM594 139q66 0 110 45t64 109v463q-43 80 -156 80q-106 0 -175.5 -90.5t-69.5 -256.5q0 -156 64.5 -253t162.5 -97z" />
    <glyph glyph-name="Dcroat" unicode="&#x110;" horiz-adv-x="1499" 
d="M659 1290q141 0 271.5 -36.5t243 -109.5t180 -200t67.5 -291q0 -168 -66.5 -298t-178 -204.5t-242.5 -112.5t-275 -38h-632v61q104 20 131 41q39 33 39 121v373q-53 0 -160 -4l20 90q23 -2 70 -2t70 -2v389q0 47 -7.5 75.5t-36 46t-42 21.5t-68.5 15q-10 2 -16 4v61h632z
M717 86q170 0 266 146.5t96 400.5q0 260 -110.5 415.5t-329.5 155.5h-121v-528q150 0 297 6l-20 -90l-277 6v-315q0 -109 42 -153t157 -44z" />
    <glyph glyph-name="dcroat" unicode="&#x111;" horiz-adv-x="1241" 
d="M1065 197q0 -61 25.5 -91t109.5 -45v-61h-409l16 186h-31q-51 -88 -135 -146t-190 -58q-152 0 -273 113.5t-121 322.5q0 233 152.5 367.5t357.5 134.5q115 0 201 -46v125q-168 0 -334 -6l21 90q156 -6 313 -6v27q0 59 -33 89t-121 40v57q229 25 410 117l41 -39v-289
q25 2 74 2t73 2l-20 -90q-20 2 -63.5 2t-63.5 2v-800zM594 139q66 0 110 45t64 109v463q-43 80 -156 80q-106 0 -175.5 -90.5t-69.5 -256.5q0 -156 64.5 -253t162.5 -97z" />
    <glyph glyph-name="Emacron" unicode="&#x112;" horiz-adv-x="1251" 
d="M928 1694l-31 -107h-573l30 107h574zM1133 324h71l-84 -324h-1083v61q104 20 131 41q39 33 39 121v844q0 47 -7 75.5t-36 46t-42 21.5t-69 15q-10 2 -16 4v61h1079l19 -307h-72q-14 117 -55 167t-146 50h-141q-121 0 -157 -26.5t-36 -129.5v-350h117q176 0 225.5 35
t59.5 137h59v-430h-59q-10 102 -59.5 137t-225.5 35h-117v-362q0 -102 36 -129t157 -27h98q121 0 189 50.5t125 183.5z" />
    <glyph glyph-name="emacron" unicode="&#x113;" horiz-adv-x="1028" 
d="M813 1305l-31 -107h-573l31 107h573zM680 145q68 0 130 24t93 62l43 -34q-37 -100 -140.5 -157.5t-248.5 -57.5q-221 0 -360.5 127t-139.5 340q0 215 144.5 343t347.5 128q115 0 206 -43t138 -110t63.5 -147.5t-20.5 -154.5h-569q18 -150 101 -235t212 -85zM532 836
q-76 0 -124 -73t-48 -214h302q23 115 -11.5 201t-118.5 86z" />
    <glyph glyph-name="Edotaccent" unicode="&#x116;" horiz-adv-x="1251" 
d="M624.5 1399q-71.5 0 -123.5 51t-52 120.5t52 119t123.5 49.5t124 -49.5t52.5 -119t-52.5 -120.5t-124 -51zM1133 324h71l-84 -324h-1083v61q104 20 131 41q39 33 39 121v844q0 47 -7 75.5t-36 46t-42 21.5t-69 15q-10 2 -16 4v61h1079l19 -307h-72q-14 117 -55 167
t-146 50h-141q-121 0 -157 -26.5t-36 -129.5v-350h117q176 0 225.5 35t59.5 137h59v-430h-59q-10 102 -59.5 137t-225.5 35h-117v-362q0 -102 36 -129t157 -27h98q121 0 189 50.5t125 183.5z" />
    <glyph glyph-name="edotaccent" unicode="&#x117;" horiz-adv-x="1028" 
d="M510 1010q-72 0 -124 51t-52 120.5t52 119t124 49.5t124 -49.5t52 -119t-52 -120.5t-124 -51zM680 145q68 0 130 24t93 62l43 -34q-37 -100 -140.5 -157.5t-248.5 -57.5q-221 0 -360.5 127t-139.5 340q0 215 144.5 343t347.5 128q115 0 206 -43t138 -110t63.5 -147.5
t-20.5 -154.5h-569q18 -150 101 -235t212 -85zM532 836q-76 0 -124 -73t-48 -214h302q23 115 -11.5 201t-118.5 86z" />
    <glyph glyph-name="Eogonek" unicode="&#x118;" horiz-adv-x="1251" 
d="M1018 0q-152 -88 -152 -184q0 -53 31 -88t82 -35q31 0 63 12v-45q-76 -68 -186 -68q-88 0 -146.5 42t-58.5 137q0 72 39 118l166 111h-819v61q104 20 131 41q39 33 39 121v844q0 47 -7 75.5t-36 46t-42 21.5t-69 15q-10 2 -16 4v61h1079l19 -307h-72q-14 117 -55 167
t-146 50h-141q-121 0 -157 -26.5t-36 -129.5v-350h117q176 0 225.5 35t59.5 137h59v-430h-59q-10 102 -59.5 137t-225.5 35h-117v-362q0 -102 36 -129t157 -27h98q121 0 188.5 50t125.5 184h71l-84 -324h-102z" />
    <glyph glyph-name="eogonek" unicode="&#x119;" horiz-adv-x="1028" 
d="M680 145q68 0 130 24t93 62l43 -34q-53 -145 -235 -197q-152 -88 -152 -184q0 -53 31 -88t82 -35q31 0 63 12v-45q-76 -68 -186 -68q-88 0 -146.5 42t-58.5 137q0 72 39 118l139 93q-207 10 -336 136t-129 331q0 215 144.5 343t347.5 128q115 0 206 -43t138 -110
t63.5 -147.5t-20.5 -154.5h-569q18 -150 101 -235t212 -85zM532 836q-76 0 -124 -73t-48 -214h302q23 115 -11.5 201t-118.5 86z" />
    <glyph glyph-name="Ecaron" unicode="&#x11a;" horiz-adv-x="1251" 
d="M915 1759l-294 -307l-295 303l30 41l265 -162l264 162zM1133 324h71l-84 -324h-1083v61q104 20 131 41q39 33 39 121v844q0 47 -7 75.5t-36 46t-42 21.5t-69 15q-10 2 -16 4v61h1079l19 -307h-72q-14 117 -55 167t-146 50h-141q-121 0 -157 -26.5t-36 -129.5v-350h117
q176 0 225.5 35t59.5 137h59v-430h-59q-10 102 -59.5 137t-225.5 35h-117v-362q0 -102 36 -129t157 -27h98q121 0 189 50.5t125 183.5z" />
    <glyph glyph-name="ecaron" unicode="&#x11b;" horiz-adv-x="1028" 
d="M801 1370l-295 -307l-295 303l31 41l264 -162l264 162zM680 145q68 0 130 24t93 62l43 -34q-37 -100 -140.5 -157.5t-248.5 -57.5q-221 0 -360.5 127t-139.5 340q0 215 144.5 343t347.5 128q115 0 206 -43t138 -110t63.5 -147.5t-20.5 -154.5h-569q18 -150 101 -235
t212 -85zM532 836q-76 0 -124 -73t-48 -214h302q23 115 -11.5 201t-118.5 86z" />
    <glyph glyph-name="Gbreve" unicode="&#x11e;" horiz-adv-x="1456" 
d="M727 1475q-143 0 -235.5 79.5t-92.5 225.5h68q35 -139 260 -139.5t260 139.5h68q0 -145 -92.5 -225t-235.5 -80zM797 -25q-330 0 -524.5 187.5t-194.5 472.5q0 299 209 493.5t530 194.5q256 0 414 -94q8 -186 14 -277h-94q-63 281 -363 281q-195 0 -282.5 -131
t-87.5 -389q0 -293 95 -470t257 -177q123 0 176 52t53 173v49q0 129 -42 171t-169 52v70h601v-70q-117 -18 -117 -141v-29q0 -229 35 -305q-78 -47 -213 -80t-297 -33z" />
    <glyph glyph-name="gbreve" unicode="&#x11f;" horiz-adv-x="1105" 
d="M549 1085q-143 0 -235.5 80t-92.5 226h68q35 -139 260 -139.5t260 139.5h68q0 -145 -92.5 -225.5t-235.5 -80.5zM1049 885v-168l-199 35q33 -57 33 -129q0 -125 -99.5 -210t-285.5 -85h-2h-37q-102 0 -103 -60q0 -43 90 -51l197 -16q221 -20 297 -63.5t76 -145.5
q0 -176 -161 -280.5t-423 -102.5q-205 2 -305 67.5t-100 149.5q0 41 53 93t131 87q-111 49 -111 144q0 43 74 108.5t158 91.5q-106 33 -162.5 106.5t-56.5 166.5q0 125 100 211t285 86q76 0 141 -17q64 -18 410 -18zM497.5 395q73.5 0 104.5 68.5t31 159t-31 160
t-104.5 69.5t-104.5 -69.5t-31 -160t31 -159t104.5 -68.5zM633 -51l-250 18q-72 4 -108.5 -27.5t-36.5 -84.5q0 -147 272 -148q137 0 219 43t82 115q0 41 -39 58.5t-139 25.5z" />
    <glyph glyph-name="Gdotaccent" unicode="&#x120;" horiz-adv-x="1456" 
d="M727 1399q-72 0 -124 51t-52 120.5t52 119t124 49.5t124 -49.5t52 -119t-52 -120.5t-124 -51zM797 -25q-330 0 -524.5 187.5t-194.5 472.5q0 299 209 493.5t530 194.5q256 0 414 -94q8 -186 14 -277h-94q-63 281 -363 281q-195 0 -282.5 -131t-87.5 -389q0 -293 95 -470
t257 -177q123 0 176 52t53 173v49q0 129 -42 171t-169 52v70h601v-70q-117 -18 -117 -141v-29q0 -229 35 -305q-78 -47 -213 -80t-297 -33z" />
    <glyph glyph-name="gdotaccent" unicode="&#x121;" horiz-adv-x="1105" 
d="M549 1010q-72 0 -124 51t-52 120.5t52 119t124 49.5t124 -49.5t52 -119t-52 -120.5t-124 -51zM1049 885v-168l-199 35q33 -57 33 -129q0 -125 -99.5 -210t-285.5 -85h-2h-37q-102 0 -103 -60q0 -43 90 -51l197 -16q221 -20 297 -63.5t76 -145.5q0 -176 -161 -280.5
t-423 -102.5q-205 2 -305 67.5t-100 149.5q0 41 53 93t131 87q-111 49 -111 144q0 43 74 108.5t158 91.5q-106 33 -162.5 106.5t-56.5 166.5q0 125 100 211t285 86q76 0 141 -17q64 -18 410 -18zM497.5 395q73.5 0 104.5 68.5t31 159t-31 160t-104.5 69.5t-104.5 -69.5
t-31 -160t31 -159t104.5 -68.5zM633 -51l-250 18q-72 4 -108.5 -27.5t-36.5 -84.5q0 -147 272 -148q137 0 219 43t82 115q0 41 -39 58.5t-139 25.5z" />
    <glyph glyph-name="uni0122" unicode="&#x122;" horiz-adv-x="1456" 
d="M797 -25q-330 0 -524.5 187.5t-194.5 472.5q0 299 209 493.5t530 194.5q256 0 414 -94q8 -186 14 -277h-94q-63 281 -363 281q-195 0 -282.5 -131t-87.5 -389q0 -293 95 -470t257 -177q123 0 176 52t53 173v49q0 129 -42 171t-169 52v70h601v-70q-117 -18 -117 -141v-29
q0 -229 35 -305q-78 -47 -213 -80t-297 -33zM541 -760l-19 64q168 51 203 168q12 68 -35 98q-98 55 -98 149q0 66 48 114t122 48q72 0 121 -55t49 -152q0 -145 -107.5 -274t-283.5 -160z" />
    <glyph glyph-name="uni0123" unicode="&#x123;" horiz-adv-x="1105" 
d="M498 1001q-72 0 -121 55.5t-49 151.5q0 145 107.5 274.5t283.5 159.5l18 -63q-168 -51 -202 -168q-12 -68 34 -98q98 -55 99 -150q0 -66 -48 -114t-122 -48zM1049 885v-168l-199 35q33 -57 33 -129q0 -125 -99.5 -210t-285.5 -85h-2h-37q-102 0 -103 -60q0 -43 90 -51
l197 -16q221 -20 297 -63.5t76 -145.5q0 -176 -161 -280.5t-423 -102.5q-205 2 -305 67.5t-100 149.5q0 41 53 93t131 87q-111 49 -111 144q0 43 74 108.5t158 91.5q-106 33 -162.5 106.5t-56.5 166.5q0 125 100 211t285 86q76 0 141 -17q64 -18 410 -18zM497.5 395
q73.5 0 104.5 68.5t31 159t-31 160t-104.5 69.5t-104.5 -69.5t-31 -160t31 -159t104.5 -68.5zM633 -51l-250 18q-72 4 -108.5 -27.5t-36.5 -84.5q0 -147 272 -148q137 0 219 43t82 115q0 41 -39 58.5t-139 25.5z" />
    <glyph glyph-name="Hbar" unicode="&#x126;" horiz-adv-x="1548" 
d="M1511 1229q-104 -20 -131 -41q-39 -33 -39 -121v-844q0 -47 7.5 -75.5t36 -46t42 -21.5t68.5 -14q10 -2 16 -5v-61h-661v61q104 20 131 41q39 33 39 121v375h-492v-375q0 -47 7.5 -75.5t36 -46t42 -21.5t68.5 -14q10 -2 16 -5v-61h-661v61q104 20 131 41q39 33 39 121
v844q0 47 -7 75.5t-36 46t-42 21.5t-69 15q-10 2 -16 4v61h661v-61q-104 -20 -131 -41q-39 -33 -39 -121v-166h492v166q0 47 -7 75.5t-36 46t-42 21.5t-69 15q-10 2 -16 4v61h661v-61zM528 684h492v131h-492v-131z" />
    <glyph glyph-name="hbar" unicode="&#x127;" horiz-adv-x="1241" 
d="M1079 180q0 -63 28 -82.5t107 -36.5v-61h-544v61q45 12 63.5 19.5t33.5 32t15 67.5v393q0 182 -120 183q-92 0 -179 -103v-473q0 -43 15.5 -67.5t34 -31.5t63.5 -20v-61h-559v61q90 16 119.5 36t29.5 83v817q-25 -2 -75 -2t-74 -2l20 90q20 -2 63.5 -2t65.5 -2v25
q0 35 -2 50t-15 34.5t-45 29t-87 15.5v57q225 25 405 117l41 -39v-291q166 0 332 6l-20 -90q-156 6 -312 6v-258q80 88 153 133.5t177 45.5q147 0 206.5 -92.5t59.5 -223.5v-424z" />
    <glyph glyph-name="Imacron" unicode="&#x12a;" horiz-adv-x="735" 
d="M66 1587l30 107h574l-31 -107h-573zM37 0v61q104 20 131 41q39 33 39 121v844q0 47 -7 75.5t-36 46t-42 21.5t-69 15q-10 2 -16 4v61h661v-61q-104 -20 -131 -41q-39 -33 -39 -121v-844q0 -47 7.5 -75.5t36 -46t42 -21.5t68.5 -14q10 -2 16 -5v-61h-661z" />
    <glyph glyph-name="imacron" unicode="&#x12b;" horiz-adv-x="641" 
d="M8 1198l31 107h573l-30 -107h-574zM37 0v61q80 16 107.5 36t27.5 83v449q0 61 -25.5 90t-109.5 39v57q274 43 389 119l43 -39v-715q0 -63 27.5 -82.5t107.5 -36.5v-61h-567z" />
    <glyph glyph-name="Iogonek" unicode="&#x12e;" horiz-adv-x="735" 
d="M698 1229q-104 -20 -131 -41q-39 -33 -39 -121v-844q0 -47 7.5 -75.5t36 -46t42 -21.5t68.5 -14q10 -2 16 -5v-61h-170q-152 -88 -151 -184q0 -53 30.5 -88t81.5 -35q31 0 64 12v-45q-76 -68 -186 -68q-88 0 -146.5 42t-58.5 137q0 72 39 118l166 111h-330v61
q104 20 131 41q39 33 39 121v844q0 47 -7 75.5t-36 46t-42 21.5t-69 15q-10 2 -16 4v61h661v-61z" />
    <glyph glyph-name="iogonek" unicode="&#x12f;" horiz-adv-x="641" 
d="M309.5 1010q-71.5 0 -124 51t-52.5 120.5t52.5 119t124 49.5t123.5 -49.5t52 -119t-52 -120.5t-123.5 -51zM467 0q-152 -88 -152 -184q0 -53 31 -88t82 -35q31 0 64 12v-45q-76 -68 -187 -68q-88 0 -146.5 42t-58.5 137q0 72 39 118l166 111h-268v61q80 16 107.5 36
t27.5 83v449q0 61 -25.5 90t-109.5 39v57q274 43 389 119l43 -39v-715q0 -63 27.5 -82.5t107.5 -36.5v-61h-137z" />
    <glyph glyph-name="Idotaccent" unicode="&#x130;" horiz-adv-x="735" 
d="M366.5 1399q-71.5 0 -124 51t-52.5 120.5t52.5 119t124 49.5t124 -49.5t52.5 -119t-52.5 -120.5t-124 -51zM37 0v61q104 20 131 41q39 33 39 121v844q0 47 -7 75.5t-36 46t-42 21.5t-69 15q-10 2 -16 4v61h661v-61q-104 -20 -131 -41q-39 -33 -39 -121v-844
q0 -47 7.5 -75.5t36 -46t42 -21.5t68.5 -14q10 -2 16 -5v-61h-661z" />
    <glyph glyph-name="dotlessi" unicode="&#x131;" horiz-adv-x="641" 
d="M37 0v61q80 16 107.5 36t27.5 83v449q0 61 -25.5 90t-109.5 39v57q274 43 389 119l43 -39v-715q0 -63 27.5 -82.5t107.5 -36.5v-61h-567z" />
    <glyph glyph-name="IJ" unicode="&#x132;" horiz-adv-x="1472" 
d="M37 0v61q104 20 131 41q39 33 39 121v844q0 47 -7 75.5t-36 46t-42 21.5t-69 15q-10 2 -16 4v61h661v-61q-104 -20 -131 -41q-39 -33 -39 -121v-844q0 -47 7.5 -75.5t36 -46t42 -21.5t68.5 -14q10 -2 16 -5v-61h-661zM729 -379q-8 14 -8 38t8 38q137 49 176 114.5
t39 221.5v1034q0 61 -21.5 95t-44 42t-83.5 21q-10 2 -17 4v61h658v-61q-104 -20 -131 -41q-39 -33 -39 -121v-1055q0 -78 -33 -140t-81 -101t-126 -70t-141.5 -47.5t-155.5 -32.5z" />
    <glyph glyph-name="ij" unicode="&#x133;" horiz-adv-x="1212" 
d="M313.5 1030q-71.5 0 -124 51.5t-52.5 121t52.5 118.5t124 49t123.5 -49t52 -118.5t-52 -121t-123.5 -51.5zM938 1030q-72 0 -124 51.5t-52 121t52 118.5t124 49t124 -49t52 -118.5t-52 -121t-124 -51.5zM37 0v61q80 16 107.5 36t27.5 83v449q0 61 -25.5 90t-109.5 39v57
q266 47 389 119l43 -39v-715q0 -63 27.5 -82.5t107.5 -36.5v-61h-567zM623 -379q-16 35 0 70q96 31 136 105.5t40 209.5v623q0 61 -25.5 90t-109.5 39v57q274 43 389 119l43 -39v-930q0 -86 -50.5 -152.5t-131 -104.5t-150 -57.5t-141.5 -29.5z" />
    <glyph glyph-name="uni0136" unicode="&#x136;" horiz-adv-x="1497" 
d="M1315 111q25 -35 56.5 -42.5t119.5 -7.5v-61h-498q0 41 -69 143l-316 478l-80 -80v-318q0 -47 7.5 -75.5t36 -46t42 -21.5t68.5 -14q10 -2 16 -5v-61h-661v61q104 20 131 41q39 33 39 121v844q0 47 -7 75.5t-36 46t-42 21.5t-69 15q-10 2 -16 4v61h661v-61
q-104 -20 -131 -41q-39 -33 -39 -121v-395l478 469q90 88 -84 88v61h460v-61q-96 0 -146 -19.5t-99 -68.5l-316 -312zM401 -119q72 0 121 -55t49 -152q0 -145 -107.5 -274t-283.5 -160l-18 64q168 51 203 168q12 68 -35 98q-98 55 -99 149q0 66 48 114t122 48z" />
    <glyph glyph-name="uni0137" unicode="&#x137;" horiz-adv-x="1292" 
d="M1098 135q27 -37 60.5 -50t117.5 -22v-63h-457q0 76 -37 125l-202 291l-97 -92v-144q0 -63 30 -82.5t120 -36.5v-61h-596v61q90 16 119.5 36t29.5 83v924q0 35 -2 50t-15 34.5t-45 29t-87 15.5v57q225 25 405 117l41 -39v-919l303 284q94 88 -73 105v63h446v-63
q-66 -4 -117 -24.5t-77.5 -40t-73.5 -60.5l-119 -115zM666 -119q72 0 121 -55t49 -152q0 -145 -107.5 -274t-284.5 -160l-18 64q168 51 203 168q12 68 -35 98q-98 55 -98 149q0 66 48 114t122 48z" />
    <glyph glyph-name="Lacute" unicode="&#x139;" horiz-adv-x="1271" 
d="M401 1413l-75 45q35 166 141 316q57 0 116.5 -45.5t80.5 -104.5q-157 -98 -263 -211zM37 0v61q104 20 131 41q39 33 39 121v844q0 47 -7 75.5t-36 46t-42 21.5t-69 15q-10 2 -16 4v61h639v-61q-51 -10 -69.5 -15.5t-42 -21.5t-30 -45t-6.5 -80v-817q0 -102 36 -129
t157 -27h104q125 0 193.5 49.5t120.5 192.5h75l-84 -336h-1093z" />
    <glyph glyph-name="lacute" unicode="&#x13a;" horiz-adv-x="669" 
d="M297 1421l-76 45q35 166 141 316q57 0 117 -45t80 -105q-156 -98 -262 -211zM37 0v61q90 16 119.5 36t29.5 83v924q0 35 -2 50t-15 34.5t-45 29t-87 15.5v57q225 25 405 117l41 -39v-1188q0 -63 30 -82.5t120 -36.5v-61h-596z" />
    <glyph glyph-name="uni013B" unicode="&#x13b;" horiz-adv-x="1271" 
d="M37 0v61q104 20 131 41q39 33 39 121v844q0 47 -7 75.5t-36 46t-42 21.5t-69 15q-10 2 -16 4v61h639v-61q-51 -10 -69.5 -15.5t-42 -21.5t-30 -45t-6.5 -80v-817q0 -102 36 -129t157 -27h104q125 0 193.5 49.5t120.5 192.5h75l-84 -336h-1093zM444 -760l-18 64
q168 51 203 168q12 68 -35 98q-98 55 -98 149q0 66 48 114t122 48q72 0 121 -55t49 -152q0 -145 -108 -274t-284 -160z" />
    <glyph glyph-name="uni013C" unicode="&#x13c;" horiz-adv-x="669" 
d="M37 0v61q90 16 119.5 36t29.5 83v924q0 35 -2 50t-15 34.5t-45 29t-87 15.5v57q225 25 405 117l41 -39v-1188q0 -63 30 -82.5t120 -36.5v-61h-596zM147 -760l-18 64q168 51 203 168q12 68 -35 98q-98 55 -98 149q0 66 48 114t122 48q72 0 121 -55t49 -152
q0 -145 -108 -274t-284 -160z" />
    <glyph glyph-name="Lcaron" unicode="&#x13d;" horiz-adv-x="1271" 
d="M805 651l-19 64q168 51 203 168q12 68 -35 98q-98 55 -98 149q0 66 48 114t122 48q72 0 121 -55t49 -152q0 -145 -107.5 -274t-283.5 -160zM37 0v61q104 20 131 41q39 33 39 121v844q0 47 -7 75.5t-36 46t-42 21.5t-69 15q-10 2 -16 4v61h639v-61q-51 -10 -69.5 -15.5
t-42 -21.5t-30 -45t-6.5 -80v-817q0 -102 36 -129t157 -27h104q125 0 193.5 49.5t120.5 192.5h75l-84 -336h-1093z" />
    <glyph glyph-name="lcaron" unicode="&#x13e;" horiz-adv-x="739" 
d="M37 0v61q90 16 119.5 36t29.5 83v924q0 35 -2 50t-15 34.5t-45 29t-87 15.5v57q225 25 405 117l41 -39v-1188q0 -63 30 -82.5t120 -36.5v-61h-596zM733 1008l-86 8q-18 160 -90 327q51 33 125 35t123 -30q0 -182 -72 -340z" />
    <glyph glyph-name="Ldot" unicode="&#x13f;" horiz-adv-x="1271" 
d="M37 0v61q104 20 131 41q39 33 39 121v844q0 47 -7 75.5t-36 46t-42 21.5t-69 15q-10 2 -16 4v61h639v-61q-51 -10 -69.5 -15.5t-42 -21.5t-30 -45t-6.5 -80v-817q0 -102 36 -129t157 -27h104q125 0 193.5 49.5t120.5 192.5h75l-84 -336h-1093zM928 469q-72 0 -121 50
t-49 122q0 68 50 117t120 49q68 0 117 -49t49 -117q0 -72 -49 -122t-117 -50z" />
    <glyph glyph-name="ldot" unicode="&#x140;" horiz-adv-x="901" 
d="M37 0v61q90 16 119.5 36t29.5 83v924q0 35 -2 50t-15 34.5t-45 29t-87 15.5v57q225 25 405 117l41 -39v-1188q0 -63 30 -82.5t120 -36.5v-61h-596zM780 520q-72 0 -121 50.5t-49 121.5q0 68 50.5 117t119.5 49q68 0 117 -49t49 -117q0 -72 -49 -122t-117 -50z" />
    <glyph glyph-name="Lslash" unicode="&#x141;" horiz-adv-x="1261" 
d="M1128 336h76l-84 -336h-1093v61q104 20 131 41q39 33 39 121v367l-160 -62v117q53 14 160 47v375q0 47 -7.5 75.5t-36 46t-42 21.5t-68.5 15q-10 2 -16 4v61h639v-61q-51 -10 -69.5 -15.5t-42.5 -21.5t-30 -45t-6 -80v-268q127 43 322 119v-117q-154 -41 -322 -96v-455
q0 -102 36 -129t157 -27h104q125 0 193.5 49.5t119.5 192.5z" />
    <glyph glyph-name="lslash" unicode="&#x142;" horiz-adv-x="669" 
d="M633 739q-115 -33 -150 -45v-514q0 -63 30 -82.5t120 -36.5v-61h-596v61q90 16 119.5 36t29.5 83v410q-25 -10 -75 -29.5t-74 -30.5v113q115 33 149 45v416q0 35 -2 50t-15 34.5t-45 29t-87 15.5v57q225 25 405 117l41 -39v-575q25 10 75 29.5t75 29.5v-113z" />
    <glyph glyph-name="Nacute" unicode="&#x143;" horiz-adv-x="1431" 
d="M991 1624q-156 -98 -262 -211l-76 45q35 166 142 316q57 0 116.5 -45.5t79.5 -104.5zM932 1290h463v-61q-23 -8 -59 -18.5t-50 -17.5t-33.5 -21.5t-25.5 -39t-6 -65.5v-1067h-134l-780 1096v-873q0 -47 8.5 -75.5t39 -46t45 -21.5t73.5 -14q12 -2 19 -5v-61h-455v61
q106 20 133 41q41 33 41 121v844q0 47 -8 75.5t-36 46t-44.5 21.5t-67.5 15q-12 2 -18 4v61h495l592 -846v623q0 39 -7 64.5t-27.5 40t-38 21.5t-56.5 17.5t-63 18.5v61z" />
    <glyph glyph-name="nacute" unicode="&#x144;" horiz-adv-x="1216" 
d="M616 1024l-75 45q35 166 141 315q57 0 116.5 -45t80.5 -104q-157 -98 -263 -211zM27 0v61q80 16 107.5 36t27.5 83v449q0 61 -25.5 90t-109.5 39v57q244 37 389 119l41 -39l-72 -172h57q57 63 96.5 99t106 67t143.5 31q147 0 207 -92.5t60 -223.5v-424q0 -63 27.5 -82.5
t107.5 -36.5v-61h-545v61q45 12 63.5 19.5t34 32t15.5 67.5v395q0 180 -117 181q-104 0 -182 -105v-471q0 -43 15 -67.5t33.5 -31.5t63.5 -20v-61h-544z" />
    <glyph glyph-name="uni0145" unicode="&#x145;" horiz-adv-x="1431" 
d="M932 1290h463v-61q-23 -8 -59 -18.5t-50 -17.5t-33.5 -21.5t-25.5 -39t-6 -65.5v-1067h-134l-780 1096v-873q0 -47 8.5 -75.5t39 -46t45 -21.5t73.5 -14q12 -2 19 -5v-61h-455v61q106 20 133 41q41 33 41 121v844q0 47 -8 75.5t-36 46t-44.5 21.5t-67.5 15q-12 2 -18 4
v61h495l592 -846v623q0 39 -7 64.5t-27.5 40t-38 21.5t-56.5 17.5t-63 18.5v61zM750 -119q72 0 121 -55t49 -152q0 -145 -107.5 -274t-284.5 -160l-18 64q168 51 203 168q12 68 -35 98q-98 55 -98 149q0 66 48 114t122 48z" />
    <glyph glyph-name="uni0146" unicode="&#x146;" horiz-adv-x="1216" 
d="M27 0v61q80 16 107.5 36t27.5 83v449q0 61 -25.5 90t-109.5 39v57q244 37 389 119l41 -39l-72 -172h57q57 63 96.5 99t106 67t143.5 31q147 0 207 -92.5t60 -223.5v-424q0 -63 27.5 -82.5t107.5 -36.5v-61h-545v61q45 12 63.5 19.5t34 32t15.5 67.5v395q0 180 -117 181
q-104 0 -182 -105v-471q0 -43 15 -67.5t33.5 -31.5t63.5 -20v-61h-544zM416 -760l-19 64q168 51 203 168q12 68 -35 98q-98 55 -98 149q0 66 48 114t122 48q72 0 121 -55t49 -152q0 -145 -107.5 -274t-283.5 -160z" />
    <glyph glyph-name="Ncaron" unicode="&#x147;" horiz-adv-x="1431" 
d="M1006 1759l-295 -307l-295 303l30 41l265 -162l264 162zM932 1290h463v-61q-23 -8 -59 -18.5t-50 -17.5t-33.5 -21.5t-25.5 -39t-6 -65.5v-1067h-134l-780 1096v-873q0 -47 8.5 -75.5t39 -46t45 -21.5t73.5 -14q12 -2 19 -5v-61h-455v61q106 20 133 41q41 33 41 121v844
q0 47 -8 75.5t-36 46t-44.5 21.5t-67.5 15q-12 2 -18 4v61h495l592 -846v623q0 39 -7 64.5t-27.5 40t-38 21.5t-56.5 17.5t-63 18.5v61z" />
    <glyph glyph-name="ncaron" unicode="&#x148;" horiz-adv-x="1216" 
d="M598 1063l-295 303l31 41l264 -162l264 162l31 -37zM27 0v61q80 16 107.5 36t27.5 83v449q0 61 -25.5 90t-109.5 39v57q244 37 389 119l41 -39l-72 -172h57q57 63 96.5 99t106 67t143.5 31q147 0 207 -92.5t60 -223.5v-424q0 -63 27.5 -82.5t107.5 -36.5v-61h-545v61
q45 12 63.5 19.5t34 32t15.5 67.5v395q0 180 -117 181q-104 0 -182 -105v-471q0 -43 15 -67.5t33.5 -31.5t63.5 -20v-61h-544z" />
    <glyph glyph-name="Eng" unicode="&#x14a;" horiz-adv-x="1431" 
d="M932 1290h463v-61q-23 -8 -59 -18.5t-50 -17.5t-33.5 -21.5t-25.5 -39t-6 -65.5v-1067q-2 -76 -37 -136.5t-82 -97t-125 -67.5t-140.5 -46t-152.5 -32q-8 14 -8 38t8 38q137 49 176 114.5t39 221.5v231l-592 832v-873q0 -47 8.5 -75.5t39 -46t45 -21.5t73.5 -14
q12 -2 19 -5v-61h-455v61q106 20 133 41q41 33 41 121v844q0 47 -8 75.5t-36 46t-44.5 21.5t-67.5 15q-12 2 -18 4v61h495l592 -846v623q0 39 -7 64.5t-27.5 40t-38 21.5t-56.5 17.5t-63 18.5v61z" />
    <glyph glyph-name="eng" unicode="&#x14b;" horiz-adv-x="1153" 
d="M788 920q147 0 207 -92.5t60 -223.5v-639q0 -86 -50.5 -152.5t-131 -104.5t-150.5 -57.5t-141 -29.5q-16 35 0 70q96 31 136 105.5t40 209.5v569q0 180 -117 181q-104 0 -182 -105v-471q0 -43 15 -67.5t33.5 -31.5t63.5 -20v-61h-544v61q80 16 107.5 36t27.5 83v449
q0 61 -25.5 90t-109.5 39v57q244 37 389 119l41 -39l-72 -172h57q57 63 96.5 99t105.5 67t144 31z" />
    <glyph glyph-name="Omacron" unicode="&#x14c;" horiz-adv-x="1490" 
d="M444 1587l31 107h574l-31 -107h-574zM741 -25q-287 0 -475 185.5t-188 478.5q0 301 189.5 492.5t482.5 191.5q289 0 476 -186.5t187 -487.5q0 -293 -190.5 -483.5t-481.5 -190.5zM776 66q299 0 299 522q0 299 -92 472t-268 173q-299 0 -299 -533q0 -291 93 -462.5
t267 -171.5z" />
    <glyph glyph-name="omacron" unicode="&#x14d;" horiz-adv-x="1112" 
d="M256 1198l31 107h573l-31 -107h-573zM545 -18q-213 0 -350.5 124.5t-137.5 337.5q0 219 146.5 347.5t363.5 128.5q213 0 350.5 -125t137.5 -338q0 -219 -146.5 -347t-363.5 -128zM575 61q82 0 127.5 88.5t45.5 249.5q0 109 -16.5 202t-67 166t-127.5 73q-82 0 -127 -88
t-45 -250q0 -109 16 -202t66 -166t128 -73z" />
    <glyph glyph-name="Ohungarumlaut" unicode="&#x150;" horiz-adv-x="1490" 
d="M522 1413l-76 45q35 166 142 316q57 0 116.5 -45.5t79.5 -104.5q-156 -98 -262 -211zM901 1413l-76 45q35 166 142 316q57 0 116.5 -45.5t79.5 -104.5q-156 -98 -262 -211zM741 -25q-287 0 -475 185.5t-188 478.5q0 301 189.5 492.5t482.5 191.5q289 0 476 -186.5
t187 -487.5q0 -293 -190.5 -483.5t-481.5 -190.5zM776 66q299 0 299 522q0 299 -92 472t-268 173q-299 0 -299 -533q0 -291 93 -462.5t267 -171.5z" />
    <glyph glyph-name="ohungarumlaut" unicode="&#x151;" horiz-adv-x="1112" 
d="M334 1024l-76 45q35 166 141 315q57 0 116.5 -45t80.5 -104q-156 -98 -262 -211zM713 1024l-76 45q35 166 141 315q57 0 116.5 -45t80.5 -104q-156 -98 -262 -211zM545 -18q-213 0 -350.5 124.5t-137.5 337.5q0 219 146.5 347.5t363.5 128.5q213 0 350.5 -125t137.5 -338
q0 -219 -146.5 -347t-363.5 -128zM575 61q82 0 127.5 88.5t45.5 249.5q0 109 -16.5 202t-67 166t-127.5 73q-82 0 -127 -88t-45 -250q0 -109 16 -202t66 -166t128 -73z" />
    <glyph glyph-name="OE" unicode="&#x152;" horiz-adv-x="2097" 
d="M1978 324h72l-84 -324h-1048q-82 -25 -173 -25q-287 0 -477 185.5t-190 478.5q0 301 191.5 493.5t484.5 192.5q119 0 229 -35h979l18 -307h-71q-14 117 -55.5 167t-145.5 50h-141q-121 0 -157 -26.5t-36 -129.5v-350h117q176 0 225 35t60 137h59v-430h-59
q-10 102 -59.5 137t-225.5 35h-117v-362q0 -102 36 -129t157 -27h98q121 0 188.5 50.5t124.5 183.5zM418 700q0 -289 94 -461.5t268 -172.5q123 0 182.5 57t90.5 178v610q-29 154 -114 239t-220 85q-301 0 -301 -535z" />
    <glyph glyph-name="oe" unicode="&#x153;" horiz-adv-x="1722" 
d="M1374 147q68 0 130.5 24t92.5 62l43 -34q-37 -100 -140 -157.5t-249 -57.5q-211 0 -352 118q-143 -121 -354 -120q-213 0 -350.5 124.5t-137.5 337.5q0 219 146.5 347.5t363.5 128.5q207 0 340 -115q139 117 336 117q115 0 206 -43t138 -110t63.5 -147.5t-20.5 -154.5
h-569q18 -150 101 -235t212 -85zM575 61q82 0 127.5 88.5t45.5 249.5q0 109 -16.5 202t-67 166t-127.5 73q-82 0 -127 -88t-45 -250q0 -109 16 -202t66 -166t128 -73zM1227 838q-76 0 -124 -73t-48 -214h301q23 115 -11 201t-118 86z" />
    <glyph glyph-name="Racute" unicode="&#x154;" horiz-adv-x="1486" 
d="M1004 1624q-156 -98 -263 -211l-75 45q35 166 141 316q57 0 117 -45.5t80 -104.5zM1190 231q43 -80 119.5 -136t160.5 -32v-63q-76 -33 -200 -33q-283 0 -391 191l-115 200q-63 109 -113.5 149t-122.5 44v-328q0 -47 7.5 -75.5t36 -46t42 -21.5t68.5 -14q10 -2 16 -5v-61
h-661v61q104 20 131 41q39 33 39 121v844q0 47 -7 75.5t-36 46t-42 21.5t-69 15q-10 2 -16 4v61h620q602 0 603 -360q0 -301 -400 -363q152 -27 234 -168zM668 1200q-82 0 -111 -22.5t-29 -71.5v-467h80q182 0 247 74.5t65 197.5q0 289 -252 289z" />
    <glyph glyph-name="racute" unicode="&#x155;" horiz-adv-x="886" 
d="M455 1024l-76 45q35 166 141 315q57 0 116.5 -45t80.5 -104q-156 -98 -262 -211zM27 0v61q45 8 64.5 14.5t42 18.5t30.5 32.5t8 53.5v451q0 61 -27.5 90t-117.5 37v57q246 39 419 119l41 -39l-36 -250h61q57 147 118.5 218t149.5 71q41 0 80 -16v-269q-61 31 -135 31
q-129 0 -192.5 -85t-63.5 -202v-213q0 -33 8 -53.5t30.5 -32.5t44 -18t69.5 -15v-61h-594z" />
    <glyph glyph-name="uni0156" unicode="&#x156;" horiz-adv-x="1486" 
d="M1190 231q43 -80 119.5 -136t160.5 -32v-63q-76 -33 -200 -33q-283 0 -391 191l-115 200q-63 109 -113.5 149t-122.5 44v-328q0 -47 7.5 -75.5t36 -46t42 -21.5t68.5 -14q10 -2 16 -5v-61h-661v61q104 20 131 41q39 33 39 121v844q0 47 -7 75.5t-36 46t-42 21.5t-69 15
q-10 2 -16 4v61h620q602 0 603 -360q0 -301 -400 -363q152 -27 234 -168zM668 1200q-82 0 -111 -22.5t-29 -71.5v-467h80q182 0 247 74.5t65 197.5q0 289 -252 289zM776 -119q72 0 121 -55t49 -152q0 -145 -107.5 -274t-283.5 -160l-18 64q168 51 202 168q12 68 -34 98
q-98 55 -99 149q0 66 48 114t122 48z" />
    <glyph glyph-name="uni0157" unicode="&#x157;" horiz-adv-x="886" 
d="M27 0v61q45 8 64.5 14.5t42 18.5t30.5 32.5t8 53.5v451q0 61 -27.5 90t-117.5 37v57q246 39 419 119l41 -39l-36 -250h61q57 147 118.5 218t149.5 71q41 0 80 -16v-269q-61 31 -135 31q-129 0 -192.5 -85t-63.5 -202v-213q0 -33 8 -53.5t30.5 -32.5t44 -18t69.5 -15v-61
h-594zM139 -760l-18 64q168 51 203 168q12 68 -35 98q-98 55 -99 149q0 66 48.5 114t121.5 48q72 0 121 -55t49 -152q0 -145 -107.5 -274t-283.5 -160z" />
    <glyph glyph-name="Rcaron" unicode="&#x158;" horiz-adv-x="1486" 
d="M1018 1759l-295 -307l-295 303l31 41l264 -162l264 162zM1190 231q43 -80 119.5 -136t160.5 -32v-63q-76 -33 -200 -33q-283 0 -391 191l-115 200q-63 109 -113.5 149t-122.5 44v-328q0 -47 7.5 -75.5t36 -46t42 -21.5t68.5 -14q10 -2 16 -5v-61h-661v61q104 20 131 41
q39 33 39 121v844q0 47 -7 75.5t-36 46t-42 21.5t-69 15q-10 2 -16 4v61h620q602 0 603 -360q0 -301 -400 -363q152 -27 234 -168zM668 1200q-82 0 -111 -22.5t-29 -71.5v-467h80q182 0 247 74.5t65 197.5q0 289 -252 289z" />
    <glyph glyph-name="rcaron" unicode="&#x159;" horiz-adv-x="886" 
d="M436 1063l-295 303l31 41l264 -162l264 162l31 -37zM27 0v61q45 8 64.5 14.5t42 18.5t30.5 32.5t8 53.5v451q0 61 -27.5 90t-117.5 37v57q246 39 419 119l41 -39l-36 -250h61q57 147 118.5 218t149.5 71q41 0 80 -16v-269q-61 31 -135 31q-129 0 -192.5 -85t-63.5 -202
v-213q0 -33 8 -53.5t30.5 -32.5t44 -18t69.5 -15v-61h-594z" />
    <glyph glyph-name="Sacute" unicode="&#x15a;" horiz-adv-x="1132" 
d="M567 1413l-75 45q35 166 141 316q57 0 116.5 -45.5t79.5 -104.5q-156 -98 -262 -211zM543 -25q-276 0 -449 129l-16 271h67q43 -147 141.5 -231.5t235.5 -84.5q111 0 174.5 58.5t63.5 150.5q0 80 -60.5 141.5t-195.5 118.5q-86 37 -146.5 71t-126 86t-99.5 123t-34 157
q0 168 127 263t348 95q35 0 69 -3t64.5 -9t55 -11.5t50.5 -15.5t42 -16t37.5 -18.5t31 -17.5t28 -16.5t20.5 -13.5l6 -274h-64q-43 150 -116.5 230.5t-200.5 80.5q-106 0 -157.5 -53t-51.5 -127q0 -66 46 -114t179 -105q78 -35 119 -53.5t115 -64.5t113.5 -90t72.5 -112.5
t33 -146.5q0 -178 -144.5 -288t-377.5 -110z" />
    <glyph glyph-name="sacute" unicode="&#x15b;" horiz-adv-x="845" 
d="M432 1024l-76 45q35 166 142 315q57 0 116.5 -45t79.5 -104q-156 -98 -262 -211zM377 -18q-174 0 -316 81l-4 197h95q37 -98 92 -149.5t157 -51.5q147 0 148 111q0 53 -41 87t-141 67q-59 20 -105.5 41.5t-97.5 58.5t-79 92t-28 125q0 133 102.5 206t270.5 73
q141 0 285 -78l2 -195h-94q-59 195 -211 195q-59 0 -93 -25.5t-34 -71.5q0 -90 166 -147q72 -25 119.5 -46.5t104 -60t85 -94t28.5 -127.5q0 -145 -114.5 -216.5t-296.5 -71.5z" />
    <glyph glyph-name="Scedilla" unicode="&#x15e;" horiz-adv-x="1132" 
d="M1065 373q0 -166 -127 -273.5t-336 -122.5l-29 -57q88 0 163 -46t75 -130q0 -178 -365 -178l11 59q180 0 180 90q0 84 -236 84l91 178q-248 12 -398 127l-16 271h67q43 -147 141.5 -231.5t235.5 -84.5q111 0 174.5 58.5t63.5 150.5q0 80 -60.5 141.5t-195.5 118.5
q-86 37 -146.5 71t-126 86t-99.5 123t-34 157q0 168 127 263t348 95q35 0 69 -3t64.5 -9t55 -11.5t50.5 -15.5t42 -16t37.5 -18.5t31 -17.5t28 -16.5t20.5 -13.5l6 -274h-64q-43 150 -116.5 230.5t-200.5 80.5q-106 0 -157.5 -53t-51.5 -127q0 -66 46 -114t179 -105
q78 -35 119 -53.5t115 -64.5t113.5 -90t72.5 -112.5t33 -146.5z" />
    <glyph glyph-name="scedilla" unicode="&#x15f;" horiz-adv-x="845" 
d="M788 270q0 -127 -89 -198.5t-238 -85.5l-33 -66q88 0 163 -46t75 -130q0 -178 -365 -178l10 59q180 0 181 90q0 84 -236 84l94 183q-160 6 -289 81l-4 197h95q37 -98 92 -149.5t157 -51.5q147 0 148 111q0 53 -41 87t-141 67q-59 20 -105.5 41.5t-97.5 58.5t-79 92
t-28 125q0 133 102.5 206t270.5 73q141 0 285 -78l2 -195h-94q-59 195 -211 195q-59 0 -93 -25.5t-34 -71.5q0 -90 166 -147q72 -25 119.5 -46.5t104 -60t85 -94t28.5 -127.5z" />
    <glyph glyph-name="Scaron" unicode="&#x160;" horiz-adv-x="1132" 
d="M549 1452l-295 303l31 41l264 -162l264 162l31 -37zM543 -25q-276 0 -449 129l-16 271h67q43 -147 141.5 -231.5t235.5 -84.5q111 0 174.5 58.5t63.5 150.5q0 80 -60.5 141.5t-195.5 118.5q-86 37 -146.5 71t-126 86t-99.5 123t-34 157q0 168 127 263t348 95q35 0 69 -3
t64.5 -9t55 -11.5t50.5 -15.5t42 -16t37.5 -18.5t31 -17.5t28 -16.5t20.5 -13.5l6 -274h-64q-43 150 -116.5 230.5t-200.5 80.5q-106 0 -157.5 -53t-51.5 -127q0 -66 46 -114t179 -105q78 -35 119 -53.5t115 -64.5t113.5 -90t72.5 -112.5t33 -146.5q0 -178 -144.5 -288
t-377.5 -110z" />
    <glyph glyph-name="scaron" unicode="&#x161;" horiz-adv-x="845" 
d="M414 1063l-295 303l31 41l264 -162l264 162l31 -37zM377 -18q-174 0 -316 81l-4 197h95q37 -98 92 -149.5t157 -51.5q147 0 148 111q0 53 -41 87t-141 67q-59 20 -105.5 41.5t-97.5 58.5t-79 92t-28 125q0 133 102.5 206t270.5 73q141 0 285 -78l2 -195h-94
q-59 195 -211 195q-59 0 -93 -25.5t-34 -71.5q0 -90 166 -147q72 -25 119.5 -46.5t104 -60t85 -94t28.5 -127.5q0 -145 -114.5 -216.5t-296.5 -71.5z" />
    <glyph glyph-name="uni0162" unicode="&#x162;" horiz-adv-x="1243" 
d="M1190 1311l16 -373h-59q-23 139 -85.5 202.5t-217.5 63.5h-60v-981q0 -49 9.5 -78.5t41 -46t49 -21.5t79.5 -16v-61h-291l-39 -80q88 0 162.5 -46t74.5 -130q0 -178 -364 -178l10 59q180 0 180 90q0 84 -235 84l102 201h-278v61q111 20 137 41q41 33 41 121v981h-57
q-160 0 -223.5 -63.5t-86.5 -202.5h-59l16 373l121 -21h895z" />
    <glyph glyph-name="uni0163" unicode="&#x163;" horiz-adv-x="696" 
d="M500 242q0 -166 264 -74v-62q-133 -68 -303 -114l-35 -72q88 0 163 -46t75 -130q0 -178 -365 -178l10 59q180 0 180 90q0 84 -235 84l94 187q-68 14 -106.5 60t-38.5 104v661h-176v70q215 72 395 215h78v-201l270 25q-10 -57 -10 -109h-260v-569z" />
    <glyph glyph-name="Tcaron" unicode="&#x164;" horiz-adv-x="1243" 
d="M913 1741l-295 -307l-294 303l30 41l264 -162l265 162zM1190 1311l16 -373h-59q-23 139 -85.5 202.5t-217.5 63.5h-60v-981q0 -49 9.5 -78.5t41 -46t49 -21.5t79.5 -16v-61h-678v61q111 20 137 41q41 33 41 121v981h-57q-160 0 -223.5 -63.5t-86.5 -202.5h-59l16 373
l121 -21h895z" />
    <glyph glyph-name="tcaron" unicode="&#x165;" horiz-adv-x="739" 
d="M760 811h-260v-569q0 -166 264 -74v-62q-170 -88 -356 -126q-94 0 -149.5 50t-55.5 120v661h-176v70q215 72 395 215h78v-45l6 151q2 150 145 150q72 0 110 -47.5t1 -122.5l-82 -135q-18 -45 -40 -61.5t-62 -16.5q-72 0 -78 61v-135l270 25q-10 -58 -10 -109z" />
    <glyph glyph-name="Tbar" unicode="&#x166;" horiz-adv-x="1243" 
d="M1190 1311l16 -373h-59q-23 139 -85.5 202.5t-217.5 63.5h-60v-528l236 6l-21 -90q-143 4 -215 4v-373q0 -49 9.5 -78.5t41 -46t49 -21.5t79.5 -16v-61h-678v61q111 20 137 41q41 33 41 121v373q-74 0 -221 -4l20 90q135 -4 201 -4v526h-57q-160 0 -223.5 -63.5
t-86.5 -202.5h-59l16 373l121 -21h895z" />
    <glyph glyph-name="tbar" unicode="&#x167;" horiz-adv-x="780" 
d="M489 242q0 -166 265 -74v-62q-170 -88 -357 -126q-94 0 -149 50t-55 120v350h-166l20 90h146v221h-177v70q215 72 396 215h77v-201l271 25q-10 -57 -10 -109h-261v-221h275l-21 -90h-254v-258z" />
    <glyph glyph-name="Umacron" unicode="&#x16a;" horiz-adv-x="1466" 
d="M430 1587l31 107h573l-30 -107h-574zM737 -25q-541 0 -540 543v549q0 47 -7.5 75.5t-36 46t-42 21.5t-68.5 15q-10 2 -16 4v61h663v-61q-104 -20 -131 -41q-39 -33 -39 -121v-584q0 -412 307 -411q43 0 82 7t86 31.5t81 64.5t57.5 113.5t23.5 170.5v608q0 47 -8 75.5
t-36 46t-44 21.5t-68 15q-12 2 -18 4v61h457v-61q-115 -20 -142 -41q-43 -33 -43 -121v-567q0 -525 -518 -525z" />
    <glyph glyph-name="umacron" unicode="&#x16b;" horiz-adv-x="1200" 
d="M293 1198l31 107h573l-31 -107h-573zM426 -18q-152 0 -213 91t-61 224v453q0 37 -17.5 56t-39 25.5t-68.5 14.5v55q276 -14 422 12v-604q0 -82 35.5 -124t97.5 -42q78 0 159 97v510q0 37 -17 56t-38.5 25.5t-69.5 14.5v55q276 -14 422 12v-716q0 -61 26 -91t110 -45v-61
h-392l13 164h-35q-78 -88 -151.5 -135t-182.5 -47z" />
    <glyph glyph-name="ubreve" unicode="&#x16d;" horiz-adv-x="1200" 
d="M594 1085q-143 0 -235.5 80t-92.5 226h68q35 -139 260 -139.5t260 139.5h68q0 -145 -92.5 -225.5t-235.5 -80.5zM426 -18q-152 0 -213 91t-61 224v453q0 37 -17.5 56t-39 25.5t-68.5 14.5v55q276 -14 422 12v-604q0 -82 35.5 -124t97.5 -42q78 0 159 97v510q0 37 -17 56
t-38.5 25.5t-69.5 14.5v55q276 -14 422 12v-716q0 -61 26 -91t110 -45v-61h-392l13 164h-35q-78 -88 -151.5 -135t-182.5 -47z" />
    <glyph glyph-name="Uring" unicode="&#x16e;" horiz-adv-x="1466" 
d="M731 1460q-88 0 -147.5 58.5t-59.5 142.5t59.5 142.5t147.5 58.5t147.5 -58.5t59.5 -142.5t-59.5 -142.5t-147.5 -58.5zM731 1585q37 0 58.5 20.5t21.5 55.5t-21.5 55.5t-58.5 20.5t-58.5 -20.5t-21.5 -55.5t21.5 -55.5t58.5 -20.5zM737 -25q-541 0 -540 543v549
q0 47 -7.5 75.5t-36 46t-42 21.5t-68.5 15q-10 2 -16 4v61h663v-61q-104 -20 -131 -41q-39 -33 -39 -121v-584q0 -412 307 -411q43 0 82 7t86 31.5t81 64.5t57.5 113.5t23.5 170.5v608q0 47 -8 75.5t-36 46t-44 21.5t-68 15q-12 2 -18 4v61h457v-61q-115 -20 -142 -41
q-43 -33 -43 -121v-567q0 -525 -518 -525z" />
    <glyph glyph-name="uring" unicode="&#x16f;" horiz-adv-x="1200" 
d="M594 1071q-88 0 -147.5 58.5t-59.5 142.5t59.5 142.5t147.5 58.5t147.5 -58.5t59.5 -142.5t-59.5 -142.5t-147.5 -58.5zM594 1196q37 0 58.5 20.5t21.5 55.5t-21.5 55.5t-58.5 20.5t-58.5 -20.5t-21.5 -55.5t21.5 -55.5t58.5 -20.5zM426 -18q-152 0 -213 91t-61 224v453
q0 37 -17.5 56t-39 25.5t-68.5 14.5v55q276 -14 422 12v-604q0 -82 35.5 -124t97.5 -42q78 0 159 97v510q0 37 -17 56t-38.5 25.5t-69.5 14.5v55q276 -14 422 12v-716q0 -61 26 -91t110 -45v-61h-392l13 164h-35q-78 -88 -151.5 -135t-182.5 -47z" />
    <glyph glyph-name="Uhungarumlaut" unicode="&#x170;" horiz-adv-x="1466" 
d="M508 1413l-76 45q35 166 141 316q57 0 117 -45.5t80 -104.5q-156 -98 -262 -211zM887 1413l-76 45q35 166 141 316q57 0 116.5 -45.5t80.5 -104.5q-156 -98 -262 -211zM737 -25q-541 0 -540 543v549q0 47 -7.5 75.5t-36 46t-42 21.5t-68.5 15q-10 2 -16 4v61h663v-61
q-104 -20 -131 -41q-39 -33 -39 -121v-584q0 -412 307 -411q43 0 82 7t86 31.5t81 64.5t57.5 113.5t23.5 170.5v608q0 47 -8 75.5t-36 46t-44 21.5t-68 15q-12 2 -18 4v61h457v-61q-115 -20 -142 -41q-43 -33 -43 -121v-567q0 -525 -518 -525z" />
    <glyph glyph-name="uhungarumlaut" unicode="&#x171;" horiz-adv-x="1200" 
d="M371 1024l-76 45q35 166 141 315q57 0 116.5 -45t80.5 -104q-156 -98 -262 -211zM750 1024l-76 45q35 166 141 315q57 0 116.5 -45t80.5 -104q-156 -98 -262 -211zM426 -18q-152 0 -213 91t-61 224v453q0 37 -17.5 56t-39 25.5t-68.5 14.5v55q276 -14 422 12v-604
q0 -82 35.5 -124t97.5 -42q78 0 159 97v510q0 37 -17 56t-38.5 25.5t-69.5 14.5v55q276 -14 422 12v-716q0 -61 26 -91t110 -45v-61h-392l13 164h-35q-78 -88 -151.5 -135t-182.5 -47z" />
    <glyph glyph-name="Uogonek" unicode="&#x172;" horiz-adv-x="1484" 
d="M983 1290h457v-61q-115 -20 -142 -41q-43 -33 -43 -121v-567q0 -408 -311 -498v-6q-152 -61 -151 -180q0 -53 30.5 -88t81.5 -35q31 0 64 12v-45q-76 -68 -187 -68q-88 0 -146 42t-58 137q0 72 38 118l146 86h-25q-541 0 -540 543v549q0 47 -7.5 75.5t-36 46t-42 21.5
t-68.5 15q-10 2 -16 4v61h663v-61q-104 -20 -131 -41q-39 -33 -39 -121v-584q0 -412 307 -411q43 0 82 7t86 31.5t81 64.5t57.5 113.5t23.5 170.5v608q0 47 -8 75.5t-36 46t-44 21.5t-68 15q-12 2 -18 4v61z" />
    <glyph glyph-name="uogonek" unicode="&#x173;" horiz-adv-x="1200" 
d="M940 0q-152 -88 -152 -184q0 -53 31 -88t82 -35q31 0 64 12v-45q-76 -68 -187 -68q-88 0 -146.5 42t-58.5 137q0 72 39 118l170 115l13 160h-35q-78 -88 -151.5 -135t-182.5 -47q-152 0 -213 91t-61 224v453q0 37 -17.5 56t-39 25.5t-68.5 14.5v55q276 -14 422 12v-604
q0 -82 35.5 -124t97.5 -42q78 0 159 97v510q0 37 -17 56t-38.5 25.5t-69.5 14.5v55q276 -14 422 12v-716q0 -61 26 -91t110 -45v-61h-234z" />
    <glyph glyph-name="Wcircumflex" unicode="&#x174;" horiz-adv-x="2111" 
d="M1042 1618l-264 -162l-30 41l294 303l295 -307l-30 -37zM1655 1290h461v-45q-66 -12 -87.5 -19t-44 -28.5t-38.5 -69.5l-414 -1142h-119l-354 942l-342 -944h-119l-432 1142q-25 66 -52.5 83.5t-117.5 33.5v45h649v-45q2 0 5 1t5 1q-29 -8 -58.5 -20.5t-57 -40
t-17.5 -58.5l254 -729l197 555q43 111 7 192t-155 101v45h480q0 -88 69 -278l217 -613l226 639q18 49 19 84t-7 55.5t-37 34t-56.5 19.5t-80.5 14v45z" />
    <glyph glyph-name="wcircumflex" unicode="&#x175;" horiz-adv-x="1660" 
d="M817 1411l295 -307l-31 -37l-264 162l-264 -162l-31 41zM451 -12l-314 764q-23 53 -47 67.5t-94 20.5v61h551v-61q-94 -12 -111 -37q-12 -18 0 -51l168 -449l150 373q35 78 10 119q-23 37 -102 45v61h401q0 -82 37 -184l160 -416l133 338q27 66 32 105.5t-17 59t-50.5 26
t-87.5 10.5v61h395v-61q-70 -6 -94.5 -20.5t-46.5 -67.5l-316 -764h-104l-275 667l-274 -667h-104z" />
    <glyph glyph-name="Ycircumflex" unicode="&#x176;" horiz-adv-x="1390" 
d="M682 1618l-264 -162l-31 41l295 303l295 -307l-31 -37zM965 1290h419v-61q-80 -16 -104.5 -33.5t-75.5 -93.5l-334 -529v-366q0 -51 9.5 -80t42 -45t53 -21.5t86.5 -15.5v-45h-703v45q121 20 150 43q41 31 41 119v328l-365 567q-49 76 -73.5 93t-104.5 34v61h660v-61
q-14 -4 -51 -10.5t-49.5 -10.5t-28 -16t-10.5 -34.5t28 -55.5l272 -434l269 434q20 35 23 56.5t-18.5 33.5t-39 17t-64.5 14q-23 4 -32 6v61z" />
    <glyph glyph-name="ycircumflex" unicode="&#x177;" horiz-adv-x="1083" 
d="M535 1229l-265 -162l-30 41l295 303l294 -307l-30 -37zM737 901h350v-61q-70 -8 -95 -22.5t-50 -72.5l-344 -796q-139 -326 -334 -326q-74 0 -145 47v170q145 -33 238.5 -16.5t140.5 113.5l-353 804q-27 59 -53 74.5t-96 24.5v61h559v-61q-90 -14 -105.5 -36t3.5 -63
l196 -456l199 460q8 18 9 32t-6 24t-13.5 15t-24.5 10t-27.5 6.5t-33.5 5.5q-10 2 -15 2v61z" />
    <glyph glyph-name="Ydieresis" unicode="&#x178;" horiz-adv-x="1390" 
d="M463 1516q-59 0 -102.5 43t-43.5 102q0 57 43 99t103 42q57 0 99 -42t42 -99q0 -59 -42 -102t-99 -43zM930 1516q-59 0 -102.5 43t-43.5 102q0 57 43 99t103 42q57 0 99 -42t42 -99q0 -59 -42 -102t-99 -43zM965 1290h419v-61q-80 -16 -104.5 -33.5t-75.5 -93.5
l-334 -529v-366q0 -51 9.5 -80t42 -45t53 -21.5t86.5 -15.5v-45h-703v45q121 20 150 43q41 31 41 119v328l-365 567q-49 76 -73.5 93t-104.5 34v61h660v-61q-14 -4 -51 -10.5t-49.5 -10.5t-28 -16t-10.5 -34.5t28 -55.5l272 -434l269 434q20 35 23 56.5t-18.5 33.5t-39 17
t-64.5 14q-23 4 -32 6v61z" />
    <glyph glyph-name="Zacute" unicode="&#x179;" horiz-adv-x="1261" 
d="M645 1413l-76 45q35 166 142 316q57 0 116.5 -45.5t79.5 -104.5q-156 -98 -262 -211zM59 0l-22 31l780 1190l-362 -9q-147 -2 -206 -63.5t-69 -206.5h-67v361l137 -13h967l-799 -1220l450 8q141 2 198.5 65.5t88.5 208.5h70q-39 -209 -39 -352h-1127z" />
    <glyph glyph-name="zacute" unicode="&#x17a;" horiz-adv-x="1005" 
d="M516 1024l-76 45q35 166 142 315q57 0 116.5 -45t79.5 -104q-156 -98 -262 -211zM59 0l-22 31l547 790l-226 -6q-172 -2 -192 -211h-72v309l121 -12h741l-569 -821l246 6q123 2 177 56.5t85 160.5h74q-39 -166 -39 -303h-871z" />
    <glyph glyph-name="Zdotaccent" unicode="&#x17b;" horiz-adv-x="1261" 
d="M630.5 1399q-71.5 0 -123.5 51t-52 120.5t52 119t123.5 49.5t124 -49.5t52.5 -119t-52.5 -120.5t-124 -51zM59 0l-22 31l780 1190l-362 -9q-147 -2 -206 -63.5t-69 -206.5h-67v361l137 -13h967l-799 -1220l450 8q141 2 198.5 65.5t88.5 208.5h70q-39 -209 -39 -352h-1127
z" />
    <glyph glyph-name="zdotaccent" unicode="&#x17c;" horiz-adv-x="1005" 
d="M501.5 1010q-71.5 0 -123.5 51t-52 120.5t52 119t123.5 49.5t124 -49.5t52.5 -119t-52.5 -120.5t-124 -51zM59 0l-22 31l547 790l-226 -6q-172 -2 -192 -211h-72v309l121 -12h741l-569 -821l246 6q123 2 177 56.5t85 160.5h74q-39 -166 -39 -303h-871z" />
    <glyph glyph-name="Zcaron" unicode="&#x17d;" horiz-adv-x="1261" 
d="M627 1452l-295 303l30 41l265 -162l264 162l31 -37zM59 0l-22 31l780 1190l-362 -9q-147 -2 -206 -63.5t-69 -206.5h-67v361l137 -13h967l-799 -1220l450 8q141 2 198.5 65.5t88.5 208.5h70q-39 -209 -39 -352h-1127z" />
    <glyph glyph-name="zcaron" unicode="&#x17e;" horiz-adv-x="1005" 
d="M498 1063l-295 303l30 41l265 -162l264 162l31 -37zM59 0l-22 31l547 790l-226 -6q-172 -2 -192 -211h-72v309l121 -12h741l-569 -821l246 6q123 2 177 56.5t85 160.5h74q-39 -166 -39 -303h-871z" />
    <glyph glyph-name="florin" unicode="&#x192;" horiz-adv-x="1353" 
d="M1251 1403q223 0 260 -152q-4 -59 -76.5 -103t-158.5 -48q-8 55 -19.5 92t-38 70.5t-67.5 33.5q-135 0 -164 -223l-20 -168l262 27q-10 -55 -10 -121h-263l-75 -639q-20 -166 -119.5 -291t-224.5 -182t-250 -57q-223 0 -260 151q4 59 76.5 103.5t158.5 48.5
q8 -55 19.5 -92t38 -71t67.5 -34q135 0 164 223l100 840h-143v59l154 31q25 160 124 277.5t220.5 171t244.5 53.5z" />
    <glyph glyph-name="uni0218" unicode="&#x218;" horiz-adv-x="1132" 
d="M543 -25q-276 0 -449 129l-16 271h67q43 -147 141.5 -231.5t235.5 -84.5q111 0 174.5 58.5t63.5 150.5q0 80 -60.5 141.5t-195.5 118.5q-86 37 -146.5 71t-126 86t-99.5 123t-34 157q0 168 127 263t348 95q35 0 69 -3t64.5 -9t55 -11.5t50.5 -15.5t42 -16t37.5 -18.5
t31 -17.5t28 -16.5t20.5 -13.5l6 -274h-64q-43 150 -116.5 230.5t-200.5 80.5q-106 0 -157.5 -53t-51.5 -127q0 -66 46 -114t179 -105q78 -35 119 -53.5t115 -64.5t113.5 -90t72.5 -112.5t33 -146.5q0 -178 -144.5 -288t-377.5 -110zM377 -760l-19 64q168 51 203 168
q12 68 -35 98q-98 55 -98 149q0 66 48 114t122 48q72 0 121 -55t49 -152q0 -145 -107.5 -274t-283.5 -160z" />
    <glyph glyph-name="uni0219" unicode="&#x219;" horiz-adv-x="845" 
d="M377 -18q-174 0 -316 81l-4 197h95q37 -98 92 -149.5t157 -51.5q147 0 148 111q0 53 -41 87t-141 67q-59 20 -105.5 41.5t-97.5 58.5t-79 92t-28 125q0 133 102.5 206t270.5 73q141 0 285 -78l2 -195h-94q-59 195 -211 195q-59 0 -93 -25.5t-34 -71.5q0 -90 166 -147
q72 -25 119.5 -46.5t104 -60t85 -94t28.5 -127.5q0 -145 -114.5 -216.5t-296.5 -71.5zM231 -760l-18 64q168 51 203 168q12 68 -35 98q-98 55 -98 149q0 66 48 114t122 48q72 0 121 -55t49 -152q0 -145 -108 -274t-284 -160z" />
    <glyph glyph-name="uni021A" unicode="&#x21a;" horiz-adv-x="1243" 
d="M1190 1311l16 -373h-59q-23 139 -85.5 202.5t-217.5 63.5h-60v-981q0 -49 9.5 -78.5t41 -46t49 -21.5t79.5 -16v-61h-678v61q111 20 137 41q41 33 41 121v981h-57q-160 0 -223.5 -63.5t-86.5 -202.5h-59l16 373l121 -21h895zM657 -119q72 0 121 -55t49 -152
q0 -145 -107.5 -274t-283.5 -160l-18 64q168 51 203 168q12 68 -35 98q-98 55 -99 149q0 66 48 114t122 48z" />
    <glyph glyph-name="uni021B" unicode="&#x21b;" horiz-adv-x="696" 
d="M500 242q0 -166 264 -74v-62q-170 -88 -356 -126q-94 0 -149.5 50t-55.5 120v661h-176v70q215 72 395 215h78v-201l270 25q-10 -57 -10 -109h-260v-569zM463 -119q72 0 121 -55t49 -152q0 -145 -107.5 -274t-283.5 -160l-19 64q168 51 203 168q12 68 -35 98
q-98 55 -98 149q0 66 48 114t122 48z" />
    <glyph glyph-name="uni0237" unicode="&#x237;" horiz-adv-x="552" 
d="M-18 -379q-16 35 0 70q111 35 143.5 87t32.5 197v654q0 61 -26 90t-109 39v57q274 43 389 119l43 -39v-930q0 -86 -50.5 -152.5t-131 -104.5t-150 -57.5t-141.5 -29.5z" />
    <glyph glyph-name="circumflex" unicode="&#x2c6;" horiz-adv-x="606" 
d="M291 1411l295 -307l-31 -37l-264 162l-264 -162l-31 41z" />
    <glyph glyph-name="caron" unicode="&#x2c7;" horiz-adv-x="581" 
d="M291 1063l-295 303l31 41l264 -162l264 162l31 -37z" />
    <glyph glyph-name="breve" unicode="&#x2d8;" horiz-adv-x="647" 
d="M323.5 1085q-143.5 0 -235.5 80t-92 226h67q35 -139 260.5 -139.5t260.5 139.5h67q0 -145 -92 -225.5t-235.5 -80.5z" />
    <glyph glyph-name="dotaccent" unicode="&#x2d9;" horiz-adv-x="344" 
d="M172 1010q-72 0 -124 51t-52 120.5t52 119t124 49.5t124 -49.5t52 -119t-52 -120.5t-124 -51z" />
    <glyph glyph-name="ring" unicode="&#x2da;" horiz-adv-x="405" 
d="M203 1071q-88 0 -147.5 58.5t-59.5 142.5t59.5 142.5t147.5 58.5t147.5 -58.5t59.5 -142.5t-59.5 -142.5t-147.5 -58.5zM203 1196q37 0 58.5 20.5t21.5 55.5t-21.5 55.5t-58.5 20.5t-58.5 -20.5t-21.5 -55.5t21.5 -55.5t58.5 -20.5z" />
    <glyph glyph-name="ogonek" unicode="&#x2db;" horiz-adv-x="382" 
d="M201 -375q-88 0 -146.5 42t-58.5 136q0 72 39 119l327 219v-108q-152 -88 -151 -185q0 -53 30.5 -87.5t82.5 -34.5q31 0 63 12v-45q-75 -68 -186 -68z" />
    <glyph glyph-name="tilde" unicode="&#x2dc;" horiz-adv-x="782" 
d="M537 1038q-82 0 -181.5 77t-175.5 77q-47 0 -82 -37t-35 -70h-63q-16 121 59.5 196t182.5 75q84 0 185 -77t175 -77q47 0 82 37t35 70h63q18 -121 -59 -196t-186 -75z" />
    <glyph glyph-name="hungarumlaut" unicode="&#x2dd;" horiz-adv-x="708" 
d="M72 1024l-76 45q35 166 141 315q57 0 116.5 -45t80.5 -104q-156 -98 -262 -211zM451 1024l-76 45q35 166 141 315q57 0 116.5 -45t80.5 -104q-156 -98 -262 -211z" />
    <glyph glyph-name="acutecomb" unicode="&#x301;" horiz-adv-x="0" 
d="M-276 1024l-76 45q35 166 141 315q57 0 116.5 -45t80.5 -104q-156 -98 -262 -211z" />
    <glyph glyph-name="uni0326" unicode="&#x326;" horiz-adv-x="0" 
d="M-354 -760l-19 64q168 51 203 168q12 68 -35 98q-98 55 -98 149q0 66 48 114t122 48q72 0 121 -55t49 -152q0 -145 -107.5 -274t-283.5 -160z" />
    <glyph glyph-name="uni0394" unicode="&#x394;" horiz-adv-x="1228" 
d="M-4 0l618 1298l619 -1298h-1237zM193 240h651l-320 727z" />
    <glyph glyph-name="uni03A9" unicode="&#x3a9;" horiz-adv-x="1531" 
d="M1413 270h41l-74 -270h-475v211q76 37 137.5 175t61.5 300q0 240 -88 384t-250 144t-250 -144t-88 -384q0 -162 61.5 -300t137.5 -175v-211h-475l-74 270h41q31 -41 79 -50t171 -9q-123 109 -172 172q-111 147 -111 324q0 262 193.5 430t486.5 168t486.5 -168t193.5 -430
q0 -88 -24.5 -166t-75 -141.5t-81 -95.5t-85.5 -79q-10 -10 -17 -14q123 0 171 9t79 50z" />
    <glyph glyph-name="uni03BC" unicode="&#x3bc;" horiz-adv-x="1200" 
d="M1038 197q0 -61 26 -91t110 -45v-61h-392l13 164h-35q-78 -88 -151.5 -135t-182.5 -47q-41 0 -86 10q10 -86 33.5 -141.5t42 -81t18.5 -41.5q0 -72 -67.5 -114t-136 -18.5t-68.5 107.5v487q-10 43 -10 107v453q0 37 -17.5 56t-39 25.5t-68.5 14.5v55q276 -14 422 12v-604
q0 -82 35.5 -124t97.5 -42q78 0 159 97v510q0 37 -17 56t-38.5 25.5t-69.5 14.5v55q276 -14 422 12v-716z" />
    <glyph glyph-name="pi" unicode="&#x3c0;" horiz-adv-x="1564" 
d="M1401 274q96 0 96 -98q0 -102 -89 -149t-196 -47q-127 0 -231 69.5t-104 216.5v439h-195v-441q0 -133 -93 -204.5t-216 -71.5q-106 0 -174 24l-17 82q86 -20 144.5 22t58.5 148v441h-74q-170 0 -133 -150l-78 43q-33 84 -29.5 155.5t66 121t172.5 49.5h1057v-219h-192
v-445q0 -158 69 -158q18 0 34.5 27t27 59.5t35 59t61.5 26.5z" />
    <glyph glyph-name="Wgrave" unicode="&#x1e80;" horiz-adv-x="2111" 
d="M1083 1413q-106 113 -262 211q20 59 80 104.5t117 45.5q106 -150 141 -316zM1655 1290h461v-45q-66 -12 -87.5 -19t-44 -28.5t-38.5 -69.5l-414 -1142h-119l-354 942l-342 -944h-119l-432 1142q-25 66 -52.5 83.5t-117.5 33.5v45h649v-45q2 0 5 1t5 1q-29 -8 -58.5 -20.5
t-57 -40t-17.5 -58.5l254 -729l197 555q43 111 7 192t-155 101v45h480q0 -88 69 -278l217 -613l226 639q18 49 19 84t-7 55.5t-37 34t-56.5 19.5t-80.5 14v45z" />
    <glyph glyph-name="wgrave" unicode="&#x1e81;" horiz-adv-x="1660" 
d="M858 1024q-106 113 -262 211q20 59 79.5 104t117.5 45q106 -150 141 -315zM451 -12l-314 764q-23 53 -47 67.5t-94 20.5v61h551v-61q-94 -12 -111 -37q-12 -18 0 -51l168 -449l150 373q35 78 10 119q-23 37 -102 45v61h401q0 -82 37 -184l160 -416l133 338
q27 66 32 105.5t-17 59t-50.5 26t-87.5 10.5v61h395v-61q-70 -6 -94.5 -20.5t-46.5 -67.5l-316 -764h-104l-275 667l-274 -667h-104z" />
    <glyph glyph-name="Wacute" unicode="&#x1e82;" horiz-adv-x="2111" 
d="M1331 1624q-156 -98 -262 -211l-76 45q35 166 142 316q57 0 116.5 -45.5t79.5 -104.5zM1655 1290h461v-45q-66 -12 -87.5 -19t-44 -28.5t-38.5 -69.5l-414 -1142h-119l-354 942l-342 -944h-119l-432 1142q-25 66 -52.5 83.5t-117.5 33.5v45h649v-45q2 0 5 1t5 1
q-29 -8 -58.5 -20.5t-57 -40t-17.5 -58.5l254 -729l197 555q43 111 7 192t-155 101v45h480q0 -88 69 -278l217 -613l226 639q18 49 19 84t-7 55.5t-37 34t-56.5 19.5t-80.5 14v45z" />
    <glyph glyph-name="wacute" unicode="&#x1e83;" horiz-adv-x="1660" 
d="M844 1024l-76 45q35 166 141 315q57 0 116.5 -45t80.5 -104q-156 -98 -262 -211zM451 -12l-314 764q-23 53 -47 67.5t-94 20.5v61h551v-61q-94 -12 -111 -37q-12 -18 0 -51l168 -449l150 373q35 78 10 119q-23 37 -102 45v61h401q0 -82 37 -184l160 -416l133 338
q27 66 32 105.5t-17 59t-50.5 26t-87.5 10.5v61h395v-61q-70 -6 -94.5 -20.5t-46.5 -67.5l-316 -764h-104l-275 667l-274 -667h-104z" />
    <glyph glyph-name="Wdieresis" unicode="&#x1e84;" horiz-adv-x="2111" 
d="M823 1516q-59 0 -102 43t-43 102q0 57 43 99t102 42q57 0 99.5 -42t42.5 -99q0 -59 -42.5 -102t-99.5 -43zM1290 1516q-59 0 -102 43t-43 102q0 57 43 99t102 42q57 0 99.5 -42t42.5 -99q0 -59 -42.5 -102t-99.5 -43zM1655 1290h461v-45q-66 -12 -87.5 -19t-44 -28.5
t-38.5 -69.5l-414 -1142h-119l-354 942l-342 -944h-119l-432 1142q-25 66 -52.5 83.5t-117.5 33.5v45h649v-45q2 0 5 1t5 1q-29 -8 -58.5 -20.5t-57 -40t-17.5 -58.5l254 -729l197 555q43 111 7 192t-155 101v45h480q0 -88 69 -278l217 -613l226 639q18 49 19 84t-7 55.5
t-37 34t-56.5 19.5t-80.5 14v45z" />
    <glyph glyph-name="wdieresis" unicode="&#x1e85;" horiz-adv-x="1660" 
d="M598 1126q-59 0 -102 43t-43 103q0 57 43 99t102 42q57 0 99 -42t42 -99q0 -59 -42 -102.5t-99 -43.5zM1065 1126q-59 0 -102 43t-43 103q0 57 43 99t102 42q57 0 99 -42t42 -99q0 -59 -42 -102.5t-99 -43.5zM451 -12l-314 764q-23 53 -47 67.5t-94 20.5v61h551v-61
q-94 -12 -111 -37q-12 -18 0 -51l168 -449l150 373q35 78 10 119q-23 37 -102 45v61h401q0 -82 37 -184l160 -416l133 338q27 66 32 105.5t-17 59t-50.5 26t-87.5 10.5v61h395v-61q-70 -6 -94.5 -20.5t-46.5 -67.5l-316 -764h-104l-275 667l-274 -667h-104z" />
    <glyph glyph-name="uni1E9E" unicode="&#x1e9e;" horiz-adv-x="1585" 
d="M1133 717q172 -27 278.5 -118t106.5 -241q0 -170 -136.5 -284.5t-357.5 -114.5q-172 0 -287 66q-4 113 -35 249h70q55 -137 109.5 -185t128.5 -48q104 0 156.5 66.5t52.5 179.5q0 178 -125 271t-349 93l314 523q-63 33 -182 32q-70 0 -125.5 -15t-111.5 -57t-88 -135.5
t-32 -230.5v-545q0 -59 16.5 -93t35 -43t59.5 -21q10 -2 14 -5v-61h-618v61q104 20 131 41q39 33 39 121v510q0 571 571 572q272 0 641 -127z" />
    <glyph glyph-name="uni1EBC" unicode="&#x1ebc;" horiz-adv-x="1251" 
d="M281 1475h-64q-16 121 59.5 195.5t182.5 74.5q84 0 185 -77t175 -77q47 0 82 37t35 70h63q18 -121 -59.5 -196t-185.5 -75q-82 0 -181.5 77t-175.5 77q-47 0 -81.5 -36.5t-34.5 -69.5zM1133 324h71l-84 -324h-1083v61q104 20 131 41q39 33 39 121v844q0 47 -7 75.5
t-36 46t-42 21.5t-69 15q-10 2 -16 4v61h1079l19 -307h-72q-14 117 -55 167t-146 50h-141q-121 0 -157 -26.5t-36 -129.5v-350h117q176 0 225.5 35t59.5 137h59v-430h-59q-10 102 -59.5 137t-225.5 35h-117v-362q0 -102 36 -129t157 -27h98q121 0 189 50.5t125 183.5z" />
    <glyph glyph-name="uni1EBD" unicode="&#x1ebd;" horiz-adv-x="1028" 
d="M166 1085h-64q-16 121 60 196t182 75q84 0 185.5 -77t175.5 -77q47 0 81.5 37t34.5 70h64q18 -121 -59.5 -196t-186.5 -75q-82 0 -181.5 77t-174.5 77q-47 0 -82 -37t-35 -70zM680 145q68 0 130 24t93 62l43 -34q-37 -100 -140.5 -157.5t-248.5 -57.5q-221 0 -360.5 127
t-139.5 340q0 215 144.5 343t347.5 128q115 0 206 -43t138 -110t63.5 -147.5t-20.5 -154.5h-569q18 -150 101 -235t212 -85zM532 836q-76 0 -124 -73t-48 -214h302q23 115 -11.5 201t-118.5 86z" />
    <glyph glyph-name="Ygrave" unicode="&#x1ef2;" horiz-adv-x="1390" 
d="M723 1413q-106 113 -262 211q20 59 79.5 104.5t116.5 45.5q106 -150 142 -316zM965 1290h419v-61q-80 -16 -104.5 -33.5t-75.5 -93.5l-334 -529v-366q0 -51 9.5 -80t42 -45t53 -21.5t86.5 -15.5v-45h-703v45q121 20 150 43q41 31 41 119v328l-365 567q-49 76 -73.5 93
t-104.5 34v61h660v-61q-14 -4 -51 -10.5t-49.5 -10.5t-28 -16t-10.5 -34.5t28 -55.5l272 -434l269 434q20 35 23 56.5t-18.5 33.5t-39 17t-64.5 14q-23 4 -32 6v61z" />
    <glyph glyph-name="ygrave" unicode="&#x1ef3;" horiz-adv-x="1083" 
d="M575 1024q-106 113 -262 211q20 59 80 104t117 45q106 -150 141 -315zM737 901h350v-61q-70 -8 -95 -22.5t-50 -72.5l-344 -796q-139 -326 -334 -326q-74 0 -145 47v170q145 -33 238.5 -16.5t140.5 113.5l-353 804q-27 59 -53 74.5t-96 24.5v61h559v-61
q-90 -14 -105.5 -36t3.5 -63l196 -456l199 460q8 18 9 32t-6 24t-13.5 15t-24.5 10t-27.5 6.5t-33.5 5.5q-10 2 -15 2v61z" />
    <glyph glyph-name="endash" unicode="&#x2013;" horiz-adv-x="1312" 
d="M78 471v137h1157v-137h-1157z" />
    <glyph glyph-name="emdash" unicode="&#x2014;" horiz-adv-x="1832" 
d="M78 471v137h1677v-137h-1677z" />
    <glyph glyph-name="uni2015" unicode="&#x2015;" horiz-adv-x="1832" 
d="M78 471v137h1677v-137h-1677z" />
    <glyph glyph-name="quoteleft" unicode="&#x2018;" horiz-adv-x="524" 
d="M449 1321l18 -64q-168 -51 -203 -167q-12 -68 35 -99q98 -55 98 -149q0 -66 -48 -114t-122 -48q-72 0 -121 55.5t-49 151.5q0 145 108 274t284 160z" />
    <glyph glyph-name="quoteright" unicode="&#x2019;" horiz-adv-x="524" 
d="M76 684l-19 64q168 51 203 167q12 68 -35 99q-98 55 -98 149q0 66 48 114t122 48q72 0 121 -55.5t49 -151.5q0 -145 -107.5 -274t-283.5 -160z" />
    <glyph glyph-name="quotesinglbase" unicode="&#x201a;" horiz-adv-x="524" 
d="M76 -324l-19 64q168 51 203 168q12 68 -35 98q-98 55 -98 150q0 66 48 113.5t122 47.5q72 0 121 -55t49 -151q0 -145 -107.5 -274.5t-283.5 -160.5z" />
    <glyph glyph-name="quotedblleft" unicode="&#x201c;" horiz-adv-x="1005" 
d="M449 1321l18 -64q-168 -51 -203 -167q-12 -68 35 -99q98 -55 98 -149q0 -66 -48 -114t-122 -48q-72 0 -121 55.5t-49 151.5q0 145 108 274t284 160zM930 1321l18 -64q-168 -51 -203 -167q-12 -68 35 -99q98 -55 99 -149q0 -66 -48.5 -114t-121.5 -48q-72 0 -121 55.5
t-49 151.5q0 145 107.5 274t283.5 160z" />
    <glyph glyph-name="quotedblright" unicode="&#x201d;" horiz-adv-x="1005" 
d="M76 684l-19 64q168 51 203 167q12 68 -35 99q-98 55 -98 149q0 66 48 114t122 48q72 0 121 -55.5t49 -151.5q0 -145 -107.5 -274t-283.5 -160zM557 684l-18 64q168 51 202 167q12 68 -34 99q-98 55 -99 149q0 66 48.5 114t121.5 48q72 0 121 -55.5t49 -151.5
q0 -145 -107.5 -274t-283.5 -160z" />
    <glyph glyph-name="quotedblbase" unicode="&#x201e;" horiz-adv-x="1005" 
d="M76 -313l-19 63q168 51 203 168q12 68 -35 98q-98 55 -98 150q0 66 48 114t122 48q72 0 121 -55.5t49 -151.5q0 -145 -107.5 -274t-283.5 -160zM557 -313l-18 63q168 51 202 168q12 68 -34 98q-98 55 -99 150q0 66 48.5 114t121.5 48q72 0 121 -55.5t49 -151.5
q0 -145 -107.5 -274t-283.5 -160z" />
    <glyph glyph-name="dagger" unicode="&#x2020;" horiz-adv-x="1101" 
d="M530 4l-112 666l104 139v102q-55 2 -126.5 -45t-112.5 -47q-66 0 -105 33t-39 86t39 86t105 33q41 0 112.5 -48t126.5 -48q-2 66 -52 136t-50 105q0 57 34.5 94t96 37t96.5 -36.5t35 -94.5q0 -35 -50 -105.5t-52 -135.5q55 0 126.5 48t112.5 48q66 0 105 -33t39 -86
t-39 -86t-105 -33q-41 0 -112.5 47t-126.5 45v-102l104 -139l-113 -666h-41z" />
    <glyph glyph-name="daggerdbl" unicode="&#x2021;" horiz-adv-x="1105" 
d="M550.5 -55q-61.5 0 -96 36.5t-34.5 94.5q0 35 50 105.5t52 135.5q-55 0 -126.5 -48t-112.5 -48q-66 0 -105 33t-39 86t39 86t105 33q41 0 112.5 -47t126.5 -45v102l-104 180l104 160v102q-55 2 -126.5 -45t-112.5 -47q-66 0 -105 33t-39 86t39 86t105 33q41 0 112.5 -48
t126.5 -48q-2 66 -52 136t-50 105q0 57 34.5 94t96 37t96.5 -36.5t35 -94.5q0 -35 -50 -105.5t-52 -135.5q55 0 126.5 48t112.5 48q66 0 105 -33t39 -86t-39 -86t-105 -33q-41 0 -112.5 47t-126.5 45v-102l104 -160l-104 -180v-102q55 -2 126.5 45t112.5 47q66 0 105 -33
t39 -86t-39 -86t-105 -33q-41 0 -112.5 48t-126.5 48q2 -66 52 -136t50 -105q0 -57 -35 -94t-96.5 -37z" />
    <glyph glyph-name="bullet" unicode="&#x2022;" horiz-adv-x="827" 
d="M414 150q-131 0 -223.5 91t-92.5 224t92.5 224t223.5 91t223 -91t92 -224t-92 -224t-223 -91z" />
    <glyph glyph-name="ellipsis" unicode="&#x2026;" horiz-adv-x="1445" 
d="M248 -20q-72 0 -121 50t-49 122q0 68 50 116.5t120 48.5q68 0 117 -49t49 -116q0 -72 -49 -122t-117 -50zM725 -20q-72 0 -121 50t-49 122q0 68 50 116.5t120 48.5q68 0 117 -49t49 -116q0 -72 -49 -122t-117 -50zM1202 -20q-72 0 -121 50t-49 122q0 68 50.5 116.5
t119.5 48.5q68 0 117 -49t49 -116q0 -72 -49 -122t-117 -50z" />
    <glyph glyph-name="perthousand" unicode="&#x2030;" horiz-adv-x="2099" 
d="M1098 1290h141l-915 -1290h-125l798 1114q-150 -94 -350 -12q2 -12 2 -35q0 -158 -98 -281.5t-246 -123.5q-104 0 -165.5 66.5t-61.5 174.5q0 154 106.5 274.5t255.5 120.5q94 0 150 -55q88 -55 145.5 -78.5t121 -27.5t121 34.5t120.5 118.5zM354 737q84 0 147.5 108.5
t63.5 217.5q0 72 -33.5 116t-82.5 44q-84 0 -139.5 -112t-55.5 -220q0 -68 26.5 -111t73.5 -43zM1165 633q100 0 154.5 -61.5t54.5 -170.5q0 -158 -98 -281.5t-246 -123.5q-104 0 -165.5 66.5t-61.5 175.5q0 154 106 274.5t256 120.5zM1812 633q100 0 154.5 -61.5
t54.5 -170.5q0 -158 -98 -281.5t-246 -123.5q-104 0 -165.5 66.5t-61.5 175.5q0 154 106 274.5t256 120.5zM1079 72q84 0 147.5 108.5t63.5 216.5q0 72 -33.5 116t-82.5 44q-84 0 -139.5 -111.5t-55.5 -220.5q0 -68 26.5 -110.5t73.5 -42.5zM1726 72q84 0 147.5 108.5
t63.5 216.5q0 72 -33.5 116t-82.5 44q-84 0 -139.5 -111.5t-55.5 -220.5q0 -68 26.5 -110.5t73.5 -42.5z" />
    <glyph glyph-name="guilsinglleft" unicode="&#x2039;" horiz-adv-x="499" 
d="M78 449l303 294l41 -30l-162 -264l162 -265l-37 -30z" />
    <glyph glyph-name="guilsinglright" unicode="&#x203a;" horiz-adv-x="499" 
d="M463 449l-307 -295l-37 30l162 265l-162 264l41 30z" />
    <glyph glyph-name="fraction" unicode="&#x2044;" horiz-adv-x="176" 
d="M-383 -10l885 1313h57l-885 -1313h-57z" />
    <glyph glyph-name="Euro" unicode="&#x20ac;" horiz-adv-x="1601" 
d="M1470 203l54 -56q-66 -74 -200 -123t-306 -49q-248 0 -424 121t-242 318h-274l37 182h204q-2 12 -2 39q0 43 2 63h-184l37 183h188q76 203 261.5 322.5t433.5 119.5q246 0 403 -94q8 -186 15 -277h-95q-63 281 -338 281q-309 0 -370 -352h370l-36 -183h-347q4 -70 9 -102
h317l-37 -182h-231q61 -147 180 -232.5t274 -85.5q203 1 301 107z" />
    <glyph glyph-name="uni210D" unicode="&#x210d;" horiz-adv-x="1548" 
d="M1511 1229q-104 -20 -131 -41q-39 -33 -39 -121v-844q0 -47 7.5 -75.5t36 -46t42 -21.5t68.5 -14q10 -2 16 -5v-61h-1474v61q104 20 131 41q39 33 39 121v844q0 47 -7 75.5t-36 46t-42 21.5t-69 15q-10 2 -16 4v61h1474v-61zM1020 1067q0 68 -19.5 98.5t-62.5 44.5
q-61 -29 -61 -143v-383h143v383zM528 684h109v383q0 104 -47 135q-61 -33 -62 -135v-383zM590 88q47 31 47 135v375h-109v-375q1 -102 62 -135zM938 80q43 14 62.5 45t19.5 98v375h-143v-375q0 -114 61 -143z" />
    <glyph glyph-name="trademark" unicode="&#x2122;" horiz-adv-x="1767" 
d="M164 612v41q41 10 56.5 15.5t29.5 25t14 56.5v487h-35q-76 0 -107.5 -38t-47.5 -114h-37l12 205h615l10 -205h-41q-10 72 -43 112t-103 40h-38l2 -487q0 -51 20.5 -67.5t75.5 -29.5v-41h-383zM774 612v41q33 8 44 11.5t29.5 13.5t25 27.5t6.5 44.5v401q0 29 -5.5 47.5
t-25 27.5t-27.5 12t-43 9v43h287l190 -422l168 422h303v-43q-4 0 -10 -2q-35 -6 -49 -12t-26.5 -25.5t-12.5 -56.5l-2 -401q0 -27 6 -44.5t24.5 -27.5t30 -13t44.5 -12v-41h-383v41q39 8 54 14.5t28.5 26t13.5 56.5l-4 436l-232 -574h-32l-240 529l6 -391q0 -53 19.5 -68.5
t78.5 -28.5v-41h-266z" />
    <glyph glyph-name="oneeighth" unicode="&#x215b;" horiz-adv-x="1130" 
d="M324 836v-21h-256v21q45 4 61 12t16 33v338q0 23 -8 29.5t-24 2.5l-41 -10v23l157 67l17 -12v-438q0 -25 16.5 -33t61.5 -12zM893 1303h57l-884 -1313h-58zM942 270q111 -47 111 -137q0 -68 -58.5 -110.5t-150.5 -42.5q-86 0 -142.5 38.5t-56.5 104.5q0 84 90 129
q-57 45 -57 110q0 57 48 97.5t124 40.5q72 0 116 -37t44 -86q0 -60 -68 -107zM850 465q-45 0 -66.5 -21.5t-21.5 -52.5q0 -57 88 -88l53 -18q43 35 43 90q0 37 -23.5 63.5t-72.5 26.5zM850 14q106 0 106 88q0 35 -20.5 53.5t-79.5 41.5l-55 20q-20 6 -31 14
q-59 -39 -59 -102q0 -51 36.5 -83t102.5 -32z" />
    <glyph glyph-name="threeeighths" unicode="&#x215c;" horiz-adv-x="1429" 
d="M436 963q0 -76 -69.5 -126.5t-167.5 -50.5q-55 0 -98.5 15.5t-43.5 46.5t35 31q18 0 52 -32t69 -32q47 0 86 34t39 91q0 55 -37 83t-92 28q-35 0 -74 -15l-10 25l63 24q66 25 93.5 46.5t27.5 58.5q0 66 -84 65.5t-131 -55.5l-20 17q66 96 188 96q59 0 97 -29t38 -76
q0 -68 -114 -118q63 -4 108 -35t45 -92zM1061 1303h57l-885 -1313h-57zM1262 270q111 -47 110 -137q0 -68 -58.5 -110.5t-150.5 -42.5q-86 0 -142 38.5t-56 104.5q0 84 90 129q-57 45 -58 110q0 57 48.5 97.5t123.5 40.5q72 0 116 -37t44 -86q1 -60 -67 -107zM1169 465
q-45 0 -66.5 -21.5t-21.5 -52.5q0 -57 88 -88l54 -18q43 35 43 90q0 37 -24 63.5t-73 26.5zM1169 14q106 0 107 88q0 35 -20.5 53.5t-79.5 41.5l-56 20q-20 6 -30 14q-59 -39 -60 -102q0 -51 36.5 -83t102.5 -32z" />
    <glyph glyph-name="fiveeighths" unicode="&#x215d;" horiz-adv-x="1445" 
d="M438 985q0 -80 -69.5 -133t-169.5 -53q-51 0 -96.5 15t-45.5 46t35 31q18 0 53 -32t72 -32q47 0 84 34t37 89q0 129 -232 115l-14 16l80 230h137q80 0 99 24h18l-35 -100h-209l-35 -102q168 10 229.5 -37.5t61.5 -110.5zM1077 1303h58l-885 -1313h-57zM1278 270
q111 -47 111 -137q0 -68 -58.5 -110.5t-150.5 -42.5q-86 0 -142.5 38.5t-56.5 104.5q0 84 90 129q-57 45 -57 110q0 57 48 97.5t124 40.5q72 0 116 -37t44 -86q0 -60 -68 -107zM1186 465q-45 0 -66.5 -21.5t-21.5 -52.5q0 -57 88 -88l53 -18q43 35 43 90q0 37 -23.5 63.5
t-72.5 26.5zM1186 14q106 0 106 88q0 35 -20.5 53.5t-79.5 41.5l-55 20q-20 6 -31 14q-59 -39 -59 -102q0 -51 36.5 -83t102.5 -32z" />
    <glyph glyph-name="seveneighths" unicode="&#x215e;" horiz-adv-x="1363" 
d="M199 815h-68q59 195 215 436h-170q-29 0 -42 -3t-29.5 -16t-28.5 -40h-19l43 135l37 -8h273l10 -12q-164 -250 -221 -492zM1026 1303h57l-884 -1313h-58zM1227 270q111 -47 110 -137q0 -68 -58 -110.5t-151 -42.5q-86 0 -142 38.5t-56 104.5q0 84 90 129q-57 45 -57 110
q0 57 48 97.5t124 40.5q72 0 115.5 -37t43.5 -86q1 -60 -67 -107zM1135 465q-45 0 -66.5 -21.5t-21.5 -52.5q0 -57 88 -88l53 -18q43 35 43 90q0 37 -23.5 63.5t-72.5 26.5zM1135 14q106 0 106 88q0 35 -20.5 53.5t-79.5 41.5l-56 20q-20 6 -30 14q-59 -39 -60 -102
q0 -51 37 -83t103 -32z" />
    <glyph glyph-name="partialdiff" unicode="&#x2202;" horiz-adv-x="1165" 
d="M600 -25q-233 0 -377.5 133.5t-144.5 329.5q0 100 41 183.5t107.5 133.5t146.5 75.5t160.5 18.5t146.5 -44v-68q-152 35 -229.5 -60t-77.5 -282q0 -342 205 -342q227 0 227 439q0 342 -148.5 529t-369.5 208l39 76q137 -8 274 -65.5t251 -155t185.5 -244t71.5 -314.5
q2 -244 -129 -397.5t-379 -153.5z" />
    <glyph glyph-name="emptyset" unicode="&#x2205;" horiz-adv-x="1052" 
d="M997 858l-110 -108q109 -131 108 -299q0 -195 -136 -332t-331 -137q-170 0 -301 110l-112 -112l-62 63l113 113q-104 127 -105 295q0 193 137.5 330t329.5 137q168 0 295 -105l113 111zM158 451q0 -129 75 -228l525 522q-102 76 -230 76q-156 0 -263 -107t-107 -263z
M899 451q0 131 -78 231l-526 -522q102 -82 233 -82q156 0 263.5 108.5t107.5 264.5z" />
    <glyph glyph-name="product" unicode="&#x220f;" horiz-adv-x="1318" 
d="M1200 1638v-2048h-203v1846h-675v-1846h-203v2048h1081z" />
    <glyph glyph-name="summation" unicode="&#x2211;" horiz-adv-x="1118" 
d="M999 1638v-202h-616l575 -824l-575 -819h616v-203h-880v203l594 821l-594 822v202h880z" />
    <glyph glyph-name="minus" unicode="&#x2212;" horiz-adv-x="995" 
d="M119 414v202h758v-202h-758z" />
    <glyph glyph-name="radical" unicode="&#x221a;" horiz-adv-x="1665" 
d="M567 -410l-313 662q-41 82 -78 112.5t-119 61.5v88h351l303 -678l694 1804h264v-110q-94 -25 -142 -66t-91 -153l-658 -1721h-211z" />
    <glyph glyph-name="infinity" unicode="&#x221e;" horiz-adv-x="1388" 
d="M426 59q-156 0 -262.5 134.5t-106.5 328.5q0 178 95.5 294t228.5 116q162 0 274 -180q131 184 312 184q156 0 260 -133t104 -330q0 -178 -94 -294t-225 -116q-162 0 -275 181q-127 -185 -311 -185zM336 305q131 0 194 162l72 190q-88 104 -213 105q-96 0 -163.5 -60.5
t-67.5 -181.5q0 -109 50 -162t128 -53zM1004 233q96 0 163.5 60.5t67.5 181.5q0 109 -50 162t-128 53q-133 0 -195 -166l-71 -186q88 -105 213 -105z" />
    <glyph glyph-name="integral" unicode="&#x222b;" horiz-adv-x="1538" 
d="M287 -358q-223 0 -260 151q4 59 76.5 103.5t158.5 48.5q33 -201 125 -201q135 0 164 227l108 910q31 244 211.5 383t380.5 139q223 0 260 -152q-4 -59 -76.5 -103t-158.5 -48q-33 201 -125 200q-135 0 -164 -227l-106 -901q-20 -166 -119.5 -291t-224.5 -182t-250 -57z
" />
    <glyph glyph-name="approxequal" unicode="&#x2248;" horiz-adv-x="1204" 
d="M694 524q-96 0 -215 77t-211 77q-55 0 -97 -36t-42 -67h-53q-20 121 61.5 194t206.5 73q82 0 150.5 -38t135 -77t140.5 -39q57 0 100 36t43 67h54q20 -121 -63 -194t-210 -73zM694 176q-96 0 -215 77t-211 77q-55 0 -97 -36t-42 -67h-53q-20 121 61.5 194t206.5 73
q82 0 150.5 -38t135 -77t140.5 -39q57 0 100 36t43 66h54q20 -121 -63 -193.5t-210 -72.5z" />
    <glyph glyph-name="notequal" unicode="&#x2260;" horiz-adv-x="995" 
d="M877 598h-236l-70 -166h306v-203h-390l-96 -229h-211l96 229h-157v203h241l70 166h-311v203h395l90 215h211l-90 -215h152v-203z" />
    <glyph glyph-name="lessequal" unicode="&#x2264;" horiz-adv-x="1015" 
d="M897 229q-326 176 -778 351v202q453 174 778 351v-242q-127 -63 -179 -87t-139 -54.5t-219 -67.5q186 -53 273.5 -89t263.5 -122v-242zM897 -39h-758v203h758v-203z" />
    <glyph glyph-name="greaterequal" unicode="&#x2265;" horiz-adv-x="1015" 
d="M119 229v242q127 63 179 87t139 54.5t218 69.5q-186 53 -273 88t-263 121v242q326 -176 778 -351v-202q-452 -175 -778 -351zM119 -39v203h758v-203h-758z" />
    <glyph glyph-name="lozenge" unicode="&#x25ca;" horiz-adv-x="1212" 
d="M606 -37l-528 672l528 674l529 -674zM606 135l385 500l-385 502l-385 -502z" />
    <glyph glyph-name="M.aalt" horiz-adv-x="1796" 
d="M1585 223q0 -47 8.5 -75.5t36 -46t44 -21.5t67.5 -14q12 -2 18 -5v-61h-661v61q57 10 73.5 15.5t46 22t38 46t8.5 78.5l-2 887l-437 -1110h-61l-445 1030v-807q0 -90 35 -116.5t127 -43.5q10 -2 17 -2v-61h-461v61q109 20 135 41q43 33 43 121v844q0 47 -8 75.5t-36 46
t-43 21.5t-67 15q-12 2 -18 4v61h502q4 -27 63 -157l297 -693l269 693q51 135 55 157h524v-61q-104 -20 -129 -41q-39 -33 -39 -121v-844z" />
    <glyph glyph-name="W.aalt" horiz-adv-x="1884" 
d="M1493 1290h395v-61q-86 -16 -112.5 -33.5t-55.5 -85.5l-479 -1124h-106l-195 460l-197 -460h-96l-479 1130q-16 35 -26.5 53.5t-38 30.5t-38 14.5t-69.5 14.5v61h1395v-61q-86 -16 -113 -33.5t-55 -85.5l-109 -252l201 -479l303 735q8 18 11 33.5t-3 26t-11 17.5
t-23.5 13t-28 9.5t-35 8.5t-35.5 7v61zM821 391l70 170l-236 555q-47 111 -88 111q-12 0 -26.5 -9.5t-26.5 -34t6 -67.5zM1063 1227q-29 0 -53.5 -26.5t-1.5 -84.5l57 -137l55 135q25 57 -1.5 85t-55.5 28z" />
    <glyph glyph-name="i.aalt" horiz-adv-x="641" 
d="M309.5 1010q-71.5 0 -124 51t-52.5 120.5t52.5 119t124 49.5t123.5 -49.5t52 -119t-52 -120.5t-123.5 -51zM37 0v61q80 16 107.5 36t27.5 83v449q0 61 -25.5 90t-109.5 39v57q274 43 389 119l43 -39v-715q0 -63 27.5 -82.5t107.5 -36.5v-61h-567z" />
    <glyph glyph-name="T_h.dlig" horiz-adv-x="2459" 
d="M2298 180q0 -63 27.5 -82.5t107.5 -36.5v-61h-545v61q45 12 63.5 19.5t34 32t15.5 67.5v393q0 182 -121 183q-92 0 -178 -103v-473q0 -43 15.5 -67.5t33.5 -31.5t64 -20v-61h-560v61q90 16 120 36t30 83v758q0 141 -57.5 203.5t-241.5 62.5h-252v-981q0 -47 10 -76.5
t30.5 -45t49.5 -23.5t68 -15q10 0 16 -2v-61h-670v61q106 20 134 41q41 33 40 121v981h-131q-160 0 -221 -62.5t-84 -203.5h-59l16 373l121 -21h1081q225 25 406 117l41 -39v-627q80 88 152.5 133.5t177.5 45.5q147 0 206.5 -92.5t59.5 -223.5v-424z" />
    <glyph glyph-name="f_b.dlig" horiz-adv-x="1953" 
d="M1509 920q152 0 269.5 -122t117.5 -327q0 -229 -152.5 -359t-385.5 -130q-227 0 -338 95t-111 249v784q0 84 -62.5 146.5t-178.5 62.5q-74 0 -128.5 -53.5t-54.5 -175.5v-177l222 25q-10 -55 -11 -121h-211v-637q0 -61 49.5 -83.5t165.5 -35.5v-61h-673v61
q82 12 117.5 35t35.5 84v637h-153v60l153 30q6 246 172 379t422 133q115 0 247 -21.5t185 -56.5v-622q47 86 126 143.5t177 57.5zM1384 63q197 0 197 353q0 156 -48 255t-142 99q-109 0 -185 -141v-328q0 -88 42 -163t136 -75z" />
    <glyph glyph-name="f_h.dlig" horiz-adv-x="1994" 
d="M1853 180q0 -43 15.5 -67.5t35 -31.5t64.5 -20v-61h-528v61q47 12 66.5 19.5t34.5 32t15 67.5v393q0 193 -118 193q-100 0 -232 -111v-475q0 -63 30 -82.5t120 -36.5v-61h-596v61q90 16 119.5 36t29.5 83v930q0 84 -61.5 146.5t-179.5 62.5q-74 0 -128.5 -53.5
t-54.5 -175.5v-177l222 25q-10 -55 -11 -121h-211v-637q0 -61 49.5 -83.5t165.5 -35.5v-61h-673v61q82 12 117.5 35t35.5 84v637h-153v60l153 30q6 246 172 379t422 133q115 0 247 -21.5t185 -56.5v-614h8q166 193 367 193q104 0 167.5 -50.5t84 -116t20.5 -149.5v-424z" />
    <glyph glyph-name="f_j.dlig" horiz-adv-x="1370" 
d="M1272 1202v-2q-2 -70 -53.5 -120t-123 -50t-123.5 51.5t-52 120.5v4v2q0 10 2 15q2 37 1 64.5t-29 44t-85 16.5q-35 0 -74 -10.5t-84 -37t-80.5 -67.5t-60.5 -111.5t-25 -158.5v-48l181 23q-10 -55 -11 -121h-170v-637q0 -61 49.5 -83.5t165.5 -35.5v-61h-673v61
q82 12 117.5 35t35.5 84v637h-153v60l153 30h2q8 133 71.5 237.5t161 164t204 90.5t212.5 31q242 0 365 -91q76 -49 76 -137zM821 815q274 43 389 119l43 -39v-930q0 -86 -50 -152.5t-131 -104.5t-150.5 -57.5t-141.5 -29.5q-16 35 0 70q96 31 136 105.5t40 209.5v623
q0 61 -25.5 90t-109.5 39v57z" />
    <glyph glyph-name="f_k.dlig" horiz-adv-x="2015" 
d="M1821 135q27 -37 60.5 -50t117.5 -22v-63h-457q0 76 -37 125l-202 291l-97 -92v-144q0 -63 30 -82.5t120 -36.5v-61h-596v61q90 16 119.5 36t29.5 83v930q0 84 -61.5 146.5t-179.5 62.5q-74 0 -128.5 -53.5t-54.5 -175.5v-177l222 25q-10 -55 -11 -121h-211v-637
q0 -61 49.5 -83.5t165.5 -35.5v-61h-673v61q82 12 117.5 35t35.5 84v637h-153v60l153 30q6 246 172 379t422 133q115 0 247 -21.5t185 -56.5v-892l303 284q94 88 -73 105v63h446v-63q-66 -4 -117 -24.5t-77.5 -40t-73.5 -60.5l-119 -115z" />
    <glyph glyph-name="t_t.dlig" horiz-adv-x="1579" 
d="M1288 242q0 -166 264 -74v-62q-170 -88 -356 -126q-94 0 -149.5 50t-55.5 120v661h-491v-569q0 -51 24.5 -78t65.5 -26t85 13.5t89 36.5v-61q-131 -100 -356 -147q-94 0 -149.5 50t-55.5 120v661h-176v74q223 74 395 211h78v-215l315 -2v2q215 72 395 215h78v-201l271 25
q-10 -57 -11 -109h-260v-569z" />
    <glyph glyph-name="zero.lnum" horiz-adv-x="1277" 
d="M635 -18q-248 0 -402.5 183t-154.5 472q0 291 156.5 479.5t408.5 188.5q248 0 402.5 -183.5t154.5 -474.5t-156.5 -478t-408.5 -187zM670 66q113 0 158.5 131t45.5 389q0 293 -64.5 464t-201.5 171q-113 0 -159 -131.5t-46 -391.5q0 -291 65 -461.5t202 -170.5z" />
    <glyph glyph-name="one.lnum" horiz-adv-x="831" 
d="M68 0v61q121 14 157.5 35t36.5 84v828q0 57 -22.5 76.5t-61.5 11.5l-102 -21v62l452 186l41 -33v-1110q0 -63 37 -83.5t158 -35.5v-61h-696z" />
    <glyph glyph-name="two.lnum" horiz-adv-x="1169" 
d="M74 0l-17 63q23 18 94.5 81t102.5 90.5t96.5 87t97 94.5t84 91t78 98t54 93.5t41 98.5t12.5 92q0 98 -56.5 165.5t-168.5 67.5q-195 0 -332 -211l-66 39q72 170 211 262.5t309 92.5q178 0 301 -101.5t123 -253.5q0 -84 -41 -171t-100 -156.5t-140 -141t-144.5 -117
t-129 -91.5t-82.5 -58h306q59 0 91.5 2t74.5 11.5t68 26.5t51.5 51t43.5 85h76l-111 -436h-75l-4 45h-848z" />
    <glyph glyph-name="three.lnum" horiz-adv-x="1089" 
d="M424 -25q-143 0 -260 43t-117 121q0 39 26.5 62.5t65.5 23.5q37 0 74 -25.5t63.5 -57t74.5 -57.5t108 -26q111 0 197.5 78t86.5 223q0 139 -89 210t-228 71q-84 0 -178 -33l-25 68l156 63q174 72 237.5 119t63.5 133q0 82 -57.5 121t-153.5 39q-199 0 -322 -137l-55 47
q82 123 211 183.5t268 60.5q158 0 256.5 -71t100.5 -190q2 -104 -75 -173.5t-228 -127.5q104 -6 191 -37.5t151.5 -105.5t64.5 -182q0 -193 -182 -318t-426 -125z" />
    <glyph glyph-name="four.lnum" horiz-adv-x="1148" 
d="M1071 348h-174v-168q0 -63 34 -83.5t140 -35.5v-61h-655v61q106 14 140 35t34 84v168h-516l-37 53l737 910h123v-850h195zM188 461h402v500z" />
    <glyph glyph-name="five.lnum" horiz-adv-x="1054" 
d="M276 807q160 27 275 5.5t189.5 -59.5t117.5 -101.5t60.5 -122t17.5 -119.5q0 -180 -148.5 -307.5t-377.5 -127.5q-76 0 -152 14.5t-138.5 54.5t-62.5 95q0 39 27 62.5t66 23.5q31 0 55 -17.5t42.5 -41t39 -48t53.5 -42t78 -17.5q100 0 168.5 79t68.5 202q0 66 -22.5 125
t-78.5 115.5t-151.5 71t-240.5 -12.5l-35 39l213 612h342q82 0 120 2t79 16.5t63 45.5h53l-98 -283h-532z" />
    <glyph glyph-name="six.lnum" horiz-adv-x="1165" 
d="M586 -25q-248 0 -379 154t-129 397q0 168 71.5 314.5t185.5 244t251 154.5t274 66l39 -76q-221 -20 -369.5 -207.5t-148.5 -529.5q0 -438 227 -439q205 0 205 342q0 186 -78 281.5t-229 60.5v68q66 37 146.5 44t160.5 -18.5t146.5 -75.5t107.5 -133t41 -184
q0 -197 -144.5 -330t-377.5 -133z" />
    <glyph glyph-name="seven.lnum" horiz-adv-x="1056" 
d="M1008 1290l22 -30q-420 -606 -571 -1260h-207q158 504 536 1071h-397q-119 0 -174 -25.5t-100 -127.5h-60l125 407h60l4 -35h762z" />
    <glyph glyph-name="eight.lnum" horiz-adv-x="1165" 
d="M819 711q268 -127 268 -351q0 -174 -151.5 -280.5t-370.5 -106.5q-203 0 -345 95.5t-142 263.5q0 201 205 321q-123 123 -123 275q0 154 129 258t303 104q158 0 268.5 -94t110.5 -223q0 -151 -152 -262zM590 1202q-86 0 -136.5 -54t-50.5 -126q0 -154 207 -231l99 -35
q92 86 92 209q0 94 -56.5 165.5t-154.5 71.5zM575 59q102 0 164 57.5t62 157.5q0 76 -44 127.5t-159 94.5l-145 53q-41 14 -82 37q-113 -92 -113 -234q0 -129 92 -211t225 -82z" />
    <glyph glyph-name="nine.lnum" horiz-adv-x="1165" 
d="M580 1305q248 0 379 -154t128 -397q0 -168 -71.5 -314.5t-185 -244t-251 -154.5t-274.5 -66l-39 76q221 20 369.5 207.5t148.5 529.5q0 438 -227 439q-205 0 -205 -342q0 -186 78 -281.5t229 -60.5v-68q-66 -37 -146.5 -44t-160.5 18.5t-146.5 75.5t-107.5 133t-41 184
q0 197 145 330t378 133z" />
    <glyph glyph-name="zero.tnum" horiz-adv-x="1179" 
d="M586 -18q-248 0 -402.5 183t-154.5 472q0 291 156.5 479.5t408.5 188.5q248 0 402.5 -183.5t154.5 -474.5t-156.5 -478t-408.5 -187zM621 66q113 0 158.5 131t45.5 389q0 293 -64.5 464t-201.5 171q-113 0 -159 -131.5t-46 -391.5q0 -291 65 -461.5t202 -170.5z" />
    <glyph glyph-name="one.tnum" horiz-adv-x="1179" 
d="M199 0v61q152 14 193.5 34t41.5 85v828q0 57 -22.5 76.5t-61.5 11.5l-143 -21v62l493 186l41 -33v-1110q0 -66 42 -85t194 -34v-61h-778z" />
    <glyph glyph-name="two.tnum" horiz-adv-x="1179" 
d="M68 0l-17 63q23 18 94.5 81t102.5 90.5t96.5 87t97 94.5t84 91t78 98t54 93.5t41 98.5t12.5 92q0 98 -56.5 165.5t-169.5 67.5q-195 0 -331 -211l-66 39q72 170 211 262.5t309 92.5q178 0 301 -101.5t123 -253.5q0 -84 -41 -171t-100.5 -156.5t-140 -141t-144 -117
t-129 -91.5t-82.5 -58h305q59 0 92 2t75 11.5t68 26.5t51.5 51t43.5 85h76l-111 -436h-75l-5 45h-847z" />
    <glyph glyph-name="three.tnum" horiz-adv-x="1179" 
d="M483 -25q-143 0 -260 43t-117 121q0 39 27 62.5t66 23.5q47 0 90 -41t98 -83t131 -42q111 0 198 78t87 223q0 139 -89 210t-229 71q-84 0 -178 -33l-24 68l155 63q174 72 237.5 119t63.5 133q0 82 -57 121t-154 39q-199 0 -321 -137l-55 47q82 123 211 183.5t268 60.5
q158 0 256 -71t100 -190q2 -104 -74.5 -173.5t-228.5 -127.5q104 -6 191.5 -37.5t152 -105.5t64.5 -182q0 -193 -182.5 -318t-426.5 -125z" />
    <glyph glyph-name="four.tnum" horiz-adv-x="1179" 
d="M1051 348h-174v-168q0 -63 33.5 -83.5t140.5 -35.5v-61h-656v61q106 14 140 35t34 84v168h-516l-37 53l738 910h123v-850h194zM168 461h401v500z" />
    <glyph glyph-name="five.tnum" horiz-adv-x="1179" 
d="M305 807q160 27 274.5 5.5t189.5 -59.5t118 -101.5t60.5 -122t17.5 -119.5q0 -180 -148.5 -307.5t-378.5 -127.5q-76 0 -151.5 14.5t-138 54.5t-62.5 95q0 39 26.5 62.5t65.5 23.5q31 0 55.5 -17.5t43 -41t39 -48t53 -42t77.5 -17.5q100 0 169 79t69 202q0 66 -22.5 125
t-79 115.5t-151.5 71t-241 -12.5l-34 39l213 612h342q82 0 119.5 2t78.5 16.5t64 45.5h53l-98 -283h-533z" />
    <glyph glyph-name="six.tnum" horiz-adv-x="1179" 
d="M565 -25q-248 0 -379 154t-129 397q0 168 72 314.5t185.5 244t250.5 154.5t275 66l39 -76q-221 -20 -370 -207.5t-149 -529.5q0 -438 228 -439q205 0 205 342q0 186 -78 281.5t-230 60.5v68q66 37 147 44t160.5 -18.5t146.5 -75.5t107.5 -133t40.5 -184
q0 -197 -144.5 -330t-377.5 -133z" />
    <glyph glyph-name="seven.tnum" horiz-adv-x="1179" 
d="M1065 1290l22 -30q-420 -606 -571 -1260h-207q158 504 537 1071h-397q-119 0 -174.5 -25.5t-100.5 -127.5h-59l125 407h59l4 -35h762z" />
    <glyph glyph-name="eight.tnum" horiz-adv-x="1179" 
d="M825 711q268 -127 269 -351q0 -174 -151.5 -280.5t-371.5 -106.5q-203 0 -345 95.5t-142 263.5q0 201 205 321q-123 123 -123 275q0 154 129 258t303 104q158 0 268.5 -94t110.5 -223q0 -151 -152 -262zM596 1202q-86 0 -136 -54t-50 -126q0 -154 206 -231l99 -35
q92 86 92 209q0 94 -56.5 165.5t-154.5 71.5zM582 59q102 0 163.5 57.5t61.5 157.5q0 76 -44 127.5t-159 94.5l-145 53q-41 14 -82 37q-113 -92 -113 -234q0 -129 92.5 -211t225.5 -82z" />
    <glyph glyph-name="nine.tnum" horiz-adv-x="1179" 
d="M592 1305q248 0 379 -154t129 -397q0 -168 -72 -314.5t-185.5 -244t-250.5 -154.5t-275 -66l-38 76q221 20 369.5 207.5t148.5 529.5q0 438 -228 439q-205 0 -204 -342q0 -186 77.5 -281.5t229.5 -60.5v-68q-66 -37 -147 -44t-160.5 18.5t-146 75.5t-107.5 133t-41 184
q0 197 144.5 330t377.5 133z" />
    <glyph glyph-name="zero.dnom" horiz-adv-x="557" 
d="M276 -20q-98 0 -158.5 73.5t-60.5 186.5q0 115 61.5 190.5t162.5 75.5q98 0 158.5 -74t60.5 -188.5t-62 -189t-162 -74.5zM291 12q96 0 96 207q0 115 -31.5 184.5t-89.5 69.5q-96 0 -96 -209q0 -113 32 -182.5t89 -69.5z" />
    <glyph glyph-name="one.dnom" horiz-adv-x="391" 
d="M68 0v20q45 4 61 12.5t16 33.5v337q0 23 -8 30t-24 3l-41 -10v23l157 67l17 -12v-438q0 -25 16.5 -33t61.5 -13v-20h-256z" />
    <glyph glyph-name="two.dnom" horiz-adv-x="520" 
d="M63 0l-6 23q10 8 41 34.5t43.5 36.5t39 35t39.5 39t33.5 36.5t31 39t21.5 36t16.5 38t5.5 36.5q0 41 -24.5 70t-72.5 29q-84 0 -135 -86l-22 14q25 63 79 99t119 36q72 0 119 -41t47 -102q0 -47 -34.5 -98.5t-71.5 -82t-93.5 -72.5t-66.5 -50h135q55 0 83 13t46 60h27
l-39 -143h-361z" />
    <glyph glyph-name="three.dnom" horiz-adv-x="493" 
d="M199 -20q-55 0 -98.5 15t-43.5 46t35 31q18 0 52 -32t69 -32q47 0 86 34t39 91q0 55 -37 83t-92 28q-35 0 -74 -15l-10 25l63 25q66 25 93.5 46t27.5 58q0 66 -84 66t-131 -56l-20 17q66 96 188 96q59 0 97 -28.5t38 -76.5q0 -68 -114 -118q63 -4 108 -35t45 -92
q0 -76 -69.5 -126t-167.5 -50z" />
    <glyph glyph-name="four.dnom" horiz-adv-x="501" 
d="M369 66q0 -25 15 -33t60 -13v-20h-254v20q45 4 60.5 12.5t15.5 33.5v69h-221l-8 41l237 328h95v-328h75l-8 -41h-67v-69zM78 176h188v260z" />
    <glyph glyph-name="five.dnom" horiz-adv-x="495" 
d="M147 313q168 10 229.5 -37t61.5 -110q0 -80 -69.5 -133t-169.5 -53q-51 0 -96.5 15t-45.5 46t35 31q18 0 53 -32t72 -32q47 0 84 34t37 89q0 129 -232 115l-14 16l80 230h137q80 0 99 24h18l-35 -100h-209z" />
    <glyph glyph-name="six.dnom" horiz-adv-x="552" 
d="M287 -20q-96 0 -153.5 61t-55.5 156q2 127 99 215t214 94l15 -27q-90 -8 -157 -85t-67 -210q0 -78 29 -126t80 -48q49 0 74.5 40t25.5 102q0 150 -155 139v26q94 29 177 -15t83 -138q0 -80 -59.5 -132t-149.5 -52z" />
    <glyph glyph-name="seven.dnom" horiz-adv-x="446" 
d="M410 504l10 -12q-164 -250 -221 -492h-68q59 195 215 436h-170q-29 0 -42 -3t-29.5 -16.5t-28.5 -39.5h-19l43 135l37 -8h273z" />
    <glyph glyph-name="eight.dnom" horiz-adv-x="563" 
d="M375 270q111 -47 110 -137q0 -68 -58 -110.5t-151 -42.5q-86 0 -142 38.5t-56 104.5q0 84 90 129q-57 45 -57 110q0 57 48 97.5t124 40.5q72 0 115.5 -37t43.5 -86q1 -60 -67 -107zM283 465q-45 0 -66.5 -21.5t-21.5 -52.5q0 -57 88 -88l53 -18q43 35 43 90
q0 37 -23.5 63.5t-72.5 26.5zM283 14q106 0 106 88q0 35 -20.5 53.5t-79.5 41.5l-56 20q-20 6 -30 14q-59 -39 -60 -102q0 -51 37 -83t103 -32z" />
    <glyph glyph-name="nine.dnom" horiz-adv-x="552" 
d="M266 498q96 0 153.5 -61.5t55.5 -155.5q-2 -127 -99 -215.5t-214 -94.5l-15 27q90 8 157 85t67 210q0 78 -29 126t-80 48q-49 0 -74.5 -40t-25.5 -101q0 -150 155 -140v-26q-94 -29 -177 15t-83 138q0 80 59.5 132.5t149.5 52.5z" />
    <glyph glyph-name="zero.numr" horiz-adv-x="557" 
d="M276 797q-98 0 -158.5 73.5t-60.5 186.5q0 115 61.5 190.5t162.5 75.5q98 0 158.5 -73.5t60.5 -188.5t-62 -189.5t-162 -74.5zM291 829q96 0 96 207q0 115 -31.5 184.5t-89.5 69.5q-96 0 -96 -209q0 -113 32 -182.5t89 -69.5z" />
    <glyph glyph-name="one.numr" horiz-adv-x="391" 
d="M68 815v21q45 4 61 12t16 33v338q0 23 -8 29.5t-24 2.5l-41 -10v23l157 67l17 -12v-438q0 -25 16.5 -33t61.5 -12v-21h-256z" />
    <glyph glyph-name="two.numr" horiz-adv-x="520" 
d="M63 805l-6 22q10 8 41 35t43.5 37t39 34.5t39.5 39t33.5 37t31 39t21.5 36t16.5 38t5.5 36.5q0 41 -24.5 69.5t-72.5 28.5q-84 0 -135 -86l-22 15q25 63 79 99t119 36q72 0 119 -41t47 -102q0 -47 -34.5 -98.5t-71.5 -82t-93.5 -72.5t-66.5 -51h135q55 0 83 13.5t46 60.5
h27l-39 -143h-361z" />
    <glyph glyph-name="three.numr" horiz-adv-x="493" 
d="M199 786q-55 0 -98.5 15.5t-43.5 46.5t35 31q18 0 52 -32t69 -32q47 0 86 34t39 91q0 55 -37 83t-92 28q-35 0 -74 -15l-10 25l63 24q66 25 93.5 46.5t27.5 58.5q0 66 -84 65.5t-131 -55.5l-20 17q66 96 188 96q59 0 97 -29t38 -76q0 -68 -114 -118q63 -4 108 -35t45 -92
q0 -76 -69.5 -126.5t-167.5 -50.5z" />
    <glyph glyph-name="four.numr" horiz-adv-x="501" 
d="M369 866q0 -25 15 -33t60 -12v-20h-254v20q45 4 60.5 12.5t15.5 32.5v70h-221l-8 41l237 328h95v-328h75l-8 -41h-67v-70zM78 977h188v260z" />
    <glyph glyph-name="five.numr" horiz-adv-x="495" 
d="M147 1133q168 10 229.5 -37t61.5 -111q0 -80 -69.5 -133t-169.5 -53q-51 0 -96.5 15t-45.5 46t35 31q18 0 53 -32t72 -32q47 0 84 34t37 89q0 129 -232 115l-14 16l80 230h137q80 0 99 24h18l-35 -100h-209z" />
    <glyph glyph-name="six.numr" horiz-adv-x="552" 
d="M287 784q-96 0 -153.5 61.5t-55.5 155.5q2 127 99 215.5t214 94.5l15 -27q-90 -8 -157 -85t-67 -210q0 -78 29 -126t80 -48q49 0 74.5 40t25.5 101q0 150 -155 140v26q94 29 177 -15t83 -138q0 -80 -59.5 -132.5t-149.5 -52.5z" />
    <glyph glyph-name="seven.numr" horiz-adv-x="446" 
d="M410 1319l10 -12q-164 -250 -221 -492h-68q59 195 215 436h-170q-29 0 -42 -3t-29.5 -16t-28.5 -40h-19l43 135l37 -8h273z" />
    <glyph glyph-name="eight.numr" horiz-adv-x="563" 
d="M375 1085q111 -47 110 -137q0 -68 -58 -110.5t-151 -42.5q-86 0 -142 38.5t-56 104.5q0 84 90 129q-57 45 -57 111q0 57 48 97t124 40q72 0 115.5 -37t43.5 -86q1 -60 -67 -107zM283 1280q-45 0 -66.5 -21.5t-21.5 -52.5q0 -57 88 -88l53 -18q43 35 43 90
q0 37 -23.5 63.5t-72.5 26.5zM283 829q106 0 106 89q0 35 -20.5 53t-79.5 41l-56 20q-20 6 -30 15q-59 -39 -60 -103q0 -51 37 -83t103 -32z" />
    <glyph glyph-name="nine.numr" horiz-adv-x="552" 
d="M266 1305q96 0 153.5 -61.5t55.5 -156.5q-2 -127 -99 -215t-214 -94l-15 27q90 8 157 85t67 210q0 78 -29 126t-80 48q-49 0 -74.5 -40t-25.5 -101q0 -150 155 -140v-26q-94 -29 -177 15t-83 138q0 80 59.5 132.5t149.5 52.5z" />
    </font>
</defs>
</svg>
