<?xml version="1.0" standalone="no"?>
<!DOCTYPE svg PUBLIC "-//W3C//DTD SVG 1.1//EN" "http://www.w3.org/Graphics/SVG/1.1/DTD/svg11.dtd" >
<svg xmlns="http://www.w3.org/2000/svg" xmlns:xlink="http://www.w3.org/1999/xlink" version="1.1">
<metadata>
Created by FontForge 20190801 at Tue Jul 25 18:56:21 2017
 By www-data
Copyright (c) 2016 by Connary Fagen. All rights reserved.
</metadata>
<defs>
<font id="AddingtonCFDemiBold" horiz-adv-x="1417" >
  <font-face 
    font-family="AddingtonCFDemiBold"
    font-weight="600"
    font-stretch="normal"
    units-per-em="2048"
    panose-1="0 0 7 0 0 0 0 0 0 0"
    ascent="1638"
    descent="-410"
    x-height="901"
    cap-height="1290"
    bbox="-375 -707 2374 1851"
    underline-thickness="0"
    underline-position="0"
    unicode-range="U+0020-FB02"
  />
<missing-glyph horiz-adv-x="999" 
d="M819 1638v-1996h-633v1996h633zM666 1505h-330v-65h129v-76h-131v-66h332v66h-134v76h134v65zM532 1247h-198v-207h332v68h-134v139zM465 1180v-72h-66v72h66zM666 985h-332v-65h131v-74h-131v-66h198v140h134v65zM666 866h-66v-133h-266v-67h332v200zM666 623h-201v-113
h67v47h68v-94h-201v160h-65v-226h332v226zM666 276h-332v-225h332v225zM600 211v-94h-201v94h201zM666 4h-332v-65h139l-139 -95v-65h332v65h-205l139 95h66v65z" />
    <glyph glyph-name="uniFB01" unicode="fi" horiz-adv-x="1349" 
d="M784 1350q-55 0 -111.5 -21.5t-109.5 -66.5t-87 -128t-34 -194v-35l201 21q-10 -49 -10 -109h-191v-649q0 -61 48.5 -81.5t164.5 -33.5v-53h-620v53q43 6 63.5 11.5t45 17.5t34.5 32.5t10 53.5v649h-153v53l153 31q8 168 104.5 290t229.5 177t281 55q49 0 102 -7
t123 -24.5t114 -60.5t44 -104q0 -59 -45 -102.5t-104.5 -43.5t-104.5 43t-45 103v2v8q4 59 -16.5 86t-86.5 27zM1169 168q0 -33 7.5 -53.5t29 -32.5t40 -16.5t59.5 -12.5v-53h-517v53q41 8 59.5 12.5t40 16.5t29 32.5t7.5 53.5v469q0 61 -26 90t-110 39v49q213 37 338 119
l43 -39v-727z" />
    <glyph glyph-name="uniFB02" unicode="fl" horiz-adv-x="1325" 
d="M1130 168q0 -43 20.5 -66.5t45.5 -31t84 -17.5v-53h-545v53q59 10 84 17.5t45.5 31t20.5 66.5v954q0 82 -62.5 139.5t-179.5 57.5q-201 0 -201 -256v-160l232 23q-10 -49 -10 -109h-222v-649q0 -61 48.5 -81.5t164.5 -33.5v-53h-620v53q43 6 63.5 11.5t45 17.5t34.5 32.5
t10 53.5v649h-153v53l153 31q2 250 156 381t397 131q252 0 389 -72v-1173z" />
    <glyph glyph-name="f_f.liga" unicode="ff" horiz-adv-x="1503" 
d="M1405 1430q197 0 248 -132q0 -53 -53.5 -93t-122.5 -48q-57 176 -156 176q-152 0 -152 -254v-161l246 8h6h11q-10 -49 -11 -109h-252v-649q0 -61 48.5 -81.5t164.5 -33.5v-53h-620v53q43 6 63.5 11.5t45 17.5t34.5 32.5t10 53.5v649h-473v-649q0 -61 48.5 -81.5
t164.5 -33.5v-53h-620v53q43 6 63.5 11.5t45 17.5t34.5 32.5t10 53.5v649h-153v53l153 31h2q12 227 142.5 351t308.5 124t229 -131q0 -53 -49 -93t-116 -48q-14 68 -52.5 122t-85.5 54q-20 0 -38.5 -10t-40 -35t-34 -79t-12.5 -130v-133l473 16q0 246 146.5 383.5
t343.5 137.5z" />
    <glyph glyph-name="f_f_i.liga" unicode="ffi" horiz-adv-x="2086" 
d="M1522 1350q-55 0 -111.5 -21.5t-110 -66.5t-87 -128t-33.5 -194v-22l204 8q-10 -49 -10 -109h-194v-649q0 -61 48 -81.5t165 -33.5v-53h-621v53q43 6 63.5 11.5t45 17.5t35 32.5t10.5 53.5v649h-484v-649q0 -61 48.5 -81.5t164.5 -33.5v-53h-620v53q43 6 63.5 11.5
t45 17.5t34.5 32.5t10 53.5v649h-153v53l153 31h2q12 227 140.5 351t304.5 124q178 0 229 -131q0 -53 -49 -93t-117 -48q-14 68 -52 122t-85 54q-20 0 -38.5 -10t-38 -36t-31 -79t-11.5 -129v-133l486 16q10 164 105 285t227.5 175t279.5 54q49 0 102.5 -7t123 -24.5
t113.5 -60.5t44 -104q0 -59 -45 -102.5t-104.5 -43.5t-104.5 43t-45 103v2v8q4 59 -16 86t-86 27zM1907 168q0 -33 7 -53.5t28.5 -32.5t40 -16.5t59.5 -12.5v-53h-516v53q41 8 59.5 12.5t40 16.5t28.5 32.5t7 53.5v469q0 61 -25.5 90t-109.5 39v49q213 37 338 119l43 -39
v-727z" />
    <glyph glyph-name=".notdef" horiz-adv-x="999" 
d="M819 1638v-1996h-633v1996h633zM666 1505h-330v-65h129v-76h-131v-66h332v66h-134v76h134v65zM532 1247h-198v-207h332v68h-134v139zM465 1180v-72h-66v72h66zM666 985h-332v-65h131v-74h-131v-66h198v140h134v65zM666 866h-66v-133h-266v-67h332v200zM666 623h-201v-113
h67v47h68v-94h-201v160h-65v-226h332v226zM666 276h-332v-225h332v225zM600 211v-94h-201v94h201zM666 4h-332v-65h139l-139 -95v-65h332v65h-205l139 95h66v65z" />
    <glyph glyph-name="glyph1" horiz-adv-x="0" 
 />
    <glyph glyph-name="glyph2" horiz-adv-x="681" 
 />
    <glyph glyph-name="space" unicode=" " horiz-adv-x="417" 
 />
    <glyph glyph-name="exclam" unicode="!" horiz-adv-x="468" 
d="M203 393l-101 807q-16 137 133.5 137t133.5 -137l-101 -807h-65zM256 -20q-61 0 -105.5 43t-44.5 106q0 59 44.5 102t105.5 43q59 0 103 -43t44 -102q0 -63 -44 -106t-103 -43z" />
    <glyph glyph-name="quotedbl" unicode="&#x22;" horiz-adv-x="622" 
d="M147 795l-77 370q-12 55 15.5 90t82.5 35q53 0 79.5 -34.5t14.5 -90.5l-78 -370h-37zM438 795l-78 370q-12 55 15.5 90t83.5 35q53 0 79.5 -34.5t14.5 -90.5l-78 -370h-37z" />
    <glyph glyph-name="numbersign" unicode="#" horiz-adv-x="1159" 
d="M1067 848h-203l-88 -379h207l-27 -107h-204l-97 -423h-120l98 423h-244l-96 -423h-121l98 423h-204l26 107h203l86 379h-205l27 106h203l98 422h119l-97 -422h242l98 422h119l-96 -422h205zM657 469l86 379h-241l-88 -379h243z" />
    <glyph glyph-name="dollar" unicode="$" horiz-adv-x="1099" 
d="M1024 387q0 -147 -122 -241.5t-314 -106.5v-166h-74v164q-244 4 -412 117l-16 243h59q41 -133 138.5 -212t230.5 -79v451l-22 10q-82 35 -139.5 65t-119 76t-93 107.5t-31.5 134.5q0 135 106.5 219t298.5 93v165h74v-165q39 -2 75.5 -6.5t69.5 -13.5t55.5 -16t50 -20.5
t38 -18.5t36.5 -20l25 -14l6 -246h-55q-82 274 -301 287v-393q4 0 12 -4q74 -31 111 -47.5t107.5 -58.5t107.5 -80t67.5 -97t30.5 -127zM352 1022q0 -55 37 -99t125 -87v354q-80 -12 -121 -58.5t-41 -109.5zM588 113q82 18 129 71.5t47 126.5q0 121 -176 213v-411z" />
    <glyph glyph-name="percent" unicode="%" horiz-adv-x="1427" 
d="M1096 1290h133l-916 -1290h-116l807 1124q-160 -96 -363 -6q4 -33 4 -53q0 -158 -97 -282t-241 -124q-100 0 -160.5 67t-60.5 175q0 154 104.5 274.5t249.5 120.5q84 0 138 -47q74 -43 123 -66.5t106 -38t101 -3t92.5 47t95.5 101.5zM352 729q86 0 152.5 108.5
t66.5 225.5q0 76 -33.5 121t-86.5 45q-88 0 -144.5 -114t-56.5 -228q0 -72 26.5 -115t75.5 -43zM1137 633q98 0 151 -61.5t53 -170.5q0 -158 -97 -281.5t-240 -123.5q-100 0 -161 66.5t-61 175.5q0 154 105 274.5t250 120.5zM1049 66q86 0 152.5 108.5t66.5 224.5
q0 76 -34 121t-87 45q-88 0 -144.5 -113.5t-56.5 -228.5q0 -72 27 -114.5t76 -42.5z" />
    <glyph glyph-name="ampersand" unicode="&#x26;" horiz-adv-x="1523" 
d="M1122 145q35 -41 146.5 -18t210.5 92v-63q-78 -78 -189.5 -128.5t-195.5 -47.5q-98 0 -197 106q-172 -106 -362 -106q-117 0 -220.5 33.5t-181.5 120.5t-78 214q0 141 85 227.5t235 149.5q-80 123 -80 213q0 139 121 227t276 88q113 0 197 -50t84 -154q0 -174 -316 -357
l17 -18l299 -352q72 111 71 198q0 92 -174 92v66h578v-66q-94 -4 -144.5 -28.5t-78.5 -98.5q-57 -147 -166 -266zM633 1180q-55 0 -91 -42t-36 -120q0 -121 110 -273q145 121 146 273q0 70 -35 116t-94 46zM311 385q0 -147 89 -237.5t200 -90.5q117 0 236 103l-365 436
q-20 23 -43 53q-117 -96 -117 -264z" />
    <glyph glyph-name="quotesingle" unicode="'" horiz-adv-x="331" 
d="M147 795l-77 370q-12 55 15.5 90t82.5 35q53 0 79.5 -34.5t14.5 -90.5l-78 -370h-37z" />
    <glyph glyph-name="parenleft" unicode="(" horiz-adv-x="649" 
d="M565 -326q-238 150 -358.5 388.5t-120.5 543.5t121 544t358 388l60 -12q-305 -356 -299 -920q6 -565 288 -909z" />
    <glyph glyph-name="parenright" unicode=")" horiz-adv-x="649" 
d="M84 -326l-49 23q283 344 289 909q6 563 -299 920l59 12q238 -150 358.5 -388.5t120.5 -543.5t-120.5 -543.5t-358.5 -388.5z" />
    <glyph glyph-name="asterisk" unicode="*" horiz-adv-x="745" 
d="M354 1065l-49 123q-23 55 2 86t66 31t65.5 -31t1.5 -86l-49 -123q-6 -16 -18.5 -16t-18.5 16zM293 1006l-129 22q-59 10 -74.5 49t8.5 68q23 37 57.5 41t77.5 -43l80 -105q10 -12 3 -23t-23 -9zM453 1006q-16 -2 -23.5 9t2.5 23l80 105q43 47 78 43t57 -41
q25 -29 9.5 -68t-74.5 -49zM98 829q-25 29 -9.5 68t75.5 49l129 23q16 2 23.5 -9.5t-3.5 -23.5l-80 -105q-43 -47 -77.5 -43t-57.5 41zM647 829q-23 -37 -57.5 -41t-77.5 43l-80 105q-10 12 -3 23.5t24 9.5l129 -23q59 -10 74.5 -49t-9.5 -68zM373 670q-41 0 -65.5 30.5
t-2.5 85.5l49 123q6 16 18.5 16.5t18.5 -16.5l49 -123q23 -55 -1.5 -85.5t-65.5 -30.5z" />
    <glyph glyph-name="plus" unicode="+" horiz-adv-x="1011" 
d="M885 596v-162h-297v-301h-162v301h-299v162h299v297h162v-297h297z" />
    <glyph glyph-name="comma" unicode="," horiz-adv-x="499" 
d="M84 -313l-18 53q158 55 188 170q12 57 -39 88q-86 49 -86 133q0 59 43 101t107 42q66 0 110.5 -50t44.5 -138q0 -129 -94 -246.5t-256 -152.5z" />
    <glyph glyph-name="hyphen" unicode="-" horiz-adv-x="868" 
d="M106 467v121h656v-121h-656z" />
    <glyph glyph-name="period" unicode="." horiz-adv-x="468" 
d="M236 -20q-61 0 -105.5 43t-44.5 106q0 59 44 102t106 43q59 0 103 -43t44 -102q0 -63 -44 -106t-103 -43z" />
    <glyph glyph-name="slash" unicode="/" horiz-adv-x="811" 
d="M45 -127l641 1671l141 -61l-641 -1671z" />
    <glyph glyph-name="zero" unicode="0" horiz-adv-x="1112" 
d="M545 -18q-205 0 -342 125.5t-137 336.5q0 217 146 346.5t355 129.5q205 0 342.5 -126t137.5 -337q0 -217 -146.5 -346t-355.5 -129zM573 55q94 0 153.5 91.5t59.5 261.5q0 176 -64.5 307t-182.5 131q-94 0 -153.5 -91t-59.5 -261q0 -176 64 -307.5t183 -131.5z" />
    <glyph glyph-name="one" unicode="1" horiz-adv-x="786" 
d="M516 168q0 -63 39 -81.5t156 -33.5v-53h-635v53q117 14 155.5 32.5t38.5 82.5v565q0 63 -38.5 82t-155.5 33v53h635v-53q-117 -14 -156 -32.5t-39 -82.5v-565z" />
    <glyph glyph-name="two" unicode="2" horiz-adv-x="907" 
d="M84 0l-18 43q92 76 118.5 98.5t104.5 91t107.5 104.5t74.5 93t61.5 106.5t16.5 98.5q0 154 -164 153q-150 0 -238 -141l-49 29q49 117 151.5 180.5t227.5 63.5q137 0 228.5 -73t91.5 -183q0 -35 -11.5 -72t-28 -67.5t-45 -65.5t-52 -59.5t-64.5 -56.5t-64.5 -49.5
t-66.5 -44t-59.5 -36.5t-55.5 -31.5t-41 -23.5h242q98 0 150.5 22.5t86.5 106.5h54l-84 -310h-53l-5 23h-616z" />
    <glyph glyph-name="three" unicode="3" horiz-adv-x="991" 
d="M381 -389q-74 0 -142.5 14.5t-120.5 51t-52 90.5q0 37 23.5 58t56 21t64.5 -25.5t53.5 -55t60 -55t86.5 -25.5q94 0 175 80.5t81 218.5q0 135 -79 203.5t-204 68.5q-80 0 -170 -35l-20 62l143 65q150 70 209 121t59 137q0 78 -48 124t-132 46q-162 0 -274 -143l-46 41
q72 121 177.5 183.5t228.5 62.5q137 0 229 -72t92 -189q0 -100 -71.5 -169.5t-206.5 -131.5q92 -6 171 -36.5t140.5 -103.5t61.5 -177q0 -180 -168 -305t-377 -125z" />
    <glyph glyph-name="four" unicode="4" horiz-adv-x="1114" 
d="M1028 -10h-174v-180q0 -33 8 -53.5t33 -33t45.5 -16.5t67.5 -12v-53h-564v53q47 8 67.5 12t45.5 16.5t33 33t8 53.5v180h-520l-33 47l717 895h92v-842h195zM176 90h422v528z" />
    <glyph glyph-name="five" unicode="5" horiz-adv-x="1036" 
d="M260 442q190 27 319.5 3.5t208 -93t112.5 -146.5t34 -159q0 -178 -151.5 -307t-379.5 -129q-121 0 -229 39t-108 117q0 37 25.5 58t62 21t67.5 -25.5t52.5 -55t61.5 -55t91 -25.5q102 0 176 82.5t74 209.5q0 72 -26.5 137.5t-86 121t-157 71t-236.5 -13.5l-37 39l201 569
h344q113 0 163 9.5t83 52.5h47l-86 -256h-531z" />
    <glyph glyph-name="six" unicode="6" horiz-adv-x="1153" 
d="M584 -25q-242 0 -371 156t-127 395q0 217 118 395.5t291 275.5t357 108l35 -66q-223 -20 -382 -212.5t-159 -534.5q0 -199 61.5 -322t190.5 -123q119 0 176 101.5t57 250.5q0 182 -89 277.5t-269 56.5v60q98 53 205.5 45.5t199 -51.5t150.5 -138t59 -215
q0 -195 -139 -327t-364 -132z" />
    <glyph glyph-name="seven" unicode="7" horiz-adv-x="1042" 
d="M985 901l23 -31q-412 -612 -564 -1259h-188q154 492 561 1096h-436q-113 0 -165 -25t-99 -127h-51l116 381h51l5 -35h747z" />
    <glyph glyph-name="eight" unicode="8" horiz-adv-x="1142" 
d="M788 709q268 -123 269 -351q0 -170 -143.5 -278.5t-354.5 -108.5q-199 0 -336 98.5t-137 262.5q0 207 223 330q-137 119 -137 282q0 147 117 246.5t291 99.5q162 0 267 -92t105 -217q0 -155 -164 -272zM580 1219q-92 0 -142.5 -59.5t-50.5 -139.5q0 -76 47 -138.5
t144 -95.5l114 -41q102 94 103 230q0 94 -54.5 169t-160.5 75zM571 43q115 0 177.5 64.5t62.5 175.5q0 92 -47 145t-168 98l-139 52q-37 12 -68 30q-135 -100 -135 -260q0 -133 89 -219t228 -86z" />
    <glyph glyph-name="nine" unicode="9" horiz-adv-x="1153" 
d="M569 920q242 0 371 -156t127 -395q0 -217 -118 -395.5t-291 -275.5t-357 -108l-35 66q223 20 382 212.5t159 534.5q0 199 -61.5 322t-190.5 123q-119 0 -176 -101.5t-57 -250.5q0 -182 89 -277.5t269 -56.5v-60q-98 -53 -205.5 -46t-199 51.5t-150.5 138.5t-59 215
q0 195 139 327t364 132z" />
    <glyph glyph-name="colon" unicode=":" horiz-adv-x="471" 
d="M236 635q-61 0 -105.5 43t-44.5 106q0 59 44 102.5t106 43.5q59 0 103 -43t44 -103q0 -63 -44 -106t-103 -43zM237.5 -20q-61.5 0 -105.5 43t-44 106q0 59 44 102t106 43q59 0 103 -43t44 -102q0 -63 -43 -106t-104.5 -43z" />
    <glyph glyph-name="semicolon" unicode=";" horiz-adv-x="503" 
d="M290.5 633q-61.5 0 -105.5 43t-44 106q0 59 44 102.5t106 43.5q59 0 103 -43t44 -103q0 -61 -43 -105t-104.5 -44zM84 -313l-18 53q158 55 188 170q12 57 -39 88q-86 49 -86 133q0 59 43 101t107 42q66 0 110.5 -50t44.5 -138q0 -129 -94 -246.5t-256 -152.5z" />
    <glyph glyph-name="less" unicode="&#x3c;" horiz-adv-x="1021" 
d="M895 82q-348 190 -768 350v162q420 160 768 350v-190q-285 -147 -578 -240q176 -57 296 -107.5t282 -134.5v-190z" />
    <glyph glyph-name="equal" unicode="=" horiz-adv-x="1011" 
d="M127 618v162h758v-162h-758zM127 250v162h758v-162h-758z" />
    <glyph glyph-name="greater" unicode="&#x3e;" horiz-adv-x="1021" 
d="M127 82v190q162 84 281.5 134.5t296.5 107.5q-293 92 -578 240v190q348 -190 768 -350v-162q-420 -160 -768 -350z" />
    <glyph glyph-name="question" unicode="?" horiz-adv-x="976" 
d="M434 403q-29 80 -20.5 129.5t43.5 111t72.5 110.5t68.5 125.5t31 158.5q0 119 -62.5 173.5t-189.5 54.5q-57 0 -78 -56q-43 -111 -79 -154.5t-83 -43.5q-41 0 -66.5 25.5t-25.5 64.5q0 70 85 129t197.5 88t215.5 29q168 0 268 -87t100 -237q0 -80 -32.5 -147.5
t-80.5 -110.5t-104.5 -87t-103.5 -80t-76 -87t-25 -109h-55zM461 -20q-61 0 -105.5 43t-44.5 106q0 59 44 102t106 43q59 0 103 -43t44 -102q0 -63 -44 -106t-103 -43z" />
    <glyph glyph-name="at" unicode="@" horiz-adv-x="1605" 
d="M1235 899l-98 -483q-31 -147 73 -148q92 0 165 103.5t73 267.5q0 264 -164 430t-424 166q-276 0 -442 -190.5t-166 -471.5q0 -268 166 -456.5t436 -188.5q184 0 377 115l45 -31q-197 -152 -453 -151q-309 0 -523 206.5t-214 505.5q0 303 219 515t545 212
q303 0 486.5 -191t183.5 -470q0 -190 -98.5 -309t-235.5 -119q-27 0 -53.5 4t-62.5 17.5t-60.5 45t-26.5 76.5q-102 -137 -262 -137q-113 0 -186.5 69.5t-73.5 211.5q0 186 123 307t272 121q154 0 205 -146l22 119h152zM770 285q84 0 150.5 75.5t93.5 188.5l8 43q6 37 6 76
q0 197 -151 196q-111 0 -176.5 -115.5t-65.5 -256.5q0 -207 135 -207z" />
    <glyph glyph-name="A" unicode="A" 
d="M1243 168q29 -66 55.5 -82t114.5 -33v-53h-590v53q10 2 36 7.5t35 8.5t27.5 9t23.5 13t11.5 17.5t4 26t-10.5 33.5l-94 215h-498l-90 -215q-8 -18 -10 -33.5t4 -26t11.5 -17.5t22.5 -13t26.5 -9t35 -8.5t35.5 -7.5v-53h-389v53q86 16 113.5 32.5t56.5 84.5l488 1135h88z
M391 461h432l-219 506z" />
    <glyph glyph-name="B" unicode="B" horiz-adv-x="1376" 
d="M926 678q375 -82 374 -330q0 -174 -173 -261t-470 -87h-612v53q104 20 131 41q39 33 39 121v860q0 47 -7 76t-36 46t-42 21.5t-69 14.5q-10 2 -16 4v53h612q252 0 403.5 -74.5t151.5 -228.5q1 -221 -286 -309zM924 965q0 51 -10.5 89t-38 75.5t-86 58t-146.5 20.5
q-92 0 -125 -23.5t-33 -76.5v-397h162q160 0 218.5 65.5t58.5 188.5zM696 82q166 0 231.5 67.5t65.5 186.5q0 299 -385 299h-123v-397q0 -80 46 -118t165 -38z" />
    <glyph glyph-name="C" unicode="C" horiz-adv-x="1353" 
d="M780 -25q-309 0 -501.5 188.5t-192.5 477.5q0 295 203 488.5t522 193.5q244 0 401 -94q8 -186 15 -277h-84q-66 289 -355 289q-203 0 -307 -142.5t-104 -381.5q0 -276 148.5 -453.5t381.5 -177.5q213 0 314 109l47 -50q-66 -74 -195 -122t-293 -48z" />
    <glyph glyph-name="D" unicode="D" horiz-adv-x="1464" 
d="M627 1290q143 0 273 -36.5t239.5 -109.5t174 -200t64.5 -291q0 -168 -63.5 -298t-172 -204.5t-238.5 -112.5t-277 -38h-582v53q104 20 131 41q39 33 39 121v860q0 47 -7 76t-36 46t-42 21.5t-69 14.5q-10 2 -16 4v53h582zM684 80q199 0 301 145.5t102 407.5
q0 266 -117.5 421.5t-363.5 155.5h-121v-934q0 -109 42 -152.5t157 -43.5z" />
    <glyph glyph-name="E" unicode="E" horiz-adv-x="1228" 
d="M1110 315h64l-84 -315h-1045v53q104 20 131 41q39 33 39 121v860q0 47 -7 76t-36 46t-42 21.5t-69 14.5q-10 2 -16 4v53h1040l19 -299h-64q-14 117 -55 167t-145 50h-162q-121 0 -157 -26.5t-36 -128.5v-363h138q176 0 225 35t59 137h51v-422h-51q-10 102 -59 137
t-225 35h-138v-374q0 -102 36 -129t157 -27h119q121 0 188.5 50t124.5 183z" />
    <glyph glyph-name="F" unicode="F" horiz-adv-x="1159" 
d="M1085 1290l19 -299h-64q-14 117 -55 167t-145 50h-162q-121 0 -157 -26.5t-36 -128.5v-363h138q176 0 225 35t59 137h51v-422h-51q-10 102 -59 137t-225 35h-138v-397q0 -47 7.5 -75.5t36 -46t42 -21.5t68.5 -15q10 -2 16 -4v-53h-610v53q104 20 131 41q39 33 39 121v860
q0 47 -7 76t-36 46t-42 21.5t-69 14.5q-10 2 -16 4v53h1040z" />
    <glyph glyph-name="G" unicode="G" horiz-adv-x="1462" 
d="M815 -25q-338 0 -533.5 187.5t-195.5 478.5q0 295 203 488.5t524 193.5q254 0 412 -94q8 -186 14 -277h-84q-66 289 -371 289q-203 0 -305 -138t-102 -392q0 -293 116.5 -473.5t319.5 -180.5q117 0 165 50.5t48 168.5v70q0 131 -43 173t-172 52v62h575v-62
q-66 -10 -96 -40.5t-30 -102.5v-70q0 -180 32 -270q-66 -47 -194.5 -80t-282.5 -33z" />
    <glyph glyph-name="H" unicode="H" horiz-adv-x="1503" 
d="M1458 1237q-104 -20 -131 -41q-39 -33 -39 -121v-860q0 -47 7.5 -75.5t36 -46t41.5 -21.5t69 -15q10 -2 16 -4v-53h-610v53q104 20 131 41q39 33 39 121v389h-533v-389q0 -47 7.5 -75.5t36 -46t42 -21.5t68.5 -15q10 -2 16 -4v-53h-610v53q104 20 131 41q39 33 39 121
v860q0 47 -7 76t-36 46t-42 21.5t-69 14.5q-10 2 -16 4v53h610v-53q-104 -20 -131 -41q-39 -33 -39 -121v-393h533v393q0 47 -7 76t-36 46t-42 21.5t-69 14.5q-10 2 -16 4v53h610v-53z" />
    <glyph glyph-name="I" unicode="I" horiz-adv-x="700" 
d="M45 0v53q104 20 131 41q39 33 39 121v860q0 47 -7 76t-36 46t-42 21.5t-69 14.5q-10 2 -16 4v53h610v-53q-104 -20 -131 -41q-39 -33 -39 -121v-860q0 -47 7.5 -75.5t36 -46t42 -21.5t68.5 -15q10 -2 16 -4v-53h-610z" />
    <glyph glyph-name="J" unicode="J" horiz-adv-x="702" 
d="M2 -379q-23 33 0 66q139 49 177 115.5t38 224.5v1048q0 47 -7 76t-36 46t-42 21.5t-69 14.5q-10 2 -16 4v53h610v-53q-104 -20 -131 -41q-39 -33 -39 -121v-1069q0 -94 -40.5 -164.5t-116.5 -112.5t-151 -66t-177 -42z" />
    <glyph glyph-name="K" unicode="K" horiz-adv-x="1452" 
d="M1262 111q27 -37 59.5 -47.5t116.5 -10.5v-53h-445q0 45 -65 141l-336 496l-107 -107v-315q0 -47 7.5 -75.5t36 -46t42 -21.5t68.5 -15q10 -2 16 -4v-53h-610v53q104 20 131 41q39 33 39 121v860q0 47 -7 76t-36 46t-42 21.5t-69 14.5q-10 2 -16 4v53h610v-53
q-104 -20 -131 -41q-39 -33 -39 -121v-422l496 488q45 45 22.5 70.5t-106.5 25.5v53h453v-53q-94 0 -143.5 -22.5t-102.5 -73.5l-334 -328z" />
    <glyph glyph-name="L" unicode="L" horiz-adv-x="1236" 
d="M45 0v53q104 20 131 41q39 33 39 121v860q0 47 -7 76t-36 46t-42 21.5t-69 14.5q-10 2 -16 4v53h610v-53q-104 -20 -131 -41q-39 -33 -39 -121v-835q0 -102 36 -129t157 -27h125q123 0 190.5 51t122.5 193h66l-84 -328h-1053z" />
    <glyph glyph-name="M" unicode="M" horiz-adv-x="1824" 
d="M1608 215q4 -90 37.5 -116.5t117.5 -43.5q10 -2 17 -2v-53h-611v53q106 20 134 41q39 35 34 121l-34 909l-443 -1124h-61l-449 1040l-37 -825q-2 -61 20.5 -95t47.5 -42t96 -21q12 -2 19 -4v-53h-451v53q104 20 131 41q41 33 45 121l39 860q2 47 -6 76t-33.5 45t-45 22.5
t-66.5 14.5q-14 2 -21 4v53h440q4 -27 64 -157l328 -762l294 762q51 135 56 157h467v-53q-106 -20 -133 -41q-39 -35 -35 -121z" />
    <glyph glyph-name="N" unicode="N" horiz-adv-x="1433" 
d="M936 1290h453v-53q-106 -20 -134 -41q-41 -33 -41 -121v-1075h-112l-793 1094v-879q0 -47 8.5 -75.5t39 -46t45 -21.5t73.5 -15q12 -2 19 -4v-53h-449v53q106 20 133 41q41 33 41 121v860q0 47 -8 76t-36 46t-44 21.5t-68 14.5q-12 2 -18 4v53h432l647 -897v682
q0 61 -24.5 95t-49 42.5t-96.5 20.5q-12 2 -18 4v53z" />
    <glyph glyph-name="O" unicode="O" horiz-adv-x="1495" 
d="M743 -25q-285 0 -471 188.5t-186 477.5q0 295 188.5 488.5t477.5 193.5q285 0 471 -189.5t186 -482.5q0 -291 -188.5 -483.5t-477.5 -192.5zM778 57q162 0 253 140.5t91 392.5q0 293 -110.5 472t-294.5 179q-162 0 -253 -141.5t-91 -397.5q0 -289 110.5 -467t294.5 -178z
" />
    <glyph glyph-name="P" unicode="P" horiz-adv-x="1298" 
d="M45 0v53q104 20 131 41q39 33 39 121v860q0 47 -7 76t-36 46t-42 21.5t-69 14.5q-10 2 -16 4v53h569q618 0 619 -379q0 -203 -175 -308t-480 -105q-25 0 -25 40t25 40q205 0 286.5 86t81.5 235q0 309 -311 309q-88 0 -119 -22.5t-31 -71.5v-899q0 -47 7.5 -75.5t36 -46
t42 -21.5t68.5 -15q10 -2 16 -4v-53h-610z" />
    <glyph glyph-name="Q" unicode="Q" horiz-adv-x="1521" 
d="M1655 -164q37 -8 37 -49q-158 -145 -359 -145q-145 0 -280 82l-353 215q-47 29 -143 61q-213 57 -342 230t-129 411q0 295 188.5 488.5t477.5 193.5q285 0 471 -189.5t186 -482.5q0 -236 -127 -410.5t-338 -236.5q78 -12 152 -55l127 -76q166 -98 260 -98q88 0 172 61z
M717 1241q-162 0 -253 -141.5t-91 -397.5q0 -289 110.5 -467t294.5 -178q162 0 253 140.5t91 392.5q0 293 -110.5 472t-294.5 179z" />
    <glyph glyph-name="R" unicode="R" horiz-adv-x="1431" 
d="M1128 233q53 -90 126 -145t153 -33v-55q-70 -33 -172 -33q-135 0 -220 48t-147 151l-131 217q-59 98 -113.5 135t-138.5 41v-344q0 -47 7.5 -75.5t36 -46t42 -21.5t68.5 -15q10 -2 16 -4v-53h-610v53q104 20 131 41q39 33 39 121v860q0 47 -7 76t-36 46t-42 21.5
t-69 14.5q-10 2 -16 4v53h576q586 0 585 -358q0 -297 -399 -359q133 -27 213 -159zM633 1208q-88 0 -118 -22.5t-30 -71.5v-475h107q186 0 258 74.5t72 201.5q0 293 -289 293z" />
    <glyph glyph-name="S" unicode="S" horiz-adv-x="1099" 
d="M530 -25q-248 0 -428 129l-16 267h59q41 -145 138.5 -232.5t232.5 -87.5q113 0 180.5 63.5t67.5 161.5q0 90 -65.5 155t-206.5 128q-82 37 -139.5 70t-119 84t-93 118.5t-31.5 149.5q0 156 116.5 249t329.5 93q39 0 76 -4t65.5 -9t59 -15.5t49 -17.5t43 -20.5t35 -19.5
t31 -19.5t24.5 -15.5l6 -270h-55q-86 315 -322 315q-106 0 -160.5 -54t-54.5 -134q0 -74 55.5 -129.5t192.5 -118.5q61 -27 91 -42t90.5 -49t94 -65.5t72.5 -77t57.5 -99.5t18.5 -118q0 -172 -139.5 -278.5t-354.5 -106.5z" />
    <glyph glyph-name="T" unicode="T" horiz-adv-x="1243" 
d="M1182 1311l16 -367h-51q-23 143 -84.5 206.5t-216.5 63.5h-88v-999q0 -49 9 -79t42 -46t53.5 -21.5t83.5 -15.5v-53h-647v53q63 10 83.5 15.5t53.5 21.5t42 46t9 79v999h-84q-160 0 -222 -63.5t-85 -206.5h-51l16 367l113 -21h895z" />
    <glyph glyph-name="U" unicode="U" horiz-adv-x="1460" 
d="M731 -25q-100 0 -184 21.5t-166 77t-129 168t-47 274.5v559q0 47 -7.5 76t-36 46t-42 21.5t-68.5 14.5q-10 2 -16 4v53h612v-53q-104 -20 -131 -41q-39 -33 -39 -121v-590q0 -418 326 -417q59 0 112.5 14t109.5 53t90 122t34 202v616q0 47 -8 76t-36 46t-44.5 21.5
t-67.5 14.5q-12 2 -18 4v53h450v-53q-115 -20 -141 -41q-43 -33 -43 -121v-575q0 -525 -510 -525z" />
    <glyph glyph-name="V" unicode="V" 
d="M1024 1290h389v-53q-86 -16 -113.5 -32.5t-56.5 -84.5l-487 -1134h-88l-494 1136q-29 66 -55.5 82.5t-114.5 32.5v53h590v-53q-10 -2 -36 -7t-35 -8t-27.5 -9.5t-23.5 -13.5t-11 -17.5t-4 -25.5t10 -34l346 -798l336 798q8 18 10 33.5t-4 26t-11 17.5t-22.5 13.5t-27 9.5
t-35 8t-35.5 7v53z" />
    <glyph glyph-name="W" unicode="W" horiz-adv-x="2088" 
d="M606 -16l-432 1142q-25 66 -52.5 83.5t-117.5 33.5v45h590v-45q-6 0 -16.5 -3t-36 -12t-43 -20.5t-26.5 -33t-1 -48.5l281 -786l215 610q41 104 4 188.5t-152 106.5v45h416q0 -84 72 -280l239 -668l246 696q18 49 19 84t-7 55.5t-36.5 34t-56.5 19.5t-81 14v45h455v-45
q-66 -12 -87.5 -19t-44 -28.5t-38.5 -69.5l-414 -1142h-100l-354 944l-340 -946h-101z" />
    <glyph glyph-name="X" unicode="X" horiz-adv-x="1513" 
d="M1231 182q51 -74 94 -92t164 -37v-53h-658v53q8 2 23 4q57 10 76.5 18.5t20.5 33t-31 71.5l-250 367l-275 -361q-12 -16 -21 -30.5t-15.5 -25.5t-5.5 -19.5t1 -14.5t8.5 -11t12.5 -8t20.5 -7t23.5 -5.5t27.5 -5.5t30.5 -6v-53h-452v53q133 18 170 39q43 23 96 92l332 430
l-328 482q-55 80 -99 102.5t-155 38.5v53h641v-53q-51 -10 -70.5 -15t-37 -19.5t-7 -39t38.5 -67.5l211 -310l244 314q39 51 38 78.5t-24.5 36t-85.5 20.5q-8 2 -12 2v53h440v-53q-109 -16 -151.5 -36.5t-104.5 -100.5l-297 -381z" />
    <glyph glyph-name="Y" unicode="Y" horiz-adv-x="1368" 
d="M942 1290h412v-53q-80 -16 -105.5 -33.5t-74.5 -93.5l-343 -545v-358q0 -51 9.5 -80t42 -45t53 -21.5t86.5 -15.5v-45h-651v45q121 20 149 43q41 31 41 119v328l-368 575q-49 76 -74 93.5t-105 33.5v53h600v-53q-12 -2 -36.5 -7t-36 -8t-28.5 -9.5t-22.5 -14.5
t-9.5 -19.5t2 -28.5t21 -40l287 -459l282 459q20 35 23.5 56.5t-18 33.5t-39 17.5t-64.5 13.5q-23 4 -33 6v53z" />
    <glyph glyph-name="Z" unicode="Z" horiz-adv-x="1236" 
d="M68 0l-23 31l791 1198l-392 -8q-147 -2 -205.5 -63.5t-68.5 -207.5h-59v353l129 -13h944l-809 -1229l469 9q141 2 198.5 65.5t87.5 208.5h62q-39 -209 -39 -344h-1085z" />
    <glyph glyph-name="bracketleft" unicode="[" horiz-adv-x="636" 
d="M592 -340l-465 29v1837l465 28v-49l-219 -51v-1694l219 -51v-49z" />
    <glyph glyph-name="backslash" unicode="\" horiz-adv-x="811" 
d="M766 -127l-141 -61l-641 1671l141 61z" />
    <glyph glyph-name="bracketright" unicode="]" horiz-adv-x="636" 
d="M45 -340v49l219 51v1694l-219 51v49l465 -28v-1837z" />
    <glyph glyph-name="asciicircum" unicode="^" horiz-adv-x="913" 
d="M117 748l-31 34l371 541l370 -543l-30 -32l-340 385z" />
    <glyph glyph-name="underscore" unicode="_" horiz-adv-x="1298" 
d="M86 -137v96h1126v-96h-1126z" />
    <glyph glyph-name="grave" unicode="`" horiz-adv-x="337" 
d="M270 1034q-125 133 -254 219q16 49 70.5 89t103.5 40q96 -135 142 -309z" />
    <glyph glyph-name="a" unicode="a" horiz-adv-x="1083" 
d="M905 195q0 -49 45 -58.5t109 27.5v-53q-109 -92 -225 -125q-68 0 -119 50t-56 114q-160 -164 -350 -164q-109 0 -181.5 56t-72.5 161q0 53 22.5 94t51.5 67.5t92.5 54t107.5 41t136 40.5q8 2 31.5 8t32 9t27.5 9t27.5 9.5t23 10.5t22.5 14t16 16.5t14 19.5v35
q0 119 -50 162t-163 43q-53 0 -73 -56q-41 -113 -77 -155.5t-87 -42.5q-39 0 -64.5 25.5t-25.5 64.5q0 102 167 175t324 73q295 0 295 -314v-411zM446 111q115 0 213 125v245l-176 -49q-176 -51 -176 -176q0 -66 39 -105.5t100 -39.5z" />
    <glyph glyph-name="b" unicode="b" horiz-adv-x="1153" 
d="M563 -18q-207 0 -313.5 84t-106.5 235v811q0 61 -27.5 90t-121.5 39v49q203 29 354 117l41 -39v-649q49 86 133 143.5t187 57.5q152 0 265 -119t113 -320q0 -229 -149.5 -364t-374.5 -135zM571 59q113 0 185.5 101.5t72.5 269.5q0 154 -61 252t-168 98q-133 0 -211 -143
v-361q0 -88 45 -152.5t137 -64.5z" />
    <glyph glyph-name="c" unicode="c" horiz-adv-x="991" 
d="M555 -18q-215 0 -352 125.5t-137 336.5q0 219 143 347.5t362 128.5q162 0 258.5 -68t96.5 -158q0 -47 -29 -74.5t-76 -27.5q-53 0 -84.5 37t-54.5 119q-14 55 -41 77.5t-72 22.5q-106 0 -178 -85t-72 -239q0 -172 93.5 -282.5t246.5 -110.5q70 0 134.5 23.5t97.5 68.5
l39 -28q-37 -102 -136.5 -157.5t-238.5 -55.5z" />
    <glyph glyph-name="d" unicode="d" horiz-adv-x="1198" 
d="M1018 188q0 -61 25.5 -90.5t109.5 -44.5v-53h-362l16 186h-29q-125 -205 -327 -204q-154 0 -269.5 115.5t-115.5 318.5q0 229 150.5 366.5t352.5 137.5q115 0 203 -50v242q0 59 -32.5 89t-121.5 40v49q207 29 359 117l41 -39v-1180zM575 125q78 0 127.5 50t69.5 120v446
q-18 45 -64 74t-114 29q-117 0 -196 -92.5t-79 -262.5q0 -162 73.5 -263t182.5 -101z" />
    <glyph glyph-name="e" unicode="e" horiz-adv-x="1013" 
d="M657 129q164 0 234 98l39 -28q-37 -102 -137.5 -159.5t-239.5 -57.5q-211 0 -349 127t-138 337q0 213 138 343.5t339 130.5q219 0 327.5 -145.5t47.5 -293.5h-599q14 -160 104.5 -256t233.5 -96zM524 844q-86 0 -144 -74t-63 -213h371q18 111 -24 199t-140 88z" />
    <glyph glyph-name="f" unicode="f" horiz-adv-x="776" 
d="M677.5 1430q196.5 0 248.5 -132q0 -53 -53.5 -93t-122.5 -48q-57 176 -156 176q-152 0 -152 -254v-176l252 23q-10 -49 -10 -109h-242v-649q0 -61 48.5 -81.5t164.5 -33.5v-53h-620v53q43 6 63.5 11.5t45 17.5t34.5 32.5t10 53.5v649h-153v53l153 31v6q0 248 146.5 385.5
t343 137.5z" />
    <glyph glyph-name="g" unicode="g" horiz-adv-x="1071" 
d="M1006 883v-142l-189 31q43 -63 43 -147q0 -125 -99 -209t-274 -84h-59q-96 0 -96 -68q0 -57 90 -65l209 -19q207 -18 278.5 -58t71.5 -136q0 -170 -155.5 -272.5t-401.5 -102.5q-195 0 -292 66.5t-97 156.5q0 41 57.5 95.5t134.5 88.5q-117 51 -116 146q0 39 68.5 103.5
t142.5 88.5q-100 35 -153.5 107t-53.5 162q0 125 99 210t273 85q80 0 152 -21q68 -16 367 -16zM487 393q84 0 119 71t35 161t-35 161.5t-119 71.5t-118.5 -71.5t-34.5 -161.5t34.5 -161t118.5 -71zM618 -33l-235 19q-76 6 -117 -32t-41 -97q0 -158 267 -158q143 0 224 52
t81 128q0 47 -39.5 63.5t-139.5 24.5z" />
    <glyph glyph-name="h" unicode="h" horiz-adv-x="1210" 
d="M1040 168q0 -33 7.5 -53.5t29 -32.5t40 -16.5t59.5 -12.5v-53h-502v53q37 8 51 12.5t34.5 16.5t28 32.5t7.5 53.5v416q0 188 -142 188q-115 0 -213 -117v-487q0 -33 7.5 -53.5t28 -32.5t34.5 -16.5t51 -12.5v-53h-516v53q59 10 84 17.5t45.5 31t20.5 66.5v944
q0 61 -28 90t-122 39v49q203 29 354 117l41 -39v-633q78 88 156 136.5t184 48.5q260 0 260 -316v-436z" />
    <glyph glyph-name="i" unicode="i" horiz-adv-x="606" 
d="M292.5 1081q-59.5 0 -104.5 43t-45 102.5t44 101.5t105.5 42t105.5 -42t44 -101.5t-45 -102.5t-104.5 -43zM45 0v53q41 8 59.5 12.5t40 16.5t28.5 32.5t7 53.5v469q0 61 -25.5 90t-109.5 39v49q213 37 338 119l43 -39v-727q0 -33 7 -53.5t28.5 -32.5t40 -16.5t59.5 -12.5
v-53h-516z" />
    <glyph glyph-name="j" unicode="j" horiz-adv-x="534" 
d="M278.5 1081q-59.5 0 -104.5 43t-45 102.5t44 101.5t105.5 42t105.5 -42t44 -101.5t-45 -102.5t-104.5 -43zM-10 -379q-16 31 0 62q96 33 136 102.5t40 206.5v645q0 61 -25.5 90t-109.5 39v49q213 37 338 119l43 -39v-930q0 -86 -43 -152.5t-113 -104.5t-134 -58.5
t-132 -28.5z" />
    <glyph glyph-name="k" unicode="k" horiz-adv-x="1216" 
d="M1032 127q27 -37 59.5 -50.5t110.5 -21.5v-55h-397q0 66 -37 117l-223 321l-105 -100v-170q0 -43 20.5 -66.5t45 -31t84.5 -17.5v-53h-545v53q59 10 84 17.5t45.5 31t20.5 66.5v944q0 61 -28 90t-122 39v49q203 29 354 117l41 -39v-915l301 286q96 90 -71 107v55h428v-55
q-88 -6 -140.5 -34t-111.5 -83l-144 -137z" />
    <glyph glyph-name="l" unicode="l" horiz-adv-x="634" 
d="M45 0v53q59 10 84 17.5t45.5 31t20.5 66.5v944q0 61 -28 90t-122 39v49q203 29 354 117l41 -39v-1200q0 -43 20.5 -66.5t45 -31t84.5 -17.5v-53h-545z" />
    <glyph glyph-name="m" unicode="m" horiz-adv-x="1761" 
d="M35 0v53q41 8 59.5 12.5t40 16.5t28.5 32.5t7 53.5v489q0 61 -25.5 87t-109.5 22v49q207 31 348 119l41 -39l-64 -172h46q72 94 147.5 145.5t183.5 51.5q205 0 252 -197h12q133 197 326 197q266 0 266 -316v-436q0 -33 7.5 -53.5t30 -32.5t39 -16.5t56.5 -12.5v-53h-507
v53q39 8 55 12.5t37.5 16.5t29 32.5t7.5 53.5v418q0 186 -140 186q-109 0 -204 -117v-487q0 -33 7 -53.5t28.5 -32.5t38 -16.5t55.5 -12.5v-53h-508v53q41 8 57 12.5t38.5 16.5t30 32.5t7.5 53.5v418q0 186 -137 186q-113 0 -205 -119v-485q0 -33 7 -53.5t27.5 -32.5
t35 -16.5t51.5 -12.5v-53h-502z" />
    <glyph glyph-name="n" unicode="n" horiz-adv-x="1185" 
d="M35 0v53q41 8 59.5 12.5t40 16.5t28.5 32.5t7 53.5v469q0 61 -25.5 90t-109.5 39v49q207 31 348 119l41 -39l-64 -172h46q80 94 160.5 145.5t189.5 51.5q260 0 260 -316v-436q0 -33 7 -53.5t28.5 -32.5t40 -16.5t59.5 -12.5v-53h-502v53q37 8 51.5 12.5t35 16.5
t27.5 32.5t7 53.5v416q0 188 -139 188q-121 0 -215 -119v-485q0 -33 7 -53.5t27.5 -32.5t35 -16.5t51.5 -12.5v-53h-502z" />
    <glyph glyph-name="o" unicode="o" horiz-adv-x="1112" 
d="M545 -18q-205 0 -342 125.5t-137 336.5q0 217 146 346.5t355 129.5q205 0 342.5 -126t137.5 -337q0 -217 -146.5 -346t-355.5 -129zM573 55q94 0 153.5 91.5t59.5 261.5q0 176 -64.5 307t-182.5 131q-94 0 -153.5 -91t-59.5 -261q0 -176 64 -307.5t183 -131.5z" />
    <glyph glyph-name="p" unicode="p" horiz-adv-x="1177" 
d="M752 920q150 0 260 -119t110 -320q0 -229 -145.5 -364t-349.5 -135q-102 0 -201 38v-208q0 -35 8 -55.5t36 -33t46.5 -16.5t73.5 -12v-53h-555v53q61 10 83.5 16t42 29.5t19.5 71.5v825q0 61 -27.5 90t-117.5 39v49q209 29 368 119l41 -39l-79 -231h28q47 100 143.5 178
t215.5 78zM623 59q109 0 175 95.5t66 263.5q0 160 -60.5 261t-164.5 101q-94 0 -153.5 -79.5t-59.5 -145.5v-233q0 -111 48.5 -187t148.5 -76z" />
    <glyph glyph-name="q" unicode="q" horiz-adv-x="1187" 
d="M1018 -190q0 -43 18.5 -67t41 -31t75.5 -17v-53h-557v53q106 14 141 32.5t35 82.5v358q-125 -186 -321 -186q-152 0 -268.5 115.5t-116.5 318.5q0 233 162.5 368.5t414.5 135.5q133 0 252 -43l123 24v-1091zM575 127q139 0 197 158v409q0 63 -51 107.5t-129 44.5
q-115 0 -194 -92t-79 -262q0 -164 73.5 -264.5t182.5 -100.5z" />
    <glyph glyph-name="r" unicode="r" horiz-adv-x="851" 
d="M35 0v53q45 8 64.5 12.5t43 16.5t30.5 32.5t7 53.5v471q0 61 -27.5 90t-117.5 37v49q213 33 368 119l41 -39l-47 -248h56q61 145 125.5 216t156.5 71q43 0 82 -16v-232q-63 29 -133 29q-125 0 -191.5 -83t-66.5 -204v-260q0 -33 8 -53.5t30.5 -32.5t44 -16.5t69.5 -12.5
v-53h-543z" />
    <glyph glyph-name="s" unicode="s" horiz-adv-x="835" 
d="M377 -18q-178 0 -307 81l-4 193h79q70 -203 254 -203q82 0 123 35t41 92q0 63 -47 97t-156 73q-127 45 -209.5 112.5t-82.5 188.5q0 125 97 197t259 72q143 0 274 -78v-191h-77q-57 197 -218 197q-66 0 -103.5 -31t-37.5 -82t43 -89t135 -71q72 -25 114 -44t100.5 -56
t87 -90t28.5 -121q0 -133 -109.5 -207.5t-283.5 -74.5z" />
    <glyph glyph-name="t" unicode="t" horiz-adv-x="745" 
d="M446 236q0 -170 265 -74v-56q-156 -84 -326 -126q-82 0 -133 51t-51 119v667h-166v60q197 70 344 215h67v-199l265 27q-10 -49 -11 -103h-254v-581z" />
    <glyph glyph-name="u" unicode="u" horiz-adv-x="1175" 
d="M430 -18q-270 0 -270 315v459q0 37 -17.5 56t-39 25.5t-68.5 14.5v49q236 -12 371 12v-606q0 -178 149 -178q104 0 205 102v525q0 37 -17.5 56t-39 25.5t-68.5 14.5v49q236 -12 371 12v-725q0 -61 25.5 -90.5t109.5 -44.5v-53h-350l12 162h-31q-80 -86 -158 -133
t-184 -47z" />
    <glyph glyph-name="v" unicode="v" horiz-adv-x="1042" 
d="M702 901h336v-53q-72 -8 -98.5 -23.5t-50.5 -74.5l-324 -762h-82l-336 762q-27 59 -50 74.5t-93 23.5v53h504v-53q-92 -14 -108.5 -35.5t-0.5 -62.5l209 -482l185 439q14 35 15 60.5t-5 38.5t-25.5 22.5t-33 12.5t-42.5 7v53z" />
    <glyph glyph-name="w" unicode="w" horiz-adv-x="1640" 
d="M453 -12l-308 772q-23 53 -47 67.5t-94 20.5v53h506v-53q-94 -12 -111 -37q-12 -18 0 -51l183 -492l166 410q33 82 8 125q-14 25 -35 32t-68 13v53h357q0 -78 37 -176l176 -459l155 391q25 61 28 99.5t-20.5 56.5t-51 24.5t-83.5 10.5v53h385v-53q-70 -6 -94 -20.5
t-47 -67.5l-313 -772h-88l-275 678l-278 -678h-88z" />
    <glyph glyph-name="x" unicode="x" horiz-adv-x="1122" 
d="M915 143q37 -49 72 -65.5t111 -24.5v-53h-531v53q33 4 49.5 8.5t34 14.5t15.5 26.5t-21 40.5l-166 226l-184 -226q-20 -27 -23.5 -43t18 -26.5t34 -12.5t51.5 -8v-53h-350v53q76 8 106.5 22.5t75.5 67.5l233 281l-241 330q-37 51 -71 68.5t-101 25.5v53h512v-53
q-31 -4 -48.5 -9t-32 -15.5t-12 -28t20.5 -41.5l139 -191l158 191q20 27 23.5 44t-16 27.5t-36 13.5t-51.5 9v53h340v-53q-66 -8 -96.5 -24.5t-75.5 -69.5l-205 -244z" />
    <glyph glyph-name="y" unicode="y" horiz-adv-x="1062" 
d="M719 901h340v-53q-70 -8 -94.5 -22.5t-49.5 -71.5l-352 -820q-131 -309 -305 -309q-70 0 -139 47v150q141 -25 230 -2.5t130 114.5l13 31l-342 787q-27 57 -51.5 72.5t-94.5 23.5v53h508v-53q-92 -14 -109 -37q-14 -20 3 -59l210 -498l215 500q8 18 9.5 31.5t-6 22.5
t-14.5 15t-25.5 11.5t-27.5 6.5t-34 5q-10 2 -14 2v53z" />
    <glyph glyph-name="z" unicode="z" horiz-adv-x="974" 
d="M68 0l-23 31l559 803l-246 -7q-172 -2 -192 -211h-62v297l121 -12h695l-580 -833l262 6q125 2 179.5 55t84.5 160h64q-39 -156 -39 -289h-823z" />
    <glyph glyph-name="braceleft" unicode="{" horiz-adv-x="643" 
d="M582 -330q-113 27 -184.5 69t-105.5 100.5t-44 113.5t-10 135v318q0 115 -172 178v43q172 63 172 178v317q0 80 10 135.5t44 114t105.5 100t184.5 68.5l16 -45q-78 -33 -96.5 -112.5t-18.5 -260.5v-266q0 -98 -61.5 -159.5t-151.5 -82.5v-18q90 -20 151.5 -81.5
t61.5 -160.5v-266q0 -94 2 -138t12.5 -100.5t35 -86t65.5 -48.5z" />
    <glyph glyph-name="bar" unicode="|" horiz-adv-x="397" 
d="M147 -358v1681h103v-1681h-103z" />
    <glyph glyph-name="braceright" unicode="}" horiz-adv-x="643" 
d="M61 -330l-16 45q78 33 96.5 113t18.5 260v266q0 98 61.5 159.5t151.5 82.5v18q-90 20 -151.5 82t-61.5 160v266q0 94 -2 138.5t-12.5 100.5t-35 86t-65.5 48l16 45q113 -27 184.5 -68.5t105.5 -100t44.5 -114t10.5 -135.5v-317q0 -115 172 -178v-43q-172 -63 -172 -178
v-318q0 -80 -10.5 -135t-44.5 -113.5t-105.5 -100.5t-184.5 -69z" />
    <glyph glyph-name="asciitilde" unicode="~" horiz-adv-x="962" 
d="M637 360q-92 0 -194.5 75t-178.5 75q-55 0 -92 -33t-37 -65h-45q-18 106 52.5 174.5t181.5 68.5q92 0 195.5 -74.5t176.5 -74.5q57 0 94 32.5t37 65.5h45q18 -106 -52 -175t-183 -69z" />
    <glyph glyph-name="exclamdown" unicode="&#xa1;" horiz-adv-x="468" 
d="M256 932q59 0 103 -44t44 -106q0 -59 -44 -102t-103 -43q-61 0 -105.5 43t-44.5 102q0 63 44.5 106.5t105.5 43.5zM203 518h65l101 -807q16 -137 -133.5 -137t-133.5 137z" />
    <glyph glyph-name="cent" unicode="&#xa2;" horiz-adv-x="995" 
d="M891 223l39 -28q-37 -102 -136.5 -157.5t-238.5 -55.5q-70 0 -145 16l-33 -123h-88l41 150q-123 53 -193.5 161.5t-70.5 257.5q0 219 143 347.5t362 128.5h2l39 143h88l-41 -150q123 -18 195 -80.5t72 -138.5q0 -47 -29 -74.5t-76 -27.5q-53 0 -84.5 37t-54.5 119
q-14 57 -45 81l-174 -634q82 -63 196 -64q70 0 134.5 23.5t97.5 68.5zM319 524q0 -154 76 -260l158 584q-100 -6 -167 -91.5t-67 -232.5z" />
    <glyph glyph-name="sterling" unicode="&#xa3;" horiz-adv-x="1247" 
d="M1108 381q74 -45 74 -150q0 -133 -124 -208.5t-261 -75.5q-72 0 -139.5 27.5t-111.5 61.5t-98.5 61.5t-103.5 27.5q-106 0 -207 -135l-71 76q123 117 172 215t51 278h-197l27 119h170v104q0 250 147.5 386.5t364.5 136.5q215 0 266 -131q0 -53 -53 -93.5t-123 -48.5
q-12 39 -23.5 63.5t-32 54.5t-51 44t-71.5 14q-170 0 -170 -254v-276h336l-27 -119h-309q-8 -182 -181 -332q74 35 134 35q61 0 122.5 -32.5t102.5 -72.5t91 -73t93 -33q76 0 76 84q0 63 -41 121z" />
    <glyph glyph-name="currency" unicode="&#xa4;" horiz-adv-x="1189" 
d="M1020 467q0 -141 -84 -254l145 -143l-94 -95l-145 144q-117 -80 -250 -80q-135 0 -246 78l-143 -142l-94 95l143 141q-84 113 -84 256q0 139 82 250l-141 139l94 96l141 -141q111 82 248 82q141 0 252 -84l143 143l94 -96l-143 -141q82 -111 82 -248zM307 467
q0 -121 83 -210t204 -89q119 0 205 89t86 210t-86 208t-205 87q-121 0 -204 -87t-83 -208z" />
    <glyph glyph-name="yen" unicode="&#xa5;" horiz-adv-x="1368" 
d="M942 1290h412v-53q-80 -16 -105.5 -33.5t-74.5 -93.5l-302 -479h250v-94h-291v-103h291v-94h-291v-133q0 -51 9.5 -80t42 -45t53 -21.5t86.5 -15.5v-45h-651v45q121 20 149 43q41 31 41 119v133h-319v94h319v101l-2 2h-317v94h258l-307 479q-49 76 -74 93.5t-105 33.5v53
h600v-53q-12 -2 -36.5 -7t-36 -8t-28.5 -9.5t-22.5 -14.5t-9.5 -19.5t2 -28.5t21 -40l287 -459l282 459q20 35 23.5 56.5t-18 33.5t-39 17.5t-64.5 13.5q-23 4 -33 6v53z" />
    <glyph glyph-name="brokenbar" unicode="&#xa6;" horiz-adv-x="397" 
d="M147 645v678h103v-678h-103zM147 -358v677h103v-677h-103z" />
    <glyph glyph-name="section" unicode="&#xa7;" horiz-adv-x="1038" 
d="M762 195q158 -111 158 -267q0 -133 -103.5 -215t-288.5 -82q-29 0 -55.5 2t-51 7.5t-44 10.5t-41 14t-33.5 13.5t-32.5 15.5t-26.5 14t-25 16l-18 12l-6 209h51q31 -104 100.5 -175t173.5 -71q86 0 132 46t46 114q0 61 -50 106t-175 101q-76 33 -128 61.5t-119.5 78.5
t-103.5 117.5t-36 149.5q0 199 201 285q-152 109 -152 268q0 133 102.5 215t282.5 82q72 0 141.5 -22.5t95 -38t72.5 -45.5l7 -209h-52q-31 102 -98.5 173.5t-157.5 71.5q-82 0 -127 -46t-45 -111q0 -63 47.5 -108.5t171.5 -100.5q76 -33 127.5 -60.5t120 -78t104.5 -118
t36 -149.5q0 -200 -201 -286zM324 539q0 -82 58 -134.5t189 -109.5q8 -4 24.5 -11.5t30 -13.5t25.5 -12q74 53 74 156q0 84 -58.5 136t-189.5 107l-82 37q-71 -53 -71 -155z" />
    <glyph glyph-name="dieresis" unicode="&#xa8;" horiz-adv-x="692" 
d="M129 1147q-51 0 -88 37t-37 88t37 87t88 36t87 -36t36 -87t-36 -88t-87 -37zM565 1147q-53 0 -89 37t-36 88t37 87t88 36t87 -36t36 -87t-36 -88t-87 -37z" />
    <glyph glyph-name="copyright" unicode="&#xa9;" horiz-adv-x="1366" 
d="M684 51q-248 0 -423 175t-175 423q0 246 175 421t423 175q246 0 421 -175t175 -421q0 -248 -175 -423t-421 -175zM684 115q217 0 371.5 157.5t154.5 376.5q0 217 -154.5 375t-371.5 158q-219 0 -372.5 -158t-153.5 -375q0 -219 153.5 -376.5t372.5 -157.5zM709 305
q-162 0 -261.5 96.5t-99.5 241.5q0 152 103.5 251t267.5 99q133 0 211 -49l8 -141h-43q-35 141 -190 141q-100 0 -153.5 -72.5t-53.5 -189.5q0 -137 76.5 -225t199.5 -88q109 0 158 51l22 -27q-75 -88 -245 -88z" />
    <glyph glyph-name="ordfeminine" unicode="&#xaa;" horiz-adv-x="724" 
d="M588 834q0 -31 28.5 -38.5t69.5 17.5v-35q-70 -59 -145 -80q-45 0 -78 33t-35 74q-106 -106 -225 -107q-70 0 -117 36t-47 104q0 35 14.5 61.5t32.5 44t58 34.5t71 26.5t88 25.5q6 2 30.5 9.5t32 9.5t24 9t24.5 14t14 18v24q0 76 -31.5 104.5t-105.5 28.5q-35 0 -47 -37
q-25 -72 -48.5 -99.5t-58.5 -27.5q-25 0 -41 16.5t-16 41.5q0 68 107.5 113.5t209.5 45.5q190 0 191 -202v-264zM291 778q76 0 137 80v160l-113 -33q-115 -33 -114 -113q0 -43 24.5 -68.5t65.5 -25.5zM106 430v123h510v-123h-510z" />
    <glyph glyph-name="guillemotleft" unicode="&#xab;" horiz-adv-x="837" 
d="M86 455l307 288l33 -28l-174 -260l174 -260l-31 -29zM412 455l307 288l33 -28l-174 -260l174 -260l-31 -29z" />
    <glyph glyph-name="logicalnot" unicode="&#xac;" horiz-adv-x="1153" 
d="M1026 780v-487h-162v325h-737v162h899z" />
    <glyph glyph-name="uni00AD" unicode="&#xad;" horiz-adv-x="868" 
d="M106 467v121h656v-121h-656z" />
    <glyph glyph-name="registered" unicode="&#xae;" horiz-adv-x="1366" 
d="M684 51q-248 0 -423 175t-175 423q0 246 175 421t423 175q246 0 421 -175t175 -421q0 -248 -175 -423t-421 -175zM684 115q217 0 371.5 157.5t154.5 376.5q0 217 -154.5 375t-371.5 158q-219 0 -372.5 -158t-153.5 -375q0 -219 153.5 -376.5t372.5 -157.5zM963 326
q-119 0 -172 88l-64 104q-43 72 -76 86v35q174 0 174 137q0 135 -147 135q-43 0 -57.5 -10t-14.5 -35v-426q0 -33 12.5 -49t23.5 -20t46 -11v-26h-295v26q35 6 46.5 10.5t23.5 21t12 48.5v410q0 31 -11 48t-24.5 21.5t-46.5 10.5v26h279q289 0 289 -174q0 -72 -53.5 -114.5
t-131.5 -57.5q49 -12 115 -123l24 -41q51 -82 91 -88v-26q-18 -6 -43 -6z" />
    <glyph glyph-name="macron" unicode="&#xaf;" horiz-adv-x="591" 
d="M-6 1212l31 93h573l-31 -93h-573z" />
    <glyph glyph-name="degree" unicode="&#xb0;" horiz-adv-x="739" 
d="M362 768q-117 0 -196.5 72.5t-79.5 195.5q0 125 84 200t207 75q117 0 196.5 -73t79.5 -196q0 -125 -84 -199.5t-207 -74.5zM379 815q61 0 97 51.5t36 147.5q0 102 -39 176t-113 74q-59 0 -96 -51.5t-37 -147.5q0 -100 39 -175t113 -75z" />
    <glyph glyph-name="plusminus" unicode="&#xb1;" horiz-adv-x="1011" 
d="M588 803h297v-162h-297v-301h-162v301h-299v162h299v297h162v-297zM127 -18v161h758v-161h-758z" />
    <glyph glyph-name="uni00B2" unicode="&#xb2;" horiz-adv-x="536" 
d="M72 805l-6 22q10 8 40.5 35t43 37t39 34.5t40 39t34 37t30.5 39t21.5 36t16.5 38t5 36.5q0 41 -24.5 69.5t-71.5 28.5q-84 0 -136 -86l-22 15q25 63 79 99t120 36q72 0 118.5 -41t46.5 -102q0 -47 -34.5 -98.5t-71.5 -82t-93.5 -72.5t-66.5 -51h135q55 0 83 13.5t46 60.5
h27l-39 -143h-360z" />
    <glyph glyph-name="uni00B3" unicode="&#xb3;" horiz-adv-x="509" 
d="M207 786q-55 0 -98 15.5t-43 46.5t34 31q18 0 52 -32t69 -32q47 0 86 34t39 91q0 55 -37 83t-92 28q-35 0 -74 -15l-10 25l64 24q66 25 93 46.5t27 58.5q0 66 -83.5 65.5t-131.5 -55.5l-20 17q66 96 188 96q59 0 97.5 -29t38.5 -76q0 -68 -115 -118q63 -4 108 -35t45 -92
q0 -76 -69.5 -126.5t-167.5 -50.5z" />
    <glyph glyph-name="acute" unicode="&#xb4;" horiz-adv-x="337" 
d="M68 1034l-62 39q45 174 141 309q49 0 103.5 -39.5t71.5 -89.5q-129 -86 -254 -219z" />
    <glyph glyph-name="paragraph" unicode="&#xb6;" horiz-adv-x="1425" 
d="M612 1290h768v-53q-104 -20 -131 -41q-39 -33 -39 -121v-1104q0 -162 -99 -245.5t-273 -83.5h-138v1472q0 49 -23.5 71.5t-84.5 22.5q-139 0 -204.5 -95t-65.5 -234.5t64.5 -230.5t211.5 -91q25 0 25 -40t-25 -40q-244 0 -398.5 107.5t-154.5 306.5q0 197 155.5 298
t411.5 101zM965 -33v1147q0 59 -18.5 83t-61.5 24q-41 0 -60.5 -23.5t-19.5 -83.5v-1399q92 8 126 66.5t34 185.5z" />
    <glyph glyph-name="periodcentered" unicode="&#xb7;" horiz-adv-x="468" 
d="M256 463q-61 0 -105.5 43t-44.5 106q0 59 44.5 102.5t105.5 43.5q59 0 103 -43t44 -103q0 -63 -44 -106t-103 -43z" />
    <glyph glyph-name="cedilla" unicode="&#xb8;" horiz-adv-x="493" 
d="M145 -434l11 53q94 0 138 26.5t44 65.5q0 88 -229 88l102 201h98l-45 -90q88 0 156.5 -45t68.5 -123q0 -176 -344 -176z" />
    <glyph glyph-name="uni00B9" unicode="&#xb9;" horiz-adv-x="407" 
d="M76 815v21q45 4 61.5 12t16.5 33v338q0 23 -8.5 29.5t-24.5 2.5l-41 -10v23l158 67l16 -12v-438q0 -25 16.5 -33t61.5 -12v-21h-256z" />
    <glyph glyph-name="ordmasculine" unicode="&#xba;" horiz-adv-x="718" 
d="M352 696q-131 0 -219 81t-88 216q0 141 93 224t229 83q131 0 219 -81.5t88 -217.5q0 -141 -93.5 -223t-228.5 -82zM371 743q61 0 98 58.5t37 167.5q0 117 -41 200.5t-117 83.5q-59 0 -97 -59t-38 -168q0 -115 41 -199t117 -84zM106 430v123h508v-123h-508z" />
    <glyph glyph-name="guillemotright" unicode="&#xbb;" horiz-adv-x="837" 
d="M446 455l-309 -289l-31 29l175 260l-175 260l33 28zM772 455l-309 -289l-31 29l174 260l-174 260l33 28z" />
    <glyph glyph-name="onequarter" unicode="&#xbc;" horiz-adv-x="1118" 
d="M332 836v-21h-256v21q45 4 61.5 12t16.5 33v338q0 23 -8.5 29.5t-24.5 2.5l-41 -10v23l158 67l16 -12v-438q0 -25 16.5 -33t61.5 -12zM918 1303h57l-885 -1313h-57zM977 66q0 -25 15.5 -33t60.5 -13v-20h-254v20q45 4 60 12.5t15 33.5v69h-221l-8 41l238 328h94v-328h76
l-9 -41h-67v-69zM686 176h188v260z" />
    <glyph glyph-name="onehalf" unicode="&#xbd;" horiz-adv-x="1136" 
d="M76 815v21q45 4 61.5 12t16.5 33v338q0 23 -8.5 29.5t-24.5 2.5l-41 -10v23l158 67l16 -12v-438q0 -25 16.5 -33t61.5 -12v-21h-256zM33 -10l885 1313h57l-885 -1313h-57zM672 0l-6 23q10 8 40.5 34.5t43 36.5t39 35t40 39t34 36.5t30.5 39t21.5 36t16.5 38t5 36.5
q0 41 -24.5 70t-71.5 29q-84 0 -135 -86l-23 14q25 63 79 99t120 36q72 0 119 -41t47 -102q0 -47 -35 -98.5t-72 -82t-93 -72.5t-67 -50h135q55 0 83 13t46 60h27l-39 -143h-360z" />
    <glyph glyph-name="threequarters" unicode="&#xbe;" horiz-adv-x="1419" 
d="M444 963q0 -76 -69.5 -126.5t-167.5 -50.5q-55 0 -98 15.5t-43 46.5t34 31q18 0 52 -32t69 -32q47 0 86 34t39 91q0 55 -37 83t-92 28q-35 0 -74 -15l-10 25l64 24q66 25 93 46.5t27 58.5q0 66 -83.5 65.5t-131.5 -55.5l-20 17q66 96 188 96q59 0 97.5 -29t38.5 -76
q0 -68 -115 -118q63 -4 108 -35t45 -92zM1083 1303h58l-885 -1313h-57zM1278 66q0 -25 15.5 -33t60.5 -13v-20h-254v20q45 4 60.5 12.5t15.5 33.5v69h-222l-8 41l238 328h94v-328h76l-8 -41h-68v-69zM987 176h189v260z" />
    <glyph glyph-name="questiondown" unicode="&#xbf;" horiz-adv-x="997" 
d="M536.5 932q61.5 0 105.5 -43t44 -107q0 -59 -44 -102t-105 -43q-59 0 -103.5 43t-44.5 102q0 61 43 105.5t104.5 44.5zM563 508q29 -80 20.5 -129t-43 -110.5t-72.5 -110.5t-68.5 -126t-30.5 -159q0 -119 62.5 -173t189.5 -54q55 0 77 55q43 111 79 155t83 44
q41 0 66.5 -26t25.5 -64q0 -70 -85 -129.5t-197.5 -88t-214.5 -28.5q-168 0 -268.5 87t-100.5 236q0 80 33 147.5t81 110.5t104 87t103.5 80t76 87.5t24.5 108.5h55z" />
    <glyph glyph-name="Agrave" unicode="&#xc0;" 
d="M764 1423q-125 133 -254 219q16 49 70.5 89.5t103.5 40.5q96 -135 141 -310zM1243 168q29 -66 55.5 -82t114.5 -33v-53h-590v53q10 2 36 7.5t35 8.5t27.5 9t23.5 13t11.5 17.5t4 26t-10.5 33.5l-94 215h-498l-90 -215q-8 -18 -10 -33.5t4 -26t11.5 -17.5t22.5 -13
t26.5 -9t35 -8.5t35.5 -7.5v-53h-389v53q86 16 113.5 32.5t56.5 84.5l488 1135h88zM391 461h432l-219 506z" />
    <glyph glyph-name="Aacute" unicode="&#xc1;" 
d="M995 1642q-129 -86 -254 -219l-61 39q45 174 141 310q49 0 103.5 -40.5t70.5 -89.5zM1243 168q29 -66 55.5 -82t114.5 -33v-53h-590v53q10 2 36 7.5t35 8.5t27.5 9t23.5 13t11.5 17.5t4 26t-10.5 33.5l-94 215h-498l-90 -215q-8 -18 -10 -33.5t4 -26t11.5 -17.5t22.5 -13
t26.5 -9t35 -8.5t35.5 -7.5v-53h-389v53q86 16 113.5 32.5t56.5 84.5l488 1135h88zM391 461h432l-219 506z" />
    <glyph glyph-name="Acircumflex" unicode="&#xc2;" 
d="M733 1632l-260 -174l-29 33l289 307l289 -309l-29 -31zM1243 168q29 -66 55.5 -82t114.5 -33v-53h-590v53q10 2 36 7.5t35 8.5t27.5 9t23.5 13t11.5 17.5t4 26t-10.5 33.5l-94 215h-498l-90 -215q-8 -18 -10 -33.5t4 -26t11.5 -17.5t22.5 -13t26.5 -9t35 -8.5t35.5 -7.5
v-53h-389v53q86 16 113.5 32.5t56.5 84.5l488 1135h88zM391 461h432l-219 506z" />
    <glyph glyph-name="Atilde" unicode="&#xc3;" 
d="M418 1501h-53q-18 106 51 175t172 69q53 0 101 -23.5t77 -51.5t72 -51.5t90 -23.5q51 0 83.5 33t32.5 66h54q18 -106 -51.5 -175t-174.5 -69q-53 0 -100 23.5t-75.5 51t-71.5 51t-90 23.5q-51 0 -84 -32.5t-33 -65.5zM1243 168q29 -66 55.5 -82t114.5 -33v-53h-590v53
q10 2 36 7.5t35 8.5t27.5 9t23.5 13t11.5 17.5t4 26t-10.5 33.5l-94 215h-498l-90 -215q-8 -18 -10 -33.5t4 -26t11.5 -17.5t22.5 -13t26.5 -9t35 -8.5t35.5 -7.5v-53h-389v53q86 16 113.5 32.5t56.5 84.5l488 1135h88zM391 461h432l-219 506z" />
    <glyph glyph-name="Adieresis" unicode="&#xc4;" 
d="M524 1536q-53 0 -89 37t-36 88t37 87t88 36t87 -36t36 -87t-36 -88t-87 -37zM960.5 1536q-51.5 0 -88 37t-36.5 88t36.5 87t88 36t87 -36t35.5 -87t-35.5 -88t-87 -37zM1243 168q29 -66 55.5 -82t114.5 -33v-53h-590v53q10 2 36 7.5t35 8.5t27.5 9t23.5 13t11.5 17.5
t4 26t-10.5 33.5l-94 215h-498l-90 -215q-8 -18 -10 -33.5t4 -26t11.5 -17.5t22.5 -13t26.5 -9t35 -8.5t35.5 -7.5v-53h-389v53q86 16 113.5 32.5t56.5 84.5l488 1135h88zM391 461h432l-219 506z" />
    <glyph glyph-name="Aring" unicode="&#xc5;" 
d="M741 1470q-82 0 -138 55.5t-56 135.5t56 135t138 55t138.5 -55t56.5 -135t-56.5 -135.5t-138.5 -55.5zM741 1747q-39 0 -63.5 -24.5t-24.5 -61.5t24.5 -61.5t63.5 -24.5t63.5 24.5t24.5 61.5t-24.5 61.5t-63.5 24.5zM1243 168q29 -66 55.5 -82t114.5 -33v-53h-590v53
q10 2 36 7.5t35 8.5t27.5 9t23.5 13t11.5 17.5t4 26t-10.5 33.5l-94 215h-498l-90 -215q-8 -18 -10 -33.5t4 -26t11.5 -17.5t22.5 -13t26.5 -9t35 -8.5t35.5 -7.5v-53h-389v53q86 16 113.5 32.5t56.5 84.5l488 1135h88zM391 461h432l-219 506z" />
    <glyph glyph-name="AE" unicode="&#xc6;" horiz-adv-x="1851" 
d="M1733 315h63l-84 -315h-1044v53q104 20 131 41q39 33 39 121v219h-416l-141 -248q-12 -23 -18.5 -40t-0.5 -30.5t10 -20.5t23.5 -15t28 -10t38 -8.5t35.5 -8.5v-53h-393v53q82 16 108.5 34.5t71.5 96.5l512 883h-2q68 117 -47 150q-23 6 -112 20v53h1173l18 -299h-63
q-14 117 -55 167t-146 50h-162q-121 0 -156.5 -26.5t-35.5 -128.5v-363h137q176 0 225.5 35t59.5 137h51v-422h-51q-10 102 -59.5 137t-225.5 35h-137v-374q0 -102 36 -129t156 -27h119q121 0 189 50t125 183zM467 512h371v563q0 45 -9 70z" />
    <glyph glyph-name="Ccedilla" unicode="&#xc7;" horiz-adv-x="1353" 
d="M780 -25h-12l-33 -65q88 0 157 -45t69 -123q0 -176 -345 -176l11 53q94 0 138 26.5t44 65.5q0 88 -229 88l94 183q-266 33 -427 215t-161 444q0 295 203 488.5t522 193.5q244 0 401 -94q8 -186 15 -277h-84q-66 289 -355 289q-203 0 -307 -142.5t-104 -381.5
q0 -276 148.5 -453.5t381.5 -177.5q213 0 314 109l47 -50q-66 -74 -195 -122t-293 -48z" />
    <glyph glyph-name="Egrave" unicode="&#xc8;" horiz-adv-x="1228" 
d="M637 1423q-125 133 -254 219q16 49 70.5 89.5t103.5 40.5q96 -135 141 -310zM1110 315h64l-84 -315h-1045v53q104 20 131 41q39 33 39 121v860q0 47 -7 76t-36 46t-42 21.5t-69 14.5q-10 2 -16 4v53h1040l19 -299h-64q-14 117 -55 167t-145 50h-162q-121 0 -157 -26.5
t-36 -128.5v-363h138q176 0 225 35t59 137h51v-422h-51q-10 102 -59 137t-225 35h-138v-374q0 -102 36 -129t157 -27h119q121 0 188.5 50t124.5 183z" />
    <glyph glyph-name="Eacute" unicode="&#xc9;" horiz-adv-x="1228" 
d="M868 1642q-129 -86 -254 -219l-61 39q45 174 141 310q49 0 103.5 -40.5t70.5 -89.5zM1110 315h64l-84 -315h-1045v53q104 20 131 41q39 33 39 121v860q0 47 -7 76t-36 46t-42 21.5t-69 14.5q-10 2 -16 4v53h1040l19 -299h-64q-14 117 -55 167t-145 50h-162
q-121 0 -157 -26.5t-36 -128.5v-363h138q176 0 225 35t59 137h51v-422h-51q-10 102 -59 137t-225 35h-138v-374q0 -102 36 -129t157 -27h119q121 0 188.5 50t124.5 183z" />
    <glyph glyph-name="Ecircumflex" unicode="&#xca;" horiz-adv-x="1228" 
d="M606 1632l-260 -174l-29 33l289 307l289 -309l-29 -31zM1110 315h64l-84 -315h-1045v53q104 20 131 41q39 33 39 121v860q0 47 -7 76t-36 46t-42 21.5t-69 14.5q-10 2 -16 4v53h1040l19 -299h-64q-14 117 -55 167t-145 50h-162q-121 0 -157 -26.5t-36 -128.5v-363h138
q176 0 225 35t59 137h51v-422h-51q-10 102 -59 137t-225 35h-138v-374q0 -102 36 -129t157 -27h119q121 0 188.5 50t124.5 183z" />
    <glyph glyph-name="Edieresis" unicode="&#xcb;" horiz-adv-x="1228" 
d="M397 1536q-53 0 -89 37t-36 88t37 87t88.5 36t87 -36t35.5 -87t-36 -88t-87 -37zM833.5 1536q-51.5 0 -88 37t-36.5 88t36.5 87t88 36t87 -36t35.5 -87t-35.5 -88t-87 -37zM1110 315h64l-84 -315h-1045v53q104 20 131 41q39 33 39 121v860q0 47 -7 76t-36 46t-42 21.5
t-69 14.5q-10 2 -16 4v53h1040l19 -299h-64q-14 117 -55 167t-145 50h-162q-121 0 -157 -26.5t-36 -128.5v-363h138q176 0 225 35t59 137h51v-422h-51q-10 102 -59 137t-225 35h-138v-374q0 -102 36 -129t157 -27h119q121 0 188.5 50t124.5 183z" />
    <glyph glyph-name="Igrave" unicode="&#xcc;" horiz-adv-x="700" 
d="M373 1423q-125 133 -254 219q16 49 70.5 89.5t103.5 40.5q96 -135 141 -310zM45 0v53q104 20 131 41q39 33 39 121v860q0 47 -7 76t-36 46t-42 21.5t-69 14.5q-10 2 -16 4v53h610v-53q-104 -20 -131 -41q-39 -33 -39 -121v-860q0 -47 7.5 -75.5t36 -46t42 -21.5t68.5 -15
q10 -2 16 -4v-53h-610z" />
    <glyph glyph-name="Iacute" unicode="&#xcd;" horiz-adv-x="700" 
d="M350 1423l-61 39q45 174 141 310q49 0 103.5 -40t70.5 -90q-129 -86 -254 -219zM45 0v53q104 20 131 41q39 33 39 121v860q0 47 -7 76t-36 46t-42 21.5t-69 14.5q-10 2 -16 4v53h610v-53q-104 -20 -131 -41q-39 -33 -39 -121v-860q0 -47 7.5 -75.5t36 -46t42 -21.5
t68.5 -15q10 -2 16 -4v-53h-610z" />
    <glyph glyph-name="Icircumflex" unicode="&#xce;" horiz-adv-x="700" 
d="M342 1798l289 -309l-29 -31l-260 174l-260 -174l-29 33zM45 0v53q104 20 131 41q39 33 39 121v860q0 47 -7 76t-36 46t-42 21.5t-69 14.5q-10 2 -16 4v53h610v-53q-104 -20 -131 -41q-39 -33 -39 -121v-860q0 -47 7.5 -75.5t36 -46t42 -21.5t68.5 -15q10 -2 16 -4v-53
h-610z" />
    <glyph glyph-name="Idieresis" unicode="&#xcf;" horiz-adv-x="700" 
d="M133 1536q-51 0 -88 37t-37 88t37 87t88 36t87 -36t36 -87t-36 -88t-87 -37zM569 1536q-53 0 -89 37t-36 88t37 87t88.5 36t87 -36t35.5 -87t-36 -88t-87 -37zM45 0v53q104 20 131 41q39 33 39 121v860q0 47 -7 76t-36 46t-42 21.5t-69 14.5q-10 2 -16 4v53h610v-53
q-104 -20 -131 -41q-39 -33 -39 -121v-860q0 -47 7.5 -75.5t36 -46t42 -21.5t68.5 -15q10 -2 16 -4v-53h-610z" />
    <glyph glyph-name="Eth" unicode="&#xd0;" horiz-adv-x="1464" 
d="M627 1290q143 0 273 -36.5t239.5 -109.5t174 -200t64.5 -291q0 -168 -63.5 -298t-172 -204.5t-238.5 -112.5t-277 -38h-582v53q104 20 131 41q39 33 39 121v385q-55 0 -170 -4l21 82q98 -4 149 -4v401q0 47 -7 76t-36 46t-42 21.5t-69 14.5q-10 2 -16 4v53h582zM684 80
q199 0 301 145.5t102 407.5q0 266 -117.5 421.5t-363.5 155.5h-121v-538q141 0 287 6l-20 -82q-39 2 -84 3t-99.5 2t-83.5 1v-326q0 -109 42 -152.5t157 -43.5z" />
    <glyph glyph-name="Ntilde" unicode="&#xd1;" horiz-adv-x="1433" 
d="M393 1501h-53q-18 106 51.5 175t171.5 69q53 0 101.5 -23.5t77 -51.5t71.5 -51.5t90 -23.5q51 0 84 33t33 66h53q18 -106 -51.5 -175t-173.5 -69q-53 0 -100.5 23.5t-76 51t-71.5 51t-90 23.5q-51 0 -84 -32.5t-33 -65.5zM936 1290h453v-53q-106 -20 -134 -41
q-41 -33 -41 -121v-1075h-112l-793 1094v-879q0 -47 8.5 -75.5t39 -46t45 -21.5t73.5 -15q12 -2 19 -4v-53h-449v53q106 20 133 41q41 33 41 121v860q0 47 -8 76t-36 46t-44 21.5t-68 14.5q-12 2 -18 4v53h432l647 -897v682q0 61 -24.5 95t-49 42.5t-96.5 20.5q-12 2 -18 4
v53z" />
    <glyph glyph-name="Ograve" unicode="&#xd2;" horiz-adv-x="1495" 
d="M770 1423q-125 133 -254 219q16 49 70.5 89.5t103.5 40.5q96 -135 141 -310zM743 -25q-285 0 -471 188.5t-186 477.5q0 295 188.5 488.5t477.5 193.5q285 0 471 -189.5t186 -482.5q0 -291 -188.5 -483.5t-477.5 -192.5zM778 57q162 0 253 140.5t91 392.5
q0 293 -110.5 472t-294.5 179q-162 0 -253 -141.5t-91 -397.5q0 -289 110.5 -467t294.5 -178z" />
    <glyph glyph-name="Oacute" unicode="&#xd3;" horiz-adv-x="1495" 
d="M748 1423l-62 39q45 174 141 310q49 0 103.5 -40t70.5 -90q-128 -86 -253 -219zM743 -25q-285 0 -471 188.5t-186 477.5q0 295 188.5 488.5t477.5 193.5q285 0 471 -189.5t186 -482.5q0 -291 -188.5 -483.5t-477.5 -192.5zM778 57q162 0 253 140.5t91 392.5
q0 293 -110.5 472t-294.5 179q-162 0 -253 -141.5t-91 -397.5q0 -289 110.5 -467t294.5 -178z" />
    <glyph glyph-name="Ocircumflex" unicode="&#xd4;" horiz-adv-x="1495" 
d="M739 1798l289 -309l-29 -31l-260 174l-260 -174l-28 33zM743 -25q-285 0 -471 188.5t-186 477.5q0 295 188.5 488.5t477.5 193.5q285 0 471 -189.5t186 -482.5q0 -291 -188.5 -483.5t-477.5 -192.5zM778 57q162 0 253 140.5t91 392.5q0 293 -110.5 472t-294.5 179
q-162 0 -253 -141.5t-91 -397.5q0 -289 110.5 -467t294.5 -178z" />
    <glyph glyph-name="Otilde" unicode="&#xd5;" horiz-adv-x="1495" 
d="M879 1450q-53 0 -100.5 23.5t-76 51t-71.5 51t-90 23.5q-51 0 -84 -32.5t-33 -65.5h-53q-18 106 51.5 175t171.5 69q53 0 101 -23.5t77 -51.5t72 -51.5t90 -23.5q51 0 84 33t33 66h53q18 -106 -51.5 -175t-173.5 -69zM743 -25q-285 0 -471 188.5t-186 477.5
q0 295 188.5 488.5t477.5 193.5q285 0 471 -189.5t186 -482.5q0 -291 -188.5 -483.5t-477.5 -192.5zM778 57q162 0 253 140.5t91 392.5q0 293 -110.5 472t-294.5 179q-162 0 -253 -141.5t-91 -397.5q0 -289 110.5 -467t294.5 -178z" />
    <glyph glyph-name="Odieresis" unicode="&#xd6;" horiz-adv-x="1495" 
d="M530.5 1536q-51.5 0 -88 37t-36.5 88t36.5 87t88 36t87 -36t35.5 -87t-35.5 -88t-87 -37zM967 1536q-53 0 -89 37t-36 88t36.5 87t88 36t87.5 -36t36 -87t-36 -88t-87 -37zM743 -25q-285 0 -471 188.5t-186 477.5q0 295 188.5 488.5t477.5 193.5q285 0 471 -189.5
t186 -482.5q0 -291 -188.5 -483.5t-477.5 -192.5zM778 57q162 0 253 140.5t91 392.5q0 293 -110.5 472t-294.5 179q-162 0 -253 -141.5t-91 -397.5q0 -289 110.5 -467t294.5 -178z" />
    <glyph glyph-name="multiply" unicode="&#xd7;" horiz-adv-x="917" 
d="M791 733l-218 -217l218 -219l-115 -115l-217 217l-217 -217l-115 115l217 219l-217 217l115 115l217 -217l217 217z" />
    <glyph glyph-name="Oslash" unicode="&#xd8;" horiz-adv-x="1495" 
d="M1124 1217q133 -90 209 -236.5t76 -329.5q0 -291 -188.5 -483.5t-477.5 -192.5q-188 0 -340 88l-102 -163l-41 26l102 162q-129 88 -202.5 232.5t-73.5 320.5q0 295 188.5 488.5t477.5 193.5q184 0 329 -82l115 182l41 -26zM373 702q0 -266 96 -442l520 834
q-106 147 -272 147q-162 0 -253 -141.5t-91 -397.5zM778 57q162 0 253 140.5t91 392.5q0 283 -102 459l-522 -834q108 -158 280 -158z" />
    <glyph glyph-name="Ugrave" unicode="&#xd9;" horiz-adv-x="1460" 
d="M752 1423q-125 133 -254 219q16 49 70.5 89.5t103.5 40.5q96 -135 141 -310zM731 -25q-100 0 -184 21.5t-166 77t-129 168t-47 274.5v559q0 47 -7.5 76t-36 46t-42 21.5t-68.5 14.5q-10 2 -16 4v53h612v-53q-104 -20 -131 -41q-39 -33 -39 -121v-590q0 -418 326 -417
q59 0 112.5 14t109.5 53t90 122t34 202v616q0 47 -8 76t-36 46t-44.5 21.5t-67.5 14.5q-12 2 -18 4v53h450v-53q-115 -20 -141 -41q-43 -33 -43 -121v-575q0 -525 -510 -525z" />
    <glyph glyph-name="Uacute" unicode="&#xda;" horiz-adv-x="1460" 
d="M729 1423l-61 39q45 174 141 310q49 0 103.5 -40t70.5 -90q-129 -86 -254 -219zM731 -25q-100 0 -184 21.5t-166 77t-129 168t-47 274.5v559q0 47 -7.5 76t-36 46t-42 21.5t-68.5 14.5q-10 2 -16 4v53h612v-53q-104 -20 -131 -41q-39 -33 -39 -121v-590q0 -418 326 -417
q59 0 112.5 14t109.5 53t90 122t34 202v616q0 47 -8 76t-36 46t-44.5 21.5t-67.5 14.5q-12 2 -18 4v53h450v-53q-115 -20 -141 -41q-43 -33 -43 -121v-575q0 -525 -510 -525z" />
    <glyph glyph-name="Ucircumflex" unicode="&#xdb;" horiz-adv-x="1460" 
d="M721 1798l289 -309l-29 -31l-260 174l-260 -174l-29 33zM731 -25q-100 0 -184 21.5t-166 77t-129 168t-47 274.5v559q0 47 -7.5 76t-36 46t-42 21.5t-68.5 14.5q-10 2 -16 4v53h612v-53q-104 -20 -131 -41q-39 -33 -39 -121v-590q0 -418 326 -417q59 0 112.5 14t109.5 53
t90 122t34 202v616q0 47 -8 76t-36 46t-44.5 21.5t-67.5 14.5q-12 2 -18 4v53h450v-53q-115 -20 -141 -41q-43 -33 -43 -121v-575q0 -525 -510 -525z" />
    <glyph glyph-name="Udieresis" unicode="&#xdc;" horiz-adv-x="1460" 
d="M512 1536q-53 0 -89 37t-36 88t37 87t88 36t87 -36t36 -87t-36 -88t-87 -37zM948 1536q-51 0 -88 37t-37 88t37 87t88 36t87 -36t36 -87t-36 -88t-87 -37zM731 -25q-100 0 -184 21.5t-166 77t-129 168t-47 274.5v559q0 47 -7.5 76t-36 46t-42 21.5t-68.5 14.5
q-10 2 -16 4v53h612v-53q-104 -20 -131 -41q-39 -33 -39 -121v-590q0 -418 326 -417q59 0 112.5 14t109.5 53t90 122t34 202v616q0 47 -8 76t-36 46t-44.5 21.5t-67.5 14.5q-12 2 -18 4v53h450v-53q-115 -20 -141 -41q-43 -33 -43 -121v-575q0 -525 -510 -525z" />
    <glyph glyph-name="Yacute" unicode="&#xdd;" horiz-adv-x="1368" 
d="M938 1642q-129 -86 -254 -219l-61 39q45 174 141 310q49 0 103.5 -40.5t70.5 -89.5zM942 1290h412v-53q-80 -16 -105.5 -33.5t-74.5 -93.5l-343 -545v-358q0 -51 9.5 -80t42 -45t53 -21.5t86.5 -15.5v-45h-651v45q121 20 149 43q41 31 41 119v328l-368 575
q-49 76 -74 93.5t-105 33.5v53h600v-53q-12 -2 -36.5 -7t-36 -8t-28.5 -9.5t-22.5 -14.5t-9.5 -19.5t2 -28.5t21 -40l287 -459l282 459q20 35 23.5 56.5t-18 33.5t-39 17.5t-64.5 13.5q-23 4 -33 6v53z" />
    <glyph glyph-name="Thorn" unicode="&#xde;" horiz-adv-x="1226" 
d="M1161 643q0 -119 -54 -200t-155.5 -122.5t-211 -59t-255.5 -19.5v-27q0 -47 7.5 -75.5t36 -46t42 -21.5t68.5 -15q10 -2 16 -4v-53h-610v53q104 20 131 41q39 33 39 121v860q0 47 -7 76t-36 46t-42 21.5t-69 14.5q-10 2 -16 4v53h610v-53q-104 -20 -131 -41
q-39 -33 -39 -121v-31q145 -2 255 -19t211.5 -59t155.5 -123t54 -200zM870 643q0 158 -88 233.5t-297 86.5v-639q209 10 297 85.5t88 233.5z" />
    <glyph glyph-name="germandbls" unicode="&#xdf;" horiz-adv-x="1204" 
d="M1014 539q135 -135 135 -248q0 -90 -91 -166t-203 -114t-198 -38q-72 0 -121 31t-49 82q0 43 31 66.5t70 23.5q43 0 118.5 -57.5t100.5 -57.5q43 0 79 47.5t36 100.5q0 74 -97 170l-237 235q94 102 141 185.5t47 189.5q0 100 -43 169t-127 69q-100 0 -138 -77t-38 -216
v-934h-395v53q59 10 83.5 17.5t45 31t20.5 66.5v762q0 178 116 276.5t306 98.5q186 0 292 -83t103 -212q-2 -147 -176 -283z" />
    <glyph glyph-name="agrave" unicode="&#xe0;" horiz-adv-x="1083" 
d="M549 1034q-125 133 -254 219q16 49 70.5 89t103.5 40q96 -135 141 -309zM905 195q0 -49 45 -58.5t109 27.5v-53q-109 -92 -225 -125q-68 0 -119 50t-56 114q-160 -164 -350 -164q-109 0 -181.5 56t-72.5 161q0 53 22.5 94t51.5 67.5t92.5 54t107.5 41t136 40.5
q8 2 31.5 8t32 9t27.5 9t27.5 9.5t23 10.5t22.5 14t16 16.5t14 19.5v35q0 119 -50 162t-163 43q-53 0 -73 -56q-41 -113 -77 -155.5t-87 -42.5q-39 0 -64.5 25.5t-25.5 64.5q0 102 167 175t324 73q295 0 295 -314v-411zM446 111q115 0 213 125v245l-176 -49
q-176 -51 -176 -176q0 -66 39 -105.5t100 -39.5z" />
    <glyph glyph-name="aacute" unicode="&#xe1;" horiz-adv-x="1083" 
d="M780 1253q-129 -86 -254 -219l-61 39q45 174 141 309q49 0 103.5 -40t70.5 -89zM905 195q0 -49 45 -58.5t109 27.5v-53q-109 -92 -225 -125q-68 0 -119 50t-56 114q-160 -164 -350 -164q-109 0 -181.5 56t-72.5 161q0 53 22.5 94t51.5 67.5t92.5 54t107.5 41t136 40.5
q8 2 31.5 8t32 9t27.5 9t27.5 9.5t23 10.5t22.5 14t16 16.5t14 19.5v35q0 119 -50 162t-163 43q-53 0 -73 -56q-41 -113 -77 -155.5t-87 -42.5q-39 0 -64.5 25.5t-25.5 64.5q0 102 167 175t324 73q295 0 295 -314v-411zM446 111q115 0 213 125v245l-176 -49
q-176 -51 -176 -176q0 -66 39 -105.5t100 -39.5z" />
    <glyph glyph-name="acircumflex" unicode="&#xe2;" horiz-adv-x="1083" 
d="M518 1243l-260 -174l-29 33l289 307l289 -309l-29 -31zM905 195q0 -49 45 -58.5t109 27.5v-53q-109 -92 -225 -125q-68 0 -119 50t-56 114q-160 -164 -350 -164q-109 0 -181.5 56t-72.5 161q0 53 22.5 94t51.5 67.5t92.5 54t107.5 41t136 40.5q8 2 31.5 8t32 9t27.5 9
t27.5 9.5t23 10.5t22.5 14t16 16.5t14 19.5v35q0 119 -50 162t-163 43q-53 0 -73 -56q-41 -113 -77 -155.5t-87 -42.5q-39 0 -64.5 25.5t-25.5 64.5q0 102 167 175t324 73q295 0 295 -314v-411zM446 111q115 0 213 125v245l-176 -49q-176 -51 -176 -176q0 -66 39 -105.5
t100 -39.5z" />
    <glyph glyph-name="atilde" unicode="&#xe3;" horiz-adv-x="1083" 
d="M203 1112h-53q-18 106 51 175t172 69q53 0 101 -23.5t77 -51.5t72 -51.5t90 -23.5q51 0 83.5 33t32.5 66h54q18 -106 -51.5 -175t-174.5 -69q-53 0 -100 23.5t-75.5 51t-71.5 51t-91 23.5q-51 0 -83.5 -32.5t-32.5 -65.5zM905 195q0 -49 45 -58.5t109 27.5v-53
q-109 -92 -225 -125q-68 0 -119 50t-56 114q-160 -164 -350 -164q-109 0 -181.5 56t-72.5 161q0 53 22.5 94t51.5 67.5t92.5 54t107.5 41t136 40.5q8 2 31.5 8t32 9t27.5 9t27.5 9.5t23 10.5t22.5 14t16 16.5t14 19.5v35q0 119 -50 162t-163 43q-53 0 -73 -56
q-41 -113 -77 -155.5t-87 -42.5q-39 0 -64.5 25.5t-25.5 64.5q0 102 167 175t324 73q295 0 295 -314v-411zM446 111q115 0 213 125v245l-176 -49q-176 -51 -176 -176q0 -66 39 -105.5t100 -39.5z" />
    <glyph glyph-name="adieresis" unicode="&#xe4;" horiz-adv-x="1083" 
d="M309 1147q-51 0 -88 37t-37 88t37 87t88 36t87 -36t36 -87t-36 -88t-87 -37zM745 1147q-53 0 -88.5 37t-35.5 88t36.5 87t88 36t87 -36t35.5 -87t-36 -88t-87 -37zM905 195q0 -49 45 -58.5t109 27.5v-53q-109 -92 -225 -125q-68 0 -119 50t-56 114q-160 -164 -350 -164
q-109 0 -181.5 56t-72.5 161q0 53 22.5 94t51.5 67.5t92.5 54t107.5 41t136 40.5q8 2 31.5 8t32 9t27.5 9t27.5 9.5t23 10.5t22.5 14t16 16.5t14 19.5v35q0 119 -50 162t-163 43q-53 0 -73 -56q-41 -113 -77 -155.5t-87 -42.5q-39 0 -64.5 25.5t-25.5 64.5q0 102 167 175
t324 73q295 0 295 -314v-411zM446 111q115 0 213 125v245l-176 -49q-176 -51 -176 -176q0 -66 39 -105.5t100 -39.5z" />
    <glyph glyph-name="aring" unicode="&#xe5;" horiz-adv-x="1083" 
d="M526 1081q-82 0 -138 55.5t-56 135.5t56 135t138 55t138.5 -55t56.5 -135t-56.5 -135.5t-138.5 -55.5zM526 1358q-39 0 -63.5 -24.5t-24.5 -61.5t24.5 -61.5t63.5 -24.5t63.5 24.5t24.5 61.5t-24.5 61.5t-63.5 24.5zM905 195q0 -49 45 -58.5t109 27.5v-53
q-109 -92 -225 -125q-68 0 -119 50t-56 114q-160 -164 -350 -164q-109 0 -181.5 56t-72.5 161q0 53 22.5 94t51.5 67.5t92.5 54t107.5 41t136 40.5q8 2 31.5 8t32 9t27.5 9t27.5 9.5t23 10.5t22.5 14t16 16.5t14 19.5v35q0 119 -50 162t-163 43q-53 0 -73 -56
q-41 -113 -77 -155.5t-87 -42.5q-39 0 -64.5 25.5t-25.5 64.5q0 102 167 175t324 73q295 0 295 -314v-411zM446 111q115 0 213 125v245l-176 -49q-176 -51 -176 -176q0 -66 39 -105.5t100 -39.5z" />
    <glyph glyph-name="ae" unicode="&#xe6;" horiz-adv-x="1607" 
d="M1251 129q164 0 234 98l39 -28q-37 -102 -137.5 -159.5t-239.5 -57.5q-143 0 -257 60t-173 171q-188 -227 -408 -227q-109 0 -181.5 56t-72.5 161q0 53 22.5 94t51.5 67.5t92.5 54t107.5 41t136 40.5q8 2 31.5 8t32 9t27.5 9t27.5 9.5t23 10.5t22.5 14t16 16.5t14 19.5
v35q0 119 -50 162t-163 43q-53 0 -73 -56q-43 -113 -78 -155.5t-86 -42.5q-39 0 -64.5 25.5t-25.5 64.5q0 102 167 175t324.5 73t231.5 -93q127 92 295 93q219 0 327.5 -145.5t46.5 -293.5h-598q14 -160 104.5 -256t233.5 -96zM1118 844q-86 0 -144.5 -74t-62.5 -213h371
q18 111 -24 199t-140 88zM446 111q137 0 242 165q-29 80 -29 170q0 25 3 37l-179 -51q-176 -51 -176 -176q0 -66 39 -105.5t100 -39.5z" />
    <glyph glyph-name="ccedilla" unicode="&#xe7;" horiz-adv-x="991" 
d="M555 -18h-6l-37 -72q88 0 156.5 -45t68.5 -123q0 -176 -344 -176l10 53q94 0 138.5 26.5t44.5 65.5q0 88 -230 88l97 191q-174 29 -280.5 149.5t-106.5 304.5q0 219 143 347.5t362 128.5q162 0 258.5 -68t96.5 -158q0 -47 -29 -74.5t-76 -27.5q-53 0 -84.5 37t-54.5 119
q-14 55 -41 77.5t-72 22.5q-106 0 -178 -85t-72 -239q0 -172 93.5 -282.5t246.5 -110.5q70 0 134.5 23.5t97.5 68.5l39 -28q-37 -102 -136.5 -157.5t-238.5 -55.5z" />
    <glyph glyph-name="egrave" unicode="&#xe8;" horiz-adv-x="1013" 
d="M528 1034q-125 133 -254 219q16 49 70.5 89t104.5 40q96 -135 141 -309zM657 129q164 0 234 98l39 -28q-37 -102 -137.5 -159.5t-239.5 -57.5q-211 0 -349 127t-138 337q0 213 138 343.5t339 130.5q219 0 327.5 -145.5t47.5 -293.5h-599q14 -160 104.5 -256t233.5 -96z
M524 844q-86 0 -144 -74t-63 -213h371q18 111 -24 199t-140 88z" />
    <glyph glyph-name="eacute" unicode="&#xe9;" horiz-adv-x="1013" 
d="M760 1253q-129 -86 -254 -219l-62 39q45 174 142 309q49 0 103.5 -40t70.5 -89zM657 129q164 0 234 98l39 -28q-37 -102 -137.5 -159.5t-239.5 -57.5q-211 0 -349 127t-138 337q0 213 138 343.5t339 130.5q219 0 327.5 -145.5t47.5 -293.5h-599q14 -160 104.5 -256
t233.5 -96zM524 844q-86 0 -144 -74t-63 -213h371q18 111 -24 199t-140 88z" />
    <glyph glyph-name="ecircumflex" unicode="&#xea;" horiz-adv-x="1013" 
d="M498 1243l-260 -174l-29 33l289 307l288 -309l-28 -31zM657 129q164 0 234 98l39 -28q-37 -102 -137.5 -159.5t-239.5 -57.5q-211 0 -349 127t-138 337q0 213 138 343.5t339 130.5q219 0 327.5 -145.5t47.5 -293.5h-599q14 -160 104.5 -256t233.5 -96zM524 844
q-86 0 -144 -74t-63 -213h371q18 111 -24 199t-140 88z" />
    <glyph glyph-name="edieresis" unicode="&#xeb;" horiz-adv-x="1013" 
d="M289 1147q-51 0 -88 37t-37 88t37 87t88 36t87 -36t36 -87t-36 -88t-87 -37zM725 1147q-53 0 -89 37t-36 88t37 87t88 36t87 -36t36 -87t-36 -88t-87 -37zM657 129q164 0 234 98l39 -28q-37 -102 -137.5 -159.5t-239.5 -57.5q-211 0 -349 127t-138 337q0 213 138 343.5
t339 130.5q219 0 327.5 -145.5t47.5 -293.5h-599q14 -160 104.5 -256t233.5 -96zM524 844q-86 0 -144 -74t-63 -213h371q18 111 -24 199t-140 88z" />
    <glyph glyph-name="igrave" unicode="&#xec;" horiz-adv-x="606" 
d="M315 1034q-125 133 -254 219q16 49 70.5 89t104.5 40q96 -135 141 -309zM45 0v53q41 8 59.5 12.5t40 16.5t28.5 32.5t7 53.5v469q0 61 -25.5 90t-109.5 39v49q213 37 338 119l43 -39v-727q0 -33 7 -53.5t28.5 -32.5t40 -16.5t59.5 -12.5v-53h-516z" />
    <glyph glyph-name="iacute" unicode="&#xed;" horiz-adv-x="606" 
d="M293 1034l-62 39q45 174 142 309q49 0 103 -39.5t71 -89.5q-129 -86 -254 -219zM45 0v53q41 8 59.5 12.5t40 16.5t28.5 32.5t7 53.5v469q0 61 -25.5 90t-109.5 39v49q213 37 338 119l43 -39v-727q0 -33 7 -53.5t28.5 -32.5t40 -16.5t59.5 -12.5v-53h-516z" />
    <glyph glyph-name="icircumflex" unicode="&#xee;" horiz-adv-x="606" 
d="M285 1409l288 -309l-28 -31l-260 174l-260 -174l-29 33zM45 0v53q41 8 59.5 12.5t40 16.5t28.5 32.5t7 53.5v469q0 61 -25.5 90t-109.5 39v49q213 37 338 119l43 -39v-727q0 -33 7 -53.5t28.5 -32.5t40 -16.5t59.5 -12.5v-53h-516z" />
    <glyph glyph-name="idieresis" unicode="&#xef;" horiz-adv-x="606" 
d="M76 1147q-51 0 -88 37t-37 88t37 87t88 36t87 -36t36 -87t-36 -88t-87 -37zM512 1147q-53 0 -89 37t-36 88t37 87t88 36t87 -36t36 -87t-36 -88t-87 -37zM45 0v53q41 8 59.5 12.5t40 16.5t28.5 32.5t7 53.5v469q0 61 -25.5 90t-109.5 39v49q213 37 338 119l43 -39v-727
q0 -33 7 -53.5t28.5 -32.5t40 -16.5t59.5 -12.5v-53h-516z" />
    <glyph glyph-name="eth" unicode="&#xf0;" horiz-adv-x="1124" 
d="M737 1112q137 -109 219 -259.5t82 -326.5q0 -268 -126 -406t-371 -138q-205 0 -340 125.5t-135 336.5q0 217 144 346.5t353 129.5q70 0 127 -15q-43 82 -110 154q-182 -61 -340 -125v100q170 49 274 84q-133 104 -301 121l35 66q213 -12 411 -140q207 74 342 127v-100
q-133 -37 -264 -80zM569 55q94 0 151.5 90.5t57.5 260.5q0 180 -62.5 310t-180.5 130q-92 0 -150.5 -91t-58.5 -261q0 -113 24.5 -209.5t81.5 -163t137 -66.5z" />
    <glyph glyph-name="ntilde" unicode="&#xf1;" horiz-adv-x="1185" 
d="M719 1061q-53 0 -100.5 23.5t-76 51t-71.5 51t-90 23.5q-51 0 -84 -32.5t-33 -65.5h-53q-18 106 51.5 175t171.5 69q53 0 101.5 -23.5t77 -51.5t71.5 -51.5t90 -23.5q51 0 84 33t33 66h53q18 -106 -51.5 -175t-173.5 -69zM35 0v53q41 8 59.5 12.5t40 16.5t28.5 32.5
t7 53.5v469q0 61 -25.5 90t-109.5 39v49q207 31 348 119l41 -39l-64 -172h46q80 94 160.5 145.5t189.5 51.5q260 0 260 -316v-436q0 -33 7 -53.5t28.5 -32.5t40 -16.5t59.5 -12.5v-53h-502v53q37 8 51.5 12.5t35 16.5t27.5 32.5t7 53.5v416q0 188 -139 188q-121 0 -215 -119
v-485q0 -33 7 -53.5t27.5 -32.5t35 -16.5t51.5 -12.5v-53h-502z" />
    <glyph glyph-name="ograve" unicode="&#xf2;" horiz-adv-x="1112" 
d="M580 1034q-125 133 -254 219q16 49 70.5 89t103.5 40q96 -135 141 -309zM545 -18q-205 0 -342 125.5t-137 336.5q0 217 146 346.5t355 129.5q205 0 342.5 -126t137.5 -337q0 -217 -146.5 -346t-355.5 -129zM573 55q94 0 153.5 91.5t59.5 261.5q0 176 -64.5 307
t-182.5 131q-94 0 -153.5 -91t-59.5 -261q0 -176 64 -307.5t183 -131.5z" />
    <glyph glyph-name="oacute" unicode="&#xf3;" horiz-adv-x="1112" 
d="M557 1034l-61 39q45 174 141 309q49 0 103.5 -39.5t70.5 -89.5q-129 -86 -254 -219zM545 -18q-205 0 -342 125.5t-137 336.5q0 217 146 346.5t355 129.5q205 0 342.5 -126t137.5 -337q0 -217 -146.5 -346t-355.5 -129zM573 55q94 0 153.5 91.5t59.5 261.5
q0 176 -64.5 307t-182.5 131q-94 0 -153.5 -91t-59.5 -261q0 -176 64 -307.5t183 -131.5z" />
    <glyph glyph-name="ocircumflex" unicode="&#xf4;" horiz-adv-x="1112" 
d="M549 1409l289 -309l-29 -31l-260 174l-260 -174l-29 33zM545 -18q-205 0 -342 125.5t-137 336.5q0 217 146 346.5t355 129.5q205 0 342.5 -126t137.5 -337q0 -217 -146.5 -346t-355.5 -129zM573 55q94 0 153.5 91.5t59.5 261.5q0 176 -64.5 307t-182.5 131
q-94 0 -153.5 -91t-59.5 -261q0 -176 64 -307.5t183 -131.5z" />
    <glyph glyph-name="otilde" unicode="&#xf5;" horiz-adv-x="1112" 
d="M688 1061q-53 0 -100 23.5t-76 51t-72 51t-90 23.5q-51 0 -84 -32.5t-33 -65.5h-53q-18 106 51.5 175t171.5 69q53 0 101.5 -23.5t77 -51.5t71.5 -51.5t90 -23.5q51 0 84 33t33 66h53q18 -106 -51.5 -175t-173.5 -69zM545 -18q-205 0 -342 125.5t-137 336.5
q0 217 146 346.5t355 129.5q205 0 342.5 -126t137.5 -337q0 -217 -146.5 -346t-355.5 -129zM573 55q94 0 153.5 91.5t59.5 261.5q0 176 -64.5 307t-182.5 131q-94 0 -153.5 -91t-59.5 -261q0 -176 64 -307.5t183 -131.5z" />
    <glyph glyph-name="odieresis" unicode="&#xf6;" horiz-adv-x="1112" 
d="M340 1147q-53 0 -89 37t-36 88t37 87t88 36t87 -36t36 -87t-36 -88t-87 -37zM776 1147q-51 0 -88 37t-37 88t37 87t88 36t87 -36t36 -87t-36 -88t-87 -37zM545 -18q-205 0 -342 125.5t-137 336.5q0 217 146 346.5t355 129.5q205 0 342.5 -126t137.5 -337
q0 -217 -146.5 -346t-355.5 -129zM573 55q94 0 153.5 91.5t59.5 261.5q0 176 -64.5 307t-182.5 131q-94 0 -153.5 -91t-59.5 -261q0 -176 64 -307.5t183 -131.5z" />
    <glyph glyph-name="divide" unicode="&#xf7;" horiz-adv-x="1011" 
d="M510 711q-49 0 -84 34.5t-35 83.5q0 47 35 82t84 35q47 0 82 -34.5t35 -82.5q0 -49 -35 -83.5t-82 -34.5zM127 434v162h758v-162h-758zM510 84q-49 0 -84 35t-35 84q0 47 35 81.5t84 34.5q47 0 82 -34.5t35 -81.5q0 -49 -35 -84t-82 -35z" />
    <glyph glyph-name="oslash" unicode="&#xf8;" horiz-adv-x="1112" 
d="M834 850q100 -59 156.5 -160.5t56.5 -232.5q0 -217 -146.5 -346t-355.5 -129q-121 0 -226 47l-79 -129l-41 26l77 125q-211 129 -210 393q0 217 146 346.5t355 129.5q119 0 224 -48l81 132l41 -27zM326 494q0 -164 51 -281l330 526q-63 106 -168 107q-94 0 -153.5 -91
t-59.5 -261zM573 55q94 0 153.5 91.5t59.5 261.5q0 168 -53 282l-330 -528q70 -107 170 -107z" />
    <glyph glyph-name="ugrave" unicode="&#xf9;" horiz-adv-x="1175" 
d="M610 1034q-125 133 -254 219q16 49 70.5 89t103.5 40q96 -135 142 -309zM430 -18q-270 0 -270 315v459q0 37 -17.5 56t-39 25.5t-68.5 14.5v49q236 -12 371 12v-606q0 -178 149 -178q104 0 205 102v525q0 37 -17.5 56t-39 25.5t-68.5 14.5v49q236 -12 371 12v-725
q0 -61 25.5 -90.5t109.5 -44.5v-53h-350l12 162h-31q-80 -86 -158 -133t-184 -47z" />
    <glyph glyph-name="uacute" unicode="&#xfa;" horiz-adv-x="1175" 
d="M588 1034l-62 39q45 174 142 309q49 0 103 -39.5t71 -89.5q-129 -86 -254 -219zM430 -18q-270 0 -270 315v459q0 37 -17.5 56t-39 25.5t-68.5 14.5v49q236 -12 371 12v-606q0 -178 149 -178q104 0 205 102v525q0 37 -17.5 56t-39 25.5t-68.5 14.5v49q236 -12 371 12v-725
q0 -61 25.5 -90.5t109.5 -44.5v-53h-350l12 162h-31q-80 -86 -158 -133t-184 -47z" />
    <glyph glyph-name="ucircumflex" unicode="&#xfb;" horiz-adv-x="1175" 
d="M580 1409l288 -309l-28 -31l-260 174l-261 -174l-28 33zM430 -18q-270 0 -270 315v459q0 37 -17.5 56t-39 25.5t-68.5 14.5v49q236 -12 371 12v-606q0 -178 149 -178q104 0 205 102v525q0 37 -17.5 56t-39 25.5t-68.5 14.5v49q236 -12 371 12v-725q0 -61 25.5 -90.5
t109.5 -44.5v-53h-350l12 162h-31q-80 -86 -158 -133t-184 -47z" />
    <glyph glyph-name="udieresis" unicode="&#xfc;" horiz-adv-x="1175" 
d="M370.5 1147q-51.5 0 -88 37t-36.5 88t36.5 87t88 36t87.5 -36t36 -87t-36 -88t-87.5 -37zM807 1147q-53 0 -89 37t-36 88t37 87t88 36t87 -36t36 -87t-36 -88t-87 -37zM430 -18q-270 0 -270 315v459q0 37 -17.5 56t-39 25.5t-68.5 14.5v49q236 -12 371 12v-606
q0 -178 149 -178q104 0 205 102v525q0 37 -17.5 56t-39 25.5t-68.5 14.5v49q236 -12 371 12v-725q0 -61 25.5 -90.5t109.5 -44.5v-53h-350l12 162h-31q-80 -86 -158 -133t-184 -47z" />
    <glyph glyph-name="yacute" unicode="&#xfd;" horiz-adv-x="1062" 
d="M791 1253q-129 -86 -254 -219l-62 39q45 174 141 309q49 0 104 -40t71 -89zM719 901h340v-53q-70 -8 -94.5 -22.5t-49.5 -71.5l-352 -820q-131 -309 -305 -309q-70 0 -139 47v150q141 -25 230 -2.5t130 114.5l13 31l-342 787q-27 57 -51.5 72.5t-94.5 23.5v53h508v-53
q-92 -14 -109 -37q-14 -20 3 -59l210 -498l215 500q8 18 9.5 31.5t-6 22.5t-14.5 15t-25.5 11.5t-27.5 6.5t-34 5q-10 2 -14 2v53z" />
    <glyph glyph-name="thorn" unicode="&#xfe;" horiz-adv-x="1150" 
d="M711 920q152 0 263 -120t111 -323q0 -229 -148.5 -362t-371.5 -133q-94 0 -174 22v-192q0 -35 8.5 -55.5t36 -33t46 -16.5t73.5 -12v-53h-547v53q39 8 48.5 10t35 10.5t31.5 18.5t13 29.5t7 48.5v1273q0 61 -27.5 90t-121.5 39v50q205 29 356 116l41 -39v-622
q49 86 133.5 143.5t186.5 57.5zM588 57q111 0 175 94.5t64 262.5q0 160 -61 263t-168 103q-129 0 -207 -143v-336q0 -94 47.5 -169t149.5 -75z" />
    <glyph glyph-name="ydieresis" unicode="&#xff;" horiz-adv-x="1062" 
d="M319 1147q-53 0 -88.5 37t-35.5 88t36.5 87t88 36t87 -36t35.5 -87t-36 -88t-87 -37zM756 1147q-51 0 -88 37t-37 88t37 87t88 36t87 -36t36 -87t-36 -88t-87 -37zM719 901h340v-53q-70 -8 -94.5 -22.5t-49.5 -71.5l-352 -820q-131 -309 -305 -309q-70 0 -139 47v150
q141 -25 230 -2.5t130 114.5l13 31l-342 787q-27 57 -51.5 72.5t-94.5 23.5v53h508v-53q-92 -14 -109 -37q-14 -20 3 -59l210 -498l215 500q8 18 9.5 31.5t-6 22.5t-14.5 15t-25.5 11.5t-27.5 6.5t-34 5q-10 2 -14 2v53z" />
    <glyph glyph-name="Amacron" unicode="&#x100;" 
d="M1044 1694l-30 -92h-574l31 92h573zM1243 168q29 -66 55.5 -82t114.5 -33v-53h-590v53q10 2 36 7.5t35 8.5t27.5 9t23.5 13t11.5 17.5t4 26t-10.5 33.5l-94 215h-498l-90 -215q-8 -18 -10 -33.5t4 -26t11.5 -17.5t22.5 -13t26.5 -9t35 -8.5t35.5 -7.5v-53h-389v53
q86 16 113.5 32.5t56.5 84.5l488 1135h88zM391 461h432l-219 506z" />
    <glyph glyph-name="amacron" unicode="&#x101;" horiz-adv-x="1083" 
d="M829 1305l-30 -93h-574l31 93h573zM905 195q0 -49 45 -58.5t109 27.5v-53q-109 -92 -225 -125q-68 0 -119 50t-56 114q-160 -164 -350 -164q-109 0 -181.5 56t-72.5 161q0 53 22.5 94t51.5 67.5t92.5 54t107.5 41t136 40.5q8 2 31.5 8t32 9t27.5 9t27.5 9.5t23 10.5
t22.5 14t16 16.5t14 19.5v35q0 119 -50 162t-163 43q-53 0 -73 -56q-41 -113 -77 -155.5t-87 -42.5q-39 0 -64.5 25.5t-25.5 64.5q0 102 167 175t324 73q295 0 295 -314v-411zM446 111q115 0 213 125v245l-176 -49q-176 -51 -176 -176q0 -66 39 -105.5t100 -39.5z" />
    <glyph glyph-name="Abreve" unicode="&#x102;" 
d="M741.5 1493q-139.5 0 -222.5 77t-83 210h58q31 -137 247.5 -137.5t247.5 137.5h58q0 -133 -83 -210t-222.5 -77zM1243 168q29 -66 55.5 -82t114.5 -33v-53h-590v53q10 2 36 7.5t35 8.5t27.5 9t23.5 13t11.5 17.5t4 26t-10.5 33.5l-94 215h-498l-90 -215q-8 -18 -10 -33.5
t4 -26t11.5 -17.5t22.5 -13t26.5 -9t35 -8.5t35.5 -7.5v-53h-389v53q86 16 113.5 32.5t56.5 84.5l488 1135h88zM391 461h432l-219 506z" />
    <glyph glyph-name="abreve" unicode="&#x103;" horiz-adv-x="1083" 
d="M526.5 1104q-139.5 0 -222.5 76.5t-83 210.5h58q31 -137 247.5 -137.5t247.5 137.5h57q0 -133 -82.5 -210t-222 -77zM905 195q0 -49 45 -58.5t109 27.5v-53q-109 -92 -225 -125q-68 0 -119 50t-56 114q-160 -164 -350 -164q-109 0 -181.5 56t-72.5 161q0 53 22.5 94
t51.5 67.5t92.5 54t107.5 41t136 40.5q8 2 31.5 8t32 9t27.5 9t27.5 9.5t23 10.5t22.5 14t16 16.5t14 19.5v35q0 119 -50 162t-163 43q-53 0 -73 -56q-41 -113 -77 -155.5t-87 -42.5q-39 0 -64.5 25.5t-25.5 64.5q0 102 167 175t324 73q295 0 295 -314v-411zM446 111
q115 0 213 125v245l-176 -49q-176 -51 -176 -176q0 -66 39 -105.5t100 -39.5z" />
    <glyph glyph-name="Aogonek" unicode="&#x104;" 
d="M1231 0q-88 -51 -126 -95t-38 -100q0 -53 29.5 -85.5t81.5 -32.5q35 0 77 16v-41q-74 -70 -182 -70q-86 0 -142.5 42t-56.5 133q0 68 41 120l168 113h-260v53q10 2 36 7.5t35 8.5t27.5 9t23.5 13t11.5 17.5t4 26t-10.5 33.5l-94 215h-498l-90 -215q-8 -18 -10 -33.5
t4 -26t11.5 -17.5t22.5 -13t26.5 -9t35 -8.5t35.5 -7.5v-53h-389v53q86 16 113.5 32.5t56.5 84.5l488 1135h88l493 -1137q29 -66 55.5 -82t114.5 -33v-53h-182zM391 461h432l-219 506z" />
    <glyph glyph-name="aogonek" unicode="&#x105;" horiz-adv-x="1083" 
d="M944 29q-84 -49 -121 -93.5t-37 -97.5t30 -86t81 -33q35 0 78 17v-41q-74 -70 -182 -70q-86 0 -142.5 42t-56.5 132q0 68 41 121l125 84q-96 51 -101 146q-160 -164 -350 -164q-109 0 -181.5 56t-72.5 161q0 53 22.5 94t51.5 67.5t92.5 54t107.5 41t136 40.5q8 2 31.5 8
t32 9t27.5 9t27.5 9.5t23 10.5t22.5 14t16 16.5t14 19.5v35q0 119 -50 162t-163 43q-53 0 -73 -56q-41 -113 -77 -155.5t-87 -42.5q-39 0 -64.5 25.5t-25.5 64.5q0 102 167 175t324 73q295 0 295 -314v-411q0 -49 45 -58.5t109 27.5v-53q-64 -55 -115 -82zM446 111
q115 0 213 125v245l-176 -49q-176 -51 -176 -176q0 -66 39 -105.5t100 -39.5z" />
    <glyph glyph-name="Cacute" unicode="&#x106;" horiz-adv-x="1353" 
d="M754 1423l-62 39q45 174 142 310q49 0 103 -40t71 -90q-129 -86 -254 -219zM780 -25q-309 0 -501.5 188.5t-192.5 477.5q0 295 203 488.5t522 193.5q244 0 401 -94q8 -186 15 -277h-84q-66 289 -355 289q-203 0 -307 -142.5t-104 -381.5q0 -276 148.5 -453.5
t381.5 -177.5q213 0 314 109l47 -50q-66 -74 -195 -122t-293 -48z" />
    <glyph glyph-name="cacute" unicode="&#x107;" horiz-adv-x="991" 
d="M524 1034l-61 39q45 174 141 309q49 0 103.5 -39.5t70.5 -89.5q-129 -86 -254 -219zM555 -18q-215 0 -352 125.5t-137 336.5q0 219 143 347.5t362 128.5q162 0 258.5 -68t96.5 -158q0 -47 -29 -74.5t-76 -27.5q-53 0 -84.5 37t-54.5 119q-14 55 -41 77.5t-72 22.5
q-106 0 -178 -85t-72 -239q0 -172 93.5 -282.5t246.5 -110.5q70 0 134.5 23.5t97.5 68.5l39 -28q-37 -102 -136.5 -157.5t-238.5 -55.5z" />
    <glyph glyph-name="Cdotaccent" unicode="&#x10a;" horiz-adv-x="1353" 
d="M753.5 1450q-59.5 0 -104.5 43t-45 102.5t44 101.5t105.5 42t105.5 -42t44 -101.5t-45 -102.5t-104.5 -43zM780 -25q-309 0 -501.5 188.5t-192.5 477.5q0 295 203 488.5t522 193.5q244 0 401 -94q8 -186 15 -277h-84q-66 289 -355 289q-203 0 -307 -142.5t-104 -381.5
q0 -276 148.5 -453.5t381.5 -177.5q213 0 314 109l47 -50q-66 -74 -195 -122t-293 -48z" />
    <glyph glyph-name="cdotaccent" unicode="&#x10b;" horiz-adv-x="991" 
d="M524.5 1061q-59.5 0 -104.5 43t-45 102.5t44 101.5t105.5 42t105.5 -42t44 -101.5t-45 -102.5t-104.5 -43zM555 -18q-215 0 -352 125.5t-137 336.5q0 219 143 347.5t362 128.5q162 0 258.5 -68t96.5 -158q0 -47 -29 -74.5t-76 -27.5q-53 0 -84.5 37t-54.5 119
q-14 55 -41 77.5t-72 22.5q-106 0 -178 -85t-72 -239q0 -172 93.5 -282.5t246.5 -110.5q70 0 134.5 23.5t97.5 68.5l39 -28q-37 -102 -136.5 -157.5t-238.5 -55.5z" />
    <glyph glyph-name="Ccaron" unicode="&#x10c;" horiz-adv-x="1353" 
d="M750 1456l-289 307l28 33l261 -174l260 174l28 -31zM780 -25q-309 0 -501.5 188.5t-192.5 477.5q0 295 203 488.5t522 193.5q244 0 401 -94q8 -186 15 -277h-84q-66 289 -355 289q-203 0 -307 -142.5t-104 -381.5q0 -276 148.5 -453.5t381.5 -177.5q213 0 314 109l47 -50
q-66 -74 -195 -122t-293 -48z" />
    <glyph glyph-name="ccaron" unicode="&#x10d;" horiz-adv-x="991" 
d="M520 1067l-289 307l29 33l260 -174l260 174l29 -31zM555 -18q-215 0 -352 125.5t-137 336.5q0 219 143 347.5t362 128.5q162 0 258.5 -68t96.5 -158q0 -47 -29 -74.5t-76 -27.5q-53 0 -84.5 37t-54.5 119q-14 55 -41 77.5t-72 22.5q-106 0 -178 -85t-72 -239
q0 -172 93.5 -282.5t246.5 -110.5q70 0 134.5 23.5t97.5 68.5l39 -28q-37 -102 -136.5 -157.5t-238.5 -55.5z" />
    <glyph glyph-name="Dcaron" unicode="&#x10e;" horiz-adv-x="1464" 
d="M1018 1765l-289 -309l-289 307l29 33l260 -174l260 174zM627 1290q143 0 273 -36.5t239.5 -109.5t174 -200t64.5 -291q0 -168 -63.5 -298t-172 -204.5t-238.5 -112.5t-277 -38h-582v53q104 20 131 41q39 33 39 121v860q0 47 -7 76t-36 46t-42 21.5t-69 14.5q-10 2 -16 4
v53h582zM684 80q199 0 301 145.5t102 407.5q0 266 -117.5 421.5t-363.5 155.5h-121v-934q0 -109 42 -152.5t157 -43.5z" />
    <glyph glyph-name="dcaron" unicode="&#x10f;" horiz-adv-x="1247" 
d="M1018 188q0 -61 25.5 -90.5t109.5 -44.5v-53h-362l16 186h-29q-125 -205 -327 -204q-154 0 -269.5 115.5t-115.5 318.5q0 229 150.5 366.5t352.5 137.5q115 0 203 -50v242q0 59 -32.5 89t-121.5 40v49q207 29 359 117l41 -39v-1180zM1098 1341q43 29 108.5 30t108.5 -28
q0 -166 -68 -333l-71 4q-23 184 -78 327zM575 125q78 0 127.5 50t69.5 120v446q-18 45 -64 74t-114 29q-117 0 -196 -92.5t-79 -262.5q0 -162 73.5 -263t182.5 -101z" />
    <glyph glyph-name="Dcroat" unicode="&#x110;" horiz-adv-x="1464" 
d="M627 1290q143 0 273 -36.5t239.5 -109.5t174 -200t64.5 -291q0 -168 -63.5 -298t-172 -204.5t-238.5 -112.5t-277 -38h-582v53q104 20 131 41q39 33 39 121v385q-55 0 -170 -4l21 82q98 -4 149 -4v401q0 47 -7 76t-36 46t-42 21.5t-69 14.5q-10 2 -16 4v53h582zM684 80
q199 0 301 145.5t102 407.5q0 266 -117.5 421.5t-363.5 155.5h-121v-538q141 0 287 6l-20 -82q-39 2 -84 3t-99.5 2t-83.5 1v-326q0 -109 42 -152.5t157 -43.5z" />
    <glyph glyph-name="dcroat" unicode="&#x111;" horiz-adv-x="1200" 
d="M1018 188q0 -61 25.5 -90.5t109.5 -44.5v-53h-362l16 186h-29q-125 -205 -327 -204q-154 0 -269.5 115.5t-115.5 318.5q0 229 150.5 366.5t352.5 137.5q115 0 203 -50v134q-172 0 -344 -7l21 82q164 -6 323 -6v39q0 59 -32.5 89t-121.5 40v49q207 29 359 117l41 -39v-293
q23 2 69 2t68 2l-20 -82q-18 2 -57.5 2t-59.5 2v-813zM575 125q78 0 127.5 50t69.5 120v446q-18 45 -64 74t-114 29q-117 0 -196 -92.5t-79 -262.5q0 -162 73.5 -263t182.5 -101z" />
    <glyph glyph-name="Emacron" unicode="&#x112;" horiz-adv-x="1228" 
d="M918 1694l-31 -92h-574l31 92h574zM1110 315h64l-84 -315h-1045v53q104 20 131 41q39 33 39 121v860q0 47 -7 76t-36 46t-42 21.5t-69 14.5q-10 2 -16 4v53h1040l19 -299h-64q-14 117 -55 167t-145 50h-162q-121 0 -157 -26.5t-36 -128.5v-363h138q176 0 225 35t59 137
h51v-422h-51q-10 102 -59 137t-225 35h-138v-374q0 -102 36 -129t157 -27h119q121 0 188.5 50t124.5 183z" />
    <glyph glyph-name="emacron" unicode="&#x113;" horiz-adv-x="1013" 
d="M809 1305l-31 -93h-573l31 93h573zM657 129q164 0 234 98l39 -28q-37 -102 -137.5 -159.5t-239.5 -57.5q-211 0 -349 127t-138 337q0 213 138 343.5t339 130.5q219 0 327.5 -145.5t47.5 -293.5h-599q14 -160 104.5 -256t233.5 -96zM524 844q-86 0 -144 -74t-63 -213h371
q18 111 -24 199t-140 88z" />
    <glyph glyph-name="Edotaccent" unicode="&#x116;" horiz-adv-x="1228" 
d="M614.5 1450q-59.5 0 -104.5 43t-45 102.5t44 101.5t105.5 42t105.5 -42t44 -101.5t-45 -102.5t-104.5 -43zM1110 315h64l-84 -315h-1045v53q104 20 131 41q39 33 39 121v860q0 47 -7 76t-36 46t-42 21.5t-69 14.5q-10 2 -16 4v53h1040l19 -299h-64q-14 117 -55 167
t-145 50h-162q-121 0 -157 -26.5t-36 -128.5v-363h138q176 0 225 35t59 137h51v-422h-51q-10 102 -59 137t-225 35h-138v-374q0 -102 36 -129t157 -27h119q121 0 188.5 50t124.5 183z" />
    <glyph glyph-name="edotaccent" unicode="&#x117;" horiz-adv-x="1013" 
d="M505.5 1061q-59.5 0 -104.5 43t-45 102.5t44 101.5t105.5 42t105.5 -42t44 -101.5t-45 -102.5t-104.5 -43zM657 129q164 0 234 98l39 -28q-37 -102 -137.5 -159.5t-239.5 -57.5q-211 0 -349 127t-138 337q0 213 138 343.5t339 130.5q219 0 327.5 -145.5t47.5 -293.5h-599
q14 -160 104.5 -256t233.5 -96zM524 844q-86 0 -144 -74t-63 -213h371q18 111 -24 199t-140 88z" />
    <glyph glyph-name="Eogonek" unicode="&#x118;" horiz-adv-x="1228" 
d="M997 0q-88 -51 -125.5 -95t-37.5 -100q0 -53 29.5 -85.5t80.5 -32.5q35 0 78 16v-41q-74 -70 -182 -70q-86 0 -142.5 42t-56.5 133q0 68 41 120l168 113h-805v53q104 20 131 41q39 33 39 121v860q0 47 -7 76t-36 46t-42 21.5t-69 14.5q-10 2 -16 4v53h1040l19 -299h-64
q-14 117 -55 167t-145 50h-162q-121 0 -157 -26.5t-36 -128.5v-363h138q176 0 225 35t59 137h51v-422h-51q-10 102 -59 137t-225 35h-138v-374q0 -102 36 -129t157 -27h119q121 0 188.5 50t124.5 183h64l-84 -315h-93z" />
    <glyph glyph-name="eogonek" unicode="&#x119;" horiz-adv-x="1013" 
d="M657 129q164 0 234 98l39 -28q-53 -150 -232 -199q-88 -51 -125.5 -95t-37.5 -100q0 -53 29.5 -85.5t80.5 -32.5q35 0 78 16v-41q-74 -70 -182 -70q-86 0 -142.5 42t-56.5 133q0 68 41 120l141 95q-201 10 -329.5 136t-128.5 328q0 213 138 343.5t339 130.5
q219 0 327.5 -145.5t47.5 -293.5h-599q14 -160 104.5 -256t233.5 -96zM524 844q-86 0 -144 -74t-63 -213h371q18 111 -24 199t-140 88z" />
    <glyph glyph-name="Ecaron" unicode="&#x11a;" horiz-adv-x="1228" 
d="M899 1765l-289 -309l-288 307l28 33l260 -174l260 174zM1110 315h64l-84 -315h-1045v53q104 20 131 41q39 33 39 121v860q0 47 -7 76t-36 46t-42 21.5t-69 14.5q-10 2 -16 4v53h1040l19 -299h-64q-14 117 -55 167t-145 50h-162q-121 0 -157 -26.5t-36 -128.5v-363h138
q176 0 225 35t59 137h51v-422h-51q-10 102 -59 137t-225 35h-138v-374q0 -102 36 -129t157 -27h119q121 0 188.5 50t124.5 183z" />
    <glyph glyph-name="ecaron" unicode="&#x11b;" horiz-adv-x="1013" 
d="M791 1376l-289 -309l-289 307l29 33l260 -174l260 174zM657 129q164 0 234 98l39 -28q-37 -102 -137.5 -159.5t-239.5 -57.5q-211 0 -349 127t-138 337q0 213 138 343.5t339 130.5q219 0 327.5 -145.5t47.5 -293.5h-599q14 -160 104.5 -256t233.5 -96zM524 844
q-86 0 -144 -74t-63 -213h371q18 111 -24 199t-140 88z" />
    <glyph glyph-name="Gbreve" unicode="&#x11e;" horiz-adv-x="1462" 
d="M731 1493q-139 0 -222 77t-83 210h57q31 -137 248 -137.5t248 137.5h57q0 -133 -83 -210t-222 -77zM815 -25q-338 0 -533.5 187.5t-195.5 478.5q0 295 203 488.5t524 193.5q254 0 412 -94q8 -186 14 -277h-84q-66 289 -371 289q-203 0 -305 -138t-102 -392
q0 -293 116.5 -473.5t319.5 -180.5q117 0 165 50.5t48 168.5v70q0 131 -43 173t-172 52v62h575v-62q-66 -10 -96 -40.5t-30 -102.5v-70q0 -180 32 -270q-66 -47 -194.5 -80t-282.5 -33z" />
    <glyph glyph-name="gbreve" unicode="&#x11f;" horiz-adv-x="1071" 
d="M536.5 1104q-139.5 0 -222.5 76.5t-83 210.5h58q31 -137 248 -137.5t247 137.5h58q0 -133 -83 -210t-222.5 -77zM1006 883v-142l-189 31q43 -63 43 -147q0 -125 -99 -209t-274 -84h-59q-96 0 -96 -68q0 -57 90 -65l209 -19q207 -18 278.5 -58t71.5 -136
q0 -170 -155.5 -272.5t-401.5 -102.5q-195 0 -292 66.5t-97 156.5q0 41 57.5 95.5t134.5 88.5q-117 51 -116 146q0 39 68.5 103.5t142.5 88.5q-100 35 -153.5 107t-53.5 162q0 125 99 210t273 85q80 0 152 -21q68 -16 367 -16zM487 393q84 0 119 71t35 161t-35 161.5
t-119 71.5t-118.5 -71.5t-34.5 -161.5t34.5 -161t118.5 -71zM618 -33l-235 19q-76 6 -117 -32t-41 -97q0 -158 267 -158q143 0 224 52t81 128q0 47 -39.5 63.5t-139.5 24.5z" />
    <glyph glyph-name="Gdotaccent" unicode="&#x120;" horiz-adv-x="1462" 
d="M731.5 1450q-59.5 0 -104.5 43t-45 102.5t44 101.5t105.5 42t105.5 -42t44 -101.5t-45 -102.5t-104.5 -43zM815 -25q-338 0 -533.5 187.5t-195.5 478.5q0 295 203 488.5t524 193.5q254 0 412 -94q8 -186 14 -277h-84q-66 289 -371 289q-203 0 -305 -138t-102 -392
q0 -293 116.5 -473.5t319.5 -180.5q117 0 165 50.5t48 168.5v70q0 131 -43 173t-172 52v62h575v-62q-66 -10 -96 -40.5t-30 -102.5v-70q0 -180 32 -270q-66 -47 -194.5 -80t-282.5 -33z" />
    <glyph glyph-name="gdotaccent" unicode="&#x121;" horiz-adv-x="1071" 
d="M536.5 1061q-59.5 0 -104.5 43t-45 102.5t44 101.5t105.5 42t105.5 -42t44 -101.5t-45 -102.5t-104.5 -43zM1006 883v-142l-189 31q43 -63 43 -147q0 -125 -99 -209t-274 -84h-59q-96 0 -96 -68q0 -57 90 -65l209 -19q207 -18 278.5 -58t71.5 -136q0 -170 -155.5 -272.5
t-401.5 -102.5q-195 0 -292 66.5t-97 156.5q0 41 57.5 95.5t134.5 88.5q-117 51 -116 146q0 39 68.5 103.5t142.5 88.5q-100 35 -153.5 107t-53.5 162q0 125 99 210t273 85q80 0 152 -21q68 -16 367 -16zM487 393q84 0 119 71t35 161t-35 161.5t-119 71.5t-118.5 -71.5
t-34.5 -161.5t34.5 -161t118.5 -71zM618 -33l-235 19q-76 6 -117 -32t-41 -97q0 -158 267 -158q143 0 224 52t81 128q0 47 -39.5 63.5t-139.5 24.5z" />
    <glyph glyph-name="uni0122" unicode="&#x122;" horiz-adv-x="1462" 
d="M815 -25q-338 0 -533.5 187.5t-195.5 478.5q0 295 203 488.5t524 193.5q254 0 412 -94q8 -186 14 -277h-84q-66 289 -371 289q-203 0 -305 -138t-102 -392q0 -293 116.5 -473.5t319.5 -180.5q117 0 165 50.5t48 168.5v70q0 131 -43 173t-172 52v62h575v-62
q-66 -10 -96 -40.5t-30 -102.5v-70q0 -180 32 -270q-66 -47 -194.5 -80t-282.5 -33zM563 -707l-18 54q158 55 188 170q12 57 -39 88q-86 49 -86 133q0 59 43 101t107 42q66 0 110.5 -50t44.5 -138q0 -129 -94 -247t-256 -153z" />
    <glyph glyph-name="uni0123" unicode="&#x123;" horiz-adv-x="1071" 
d="M469 1047q-66 0 -111 50t-45 138q0 129 94.5 246.5t256.5 152.5l18 -53q-158 -55 -188 -170q-12 -57 38 -88q86 -49 86 -133q0 -59 -43 -101t-106 -42zM1006 883v-142l-189 31q43 -63 43 -147q0 -125 -99 -209t-274 -84h-59q-96 0 -96 -68q0 -57 90 -65l209 -19
q207 -18 278.5 -58t71.5 -136q0 -170 -155.5 -272.5t-401.5 -102.5q-195 0 -292 66.5t-97 156.5q0 41 57.5 95.5t134.5 88.5q-117 51 -116 146q0 39 68.5 103.5t142.5 88.5q-100 35 -153.5 107t-53.5 162q0 125 99 210t273 85q80 0 152 -21q68 -16 367 -16zM487 393
q84 0 119 71t35 161t-35 161.5t-119 71.5t-118.5 -71.5t-34.5 -161.5t34.5 -161t118.5 -71zM618 -33l-235 19q-76 6 -117 -32t-41 -97q0 -158 267 -158q143 0 224 52t81 128q0 47 -39.5 63.5t-139.5 24.5z" />
    <glyph glyph-name="Hbar" unicode="&#x126;" horiz-adv-x="1503" 
d="M1458 1237q-104 -20 -131 -41q-39 -33 -39 -121v-860q0 -47 7.5 -75.5t36 -46t41.5 -21.5t69 -15q10 -2 16 -4v-53h-610v53q104 20 131 41q39 33 39 121v389h-533v-389q0 -47 7.5 -75.5t36 -46t42 -21.5t68.5 -15q10 -2 16 -4v-53h-610v53q104 20 131 41q39 33 39 121
v860q0 47 -7 76t-36 46t-42 21.5t-69 14.5q-10 2 -16 4v53h610v-53q-104 -20 -131 -41q-39 -33 -39 -121v-174h533v174q0 47 -7 76t-36 46t-42 21.5t-69 14.5q-10 2 -16 4v53h610v-53zM485 682h533v141h-533v-141z" />
    <glyph glyph-name="hbar" unicode="&#x127;" horiz-adv-x="1220" 
d="M1051 168q0 -33 7 -53.5t28.5 -32.5t40 -16.5t59.5 -12.5v-53h-502v53q37 8 51.5 12.5t35 16.5t27.5 32.5t7 53.5v416q0 188 -141 188q-115 0 -213 -117v-487q0 -33 7 -53.5t27.5 -32.5t35 -16.5t50.5 -12.5v-53h-516v53q59 10 84 17.5t45.5 31t20.5 66.5v833
q-53 0 -160 -4l21 82q23 -2 69.5 -2t69.5 -2v37q0 61 -27.5 90t-122.5 39v49q203 29 355 117l41 -39v-295q162 0 321 6l-20 -82q-150 6 -301 7v-269q78 88 155.5 136.5t184.5 48.5q260 0 260 -316v-436z" />
    <glyph glyph-name="Imacron" unicode="&#x12a;" horiz-adv-x="700" 
d="M49 1602l31 92h573l-30 -92h-574zM45 0v53q104 20 131 41q39 33 39 121v860q0 47 -7 76t-36 46t-42 21.5t-69 14.5q-10 2 -16 4v53h610v-53q-104 -20 -131 -41q-39 -33 -39 -121v-860q0 -47 7.5 -75.5t36 -46t42 -21.5t68.5 -15q10 -2 16 -4v-53h-610z" />
    <glyph glyph-name="imacron" unicode="&#x12b;" horiz-adv-x="606" 
d="M-8 1212l31 93h573l-31 -93h-573zM45 0v53q41 8 59.5 12.5t40 16.5t28.5 32.5t7 53.5v469q0 61 -25.5 90t-109.5 39v49q213 37 338 119l43 -39v-727q0 -33 7 -53.5t28.5 -32.5t40 -16.5t59.5 -12.5v-53h-516z" />
    <glyph glyph-name="Iogonek" unicode="&#x12e;" horiz-adv-x="700" 
d="M655 1237q-104 -20 -131 -41q-39 -33 -39 -121v-860q0 -47 7.5 -75.5t36 -46t42 -21.5t68.5 -15q10 -2 16 -4v-53h-170q-88 -51 -125.5 -95t-37.5 -100q0 -53 29.5 -85.5t80.5 -32.5q35 0 78 16v-41q-74 -70 -182 -70q-86 0 -142.5 42t-56.5 133q0 68 41 120l168 113
h-293v53q104 20 131 41q39 33 39 121v860q0 47 -7 76t-36 46t-42 21.5t-69 14.5q-10 2 -16 4v53h610v-53z" />
    <glyph glyph-name="iogonek" unicode="&#x12f;" horiz-adv-x="606" 
d="M292.5 1061q-59.5 0 -104.5 43t-45 102.5t44 101.5t105.5 42t105.5 -42t44 -101.5t-45 -102.5t-104.5 -43zM432 0q-88 -51 -126 -95t-38 -100q0 -53 30 -85.5t81 -32.5q35 0 78 16v-41q-74 -70 -183 -70q-86 0 -142 42t-56 133q0 68 41 120l168 113h-240v53
q41 8 59.5 12.5t40 16.5t28.5 32.5t7 53.5v469q0 61 -25.5 90t-109.5 39v49q213 37 338 119l43 -39v-727q0 -33 7 -53.5t28.5 -32.5t40 -16.5t59.5 -12.5v-53h-129z" />
    <glyph glyph-name="Idotaccent" unicode="&#x130;" horiz-adv-x="700" 
d="M350.5 1450q-59.5 0 -104.5 43t-45 102.5t44 101.5t105.5 42t105.5 -42t44 -101.5t-45 -102.5t-104.5 -43zM45 0v53q104 20 131 41q39 33 39 121v860q0 47 -7 76t-36 46t-42 21.5t-69 14.5q-10 2 -16 4v53h610v-53q-104 -20 -131 -41q-39 -33 -39 -121v-860
q0 -47 7.5 -75.5t36 -46t42 -21.5t68.5 -15q10 -2 16 -4v-53h-610z" />
    <glyph glyph-name="dotlessi" unicode="&#x131;" horiz-adv-x="606" 
d="M45 0v53q41 8 59.5 12.5t40 16.5t28.5 32.5t7 53.5v469q0 61 -25.5 90t-109.5 39v49q213 37 338 119l43 -39v-727q0 -33 7 -53.5t28.5 -32.5t40 -16.5t59.5 -12.5v-53h-516z" />
    <glyph glyph-name="IJ" unicode="&#x132;" horiz-adv-x="1402" 
d="M45 0v53q104 20 131 41q39 33 39 121v860q0 47 -7 76t-36 46t-42 21.5t-69 14.5q-10 2 -16 4v53h610v-53q-104 -20 -131 -41q-39 -33 -39 -121v-860q0 -47 7.5 -75.5t36 -46t42 -21.5t68.5 -15q10 -2 16 -4v-53h-610zM702 -379q-23 33 0 66q139 49 177.5 115.5
t38.5 224.5v1048q0 47 -7.5 76t-36 46t-42 21.5t-68.5 14.5q-10 2 -16 4v53h610v-53q-104 -20 -131 -41q-39 -33 -39 -121v-1069q0 -94 -41 -164.5t-117 -112.5t-151 -66t-177 -42z" />
    <glyph glyph-name="ij" unicode="&#x133;" horiz-adv-x="1140" 
d="M292.5 1081q-59.5 0 -104.5 43t-45 102.5t44 101.5t105.5 42t105.5 -42t44 -101.5t-45 -102.5t-104.5 -43zM884.5 1081q-59.5 0 -104.5 43t-45 102.5t44 101.5t105.5 42t105.5 -42t44 -101.5t-45 -102.5t-104.5 -43zM45 0v53q41 8 59.5 12.5t40 16.5t28.5 32.5t7 53.5
v469q0 61 -25.5 90t-109.5 39v49q213 37 338 119l43 -39v-727q0 -33 7 -53.5t28.5 -32.5t40 -16.5t59.5 -12.5v-53h-516zM596 -379q-16 31 0 62q96 33 136 102.5t40 206.5v645q0 61 -25.5 90t-109.5 39v49q213 37 338 119l43 -39v-930q0 -86 -43 -152.5t-112.5 -104.5
t-134 -58.5t-132.5 -28.5z" />
    <glyph glyph-name="uni0136" unicode="&#x136;" horiz-adv-x="1452" 
d="M1262 111q27 -37 59.5 -47.5t116.5 -10.5v-53h-445q0 45 -65 141l-336 496l-107 -107v-315q0 -47 7.5 -75.5t36 -46t42 -21.5t68.5 -15q10 -2 16 -4v-53h-610v53q104 20 131 41q39 33 39 121v860q0 47 -7 76t-36 46t-42 21.5t-69 14.5q-10 2 -16 4v53h610v-53
q-104 -20 -131 -41q-39 -33 -39 -121v-422l496 488q45 45 22.5 70.5t-106.5 25.5v53h453v-53q-94 0 -143.5 -22.5t-102.5 -73.5l-334 -328zM377 -119q66 0 110.5 -50t44.5 -138q0 -129 -94 -247t-256 -153l-18 54q158 55 188 170q12 57 -39 88q-86 49 -86 133q0 59 43.5 101
t106.5 42z" />
    <glyph glyph-name="uni0137" unicode="&#x137;" horiz-adv-x="1216" 
d="M1032 127q27 -37 59.5 -50.5t110.5 -21.5v-55h-397q0 66 -37 117l-223 321l-105 -100v-170q0 -43 20.5 -66.5t45 -31t84.5 -17.5v-53h-545v53q59 10 84 17.5t45.5 31t20.5 66.5v944q0 61 -28 90t-122 39v49q203 29 354 117l41 -39v-915l301 286q96 90 -71 107v55h428v-55
q-88 -6 -140.5 -34t-111.5 -83l-144 -137zM625 -119q66 0 110.5 -50t44.5 -138q0 -129 -94 -247t-256 -153l-18 54q158 55 188 170q12 57 -39 88q-86 49 -86 133q0 59 43.5 101t106.5 42z" />
    <glyph glyph-name="Lacute" unicode="&#x139;" horiz-adv-x="1236" 
d="M360 1423l-61 39q45 174 141 310q49 0 103.5 -40t70.5 -90q-129 -86 -254 -219zM45 0v53q104 20 131 41q39 33 39 121v860q0 47 -7 76t-36 46t-42 21.5t-69 14.5q-10 2 -16 4v53h610v-53q-104 -20 -131 -41q-39 -33 -39 -121v-835q0 -102 36 -129t157 -27h125
q123 0 190.5 51t122.5 193h66l-84 -328h-1053z" />
    <glyph glyph-name="lacute" unicode="&#x13a;" horiz-adv-x="634" 
d="M276 1432l-61 38q45 174 141 310q49 0 103.5 -40t70.5 -89q-129 -86 -254 -219zM45 0v53q59 10 84 17.5t45.5 31t20.5 66.5v944q0 61 -28 90t-122 39v49q203 29 354 117l41 -39v-1200q0 -43 20.5 -66.5t45 -31t84.5 -17.5v-53h-545z" />
    <glyph glyph-name="uni013B" unicode="&#x13b;" horiz-adv-x="1236" 
d="M45 0v53q104 20 131 41q39 33 39 121v860q0 47 -7 76t-36 46t-42 21.5t-69 14.5q-10 2 -16 4v53h610v-53q-104 -20 -131 -41q-39 -33 -39 -121v-835q0 -102 36 -129t157 -27h125q123 0 190.5 51t122.5 193h66l-84 -328h-1053zM451 -707l-19 54q158 55 189 170
q12 57 -39 88q-86 49 -86 133q0 59 43 101t106 42q66 0 111 -50t45 -138q0 -129 -94 -247t-256 -153z" />
    <glyph glyph-name="uni013C" unicode="&#x13c;" horiz-adv-x="634" 
d="M45 0v53q59 10 84 17.5t45.5 31t20.5 66.5v944q0 61 -28 90t-122 39v49q203 29 354 117l41 -39v-1200q0 -43 20.5 -66.5t45 -31t84.5 -17.5v-53h-545zM150 -707l-19 54q158 55 188 170q12 57 -38 88q-86 49 -86 133q0 59 43 101t106 42q66 0 111 -50t45 -138
q0 -129 -94 -247t-256 -153z" />
    <glyph glyph-name="Lcaron" unicode="&#x13d;" horiz-adv-x="1236" 
d="M45 0v53q104 20 131 41q39 33 39 121v860q0 47 -7 76t-36 46t-42 21.5t-69 14.5q-10 2 -16 4v53h610v-53q-104 -20 -131 -41q-39 -33 -39 -121v-835q0 -102 36 -129t157 -27h125q123 0 190.5 51t122.5 193h66l-84 -328h-1053zM768 702l-18 54q158 55 188 170
q12 57 -39 88q-86 49 -86 133q0 59 43 101t107 42q66 0 110.5 -50t44.5 -138q0 -129 -94 -247t-256 -153z" />
    <glyph glyph-name="lcaron" unicode="&#x13e;" horiz-adv-x="653" 
d="M45 0v53q59 10 84 17.5t45.5 31t20.5 66.5v944q0 61 -28 90t-122 39v49q203 29 354 117l41 -39v-1200q0 -43 20.5 -66.5t45 -31t84.5 -17.5v-53h-545zM653 1010l-71 4q-23 184 -78 327q43 29 108.5 30t108.5 -28q0 -165 -68 -333z" />
    <glyph glyph-name="Ldot" unicode="&#x13f;" horiz-adv-x="1236" 
d="M45 0v53q104 20 131 41q39 33 39 121v860q0 47 -7 76t-36 46t-42 21.5t-69 14.5q-10 2 -16 4v53h610v-53q-104 -20 -131 -41q-39 -33 -39 -121v-835q0 -102 36 -129t157 -27h125q123 0 190.5 51t122.5 193h66l-84 -328h-1053zM872.5 489q-61.5 0 -105.5 43t-44 107
q0 59 44 102t105 43q59 0 103.5 -43t44.5 -102q0 -61 -43 -105.5t-104.5 -44.5z" />
    <glyph glyph-name="ldot" unicode="&#x140;" horiz-adv-x="798" 
d="M45 0v53q59 10 84 17.5t45.5 31t20.5 66.5v944q0 61 -28 90t-122 39v49q203 29 354 117l41 -39v-1200q0 -43 20.5 -66.5t45 -31t84.5 -17.5v-53h-545zM707 543q-61 0 -105.5 43t-44.5 106q0 59 44 102.5t106 43.5q59 0 103 -43t44 -103q0 -61 -44 -105t-103 -44z" />
    <glyph glyph-name="Lslash" unicode="&#x141;" horiz-adv-x="1236" 
d="M1116 328h66l-84 -328h-1053v53q104 20 131 41q39 33 39 121v395q-35 -12 -170 -65v100l170 49v381q0 47 -7 76t-36 46t-42 21.5t-69 14.5q-10 2 -16 4v53h610v-53q-104 -20 -131 -41q-39 -33 -39 -121v-291q193 66 322 119v-100q-176 -51 -322 -98v-465q0 -102 36 -129
t157 -27h125q123 0 190.5 51.5t122.5 192.5z" />
    <glyph glyph-name="lslash" unicode="&#x142;" horiz-adv-x="645" 
d="M451 168q0 -43 20.5 -66.5t45 -31t83.5 -17.5v-53h-545v53q59 10 84 17.5t45.5 31t20.5 66.5v442q-106 -41 -160 -63v96q80 20 160 49v420q0 61 -27.5 90t-122.5 39v49q203 29 355 117l41 -39v-588q27 10 78 30.5t61 25.5v-97q-33 -8 -139 -41v-530z" />
    <glyph glyph-name="Nacute" unicode="&#x143;" horiz-adv-x="1433" 
d="M971 1642q-129 -86 -254 -219l-62 39q45 174 142 310q49 0 103.5 -40.5t70.5 -89.5zM936 1290h453v-53q-106 -20 -134 -41q-41 -33 -41 -121v-1075h-112l-793 1094v-879q0 -47 8.5 -75.5t39 -46t45 -21.5t73.5 -15q12 -2 19 -4v-53h-449v53q106 20 133 41q41 33 41 121
v860q0 47 -8 76t-36 46t-44 21.5t-68 14.5q-12 2 -18 4v53h432l647 -897v682q0 61 -24.5 95t-49 42.5t-96.5 20.5q-12 2 -18 4v53z" />
    <glyph glyph-name="nacute" unicode="&#x144;" horiz-adv-x="1185" 
d="M588 1034l-62 39q45 174 142 309q49 0 103 -39.5t71 -89.5q-129 -86 -254 -219zM35 0v53q41 8 59.5 12.5t40 16.5t28.5 32.5t7 53.5v469q0 61 -25.5 90t-109.5 39v49q207 31 348 119l41 -39l-64 -172h46q80 94 160.5 145.5t189.5 51.5q260 0 260 -316v-436q0 -33 7 -53.5
t28.5 -32.5t40 -16.5t59.5 -12.5v-53h-502v53q37 8 51.5 12.5t35 16.5t27.5 32.5t7 53.5v416q0 188 -139 188q-121 0 -215 -119v-485q0 -33 7 -53.5t27.5 -32.5t35 -16.5t51.5 -12.5v-53h-502z" />
    <glyph glyph-name="uni0145" unicode="&#x145;" horiz-adv-x="1433" 
d="M936 1290h453v-53q-106 -20 -134 -41q-41 -33 -41 -121v-1075h-112l-793 1094v-879q0 -47 8.5 -75.5t39 -46t45 -21.5t73.5 -15q12 -2 19 -4v-53h-449v53q106 20 133 41q41 33 41 121v860q0 47 -8 76t-36 46t-44 21.5t-68 14.5q-12 2 -18 4v53h432l647 -897v682
q0 61 -24.5 95t-49 42.5t-96.5 20.5q-12 2 -18 4v53zM743 -119q66 0 111 -50t45 -138q0 -129 -94 -247t-256 -153l-19 54q158 55 189 170q12 57 -39 88q-86 49 -86 133q0 59 43 101t106 42z" />
    <glyph glyph-name="uni0146" unicode="&#x146;" horiz-adv-x="1185" 
d="M35 0v53q41 8 59.5 12.5t40 16.5t28.5 32.5t7 53.5v469q0 61 -25.5 90t-109.5 39v49q207 31 348 119l41 -39l-64 -172h46q80 94 160.5 145.5t189.5 51.5q260 0 260 -316v-436q0 -33 7 -53.5t28.5 -32.5t40 -16.5t59.5 -12.5v-53h-502v53q37 8 51.5 12.5t35 16.5
t27.5 32.5t7 53.5v416q0 188 -139 188q-121 0 -215 -119v-485q0 -33 7 -53.5t27.5 -32.5t35 -16.5t51.5 -12.5v-53h-502zM420 -707l-19 54q158 55 189 170q12 57 -39 88q-86 49 -86 133q0 59 43 101t106 42q66 0 111 -50t45 -138q0 -129 -94 -247t-256 -153z" />
    <glyph glyph-name="Ncaron" unicode="&#x147;" horiz-adv-x="1433" 
d="M1001 1765l-288 -309l-289 307l29 33l260 -174l260 174zM936 1290h453v-53q-106 -20 -134 -41q-41 -33 -41 -121v-1075h-112l-793 1094v-879q0 -47 8.5 -75.5t39 -46t45 -21.5t73.5 -15q12 -2 19 -4v-53h-449v53q106 20 133 41q41 33 41 121v860q0 47 -8 76t-36 46
t-44 21.5t-68 14.5q-12 2 -18 4v53h432l647 -897v682q0 61 -24.5 95t-49 42.5t-96.5 20.5q-12 2 -18 4v53z" />
    <glyph glyph-name="ncaron" unicode="&#x148;" horiz-adv-x="1185" 
d="M584 1067l-289 307l29 33l260 -174l260 174l28 -31zM35 0v53q41 8 59.5 12.5t40 16.5t28.5 32.5t7 53.5v469q0 61 -25.5 90t-109.5 39v49q207 31 348 119l41 -39l-64 -172h46q80 94 160.5 145.5t189.5 51.5q260 0 260 -316v-436q0 -33 7 -53.5t28.5 -32.5t40 -16.5
t59.5 -12.5v-53h-502v53q37 8 51.5 12.5t35 16.5t27.5 32.5t7 53.5v416q0 188 -139 188q-121 0 -215 -119v-485q0 -33 7 -53.5t27.5 -32.5t35 -16.5t51.5 -12.5v-53h-502z" />
    <glyph glyph-name="Eng" unicode="&#x14a;" horiz-adv-x="1433" 
d="M936 1290h453v-53q-106 -20 -134 -41q-41 -33 -41 -121v-1075q-2 -94 -43 -162.5t-117.5 -110.5t-149.5 -64.5t-175 -41.5q-23 33 0 66q139 49 177 115.5t38 224.5v190l-635 877v-879q0 -47 8.5 -75.5t39 -46t45 -21.5t73.5 -15q12 -2 19 -4v-53h-449v53q106 20 133 41
q41 33 41 121v860q0 47 -8 76t-36 46t-44 21.5t-68 14.5q-12 2 -18 4v53h432l647 -897v682q0 61 -24.5 95t-49 42.5t-96.5 20.5q-12 2 -18 4v53z" />
    <glyph glyph-name="eng" unicode="&#x14b;" horiz-adv-x="1122" 
d="M756 920q260 0 260 -316v-639q0 -86 -43 -152.5t-112.5 -104.5t-134 -58.5t-132.5 -28.5q-16 31 0 62q96 33 136 102.5t40 206.5v592q0 188 -139 188q-121 0 -215 -119v-485q0 -33 7 -53.5t27.5 -32.5t35 -16.5t51.5 -12.5v-53h-502v53q41 8 59.5 12.5t40 16.5t28.5 32.5
t7 53.5v469q0 61 -25.5 90t-109.5 39v49q207 31 348 119l41 -39l-64 -172h46q80 94 160.5 145.5t189.5 51.5z" />
    <glyph glyph-name="Omacron" unicode="&#x14c;" horiz-adv-x="1495" 
d="M446 1602l31 92h574l-31 -92h-574zM743 -25q-285 0 -471 188.5t-186 477.5q0 295 188.5 488.5t477.5 193.5q285 0 471 -189.5t186 -482.5q0 -291 -188.5 -483.5t-477.5 -192.5zM778 57q162 0 253 140.5t91 392.5q0 293 -110.5 472t-294.5 179q-162 0 -253 -141.5
t-91 -397.5q0 -289 110.5 -467t294.5 -178z" />
    <glyph glyph-name="omacron" unicode="&#x14d;" horiz-adv-x="1112" 
d="M256 1212l31 93h573l-31 -93h-573zM545 -18q-205 0 -342 125.5t-137 336.5q0 217 146 346.5t355 129.5q205 0 342.5 -126t137.5 -337q0 -217 -146.5 -346t-355.5 -129zM573 55q94 0 153.5 91.5t59.5 261.5q0 176 -64.5 307t-182.5 131q-94 0 -153.5 -91t-59.5 -261
q0 -176 64 -307.5t183 -131.5z" />
    <glyph glyph-name="Ohungarumlaut" unicode="&#x150;" horiz-adv-x="1495" 
d="M524 1423l-61 39q45 174 141 310q49 0 103.5 -40t70.5 -90q-129 -86 -254 -219zM874 1423l-61 39q45 174 141 310q49 0 103.5 -40t70.5 -90q-129 -86 -254 -219zM743 -25q-285 0 -471 188.5t-186 477.5q0 295 188.5 488.5t477.5 193.5q285 0 471 -189.5t186 -482.5
q0 -291 -188.5 -483.5t-477.5 -192.5zM778 57q162 0 253 140.5t91 392.5q0 293 -110.5 472t-294.5 179q-162 0 -253 -141.5t-91 -397.5q0 -289 110.5 -467t294.5 -178z" />
    <glyph glyph-name="ohungarumlaut" unicode="&#x151;" horiz-adv-x="1112" 
d="M334 1034l-62 39q45 174 142 309q49 0 103 -39.5t71 -89.5q-129 -86 -254 -219zM684 1034l-61 39q45 174 141 309q49 0 103.5 -39.5t70.5 -89.5q-129 -86 -254 -219zM545 -18q-205 0 -342 125.5t-137 336.5q0 217 146 346.5t355 129.5q205 0 342.5 -126t137.5 -337
q0 -217 -146.5 -346t-355.5 -129zM573 55q94 0 153.5 91.5t59.5 261.5q0 176 -64.5 307t-182.5 131q-94 0 -153.5 -91t-59.5 -261q0 -176 64 -307.5t183 -131.5z" />
    <glyph glyph-name="OE" unicode="&#x152;" horiz-adv-x="2093" 
d="M1974 315h64l-84 -315h-1020q-90 -25 -189 -25q-285 0 -472 188.5t-187 477.5q0 295 189.5 488.5t478.5 193.5q111 0 215 -33h981l18 -299h-63q-14 117 -55.5 167t-145.5 50h-162q-121 0 -156.5 -26.5t-35.5 -128.5v-363h137q176 0 225 35t60 137h51v-422h-51
q-10 102 -59.5 137t-225.5 35h-137v-374q0 -102 35.5 -129t156.5 -27h119q121 0 188.5 50t124.5 183zM375 702q0 -287 111.5 -466t293.5 -179q217 0 299 226v639q-35 152 -129 235.5t-231 83.5q-162 0 -253 -141.5t-91 -397.5z" />
    <glyph glyph-name="oe" unicode="&#x153;" horiz-adv-x="1742" 
d="M1386 131q164 0 234 98l39 -28q-37 -102 -137.5 -159.5t-239.5 -57.5q-227 0 -364 143q-145 -145 -373 -145q-205 0 -342 125.5t-137 336.5q0 217 146 346.5t355 129.5q219 0 355 -140q137 141 350 142q219 0 327.5 -145.5t47.5 -293.5h-598q14 -160 104 -256t233 -96z
M573 55q94 0 153.5 91.5t59.5 261.5q0 176 -64.5 307t-182.5 131q-94 0 -153.5 -91t-59.5 -261q0 -176 64 -307.5t183 -131.5zM1253 846q-86 0 -144 -74t-62 -213h370q18 111 -24 199t-140 88z" />
    <glyph glyph-name="Racute" unicode="&#x154;" horiz-adv-x="1431" 
d="M954 1642q-129 -86 -254 -219l-61 39q45 174 141 310q49 0 103.5 -40.5t70.5 -89.5zM1128 233q53 -90 126 -145t153 -33v-55q-70 -33 -172 -33q-135 0 -220 48t-147 151l-131 217q-59 98 -113.5 135t-138.5 41v-344q0 -47 7.5 -75.5t36 -46t42 -21.5t68.5 -15
q10 -2 16 -4v-53h-610v53q104 20 131 41q39 33 39 121v860q0 47 -7 76t-36 46t-42 21.5t-69 14.5q-10 2 -16 4v53h576q586 0 585 -358q0 -297 -399 -359q133 -27 213 -159zM633 1208q-88 0 -118 -22.5t-30 -71.5v-475h107q186 0 258 74.5t72 201.5q0 293 -289 293z" />
    <glyph glyph-name="racute" unicode="&#x155;" horiz-adv-x="851" 
d="M424 1034l-62 39q45 174 142 309q49 0 103.5 -39.5t70.5 -89.5q-129 -86 -254 -219zM35 0v53q45 8 64.5 12.5t43 16.5t30.5 32.5t7 53.5v471q0 61 -27.5 90t-117.5 37v49q213 33 368 119l41 -39l-47 -248h56q61 145 125.5 216t156.5 71q43 0 82 -16v-232q-63 29 -133 29
q-125 0 -191.5 -83t-66.5 -204v-260q0 -33 8 -53.5t30.5 -32.5t44 -16.5t69.5 -12.5v-53h-543z" />
    <glyph glyph-name="uni0156" unicode="&#x156;" horiz-adv-x="1431" 
d="M1128 233q53 -90 126 -145t153 -33v-55q-70 -33 -172 -33q-135 0 -220 48t-147 151l-131 217q-59 98 -113.5 135t-138.5 41v-344q0 -47 7.5 -75.5t36 -46t42 -21.5t68.5 -15q10 -2 16 -4v-53h-610v53q104 20 131 41q39 33 39 121v860q0 47 -7 76t-36 46t-42 21.5
t-69 14.5q-10 2 -16 4v53h576q586 0 585 -358q0 -297 -399 -359q133 -27 213 -159zM633 1208q-88 0 -118 -22.5t-30 -71.5v-475h107q186 0 258 74.5t72 201.5q0 293 -289 293zM741 -119q66 0 111 -50t45 -138q0 -129 -94 -247t-256 -153l-19 54q158 55 189 170q12 57 -39 88
q-86 49 -86 133q0 59 43 101t106 42z" />
    <glyph glyph-name="uni0157" unicode="&#x157;" horiz-adv-x="851" 
d="M35 0v53q45 8 64.5 12.5t43 16.5t30.5 32.5t7 53.5v471q0 61 -27.5 90t-117.5 37v49q213 33 368 119l41 -39l-47 -248h56q61 145 125.5 216t156.5 71q43 0 82 -16v-232q-63 29 -133 29q-125 0 -191.5 -83t-66.5 -204v-260q0 -33 8 -53.5t30.5 -32.5t44 -16.5t69.5 -12.5
v-53h-543zM139 -707l-18 54q158 55 188 170q12 57 -39 88q-86 49 -86 133q0 59 43 101t107 42q66 0 110.5 -50t44.5 -138q0 -129 -94 -247t-256 -153z" />
    <glyph glyph-name="Rcaron" unicode="&#x158;" horiz-adv-x="1431" 
d="M985 1765l-289 -309l-288 307l28 33l260 -174l260 174zM1128 233q53 -90 126 -145t153 -33v-55q-70 -33 -172 -33q-135 0 -220 48t-147 151l-131 217q-59 98 -113.5 135t-138.5 41v-344q0 -47 7.5 -75.5t36 -46t42 -21.5t68.5 -15q10 -2 16 -4v-53h-610v53q104 20 131 41
q39 33 39 121v860q0 47 -7 76t-36 46t-42 21.5t-69 14.5q-10 2 -16 4v53h576q586 0 585 -358q0 -297 -399 -359q133 -27 213 -159zM633 1208q-88 0 -118 -22.5t-30 -71.5v-475h107q186 0 258 74.5t72 201.5q0 293 -289 293z" />
    <glyph glyph-name="rcaron" unicode="&#x159;" horiz-adv-x="851" 
d="M420 1067l-289 307l29 33l260 -174l260 174l29 -31zM35 0v53q45 8 64.5 12.5t43 16.5t30.5 32.5t7 53.5v471q0 61 -27.5 90t-117.5 37v49q213 33 368 119l41 -39l-47 -248h56q61 145 125.5 216t156.5 71q43 0 82 -16v-232q-63 29 -133 29q-125 0 -191.5 -83t-66.5 -204
v-260q0 -33 8 -53.5t30.5 -32.5t44 -16.5t69.5 -12.5v-53h-543z" />
    <glyph glyph-name="Sacute" unicode="&#x15a;" horiz-adv-x="1099" 
d="M541 1423l-62 39q45 174 142 310q49 0 103 -40t71 -90q-129 -86 -254 -219zM530 -25q-248 0 -428 129l-16 267h59q41 -145 138.5 -232.5t232.5 -87.5q113 0 180.5 63.5t67.5 161.5q0 90 -65.5 155t-206.5 128q-82 37 -139.5 70t-119 84t-93 118.5t-31.5 149.5
q0 156 116.5 249t329.5 93q39 0 76 -4t65.5 -9t59 -15.5t49 -17.5t43 -20.5t35 -19.5t31 -19.5t24.5 -15.5l6 -270h-55q-86 315 -322 315q-106 0 -160.5 -54t-54.5 -134q0 -74 55.5 -129.5t192.5 -118.5q61 -27 91 -42t90.5 -49t94 -65.5t72.5 -77t57.5 -99.5t18.5 -118
q0 -172 -139.5 -278.5t-354.5 -106.5z" />
    <glyph glyph-name="sacute" unicode="&#x15b;" horiz-adv-x="835" 
d="M412 1034l-62 39q45 174 142 309q49 0 103 -39.5t71 -89.5q-129 -86 -254 -219zM377 -18q-178 0 -307 81l-4 193h79q70 -203 254 -203q82 0 123 35t41 92q0 63 -47 97t-156 73q-127 45 -209.5 112.5t-82.5 188.5q0 125 97 197t259 72q143 0 274 -78v-191h-77
q-57 197 -218 197q-66 0 -103.5 -31t-37.5 -82t43 -89t135 -71q72 -25 114 -44t100.5 -56t87 -90t28.5 -121q0 -133 -109.5 -207.5t-283.5 -74.5z" />
    <glyph glyph-name="Scedilla" unicode="&#x15e;" horiz-adv-x="1099" 
d="M1024 360q0 -160 -120 -263t-310 -120l-35 -67q88 0 156.5 -45t68.5 -123q0 -176 -344 -176l11 53q94 0 138 26.5t44 65.5q0 88 -230 88l91 176q-229 12 -392 129l-16 267h59q41 -145 138.5 -232.5t232.5 -87.5q113 0 180.5 63.5t67.5 161.5q0 90 -65.5 155t-206.5 128
q-82 37 -139.5 70t-119 84t-93 118.5t-31.5 149.5q0 156 116.5 249t329.5 93q39 0 76 -4t65.5 -9t59 -15.5t49 -17.5t43 -20.5t35 -19.5t31 -19.5t24.5 -15.5l6 -270h-55q-86 315 -322 315q-106 0 -160.5 -54t-54.5 -134q0 -74 55.5 -129.5t192.5 -118.5q61 -27 91 -42
t90.5 -49t94 -65.5t72.5 -77t57.5 -100t18.5 -117.5z" />
    <glyph glyph-name="scedilla" unicode="&#x15f;" horiz-adv-x="835" 
d="M770 264q0 -117 -85 -188.5t-226 -89.5l-39 -76q88 0 156.5 -45t68.5 -123q0 -176 -344 -176l10 53q94 0 138.5 26.5t44.5 65.5q0 88 -230 88l92 183q-162 4 -286 81l-4 193h79q70 -203 254 -203q82 0 123 35t41 92q0 63 -47 97t-156 73q-127 45 -209.5 112.5
t-82.5 188.5q0 125 97 197t259 72q143 0 274 -78v-191h-77q-57 197 -218 197q-66 0 -103.5 -31t-37.5 -82t43 -89t135 -71q72 -25 114 -44t100.5 -56t87 -90t28.5 -121z" />
    <glyph glyph-name="Scaron" unicode="&#x160;" horiz-adv-x="1099" 
d="M537 1456l-289 307l28 33l261 -174l260 174l28 -31zM530 -25q-248 0 -428 129l-16 267h59q41 -145 138.5 -232.5t232.5 -87.5q113 0 180.5 63.5t67.5 161.5q0 90 -65.5 155t-206.5 128q-82 37 -139.5 70t-119 84t-93 118.5t-31.5 149.5q0 156 116.5 249t329.5 93
q39 0 76 -4t65.5 -9t59 -15.5t49 -17.5t43 -20.5t35 -19.5t31 -19.5t24.5 -15.5l6 -270h-55q-86 315 -322 315q-106 0 -160.5 -54t-54.5 -134q0 -74 55.5 -129.5t192.5 -118.5q61 -27 91 -42t90.5 -49t94 -65.5t72.5 -77t57.5 -99.5t18.5 -118q0 -172 -139.5 -278.5
t-354.5 -106.5z" />
    <glyph glyph-name="scaron" unicode="&#x161;" horiz-adv-x="835" 
d="M408 1067l-289 307l28 33l261 -174l260 174l28 -31zM377 -18q-178 0 -307 81l-4 193h79q70 -203 254 -203q82 0 123 35t41 92q0 63 -47 97t-156 73q-127 45 -209.5 112.5t-82.5 188.5q0 125 97 197t259 72q143 0 274 -78v-191h-77q-57 197 -218 197q-66 0 -103.5 -31
t-37.5 -82t43 -89t135 -71q72 -25 114 -44t100.5 -56t87 -90t28.5 -121q0 -133 -109.5 -207.5t-283.5 -74.5z" />
    <glyph glyph-name="uni0162" unicode="&#x162;" horiz-adv-x="1243" 
d="M1182 1311l16 -367h-51q-23 143 -84.5 206.5t-216.5 63.5h-88v-999q0 -49 9 -79t42 -46t53.5 -21.5t83.5 -15.5v-53h-270l-45 -90q88 0 156.5 -45t68.5 -123q0 -176 -344 -176l10 53q94 0 138.5 26.5t44.5 65.5q0 88 -230 88l103 201h-279v53q63 10 83.5 15.5t53.5 21.5
t42 46t9 79v999h-84q-160 0 -222 -63.5t-85 -206.5h-51l16 367l113 -21h895z" />
    <glyph glyph-name="uni0163" unicode="&#x163;" horiz-adv-x="663" 
d="M446 236q0 -170 265 -74v-56q-129 -68 -285 -116l-41 -80q88 0 156.5 -45t68.5 -123q0 -176 -344 -176l10 53q94 0 138.5 26.5t44.5 65.5q0 88 -230 88l97 189q-57 18 -91 63t-34 99v667h-166v60q197 70 344 215h67v-199l265 27q-10 -49 -11 -103h-254v-581z" />
    <glyph glyph-name="Tcaron" unicode="&#x164;" horiz-adv-x="1243" 
d="M907 1747l-289 -309l-288 307l28 33l260 -174l261 174zM1182 1311l16 -367h-51q-23 143 -84.5 206.5t-216.5 63.5h-88v-999q0 -49 9 -79t42 -46t53.5 -21.5t83.5 -15.5v-53h-647v53q63 10 83.5 15.5t53.5 21.5t42 46t9 79v999h-84q-160 0 -222 -63.5t-85 -206.5h-51
l16 367l113 -21h895z" />
    <glyph glyph-name="tcaron" unicode="&#x165;" horiz-adv-x="690" 
d="M514 979q-63 0 -59 61l6 193q2 119 110 119q59 0 88 -38t3 -104l-74 -172q-25 -59 -74 -59zM446 236q0 -170 265 -74v-56q-156 -84 -326 -126q-82 0 -133 51t-51 119v667h-166v60q197 70 344 215h67v-199l265 27q-10 -49 -11 -103h-254v-581z" />
    <glyph glyph-name="Tbar" unicode="&#x166;" horiz-adv-x="1243" 
d="M1182 1311l16 -367h-51q-23 143 -84.5 206.5t-216.5 63.5h-88v-542l227 6l-20 -82q-139 4 -207 4v-385q0 -49 9 -79t42 -46t53.5 -21.5t83.5 -15.5v-53h-647v53q63 10 83.5 15.5t53.5 21.5t42 46t9 79v387l-229 -6l21 82q139 -4 208 -4v540h-84q-160 0 -222 -63.5
t-85 -206.5h-51l16 367l113 -21h895z" />
    <glyph glyph-name="tbar" unicode="&#x167;" horiz-adv-x="745" 
d="M446 236q0 -170 265 -74v-56q-156 -84 -326 -126q-82 0 -133 51t-51 119v356h-166l20 82h146v229h-166v60q197 70 344 215h67v-199l265 27q-10 -49 -11 -103h-254v-229h254l-20 -82h-234v-270z" />
    <glyph glyph-name="Umacron" unicode="&#x16a;" horiz-adv-x="1460" 
d="M428 1602l31 92h573l-31 -92h-573zM731 -25q-100 0 -184 21.5t-166 77t-129 168t-47 274.5v559q0 47 -7.5 76t-36 46t-42 21.5t-68.5 14.5q-10 2 -16 4v53h612v-53q-104 -20 -131 -41q-39 -33 -39 -121v-590q0 -418 326 -417q59 0 112.5 14t109.5 53t90 122t34 202v616
q0 47 -8 76t-36 46t-44.5 21.5t-67.5 14.5q-12 2 -18 4v53h450v-53q-115 -20 -141 -41q-43 -33 -43 -121v-575q0 -525 -510 -525z" />
    <glyph glyph-name="umacron" unicode="&#x16b;" horiz-adv-x="1175" 
d="M287 1212l30 93h574l-31 -93h-573zM430 -18q-270 0 -270 315v459q0 37 -17.5 56t-39 25.5t-68.5 14.5v49q236 -12 371 12v-606q0 -178 149 -178q104 0 205 102v525q0 37 -17.5 56t-39 25.5t-68.5 14.5v49q236 -12 371 12v-725q0 -61 25.5 -90.5t109.5 -44.5v-53h-350
l12 162h-31q-80 -86 -158 -133t-184 -47z" />
    <glyph glyph-name="ubreve" unicode="&#x16d;" horiz-adv-x="1175" 
d="M588 1104q-139 0 -222 76.5t-83 210.5h57q31 -137 248 -137.5t248 137.5h57q0 -133 -83 -210t-222 -77zM430 -18q-270 0 -270 315v459q0 37 -17.5 56t-39 25.5t-68.5 14.5v49q236 -12 371 12v-606q0 -178 149 -178q104 0 205 102v525q0 37 -17.5 56t-39 25.5t-68.5 14.5
v49q236 -12 371 12v-725q0 -61 25.5 -90.5t109.5 -44.5v-53h-350l12 162h-31q-80 -86 -158 -133t-184 -47z" />
    <glyph glyph-name="Uring" unicode="&#x16e;" horiz-adv-x="1460" 
d="M729 1470q-82 0 -138 55.5t-56 135.5t56 135t138 55t138.5 -55t56.5 -135t-56.5 -135.5t-138.5 -55.5zM729 1575q39 0 63.5 24.5t24.5 61.5t-24.5 61.5t-63.5 24.5t-63.5 -24.5t-24.5 -61.5t24.5 -61.5t63.5 -24.5zM731 -25q-100 0 -184 21.5t-166 77t-129 168t-47 274.5
v559q0 47 -7.5 76t-36 46t-42 21.5t-68.5 14.5q-10 2 -16 4v53h612v-53q-104 -20 -131 -41q-39 -33 -39 -121v-590q0 -418 326 -417q59 0 112.5 14t109.5 53t90 122t34 202v616q0 47 -8 76t-36 46t-44.5 21.5t-67.5 14.5q-12 2 -18 4v53h450v-53q-115 -20 -141 -41
q-43 -33 -43 -121v-575q0 -525 -510 -525z" />
    <glyph glyph-name="uring" unicode="&#x16f;" horiz-adv-x="1175" 
d="M588 1081q-82 0 -138.5 55.5t-56.5 135.5t56.5 135t138.5 55t138 -55t56 -135t-56 -135.5t-138 -55.5zM588 1186q39 0 63.5 24.5t24.5 61.5t-24.5 61.5t-63.5 24.5t-63.5 -24.5t-24.5 -61.5t24.5 -61.5t63.5 -24.5zM430 -18q-270 0 -270 315v459q0 37 -17.5 56t-39 25.5
t-68.5 14.5v49q236 -12 371 12v-606q0 -178 149 -178q104 0 205 102v525q0 37 -17.5 56t-39 25.5t-68.5 14.5v49q236 -12 371 12v-725q0 -61 25.5 -90.5t109.5 -44.5v-53h-350l12 162h-31q-80 -86 -158 -133t-184 -47z" />
    <glyph glyph-name="Uhungarumlaut" unicode="&#x170;" horiz-adv-x="1460" 
d="M506 1423l-62 39q45 174 142 310q49 0 103 -40t71 -90q-129 -86 -254 -219zM856 1423l-61 39q45 174 141 310q49 0 103.5 -40t70.5 -90q-129 -86 -254 -219zM731 -25q-100 0 -184 21.5t-166 77t-129 168t-47 274.5v559q0 47 -7.5 76t-36 46t-42 21.5t-68.5 14.5
q-10 2 -16 4v53h612v-53q-104 -20 -131 -41q-39 -33 -39 -121v-590q0 -418 326 -417q59 0 112.5 14t109.5 53t90 122t34 202v616q0 47 -8 76t-36 46t-44.5 21.5t-67.5 14.5q-12 2 -18 4v53h450v-53q-115 -20 -141 -41q-43 -33 -43 -121v-575q0 -525 -510 -525z" />
    <glyph glyph-name="uhungarumlaut" unicode="&#x171;" horiz-adv-x="1175" 
d="M365 1034l-62 39q45 174 141 309q49 0 103.5 -39.5t70.5 -89.5q-128 -86 -253 -219zM715 1034l-62 39q45 174 142 309q49 0 103 -39.5t71 -89.5q-129 -86 -254 -219zM430 -18q-270 0 -270 315v459q0 37 -17.5 56t-39 25.5t-68.5 14.5v49q236 -12 371 12v-606
q0 -178 149 -178q104 0 205 102v525q0 37 -17.5 56t-39 25.5t-68.5 14.5v49q236 -12 371 12v-725q0 -61 25.5 -90.5t109.5 -44.5v-53h-350l12 162h-31q-80 -86 -158 -133t-184 -47z" />
    <glyph glyph-name="Uogonek" unicode="&#x172;" horiz-adv-x="1458" 
d="M975 1290h450v-53q-115 -20 -141 -41q-43 -33 -43 -121v-575q0 -414 -323 -502v-2q-164 -66 -164 -191q0 -53 29.5 -85.5t80.5 -32.5q35 0 78 16v-41q-74 -70 -182 -70q-86 0 -142.5 42t-56.5 133q0 68 41 120l146 88h-17q-100 0 -184 21.5t-166 77t-129 168t-47 274.5
v559q0 47 -7.5 76t-36 46t-42 21.5t-68.5 14.5q-10 2 -16 4v53h612v-53q-104 -20 -131 -41q-39 -33 -39 -121v-590q0 -418 326 -417q59 0 112.5 14t109.5 53t90 122t34 202v616q0 47 -8 76t-36 46t-44.5 21.5t-67.5 14.5q-12 2 -18 4v53z" />
    <glyph glyph-name="uogonek" unicode="&#x173;" horiz-adv-x="1175" 
d="M936 0q-88 -51 -126 -95t-38 -100q0 -53 29.5 -85.5t81.5 -32.5q35 0 78 16v-41q-74 -70 -183 -70q-86 0 -142 42t-56 133q0 68 41 120l170 115l12 160h-31q-80 -86 -157.5 -133t-184.5 -47q-270 0 -270 315v459q0 37 -17.5 56t-39 25.5t-68.5 14.5v49q236 -12 371 12
v-606q0 -178 149 -178q104 0 205 102v525q0 37 -17.5 56t-39 25.5t-68.5 14.5v49q236 -12 371 12v-725q0 -61 25.5 -90.5t109.5 -44.5v-53h-205z" />
    <glyph glyph-name="Wcircumflex" unicode="&#x174;" horiz-adv-x="2088" 
d="M1036 1798l289 -309l-29 -31l-260 174l-260 -174l-28 33zM606 -16l-432 1142q-25 66 -52.5 83.5t-117.5 33.5v45h590v-45q-6 0 -16.5 -3t-36 -12t-43 -20.5t-26.5 -33t-1 -48.5l281 -786l215 610q41 104 4 188.5t-152 106.5v45h416q0 -84 72 -280l239 -668l246 696
q18 49 19 84t-7 55.5t-36.5 34t-56.5 19.5t-81 14v45h455v-45q-66 -12 -87.5 -19t-44 -28.5t-38.5 -69.5l-414 -1142h-100l-354 944l-340 -946h-101z" />
    <glyph glyph-name="wcircumflex" unicode="&#x175;" horiz-adv-x="1640" 
d="M811 1409l289 -309l-29 -31l-260 174l-260 -174l-29 33zM453 -12l-308 772q-23 53 -47 67.5t-94 20.5v53h506v-53q-94 -12 -111 -37q-12 -18 0 -51l183 -492l166 410q33 82 8 125q-14 25 -35 32t-68 13v53h357q0 -78 37 -176l176 -459l155 391q25 61 28 99.5t-20.5 56.5
t-51 24.5t-83.5 10.5v53h385v-53q-70 -6 -94 -20.5t-47 -67.5l-313 -772h-88l-275 678l-278 -678h-88z" />
    <glyph glyph-name="Ycircumflex" unicode="&#x176;" horiz-adv-x="1368" 
d="M676 1632l-260 -174l-29 33l289 307l289 -309l-29 -31zM942 1290h412v-53q-80 -16 -105.5 -33.5t-74.5 -93.5l-343 -545v-358q0 -51 9.5 -80t42 -45t53 -21.5t86.5 -15.5v-45h-651v45q121 20 149 43q41 31 41 119v328l-368 575q-49 76 -74 93.5t-105 33.5v53h600v-53
q-12 -2 -36.5 -7t-36 -8t-28.5 -9.5t-22.5 -14.5t-9.5 -19.5t2 -28.5t21 -40l287 -459l282 459q20 35 23.5 56.5t-18 33.5t-39 17.5t-64.5 13.5q-23 4 -33 6v53z" />
    <glyph glyph-name="ycircumflex" unicode="&#x177;" horiz-adv-x="1062" 
d="M528 1243l-260 -174l-28 33l288 307l289 -309l-29 -31zM719 901h340v-53q-70 -8 -94.5 -22.5t-49.5 -71.5l-352 -820q-131 -309 -305 -309q-70 0 -139 47v150q141 -25 230 -2.5t130 114.5l13 31l-342 787q-27 57 -51.5 72.5t-94.5 23.5v53h508v-53q-92 -14 -109 -37
q-14 -20 3 -59l210 -498l215 500q8 18 9.5 31.5t-6 22.5t-14.5 15t-25.5 11.5t-27.5 6.5t-34 5q-10 2 -14 2v53z" />
    <glyph glyph-name="Ydieresis" unicode="&#x178;" horiz-adv-x="1368" 
d="M467 1536q-53 0 -89 37t-36 88t37 87t88 36t87 -36t36 -87t-36 -88t-87 -37zM903 1536q-51 0 -88 37t-37 88t37 87t88 36t87 -36t36 -87t-36 -88t-87 -37zM942 1290h412v-53q-80 -16 -105.5 -33.5t-74.5 -93.5l-343 -545v-358q0 -51 9.5 -80t42 -45t53 -21.5t86.5 -15.5
v-45h-651v45q121 20 149 43q41 31 41 119v328l-368 575q-49 76 -74 93.5t-105 33.5v53h600v-53q-12 -2 -36.5 -7t-36 -8t-28.5 -9.5t-22.5 -14.5t-9.5 -19.5t2 -28.5t21 -40l287 -459l282 459q20 35 23.5 56.5t-18 33.5t-39 17.5t-64.5 13.5q-23 4 -33 6v53z" />
    <glyph glyph-name="Zacute" unicode="&#x179;" horiz-adv-x="1236" 
d="M618 1423l-61 39q45 174 141 310q49 0 103.5 -40t70.5 -90q-129 -86 -254 -219zM68 0l-23 31l791 1198l-392 -8q-147 -2 -205.5 -63.5t-68.5 -207.5h-59v353l129 -13h944l-809 -1229l469 9q141 2 198.5 65.5t87.5 208.5h62q-39 -209 -39 -344h-1085z" />
    <glyph glyph-name="zacute" unicode="&#x17a;" horiz-adv-x="974" 
d="M487 1034l-61 39q45 174 141 309q49 0 103.5 -39.5t70.5 -89.5q-129 -86 -254 -219zM68 0l-23 31l559 803l-246 -7q-172 -2 -192 -211h-62v297l121 -12h695l-580 -833l262 6q125 2 179.5 55t84.5 160h64q-39 -156 -39 -289h-823z" />
    <glyph glyph-name="Zdotaccent" unicode="&#x17b;" horiz-adv-x="1236" 
d="M618.5 1450q-59.5 0 -104.5 43t-45 102.5t44 101.5t105.5 42t105.5 -42t44 -101.5t-45 -102.5t-104.5 -43zM68 0l-23 31l791 1198l-392 -8q-147 -2 -205.5 -63.5t-68.5 -207.5h-59v353l129 -13h944l-809 -1229l469 9q141 2 198.5 65.5t87.5 208.5h62q-39 -209 -39 -344
h-1085z" />
    <glyph glyph-name="zdotaccent" unicode="&#x17c;" horiz-adv-x="974" 
d="M487.5 1061q-59.5 0 -104.5 43t-45 102.5t44 101.5t105.5 42t105.5 -42t44 -101.5t-45 -102.5t-104.5 -43zM68 0l-23 31l559 803l-246 -7q-172 -2 -192 -211h-62v297l121 -12h695l-580 -833l262 6q125 2 179.5 55t84.5 160h64q-39 -156 -39 -289h-823z" />
    <glyph glyph-name="Zcaron" unicode="&#x17d;" horiz-adv-x="1236" 
d="M614 1456l-288 307l28 33l260 -174l260 174l29 -31zM68 0l-23 31l791 1198l-392 -8q-147 -2 -205.5 -63.5t-68.5 -207.5h-59v353l129 -13h944l-809 -1229l469 9q141 2 198.5 65.5t87.5 208.5h62q-39 -209 -39 -344h-1085z" />
    <glyph glyph-name="zcaron" unicode="&#x17e;" horiz-adv-x="974" 
d="M483 1067l-288 307l28 33l260 -174l260 174l29 -31zM68 0l-23 31l559 803l-246 -7q-172 -2 -192 -211h-62v297l121 -12h695l-580 -833l262 6q125 2 179.5 55t84.5 160h64q-39 -156 -39 -289h-823z" />
    <glyph glyph-name="florin" unicode="&#x192;" horiz-adv-x="1286" 
d="M1204 1403q197 0 232 -131q-6 -53 -63.5 -93t-129.5 -49q-35 176 -133 177q-61 0 -113.5 -55.5t-70.5 -198.5l-19 -150l252 23q-10 -49 -10 -109h-252l-78 -653q-31 -248 -193.5 -385t-359 -137t-231.5 131q6 53 63.5 93t128.5 48q35 -176 133 -176q61 0 113.5 55
t71.5 199l98 825h-143v53l153 31q37 238 197.5 370t353.5 132z" />
    <glyph glyph-name="uni0218" unicode="&#x218;" horiz-adv-x="1099" 
d="M530 -25q-248 0 -428 129l-16 267h59q41 -145 138.5 -232.5t232.5 -87.5q113 0 180.5 63.5t67.5 161.5q0 90 -65.5 155t-206.5 128q-82 37 -139.5 70t-119 84t-93 118.5t-31.5 149.5q0 156 116.5 249t329.5 93q39 0 76 -4t65.5 -9t59 -15.5t49 -17.5t43 -20.5t35 -19.5
t31 -19.5t24.5 -15.5l6 -270h-55q-86 315 -322 315q-106 0 -160.5 -54t-54.5 -134q0 -74 55.5 -129.5t192.5 -118.5q61 -27 91 -42t90.5 -49t94 -65.5t72.5 -77t57.5 -99.5t18.5 -118q0 -172 -139.5 -278.5t-354.5 -106.5zM383 -707l-18 54q158 55 188 170q12 57 -39 88
q-86 49 -86 133q0 59 43 101t107 42q66 0 110.5 -50t44.5 -138q0 -129 -94 -247t-256 -153z" />
    <glyph glyph-name="uni0219" unicode="&#x219;" horiz-adv-x="835" 
d="M377 -18q-178 0 -307 81l-4 193h79q70 -203 254 -203q82 0 123 35t41 92q0 63 -47 97t-156 73q-127 45 -209.5 112.5t-82.5 188.5q0 125 97 197t259 72q143 0 274 -78v-191h-77q-57 197 -218 197q-66 0 -103.5 -31t-37.5 -82t43 -89t135 -71q72 -25 114 -44t100.5 -56
t87 -90t28.5 -121q0 -133 -109.5 -207.5t-283.5 -74.5zM244 -707l-19 54q158 55 189 170q12 57 -39 88q-86 49 -86 133q0 59 43 101t106 42q66 0 111 -50t45 -138q0 -129 -94 -247t-256 -153z" />
    <glyph glyph-name="uni021A" unicode="&#x21a;" horiz-adv-x="1243" 
d="M1182 1311l16 -367h-51q-23 143 -84.5 206.5t-216.5 63.5h-88v-999q0 -49 9 -79t42 -46t53.5 -21.5t83.5 -15.5v-53h-647v53q63 10 83.5 15.5t53.5 21.5t42 46t9 79v999h-84q-160 0 -222 -63.5t-85 -206.5h-51l16 367l113 -21h895zM649 -119q66 0 111 -50t45 -138
q0 -129 -94.5 -247t-255.5 -153l-19 54q158 55 189 170q12 57 -39 88q-86 49 -86 133q0 59 43 101t106 42z" />
    <glyph glyph-name="uni021B" unicode="&#x21b;" horiz-adv-x="663" 
d="M446 236q0 -170 265 -74v-56q-156 -84 -326 -126q-82 0 -133 51t-51 119v667h-166v60q197 70 344 215h67v-199l265 27q-10 -49 -11 -103h-254v-581zM416 -119q66 0 110.5 -50t44.5 -138q0 -129 -94 -247t-256 -153l-18 54q158 55 188 170q12 57 -39 88q-86 49 -86 133
q0 59 43.5 101t106.5 42z" />
    <glyph glyph-name="uni0237" unicode="&#x237;" horiz-adv-x="518" 
d="M-10 -379q-16 31 0 62q111 35 143.5 88t32.5 204v662q0 61 -25.5 90t-109.5 39v49q213 37 338 119l43 -39v-930q0 -86 -43 -152.5t-113 -104.5t-134 -58.5t-132 -28.5z" />
    <glyph glyph-name="circumflex" unicode="&#x2c6;" horiz-adv-x="602" 
d="M293 1409l289 -309l-29 -31l-260 174l-260 -174l-29 33z" />
    <glyph glyph-name="caron" unicode="&#x2c7;" horiz-adv-x="585" 
d="M293 1067l-289 307l29 33l260 -174l260 174l29 -31z" />
    <glyph glyph-name="breve" unicode="&#x2d8;" horiz-adv-x="618" 
d="M309.5 1104q-139.5 0 -222.5 76.5t-83 210.5h57q31 -137 248 -137.5t248 137.5h57q0 -133 -82.5 -210t-222 -77z" />
    <glyph glyph-name="dotaccent" unicode="&#x2d9;" horiz-adv-x="307" 
d="M153.5 1061q-59.5 0 -104.5 43t-45 102.5t44 101.5t105.5 42t105.5 -42t44 -101.5t-45 -102.5t-104.5 -43z" />
    <glyph glyph-name="ring" unicode="&#x2da;" horiz-adv-x="397" 
d="M199 1081q-82 0 -138.5 55.5t-56.5 135.5t56.5 135t138.5 55t138 -55t56 -135t-56 -135.5t-138 -55.5zM199 1186q39 0 63.5 24.5t24.5 61.5t-24.5 61.5t-63.5 24.5t-63.5 -24.5t-24.5 -61.5t24.5 -61.5t63.5 -24.5z" />
    <glyph glyph-name="ogonek" unicode="&#x2db;" horiz-adv-x="389" 
d="M203 -375q-86 0 -142.5 42t-56.5 132q0 68 41 121l315 211v-98q-88 -51 -125.5 -95t-37.5 -100q0 -53 29.5 -86t80.5 -33q35 0 78 17v-41q-73 -70 -182 -70z" />
    <glyph glyph-name="tilde" unicode="&#x2dc;" horiz-adv-x="749" 
d="M516 1061q-53 0 -100 23.5t-76 51t-72 51t-90 23.5q-51 0 -84 -32.5t-33 -65.5h-53q-18 106 51.5 175t171.5 69q53 0 101.5 -23.5t77 -51.5t71.5 -51.5t90 -23.5q51 0 84 33t33 66h53q18 -106 -51.5 -175t-173.5 -69z" />
    <glyph glyph-name="hungarumlaut" unicode="&#x2dd;" horiz-adv-x="673" 
d="M66 1034l-62 39q45 174 141 309q49 0 103.5 -39.5t70.5 -89.5q-128 -86 -253 -219zM416 1034l-62 39q45 174 142 309q49 0 103 -39.5t71 -89.5q-129 -86 -254 -219z" />
    <glyph glyph-name="acutecomb" unicode="&#x301;" horiz-adv-x="0" 
d="M-270 1034l-62 39q45 174 142 309q49 0 103 -39.5t71 -89.5q-129 -86 -254 -219z" />
    <glyph glyph-name="uni0326" unicode="&#x326;" horiz-adv-x="0" 
d="M-328 -707l-18 54q158 55 188 170q12 57 -39 88q-86 49 -86 133q0 59 43 101t107 42q66 0 111 -50t45 -138q0 -129 -94.5 -247t-256.5 -153z" />
    <glyph glyph-name="uni0394" unicode="&#x394;" horiz-adv-x="1204" 
d="M4 0l598 1298l598 -1298h-1196zM170 199h692l-340 786z" />
    <glyph glyph-name="uni03A9" unicode="&#x3a9;" horiz-adv-x="1527" 
d="M1401 250h41l-74 -250h-455v190q80 39 152 181.5t72 314.5q0 240 -101.5 388.5t-271.5 148.5t-271.5 -148.5t-101.5 -388.5q0 -172 72 -314.5t151 -181.5v-190h-454l-74 250h41q31 -41 79 -50.5t171 -9.5h20q-297 213 -297 517q0 252 187.5 425t476.5 173t476 -173.5
t187 -424.5q0 -303 -297 -517h21q86 0 122 2.5t70.5 15.5t57.5 42z" />
    <glyph glyph-name="uni03BC" unicode="&#x3bc;" horiz-adv-x="1175" 
d="M1006 188q0 -61 25.5 -90.5t109.5 -44.5v-53h-350l12 162h-31q-80 -86 -157.5 -133t-184.5 -47q-76 0 -133 26q10 -92 39 -151.5t51.5 -85t22.5 -43.5q0 -72 -62.5 -114t-125 -18.5t-62.5 107.5v1053q0 37 -17.5 56t-39 25.5t-68.5 14.5v49q236 -12 371 12v-606
q0 -178 149 -178q104 0 205 102v525q0 37 -17.5 56t-39 25.5t-68.5 14.5v49q236 -12 371 12v-725z" />
    <glyph glyph-name="pi" unicode="&#x3c0;" horiz-adv-x="1482" 
d="M1317 246q41 0 65.5 -25.5t24.5 -73.5q0 -86 -75 -126.5t-169 -40.5q-125 0 -213 73.5t-88 212.5v479h-235v-489q0 -127 -82 -197.5t-193 -70.5q-90 0 -157 24l-21 74q86 -20 146.5 22t60.5 148v489h-86q-74 0 -107.5 -40.5t-13.5 -118.5l-70 37q-31 78 -26.5 144.5
t58.5 111.5t149 45h1015v-179h-192v-526q0 -131 59 -131q23 0 38.5 24.5t24.5 54.5t30.5 54.5t56.5 24.5z" />
    <glyph glyph-name="Wgrave" unicode="&#x1e80;" horiz-adv-x="2088" 
d="M1067 1423q-125 133 -254 219q16 49 70.5 89.5t103.5 40.5q96 -135 141 -310zM606 -16l-432 1142q-25 66 -52.5 83.5t-117.5 33.5v45h590v-45q-6 0 -16.5 -3t-36 -12t-43 -20.5t-26.5 -33t-1 -48.5l281 -786l215 610q41 104 4 188.5t-152 106.5v45h416q0 -84 72 -280
l239 -668l246 696q18 49 19 84t-7 55.5t-36.5 34t-56.5 19.5t-81 14v45h455v-45q-66 -12 -87.5 -19t-44 -28.5t-38.5 -69.5l-414 -1142h-100l-354 944l-340 -946h-101z" />
    <glyph glyph-name="wgrave" unicode="&#x1e81;" horiz-adv-x="1640" 
d="M842 1034q-125 133 -254 219q16 49 70.5 89t103.5 40q96 -135 141 -309zM453 -12l-308 772q-23 53 -47 67.5t-94 20.5v53h506v-53q-94 -12 -111 -37q-12 -18 0 -51l183 -492l166 410q33 82 8 125q-14 25 -35 32t-68 13v53h357q0 -78 37 -176l176 -459l155 391
q25 61 28 99.5t-20.5 56.5t-51 24.5t-83.5 10.5v53h385v-53q-70 -6 -94 -20.5t-47 -67.5l-313 -772h-88l-275 678l-278 -678h-88z" />
    <glyph glyph-name="Wacute" unicode="&#x1e82;" horiz-adv-x="2088" 
d="M1044 1423l-61 39q45 174 141 310q49 0 103.5 -40t70.5 -90q-129 -86 -254 -219zM606 -16l-432 1142q-25 66 -52.5 83.5t-117.5 33.5v45h590v-45q-6 0 -16.5 -3t-36 -12t-43 -20.5t-26.5 -33t-1 -48.5l281 -786l215 610q41 104 4 188.5t-152 106.5v45h416q0 -84 72 -280
l239 -668l246 696q18 49 19 84t-7 55.5t-36.5 34t-56.5 19.5t-81 14v45h455v-45q-66 -12 -87.5 -19t-44 -28.5t-38.5 -69.5l-414 -1142h-100l-354 944l-340 -946h-101z" />
    <glyph glyph-name="wacute" unicode="&#x1e83;" horiz-adv-x="1640" 
d="M819 1034l-61 39q45 174 141 309q49 0 103.5 -39.5t70.5 -89.5q-129 -86 -254 -219zM453 -12l-308 772q-23 53 -47 67.5t-94 20.5v53h506v-53q-94 -12 -111 -37q-12 -18 0 -51l183 -492l166 410q33 82 8 125q-14 25 -35 32t-68 13v53h357q0 -78 37 -176l176 -459l155 391
q25 61 28 99.5t-20.5 56.5t-51 24.5t-83.5 10.5v53h385v-53q-70 -6 -94 -20.5t-47 -67.5l-313 -772h-88l-275 678l-278 -678h-88z" />
    <glyph glyph-name="Wdieresis" unicode="&#x1e84;" horiz-adv-x="2088" 
d="M827 1536q-53 0 -89 37t-36 88t37 87t88.5 36t87 -36t35.5 -87t-36 -88t-87 -37zM1263.5 1536q-51.5 0 -88 37t-36.5 88t36.5 87t88 36t87 -36t35.5 -87t-35.5 -88t-87 -37zM606 -16l-432 1142q-25 66 -52.5 83.5t-117.5 33.5v45h590v-45q-6 0 -16.5 -3t-36 -12
t-43 -20.5t-26.5 -33t-1 -48.5l281 -786l215 610q41 104 4 188.5t-152 106.5v45h416q0 -84 72 -280l239 -668l246 696q18 49 19 84t-7 55.5t-36.5 34t-56.5 19.5t-81 14v45h455v-45q-66 -12 -87.5 -19t-44 -28.5t-38.5 -69.5l-414 -1142h-100l-354 944l-340 -946h-101z" />
    <glyph glyph-name="wdieresis" unicode="&#x1e85;" horiz-adv-x="1640" 
d="M602 1147q-53 0 -89 37t-36 88t37 87t88 36t87 -36t36 -87t-36 -88t-87 -37zM1038.5 1147q-51.5 0 -88.5 37t-37 88t37 87t88.5 36t87 -36t35.5 -87t-35.5 -88t-87 -37zM453 -12l-308 772q-23 53 -47 67.5t-94 20.5v53h506v-53q-94 -12 -111 -37q-12 -18 0 -51l183 -492
l166 410q33 82 8 125q-14 25 -35 32t-68 13v53h357q0 -78 37 -176l176 -459l155 391q25 61 28 99.5t-20.5 56.5t-51 24.5t-83.5 10.5v53h385v-53q-70 -6 -94 -20.5t-47 -67.5l-313 -772h-88l-275 678l-278 -678h-88z" />
    <glyph glyph-name="uni1E9E" unicode="&#x1e9e;" horiz-adv-x="1523" 
d="M1044 713q178 -23 291 -115t113 -248q0 -166 -127 -278.5t-340 -112.5q-162 0 -276 66q-4 113 -35 249h61q57 -139 111.5 -190t128.5 -51q102 0 159.5 70.5t57.5 185.5q0 174 -126 268t-349 94l325 527q-74 35 -200 34q-360 0 -361 -446v-551q0 -49 7.5 -79t32 -46
t36.5 -20t59 -17v-53h-577v53q104 20 131 41q39 33 39 121v520q0 170 49 288t134 176t173 82t193 24q258 0 579 -127z" />
    <glyph glyph-name="uni1EBC" unicode="&#x1ebc;" horiz-adv-x="1228" 
d="M291 1501h-53q-18 106 51 175t172 69q53 0 101 -23.5t77 -51.5t72 -51.5t90 -23.5q51 0 84 33t33 66h53q18 -106 -51.5 -175t-174.5 -69q-53 0 -100 23.5t-75.5 51t-71.5 51t-90 23.5q-51 0 -84 -32.5t-33 -65.5zM1110 315h64l-84 -315h-1045v53q104 20 131 41
q39 33 39 121v860q0 47 -7 76t-36 46t-42 21.5t-69 14.5q-10 2 -16 4v53h1040l19 -299h-64q-14 117 -55 167t-145 50h-162q-121 0 -157 -26.5t-36 -128.5v-363h138q176 0 225 35t59 137h51v-422h-51q-10 102 -59 137t-225 35h-138v-374q0 -102 36 -129t157 -27h119
q121 0 188.5 50t124.5 183z" />
    <glyph glyph-name="uni1EBD" unicode="&#x1ebd;" horiz-adv-x="1013" 
d="M182 1112h-53q-18 106 51.5 175t171.5 69q53 0 101.5 -23.5t77 -51.5t71.5 -51.5t90 -23.5q51 0 84 33t33 66h53q18 -106 -51.5 -175t-173.5 -69q-53 0 -100.5 23.5t-76 51t-71.5 51t-90 23.5q-51 0 -84 -32.5t-33 -65.5zM657 129q164 0 234 98l39 -28
q-37 -102 -137.5 -159.5t-239.5 -57.5q-211 0 -349 127t-138 337q0 213 138 343.5t339 130.5q219 0 327.5 -145.5t47.5 -293.5h-599q14 -160 104.5 -256t233.5 -96zM524 844q-86 0 -144 -74t-63 -213h371q18 111 -24 199t-140 88z" />
    <glyph glyph-name="Ygrave" unicode="&#x1ef2;" horiz-adv-x="1368" 
d="M707 1423q-125 133 -254 219q16 49 70.5 89.5t103.5 40.5q96 -135 141 -310zM942 1290h412v-53q-80 -16 -105.5 -33.5t-74.5 -93.5l-343 -545v-358q0 -51 9.5 -80t42 -45t53 -21.5t86.5 -15.5v-45h-651v45q121 20 149 43q41 31 41 119v328l-368 575q-49 76 -74 93.5
t-105 33.5v53h600v-53q-12 -2 -36.5 -7t-36 -8t-28.5 -9.5t-22.5 -14.5t-9.5 -19.5t2 -28.5t21 -40l287 -459l282 459q20 35 23.5 56.5t-18 33.5t-39 17.5t-64.5 13.5q-23 4 -33 6v53z" />
    <glyph glyph-name="ygrave" unicode="&#x1ef3;" horiz-adv-x="1062" 
d="M559 1034q-125 133 -254 219q16 49 70.5 89t103.5 40q96 -135 142 -309zM719 901h340v-53q-70 -8 -94.5 -22.5t-49.5 -71.5l-352 -820q-131 -309 -305 -309q-70 0 -139 47v150q141 -25 230 -2.5t130 114.5l13 31l-342 787q-27 57 -51.5 72.5t-94.5 23.5v53h508v-53
q-92 -14 -109 -37q-14 -20 3 -59l210 -498l215 500q8 18 9.5 31.5t-6 22.5t-14.5 15t-25.5 11.5t-27.5 6.5t-34 5q-10 2 -14 2v53z" />
    <glyph glyph-name="endash" unicode="&#x2013;" horiz-adv-x="1329" 
d="M86 483v105h1157v-105h-1157z" />
    <glyph glyph-name="emdash" unicode="&#x2014;" horiz-adv-x="1849" 
d="M86 483v105h1677v-105h-1677z" />
    <glyph glyph-name="uni2015" unicode="&#x2015;" horiz-adv-x="1849" 
d="M86 483v105h1677v-105h-1677z" />
    <glyph glyph-name="quoteleft" unicode="&#x2018;" horiz-adv-x="499" 
d="M416 1319l18 -53q-158 -55 -188 -170q-12 -57 39 -88q86 -49 86 -134q0 -59 -43 -101t-107 -42q-66 0 -110.5 50t-44.5 139q0 129 94 246.5t256 152.5z" />
    <glyph glyph-name="quoteright" unicode="&#x2019;" horiz-adv-x="499" 
d="M84 737l-18 54q158 55 188 170q12 57 -39 88q-86 49 -86 133q0 59 43 101t107 42q66 0 110.5 -50t44.5 -138q0 -129 -94 -247t-256 -153z" />
    <glyph glyph-name="quotesinglbase" unicode="&#x201a;" horiz-adv-x="499" 
d="M84 -313l-18 53q158 55 188 170q12 57 -39 88q-86 49 -86 133q0 59 43 101t107 42q66 0 110.5 -50t44.5 -138q0 -129 -94 -246.5t-256 -152.5z" />
    <glyph glyph-name="quotedblleft" unicode="&#x201c;" horiz-adv-x="940" 
d="M416 1319l18 -53q-158 -55 -188 -170q-12 -57 39 -88q86 -49 86 -134q0 -59 -43 -101t-107 -42q-66 0 -110.5 50t-44.5 139q0 129 94 246.5t256 152.5zM856 1319l18 -53q-158 -55 -188 -170q-12 -57 39 -88q86 -49 86 -134q0 -59 -43 -101t-106 -42q-66 0 -111 50
t-45 139q0 129 94 246.5t256 152.5z" />
    <glyph glyph-name="quotedblright" unicode="&#x201d;" horiz-adv-x="940" 
d="M84 737l-18 54q158 55 188 170q12 57 -39 88q-86 49 -86 133q0 59 43 101t107 42q66 0 110.5 -50t44.5 -138q0 -129 -94 -247t-256 -153zM524 737l-18 54q158 55 188 170q12 57 -39 88q-86 49 -86 133q0 59 43 101t107 42q66 0 110.5 -50t44.5 -138q0 -129 -94 -247
t-256 -153z" />
    <glyph glyph-name="quotedblbase" unicode="&#x201e;" horiz-adv-x="940" 
d="M84 -303l-18 53q158 55 188 170q12 57 -39 88q-86 49 -86 133q0 59 43 101.5t107 42.5q66 0 110.5 -50.5t44.5 -138.5q0 -129 -94 -246.5t-256 -152.5zM524 -303l-18 53q158 55 188 170q12 57 -39 88q-86 49 -86 133q0 59 43 101.5t107 42.5q66 0 110.5 -50.5
t44.5 -138.5q0 -129 -94 -246.5t-256 -152.5z" />
    <glyph glyph-name="dagger" unicode="&#x2020;" horiz-adv-x="1085" 
d="M526 2l-100 672l92 133v106q-57 0 -131 -46t-113 -46q-55 0 -91 32t-36 83t36 83t91 32q39 0 113 -47.5t131 -47.5q-2 61 -49 134t-47 110q0 51 33.5 86t87 35t87.5 -35t34 -86q0 -37 -47.5 -109.5t-49.5 -134.5q57 0 131 47.5t113 47.5q55 0 91 -32t36 -83t-36 -83
t-91 -32q-39 0 -112.5 46t-131.5 46v-106l92 -133l-100 -672h-33z" />
    <glyph glyph-name="daggerdbl" unicode="&#x2021;" horiz-adv-x="1103" 
d="M542.5 -35q-53.5 0 -87 35t-33.5 86q0 37 47 109.5t49 134.5q-57 0 -131 -47t-113 -47q-55 0 -91 31.5t-36 82.5t36 83t91 32q39 0 113 -46t131 -46v106l-92 174l92 154v106q-57 0 -131 -46t-113 -46q-55 0 -91 32t-36 83t36 83t91 32q39 0 113 -47.5t131 -47.5
q-2 61 -49 134t-47 110q0 51 33.5 86t87 35t87.5 -35t34 -86q0 -37 -47.5 -109.5t-49.5 -134.5q57 0 131 47.5t113 47.5q55 0 91 -32t36 -83t-36 -83t-91 -32q-39 0 -112.5 46t-131.5 46v-106l92 -154l-92 -174v-106q57 0 131 46t113 46q55 0 91 -32t36 -83t-36 -82.5
t-91 -31.5q-39 0 -112.5 47t-131.5 47q2 -61 49.5 -134t47.5 -110q0 -51 -34 -86t-87.5 -35z" />
    <glyph glyph-name="bullet" unicode="&#x2022;" horiz-adv-x="737" 
d="M368.5 233q-108.5 0 -185.5 77t-77 185.5t77 185.5t185.5 77t185.5 -77t77 -185.5t-77 -185.5t-185.5 -77z" />
    <glyph glyph-name="ellipsis" unicode="&#x2026;" horiz-adv-x="1349" 
d="M236 -20q-61 0 -105.5 43t-44.5 106q0 59 44 102t106 43q59 0 103 -43t44 -102q0 -63 -44 -106t-103 -43zM675.5 -20q-61.5 0 -105.5 43t-44 106q0 59 44 102t106 43q59 0 103 -43t44 -102q0 -63 -43 -106t-104.5 -43zM1116 -20q-61 0 -105 43t-44 106q0 59 44 102
t105 43q59 0 103.5 -43t44.5 -102q0 -63 -44.5 -106t-103.5 -43z" />
    <glyph glyph-name="perthousand" unicode="&#x2030;" horiz-adv-x="2056" 
d="M1096 1290h133l-916 -1290h-116l807 1124q-160 -96 -363 -6q4 -33 4 -53q0 -158 -97 -282t-241 -124q-100 0 -160.5 67t-60.5 175q0 154 104.5 274.5t249.5 120.5q84 0 138 -47q74 -43 123 -66.5t106 -38t101 -3t92.5 47t95.5 101.5zM352 729q86 0 152.5 108.5
t66.5 225.5q0 76 -33.5 121t-86.5 45q-88 0 -144.5 -114t-56.5 -228q0 -72 26.5 -115t75.5 -43zM1137 633q98 0 151 -61.5t53 -170.5q0 -158 -97 -281.5t-240 -123.5q-100 0 -161 66.5t-61 175.5q0 154 105 274.5t250 120.5zM1765 633q98 0 151.5 -61.5t53.5 -170.5
q0 -158 -97 -281.5t-241 -123.5q-100 0 -160.5 66.5t-60.5 175.5q0 154 104.5 274.5t249.5 120.5zM1049 66q86 0 152.5 108.5t66.5 224.5q0 76 -34 121t-87 45q-88 0 -144.5 -113.5t-56.5 -228.5q0 -72 27 -114.5t76 -42.5zM1677 66q86 0 152.5 108.5t66.5 224.5
q0 76 -33.5 121t-86.5 45q-88 0 -144.5 -113.5t-56.5 -228.5q0 -72 26.5 -114.5t75.5 -42.5z" />
    <glyph glyph-name="guilsinglleft" unicode="&#x2039;" horiz-adv-x="512" 
d="M86 455l307 288l33 -28l-174 -260l174 -260l-31 -29z" />
    <glyph glyph-name="guilsinglright" unicode="&#x203a;" horiz-adv-x="512" 
d="M446 455l-309 -289l-31 29l175 260l-175 260l33 28z" />
    <glyph glyph-name="fraction" unicode="&#x2044;" horiz-adv-x="192" 
d="M-375 -10l885 1313h57l-884 -1313h-58z" />
    <glyph glyph-name="Euro" unicode="&#x20ac;" horiz-adv-x="1581" 
d="M1448 195l47 -50q-66 -74 -195 -122t-292 -48q-252 0 -430.5 129t-237.5 342h-254l29 142h200q-2 18 -2 53q0 25 4 70h-178l29 141h176q66 213 251 342t443 129q244 0 402 -94q8 -186 14 -277h-84q-66 289 -354 289q-172 0 -273.5 -103.5t-128.5 -285.5h404l-29 -141
h-385q0 -57 10 -123h351l-29 -142h-287q61 -166 189.5 -263t296.5 -97q213 0 313 109z" />
    <glyph glyph-name="uni210D" unicode="&#x210d;" horiz-adv-x="1503" 
d="M1458 1237q-104 -20 -131 -41q-39 -33 -39 -121v-860q0 -47 7.5 -75.5t36 -46t41.5 -21.5t69 -15q10 -2 16 -4v-53h-1413v53q104 20 131 41q39 33 39 121v860q0 47 -7 76t-36 46t-42 21.5t-69 14.5q-10 2 -16 4v53h1413v-53zM911 1225q-47 -14 -67.5 -44t-20.5 -106v-393
h195v393q0 76 -25 106t-82 44zM485 682h115v393q0 106 -51 135q-63 -29 -64 -135v-393zM549 80q51 29 51 135v389h-115v-389q1 -106 64 -135zM911 66q57 14 82 43.5t25 105.5v389h-195v-389q0 -76 20.5 -105.5t67.5 -43.5z" />
    <glyph glyph-name="trademark" unicode="&#x2122;" horiz-adv-x="1724" 
d="M174 612v39q35 6 47 9.5t30.5 13.5t24 26.5t5.5 44.5v496h-50q-76 0 -107.5 -38t-45.5 -113h-33l10 200h607l10 -200h-35q-12 76 -44 113.5t-104 37.5h-53l2 -496q0 -29 5.5 -45t22.5 -26t29.5 -13.5t47.5 -9.5v-39h-369zM762 612v39q33 6 43 9.5t28.5 13.5t24.5 26.5
t6 44.5v412q0 29 -5 46.5t-24.5 26.5t-27.5 12t-43 9v39h254l207 -463l182 463h270v-39q-4 0 -10 -2q-27 -6 -38 -9t-25.5 -12t-19.5 -26.5t-5 -44.5v-412q0 -29 5 -46t23.5 -26t29 -12.5t42.5 -9.5v-39h-352v39q31 6 42 9.5t27.5 13.5t21.5 26.5t5 44.5l-2 441l-231 -574
h-35l-237 529l2 -396q0 -37 13 -56t29.5 -24.5t59.5 -13.5v-39h-260z" />
    <glyph glyph-name="oneeighth" unicode="&#x215b;" horiz-adv-x="1179" 
d="M332 836v-21h-256v21q45 4 61.5 12t16.5 33v338q0 23 -8.5 29.5t-24.5 2.5l-41 -10v23l158 67l16 -12v-438q0 -25 16.5 -33t61.5 -12zM918 1303h57l-885 -1313h-57zM983 270q111 -47 111 -137q0 -68 -58.5 -110.5t-150.5 -42.5q-86 0 -142.5 38.5t-56.5 104.5
q0 84 90 129q-57 45 -57 110q0 57 48 97.5t124 40.5q72 0 116 -37t44 -86q0 -60 -68 -107zM891 465q-45 0 -66.5 -21.5t-21.5 -52.5q0 -57 88 -88l53 -18q43 35 43 90q0 37 -23.5 63.5t-72.5 26.5zM891 14q106 0 106 88q0 35 -20.5 53.5t-79.5 41.5l-55 20q-20 6 -31 14
q-59 -39 -59 -102q0 -51 36.5 -83t102.5 -32z" />
    <glyph glyph-name="threeeighths" unicode="&#x215c;" horiz-adv-x="1464" 
d="M444 963q0 -76 -69.5 -126.5t-167.5 -50.5q-55 0 -98 15.5t-43 46.5t34 31q18 0 52 -32t69 -32q47 0 86 34t39 91q0 55 -37 83t-92 28q-35 0 -74 -15l-10 25l64 24q66 25 93 46.5t27 58.5q0 66 -83.5 65.5t-131.5 -55.5l-20 17q66 96 188 96q59 0 97.5 -29t38.5 -76
q0 -68 -115 -118q63 -4 108 -35t45 -92zM1087 1303h58l-885 -1313h-57zM1288 270q111 -47 111 -137q0 -68 -58.5 -110.5t-150.5 -42.5q-86 0 -142.5 38.5t-56.5 104.5q0 84 90 129q-57 45 -57 110q0 57 48 97.5t124 40.5q72 0 116 -37t44 -86q0 -60 -68 -107zM1196 465
q-45 0 -66.5 -21.5t-21.5 -52.5q0 -57 88 -88l53 -18q43 35 43 90q0 37 -23.5 63.5t-72.5 26.5zM1196 14q106 0 107 88q0 35 -20.5 53.5t-80.5 41.5l-55 20q-20 6 -31 14q-59 -39 -59 -102q0 -51 36.5 -83t102.5 -32z" />
    <glyph glyph-name="fiveeighths" unicode="&#x215d;" horiz-adv-x="1462" 
d="M446 985q0 -80 -69.5 -133t-169.5 -53q-51 0 -96 15t-45 46t34 31q18 0 53 -32t72 -32q47 0 84 34t37 89q0 129 -231 115l-15 16l80 230h137q80 0 99 24h18l-35 -100h-209l-34 -102q168 10 229 -37.5t61 -110.5zM1085 1303h58l-885 -1313h-57zM1286 270q111 -47 111 -137
q0 -68 -58.5 -110.5t-150.5 -42.5q-86 0 -142.5 38.5t-56.5 104.5q0 84 90 129q-57 45 -57 110q0 57 48 97.5t124 40.5q72 0 116 -37t44 -86q0 -60 -68 -107zM1194 465q-45 0 -66.5 -21.5t-21.5 -52.5q0 -57 88 -88l53 -18q43 35 43 90q0 37 -23.5 63.5t-72.5 26.5zM1194 14
q106 0 106 88q0 35 -20 53.5t-80 41.5l-55 20q-20 6 -31 14q-59 -39 -59 -102q0 -51 36.5 -83t102.5 -32z" />
    <glyph glyph-name="seveneighths" unicode="&#x215e;" horiz-adv-x="1380" 
d="M207 815h-68q59 195 215 436h-170q-29 0 -42 -3t-29.5 -16t-28.5 -40h-18l43 135l36 -8h273l10 -12q-164 -250 -221 -492zM1034 1303h58l-885 -1313h-57zM1235 270q111 -47 111 -137q0 -68 -58.5 -110.5t-150.5 -42.5q-86 0 -142.5 38.5t-56.5 104.5q0 84 90 129
q-57 45 -57 110q0 57 48 97.5t124 40.5q72 0 116 -37t44 -86q0 -60 -68 -107zM1143 465q-45 0 -66.5 -21.5t-21.5 -52.5q0 -57 88 -88l53 -18q43 35 43 90q0 37 -23.5 63.5t-72.5 26.5zM1143 14q106 0 106 88q0 35 -20.5 53.5t-79.5 41.5l-55 20q-20 6 -31 14
q-59 -39 -59 -102q0 -51 36.5 -83t102.5 -32z" />
    <glyph glyph-name="partialdiff" unicode="&#x2202;" horiz-adv-x="1153" 
d="M590 -25q-225 0 -364.5 132.5t-139.5 326.5q0 121 59.5 215t150.5 138t198.5 51.5t205.5 -45.5v-60q-180 39 -269 -56t-89 -278q0 -150 57.5 -251t175.5 -101q129 0 190.5 123t61.5 322q0 342 -158.5 534.5t-381.5 212.5l35 66q184 -10 357 -107.5t290.5 -276
t117.5 -395.5q2 -240 -126.5 -395.5t-370.5 -155.5z" />
    <glyph glyph-name="emptyset" unicode="&#x2205;" horiz-adv-x="1067" 
d="M1001 864l-110 -110q111 -131 110 -303q0 -195 -136 -332t-330 -137q-170 0 -304 112l-112 -112l-53 55l110 110q-109 131 -108 304q0 193 136 330t331 137q170 0 301 -111l112 113zM150 451q0 -137 86 -244l542 543q-106 86 -243 86q-162 0 -273.5 -111.5t-111.5 -273.5
zM920 451q0 137 -86 245l-545 -544q104 -88 246 -89q162 0 273.5 113t111.5 275z" />
    <glyph glyph-name="product" unicode="&#x220f;" horiz-adv-x="1294" 
d="M1167 1638v-2048h-161v1887h-717v-1887h-162v2048h1040z" />
    <glyph glyph-name="summation" unicode="&#x2211;" horiz-adv-x="1134" 
d="M1008 1638v-161h-674l592 -865l-592 -860h674v-162h-881v162l594 862l-594 863v161h881z" />
    <glyph glyph-name="minus" unicode="&#x2212;" horiz-adv-x="1011" 
d="M127 434v162h758v-162h-758z" />
    <glyph glyph-name="radical" unicode="&#x221a;" horiz-adv-x="1587" 
d="M575 -410l-319 672q-39 82 -76 114t-114 60v78h299l311 -670l663 1796h244v-90q-92 -27 -133 -62.5t-80 -135.5l-657 -1762h-138z" />
    <glyph glyph-name="infinity" unicode="&#x221e;" horiz-adv-x="1386" 
d="M420 94q-150 0 -252 123t-102 315q0 178 93 289t222 111q164 0 281 -184q121 186 307 186q150 0 251 -123t101 -315q0 -178 -92 -289t-221 -111q-164 0 -281 185q-119 -187 -307 -187zM344 309q139 0 205 172l65 178q-90 115 -225 115q-96 0 -165.5 -58.5t-69.5 -183.5
q0 -115 55 -169t135 -54zM999 254q96 0 166 58.5t70 183.5q0 115 -55.5 169t-135.5 54q-141 0 -204 -174l-66 -176q90 -115 225 -115z" />
    <glyph glyph-name="integral" unicode="&#x222b;" horiz-adv-x="1470" 
d="M266.5 -358q-196.5 0 -231.5 131q6 53 63.5 93t128.5 48q35 -176 133 -176q61 0 113.5 55t71.5 199l106 889q31 248 194 385t359.5 137t231.5 -131q-6 -53 -63.5 -93t-129.5 -49q-35 176 -133 177q-61 0 -113.5 -55.5t-70.5 -198.5l-107 -889q-31 -248 -193.5 -385
t-359 -137z" />
    <glyph glyph-name="approxequal" unicode="&#x2248;" horiz-adv-x="1165" 
d="M678 543q-82 0 -147.5 37.5t-126 74.5t-130.5 37q-61 0 -101 -32.5t-40 -65.5h-47q-20 106 55.5 175t196.5 69q100 0 212 -75t191 -75q61 0 101.5 33t40.5 65h49q20 -106 -56.5 -174.5t-197.5 -68.5zM678 195q-82 0 -147.5 37.5t-126 74.5t-130.5 37q-61 0 -101 -32.5
t-40 -65.5h-47q-20 106 55.5 174.5t196.5 68.5q100 0 212 -74.5t191 -74.5q61 0 101.5 33t40.5 65h49q20 -106 -56.5 -174.5t-197.5 -68.5z" />
    <glyph glyph-name="notequal" unicode="&#x2260;" horiz-adv-x="1011" 
d="M885 618h-248l-86 -206h334v-162h-402l-104 -250h-170l104 250h-186v162h254l86 206h-340v162h408l98 236h170l-98 -236h180v-162z" />
    <glyph glyph-name="lessequal" unicode="&#x2264;" horiz-adv-x="1021" 
d="M895 250q-348 190 -768 350v162q420 160 768 350v-190q-285 -147 -578 -240q176 -57 296 -107.5t282 -134.5v-190zM895 -18h-758v161h758v-161z" />
    <glyph glyph-name="greaterequal" unicode="&#x2265;" horiz-adv-x="1021" 
d="M127 250v190q162 84 281.5 134.5t296.5 107.5q-293 92 -578 240v190q348 -190 768 -350v-162q-420 -160 -768 -350zM127 -18v161h758v-161h-758z" />
    <glyph glyph-name="lozenge" unicode="&#x25ca;" horiz-adv-x="1220" 
d="M610 -37l-524 672l524 674l525 -674zM610 119l398 516l-398 518l-397 -518z" />
    <glyph glyph-name="M.aalt" horiz-adv-x="1746" 
d="M1530 215q0 -47 8 -75.5t36 -46t43 -21.5t66 -15q12 -2 19 -4v-53h-610v53q104 20 129 41q39 33 39 121l-3 895l-436 -1110h-61l-445 1030v-815q0 -49 9.5 -79t41 -46t50 -21.5t80.5 -15.5v-53h-451v53q109 20 135 41q41 35 41 121v860q0 47 -8 76t-35.5 46t-43 21.5
t-66.5 14.5q-12 2 -19 4v53h440q4 -27 64 -157l328 -762l295 762q51 135 55 157h467v-53q-104 -20 -129 -41q-39 -33 -39 -121v-860z" />
    <glyph glyph-name="W.aalt" horiz-adv-x="1892" 
d="M1499 1290h389v-53q-63 -12 -85.5 -19.5t-44 -29t-40.5 -68.5l-477 -1134h-96l-201 475l-201 -475h-88l-481 1136q-29 66 -55.5 82.5t-114.5 32.5v53h1387v-53q-63 -12 -86 -19.5t-44.5 -29t-39.5 -68.5l-129 -309l202 -492l330 803q8 18 10 33.5t-4 26t-11 17.5
t-22.5 13.5t-26.5 9.5t-35 8t-36 7v53zM801 330l98 237l-235 555q-29 68 -52.5 90.5t-64.5 22.5q-43 0 -70.5 -26.5t-3.5 -86.5zM1044 1235q-47 0 -76.5 -26.5t-4.5 -86.5l81 -198l82 198q25 59 -6 86t-76 27z" />
    <glyph glyph-name="i.aalt" horiz-adv-x="606" 
d="M292.5 1061q-59.5 0 -104.5 43t-45 102.5t44 101.5t105.5 42t105.5 -42t44 -101.5t-45 -102.5t-104.5 -43zM45 0v53q41 8 59.5 12.5t40 16.5t28.5 32.5t7 53.5v469q0 61 -25.5 90t-109.5 39v49q213 37 338 119l43 -39v-727q0 -33 7 -53.5t28.5 -32.5t40 -16.5t59.5 -12.5
v-53h-516z" />
    <glyph glyph-name="T_h.dlig" horiz-adv-x="2408" 
d="M2238 168q0 -33 7.5 -53.5t29 -32.5t40 -16.5t59.5 -12.5v-53h-502v53q37 8 51 12.5t34.5 16.5t28 32.5t7.5 53.5v416q0 188 -142 188q-115 0 -213 -117v-487q0 -33 7.5 -53.5t28 -32.5t34.5 -16.5t51 -12.5v-53h-516v53q59 10 84 17.5t45.5 31t20.5 66.5v776
q0 145 -57.5 207.5t-241.5 62.5h-267v-999q0 -49 9.5 -79t41 -46t51 -21.5t83.5 -15.5v-53h-639v53q63 10 82.5 15.5t51.5 21.5t41 46t9 79v999h-156q-160 0 -221 -63.5t-84 -206.5h-51l16 367l113 -21h1069q203 29 354 117l41 -39v-633q78 88 156 136.5t184 48.5
q260 0 260 -316v-436z" />
    <glyph glyph-name="f_b.dlig" horiz-adv-x="1894" 
d="M1452 920q152 0 264.5 -120t112.5 -323q0 -227 -149.5 -361t-372.5 -134q-203 0 -312.5 95t-109.5 249v796q0 82 -62.5 139.5t-179.5 57.5q-201 0 -201 -256v-160l232 23q-10 -49 -10 -109h-222v-649q0 -61 48.5 -81.5t164.5 -33.5v-53h-620v53q43 6 63.5 11.5t45 17.5
t34.5 32.5t10 53.5v649h-153v53l153 31q2 250 156 381t397 131q252 0 392 -72v-622q49 86 133 143.5t186 57.5zM1329 57q111 0 176.5 94.5t65.5 262.5q0 160 -62.5 263t-169.5 103q-129 0 -206 -143v-336q0 -94 47 -169t149 -75z" />
    <glyph glyph-name="f_h.dlig" horiz-adv-x="1916" 
d="M1757 168q0 -43 17.5 -66.5t38 -31t69.5 -17.5v-53h-493v53q49 10 68.5 17.5t36.5 31t17 66.5v416q0 190 -135 190q-111 0 -246 -115v-491q0 -43 20.5 -66.5t45.5 -31t84 -17.5v-53h-545v53q59 10 84 17.5t45.5 31t20.5 66.5v954q0 82 -62.5 139.5t-179.5 57.5
q-201 0 -201 -256v-160l232 23q-10 -49 -10 -109h-222v-649q0 -61 48.5 -81.5t164.5 -33.5v-53h-620v53q43 6 63.5 11.5t45 17.5t34.5 32.5t10 53.5v649h-153v53l153 31q2 250 156 381t397 131q252 0 389 -72v-614h7q174 193 360 193q260 0 260 -316v-436z" />
    <glyph glyph-name="f_j.dlig" horiz-adv-x="1292" 
d="M442 168q0 -61 48.5 -81.5t164.5 -33.5v-53h-620v53q43 6 63.5 11.5t45 17.5t34.5 32.5t10 53.5v649h-153v53l153 31q8 168 104.5 290t229.5 177t281 55q49 0 102 -7t123 -24.5t114 -60.5t44 -104q0 -59 -45 -102.5t-104.5 -43.5t-104.5 43t-45 103v2v8q4 59 -16.5 86
t-86.5 27q-55 0 -111.5 -21.5t-109.5 -66.5t-87 -128t-34 -194v-35l191 21q-10 -49 -10 -109h-181v-649zM788 815q213 37 338 119l43 -39v-930q0 -86 -43 -152.5t-112.5 -104.5t-134 -58.5t-131.5 -28.5q-16 31 0 62q96 33 136 102.5t40 206.5v645q0 61 -26 90t-110 39v49z
" />
    <glyph glyph-name="f_k.dlig" horiz-adv-x="1906" 
d="M1722 127q27 -37 60 -50.5t110 -21.5v-55h-397q0 66 -37 117l-223 321l-105 -100v-170q0 -43 20.5 -66.5t45.5 -31t84 -17.5v-53h-545v53q59 10 84 17.5t45.5 31t20.5 66.5v954q0 82 -62.5 139.5t-179.5 57.5q-201 0 -201 -256v-160l232 23q-10 -49 -10 -109h-222v-649
q0 -61 48.5 -81.5t164.5 -33.5v-53h-620v53q43 6 63.5 11.5t45 17.5t34.5 32.5t10 53.5v649h-153v53l153 31q2 250 156 381t397 131q252 0 389 -72v-888l302 286q96 90 -72 107v55h428v-55q-88 -6 -140.5 -34t-111.5 -83l-143 -137z" />
    <glyph glyph-name="t_t.dlig" horiz-adv-x="1482" 
d="M1184 236q0 -170 264 -74v-56q-156 -84 -326 -126q-82 0 -133 51t-51 119v667h-492v-581q0 -51 26 -78t67 -26t85 13.5t87 36.5v-55q-119 -94 -326 -147q-82 0 -133 51t-51 119v667h-166v66q207 74 344 209h67v-211l330 -2q195 72 340 213h68v-199l264 27
q-10 -49 -10 -103h-254v-581z" />
    <glyph glyph-name="zero.lnum" horiz-adv-x="1265" 
d="M629 -18q-246 0 -394.5 184t-148.5 471q0 289 150.5 478.5t400.5 189.5q246 0 394.5 -184.5t148.5 -473.5q0 -287 -150.5 -476t-400.5 -189zM664 59q238 0 237 527q0 289 -76.5 465t-222.5 176q-238 0 -237 -529q0 -289 77 -464t222 -175z" />
    <glyph glyph-name="one.lnum" horiz-adv-x="796" 
d="M76 0v53q117 14 155.5 32.5t38.5 82.5v872q0 53 -20.5 71.5t-63.5 8.5l-102 -22v53l401 172l41 -33v-1122q0 -63 39 -81.5t156 -33.5v-53h-645z" />
    <glyph glyph-name="two.lnum" horiz-adv-x="1155" 
d="M82 0l-16 55q27 25 114.5 100.5t123.5 106.5t110.5 101.5t109.5 109.5t87.5 103.5t76 110.5t43 102.5t19.5 107.5q0 102 -61.5 174t-182.5 72q-213 0 -340 -217l-62 35q66 166 203 255t301 89q178 0 298 -102.5t120 -258.5q0 -98 -52 -197.5t-140.5 -185.5t-170 -151.5
t-179 -135t-130.5 -98.5h344q137 0 208 34t118 152h66l-107 -403h-65l-5 41h-831z" />
    <glyph glyph-name="three.lnum" horiz-adv-x="1081" 
d="M412 -25q-84 0 -162 14.5t-136.5 51.5t-58.5 90q0 37 25.5 58.5t62.5 21.5t72 -25.5t60.5 -55.5t72.5 -55.5t105 -25.5q117 0 214 85t97 231q0 137 -92 206.5t-232 69.5q-88 0 -188 -35l-23 62l158 65q172 72 239.5 123t67.5 137q0 80 -57 124t-158 44q-207 0 -332 -141
l-49 41q80 121 209 182.5t266 61.5q154 0 248 -71t94 -190q0 -102 -72.5 -171.5t-215.5 -129.5q100 -6 183 -36.5t144.5 -104.5t61.5 -180q0 -195 -178 -321t-426 -126z" />
    <glyph glyph-name="four.lnum" horiz-adv-x="1114" 
d="M1028 348h-174v-180q0 -43 21.5 -66.5t51 -31t101.5 -17.5v-53h-604v53q72 10 101.5 17.5t51 31t21.5 66.5v180h-520l-33 47l717 916h92v-862h195zM176 449h422v544z" />
    <glyph glyph-name="five.lnum" horiz-adv-x="1044" 
d="M260 807q190 25 318.5 3t206 -92.5t110.5 -147t33 -158.5q0 -178 -149.5 -307.5t-375.5 -129.5q-121 0 -229 39t-108 117q0 37 25.5 58.5t62 21.5t67.5 -25.5t52.5 -55.5t61.5 -55.5t91 -25.5q102 0 177 83t75 210q0 72 -26.5 137.5t-87 120.5t-158 70.5t-236.5 -13.5
l-37 39l209 594h344q113 0 163 9.5t83 52.5h47l-86 -256h-531z" />
    <glyph glyph-name="six.lnum" horiz-adv-x="1153" 
d="M584 -25q-242 0 -371 156t-127 395q0 217 118 395.5t291 275.5t357 108l35 -66q-223 -20 -382 -212.5t-159 -534.5q0 -199 61.5 -322t190.5 -123q119 0 176 101.5t57 250.5q0 182 -89 277.5t-269 56.5v60q98 53 205.5 45.5t199 -51.5t150.5 -138t59 -215
q0 -195 -139 -327t-364 -132z" />
    <glyph glyph-name="seven.lnum" horiz-adv-x="1042" 
d="M985 1290l23 -30q-412 -612 -564 -1260h-188q162 520 539 1096h-414q-113 0 -165 -24.5t-99 -127.5h-51l116 381h51l5 -35h747z" />
    <glyph glyph-name="eight.lnum" horiz-adv-x="1148" 
d="M791 707q272 -119 272 -349q0 -170 -144.5 -278.5t-357.5 -108.5q-201 0 -338 98.5t-137 262.5q0 207 217 332q-135 115 -135 276q0 147 119 248.5t293 101.5q160 0 266 -92t106 -219q1 -155 -161 -272zM580 1212q-96 0 -146.5 -58t-50.5 -136q0 -162 192 -232l115 -41
q104 92 105 226q0 94 -54.5 167.5t-160.5 73.5zM575 49q115 0 178.5 63.5t63.5 170.5q0 90 -50 144t-173 99l-141 52q-35 12 -64 28q-135 -100 -135 -258q0 -129 90 -214t231 -85z" />
    <glyph glyph-name="nine.lnum" horiz-adv-x="1153" 
d="M569 1305q242 0 371 -156t127 -395q0 -217 -118 -395.5t-291 -275.5t-357 -108l-35 66q223 20 382 212.5t159 534.5q0 199 -61.5 322t-190.5 123q-119 0 -176 -101.5t-57 -250.5q0 -182 89 -277.5t269 -56.5v-60q-98 -53 -205.5 -45.5t-199 51.5t-150.5 138t-59 215
q0 195 139 327t364 132z" />
    <glyph glyph-name="zero.tnum" horiz-adv-x="1196" 
d="M594 -18q-246 0 -394.5 184t-148.5 471q0 289 150.5 478.5t400.5 189.5q246 0 394.5 -184.5t148.5 -473.5q0 -287 -150.5 -476t-400.5 -189zM629 59q238 0 237 527q0 289 -76.5 465t-222.5 176q-238 0 -237 -529q0 -289 77 -464t222 -175z" />
    <glyph glyph-name="one.tnum" horiz-adv-x="1196" 
d="M233 0v53q147 14 191.5 32.5t44.5 82.5v872q0 53 -20.5 71.5t-63.5 8.5l-143 -22v53l442 172l41 -33v-1122q0 -63 44 -81.5t192 -33.5v-53h-728z" />
    <glyph glyph-name="two.tnum" horiz-adv-x="1196" 
d="M90 0l-16 55q27 25 114.5 100.5t123.5 106.5t111 101.5t109.5 109.5t87 103.5t76 110.5t43 102.5t19.5 107.5q0 102 -61.5 174t-182.5 72q-213 0 -340 -217l-61 35q66 166 203 255t300 89q178 0 298 -102.5t120 -258.5q0 -98 -52 -197.5t-140 -185.5t-170 -151.5
t-179.5 -135t-130.5 -98.5h345q137 0 207.5 34t117.5 152h66l-107 -403h-65l-4 41h-832z" />
    <glyph glyph-name="three.tnum" horiz-adv-x="1196" 
d="M483 -25q-84 0 -161.5 14.5t-136 51.5t-58.5 90q0 37 25.5 58.5t62.5 21.5t72 -25.5t60.5 -55.5t72.5 -55.5t104 -25.5q117 0 214.5 85t97.5 231q0 137 -92.5 206.5t-231.5 69.5q-88 0 -188 -35l-23 62l158 65q172 72 239.5 123t67.5 137q0 80 -57.5 124t-157.5 44
q-207 0 -332 -141l-49 41q80 121 209 182.5t266 61.5q154 0 248 -71t94 -190q0 -102 -72.5 -171.5t-216.5 -129.5q100 -6 183.5 -36.5t144.5 -104.5t61 -180q0 -195 -178 -321t-426 -126z" />
    <glyph glyph-name="four.tnum" horiz-adv-x="1196" 
d="M1038 348h-174v-180q0 -43 21.5 -66.5t51.5 -31t101 -17.5v-53h-604v53q72 10 101.5 17.5t51 31t21.5 66.5v180h-520l-33 47l717 916h92v-862h195zM186 449h422v544z" />
    <glyph glyph-name="five.tnum" horiz-adv-x="1196" 
d="M295 807q190 25 318 3t206 -92.5t111 -147t33 -158.5q0 -178 -149.5 -307.5t-375.5 -129.5q-121 0 -229.5 39t-108.5 117q0 37 26 58.5t62.5 21.5t67.5 -25.5t52.5 -55.5t61.5 -55.5t91 -25.5q102 0 177 83t75 210q0 72 -27 137.5t-87 120.5t-157.5 70.5t-236.5 -13.5
l-37 39l209 594h344q113 0 163 9.5t83 52.5h47l-86 -256h-531z" />
    <glyph glyph-name="six.tnum" horiz-adv-x="1196" 
d="M584 -25q-242 0 -371 156t-127 395q0 217 118 395.5t291 275.5t357 108l35 -66q-223 -20 -382 -212.5t-159 -534.5q0 -199 61.5 -322t190.5 -123q119 0 176 101.5t57 250.5q0 182 -89 277.5t-269 56.5v60q98 53 205.5 45.5t199 -51.5t150.5 -138t59 -215
q0 -195 -139 -327t-364 -132z" />
    <glyph glyph-name="seven.tnum" horiz-adv-x="1196" 
d="M1057 1290l22 -30q-412 -612 -563 -1260h-188q162 520 538 1096h-413q-113 0 -165 -24.5t-100 -127.5h-51l117 381h51l4 -35h748z" />
    <glyph glyph-name="eight.tnum" horiz-adv-x="1196" 
d="M813 707q272 -119 272 -349q0 -170 -144 -278.5t-357 -108.5q-201 0 -338 98.5t-137 262.5q0 207 217 332q-135 115 -136 276q0 147 119 248.5t293 101.5q160 0 266.5 -92t106.5 -219q0 -155 -162 -272zM602 1212q-96 0 -146 -58t-50 -136q0 -162 192 -232l115 -41
q104 92 104 226q0 94 -54.5 167.5t-160.5 73.5zM598 49q115 0 178.5 63.5t63.5 170.5q0 90 -50.5 144t-173.5 99l-141 52q-35 12 -63 28q-135 -100 -136 -258q0 -129 90.5 -214t231.5 -85z" />
    <glyph glyph-name="nine.tnum" horiz-adv-x="1196" 
d="M604 1305q242 0 371 -156t127 -395q0 -217 -118 -395.5t-291 -275.5t-357 -108l-35 66q223 20 382 212.5t159 534.5q0 199 -61.5 322t-190.5 123q-119 0 -176.5 -101.5t-57.5 -250.5q0 -182 89.5 -277.5t269.5 -56.5v-60q-98 -53 -206 -45.5t-199 51.5t-150.5 138
t-59.5 215q0 195 139.5 327t364.5 132z" />
    <glyph glyph-name="zero.dnom" horiz-adv-x="573" 
d="M285 -20q-98 0 -158.5 73.5t-60.5 186.5q0 115 61 190.5t162 75.5q98 0 158.5 -74t60.5 -188.5t-61.5 -189t-161.5 -74.5zM299 12q96 0 96 207q0 115 -31.5 184.5t-89.5 69.5q-96 0 -96 -209q0 -113 32 -182.5t89 -69.5z" />
    <glyph glyph-name="one.dnom" horiz-adv-x="407" 
d="M76 0v20q45 4 61.5 12.5t16.5 33.5v337q0 23 -8.5 30t-24.5 3l-41 -10v23l158 67l16 -12v-438q0 -25 16.5 -33t61.5 -13v-20h-256z" />
    <glyph glyph-name="two.dnom" horiz-adv-x="536" 
d="M72 0l-6 23q10 8 40.5 34.5t43 36.5t39 35t40 39t34 36.5t30.5 39t21.5 36t16.5 38t5 36.5q0 41 -24.5 70t-71.5 29q-84 0 -136 -86l-22 14q25 63 79 99t120 36q72 0 118.5 -41t46.5 -102q0 -47 -34.5 -98.5t-71.5 -82t-93.5 -72.5t-66.5 -50h135q55 0 83 13t46 60h27
l-39 -143h-360z" />
    <glyph glyph-name="three.dnom" horiz-adv-x="509" 
d="M207 -20q-55 0 -98 15t-43 46t34 31q18 0 52 -32t69 -32q47 0 86 34t39 91q0 55 -37 83t-92 28q-35 0 -74 -15l-10 25l64 25q66 25 93 46t27 58q0 66 -83.5 66t-131.5 -56l-20 17q66 96 188 96q59 0 97.5 -28.5t38.5 -76.5q0 -68 -115 -118q63 -4 108 -35t45 -92
q0 -76 -69.5 -126t-167.5 -50z" />
    <glyph glyph-name="four.dnom" horiz-adv-x="518" 
d="M377 66q0 -25 15.5 -33t60.5 -13v-20h-254v20q45 4 60 12.5t15 33.5v69h-221l-8 41l238 328h94v-328h76l-9 -41h-67v-69zM86 176h188v260z" />
    <glyph glyph-name="five.dnom" horiz-adv-x="512" 
d="M156 313q168 10 229 -37t61 -110q0 -80 -69.5 -133t-169.5 -53q-51 0 -96 15t-45 46t34 31q18 0 53 -32t72 -32q47 0 84 34t37 89q0 129 -231 115l-15 16l80 230h137q80 0 99 24h18l-35 -100h-209z" />
    <glyph glyph-name="six.dnom" horiz-adv-x="569" 
d="M295 -20q-96 0 -153.5 61t-55.5 156q2 127 99.5 215t213.5 94l15 -27q-90 -8 -157 -85t-67 -210q0 -78 29 -126t80 -48q49 0 74.5 40t25.5 102q0 150 -155 139v26q94 29 177 -15t83 -138q0 -80 -59.5 -132t-149.5 -52z" />
    <glyph glyph-name="seven.dnom" horiz-adv-x="462" 
d="M418 504l10 -12q-164 -250 -221 -492h-68q59 195 215 436h-170q-29 0 -42 -3t-29.5 -16.5t-28.5 -39.5h-18l43 135l36 -8h273z" />
    <glyph glyph-name="eight.dnom" horiz-adv-x="579" 
d="M383 270q111 -47 111 -137q0 -68 -58.5 -110.5t-150.5 -42.5q-86 0 -142.5 38.5t-56.5 104.5q0 84 90 129q-57 45 -57 110q0 57 48 97.5t124 40.5q72 0 116 -37t44 -86q0 -60 -68 -107zM291 465q-45 0 -66.5 -21.5t-21.5 -52.5q0 -57 88 -88l53 -18q43 35 43 90
q0 37 -23.5 63.5t-72.5 26.5zM291 14q106 0 106 88q0 35 -20.5 53.5t-79.5 41.5l-55 20q-20 6 -31 14q-59 -39 -59 -102q0 -51 36.5 -83t102.5 -32z" />
    <glyph glyph-name="nine.dnom" horiz-adv-x="569" 
d="M274 498q96 0 153.5 -61.5t55.5 -155.5q-2 -127 -99 -215.5t-214 -94.5l-14 27q90 8 156.5 85t66.5 210q0 78 -28.5 126t-80.5 48q-49 0 -74.5 -40t-25.5 -101q0 -150 156 -140v-26q-94 -29 -177 15t-83 138q0 80 59 132.5t149 52.5z" />
    <glyph glyph-name="zero.numr" horiz-adv-x="573" 
d="M285 797q-98 0 -158.5 73.5t-60.5 186.5q0 115 61 190.5t162 75.5q98 0 158.5 -73.5t60.5 -188.5t-61.5 -189.5t-161.5 -74.5zM299 829q96 0 96 207q0 115 -31.5 184.5t-89.5 69.5q-96 0 -96 -209q0 -113 32 -182.5t89 -69.5z" />
    <glyph glyph-name="one.numr" horiz-adv-x="407" 
d="M76 815v21q45 4 61.5 12t16.5 33v338q0 23 -8.5 29.5t-24.5 2.5l-41 -10v23l158 67l16 -12v-438q0 -25 16.5 -33t61.5 -12v-21h-256z" />
    <glyph glyph-name="two.numr" horiz-adv-x="536" 
d="M72 805l-6 22q10 8 40.5 35t43 37t39 34.5t40 39t34 37t30.5 39t21.5 36t16.5 38t5 36.5q0 41 -24.5 69.5t-71.5 28.5q-84 0 -136 -86l-22 15q25 63 79 99t120 36q72 0 118.5 -41t46.5 -102q0 -47 -34.5 -98.5t-71.5 -82t-93.5 -72.5t-66.5 -51h135q55 0 83 13.5t46 60.5
h27l-39 -143h-360z" />
    <glyph glyph-name="three.numr" horiz-adv-x="509" 
d="M207 786q-55 0 -98 15.5t-43 46.5t34 31q18 0 52 -32t69 -32q47 0 86 34t39 91q0 55 -37 83t-92 28q-35 0 -74 -15l-10 25l64 24q66 25 93 46.5t27 58.5q0 66 -83.5 65.5t-131.5 -55.5l-20 17q66 96 188 96q59 0 97.5 -29t38.5 -76q0 -68 -115 -118q63 -4 108 -35t45 -92
q0 -76 -69.5 -126.5t-167.5 -50.5z" />
    <glyph glyph-name="four.numr" horiz-adv-x="518" 
d="M377 866q0 -25 15.5 -33t60.5 -12v-20h-254v20q45 4 60 12.5t15 32.5v70h-221l-8 41l238 328h94v-328h76l-9 -41h-67v-70zM86 977h188v260z" />
    <glyph glyph-name="five.numr" horiz-adv-x="512" 
d="M156 1133q168 10 229 -37t61 -111q0 -80 -69.5 -133t-169.5 -53q-51 0 -96 15t-45 46t34 31q18 0 53 -32t72 -32q47 0 84 34t37 89q0 129 -231 115l-15 16l80 230h137q80 0 99 24h18l-35 -100h-209z" />
    <glyph glyph-name="six.numr" horiz-adv-x="569" 
d="M295 784q-96 0 -153.5 61.5t-55.5 155.5q2 127 99.5 215.5t213.5 94.5l15 -27q-90 -8 -157 -85t-67 -210q0 -78 29 -126t80 -48q49 0 74.5 40t25.5 101q0 150 -155 140v26q94 29 177 -15t83 -138q0 -80 -59.5 -132.5t-149.5 -52.5z" />
    <glyph glyph-name="seven.numr" horiz-adv-x="462" 
d="M418 1319l10 -12q-164 -250 -221 -492h-68q59 195 215 436h-170q-29 0 -42 -3t-29.5 -16t-28.5 -40h-18l43 135l36 -8h273z" />
    <glyph glyph-name="eight.numr" horiz-adv-x="579" 
d="M383 1085q111 -47 111 -137q0 -68 -58.5 -110.5t-150.5 -42.5q-86 0 -142.5 38.5t-56.5 104.5q0 84 90 129q-57 45 -57 111q0 57 48 97t124 40q72 0 116 -37t44 -86q0 -60 -68 -107zM291 1280q-45 0 -66.5 -21.5t-21.5 -52.5q0 -57 88 -88l53 -18q43 35 43 90
q0 37 -23.5 63.5t-72.5 26.5zM291 829q106 0 106 89q0 35 -20.5 53t-79.5 41l-55 20q-20 6 -31 15q-59 -39 -59 -103q0 -51 36.5 -83t102.5 -32z" />
    <glyph glyph-name="nine.numr" horiz-adv-x="569" 
d="M274 1305q96 0 153.5 -61.5t55.5 -156.5q-2 -127 -99 -215t-214 -94l-14 27q90 8 156.5 85t66.5 210q0 78 -28.5 126t-80.5 48q-49 0 -74.5 -40t-25.5 -101q0 -150 156 -140v-26q-94 -29 -177 15t-83 138q0 80 59 132.5t149 52.5z" />
    </font>
</defs>
</svg>
